<?xml version="1.0" encoding="utf-8"?>
<!-- Generator: Adobe Illustrator 25.2.0, SVG Export Plug-In . SVG Version: 6.00 Build 0)  -->
<svg version="1.2" baseProfile="tiny" id="Laag_1" xmlns="http://www.w3.org/2000/svg" xmlns:xlink="http://www.w3.org/1999/xlink"
	 x="0px" y="0px" viewBox="0 0 809 505" overflow="visible" xml:space="preserve">
<rect x="0.4" fill="#B06E2C" width="808.6" height="505"/>
<rect x="0.4" y="-0.3" fill="#A5A5A5" width="809" height="17.3"/>
<g transform="translate(-1.4374 .30535)">
	<ellipse fill="#7986CB" cx="560.7" cy="8.2" rx="4.7" ry="4.7"/>
	<ellipse fill="#7986CB" cx="547.2" cy="8.2" rx="4.7" ry="4.7"/>
	<ellipse fill="#7986CB" cx="534" cy="8.2" rx="4.7" ry="4.7"/>
</g>
<rect x="1689.4" y="112" fill-rule="evenodd" fill="#ECEFF1" width="65.6" height="262"/>
<g>
	<g>
		<g>
			<path fill-rule="evenodd" fill="#263238" d="M1285.9,112H1677c3.3,0,5.9,2.6,5.9,5.9v237.7c0,3.3-2.6,5.9-5.9,5.9h-391.1
				c-3.3,0-5.9-2.6-5.9-5.9V117.9C1280,114.6,1282.6,112,1285.9,112z"/>
			<g transform="translate(-4.2952 -5.3213)">
				<circle fill-rule="evenodd" fill="#FFFFFF" cx="1485.8" cy="232.3" r="54.7"/>
				<circle fill-rule="evenodd" fill="#263238" cx="1485.8" cy="232.3" r="47.5"/>
				<g>
					<path fill="#FFFFFF" d="M1467.1,262.3l50.7-29.3l-50.2-29.3L1467.1,262.3z"/>
				</g>
			</g>
		</g>
		<path fill-rule="evenodd" fill="#455A64" d="M1285.4,342h392.1c3,0,5.4,2.4,5.4,5.4v21.2c0,3-2.4,5.4-5.4,5.4h-392.1
			c-3,0-5.4-2.4-5.4-5.4v-21.2C1280,344.4,1282.4,342,1285.4,342z"/>
		<g>
			<path fill="#FFFFFF" d="M1301,368.5l16.9-9.8l-16.7-9.8L1301,368.5z"/>
		</g>
		<path fill-rule="evenodd" fill="#263238" d="M1334.7,354.2h165.2c2.5,0,4.5,2,4.5,4.5l0,0c0,2.5-2,4.5-4.5,4.5h-165.2
			c-2.5,0-4.5-2-4.5-4.5l0,0C1330.1,356.2,1332.2,354.2,1334.7,354.2z"/>
		<path fill-rule="evenodd" fill="#546E7A" d="M1334.7,354.2h101.8c2.5,0,4.5,2,4.5,4.5l0,0c0,2.5-2,4.5-4.5,4.5h-101.8
			c-2.5,0-4.5-2-4.5-4.5l0,0C1330.1,356.2,1332.2,354.2,1334.7,354.2z"/>
	</g>
	<path fill-rule="evenodd" fill="#90A4AE" d="M1642.1,351.1h2.6c0.5,0,1,0.4,1,1v13.2c0,0.5-0.4,1-1,1h-2.6c-0.5,0-1-0.4-1-1v-13.2
		C1641.1,351.5,1641.5,351.1,1642.1,351.1z"/>
	<path fill-rule="evenodd" fill="#90A4AE" d="M1635.7,354.1h3c0.4,0,0.8,0.3,0.8,0.8v10.6c0,0.4-0.3,0.8-0.8,0.8h-3
		c-0.4,0-0.8-0.3-0.8-0.8v-10.6C1634.9,354.4,1635.3,354.1,1635.7,354.1z"/>
	<path fill-rule="evenodd" fill="#90A4AE" d="M1629.1,357.1h3.4c0.3,0,0.6,0.3,0.6,0.6v8c0,0.3-0.3,0.6-0.6,0.6h-3.4
		c-0.3,0-0.6-0.3-0.6-0.6v-8C1628.5,357.4,1628.8,357.1,1629.1,357.1z"/>
	<path fill-rule="evenodd" fill="#90A4AE" d="M1622.9,360h3.6c0.3,0,0.5,0.2,0.5,0.5v5.3c0,0.3-0.2,0.5-0.5,0.5h-3.6
		c-0.3,0-0.5-0.2-0.5-0.5v-5.3C1622.5,360.2,1622.7,360,1622.9,360z"/>
	<path fill-rule="evenodd" fill="#90A4AE" d="M1617,362.4h3.4c0.3,0,0.6,0.3,0.6,0.6v2.7c0,0.3-0.3,0.6-0.6,0.6h-3.4
		c-0.3,0-0.6-0.3-0.6-0.6V363C1616.4,362.7,1616.7,362.4,1617,362.4z"/>
	<g transform="matrix(.087765 0 0 .087765 699.72 410.66)">
		<path fill="#90A4AE" d="M11104-578.8v-26.9l-25.5-5.8c-1.5-5.4-3.7-10.6-6.4-15.5l13.9-22.1l-19-19l-22.1,13.9
			c-4.8-2.7-10-4.9-15.5-6.4l-5.8-25.5h-26.9l-5.8,25.5c-5.4,1.5-10.6,3.7-15.5,6.4l-22.1-13.9l-19,19l13.9,22.1
			c-2.7,4.8-4.9,10-6.4,15.5l-25.5,5.8v26.9l25.5,5.8c1.5,5.4,3.7,10.6,6.4,15.5l-13.9,22.1l19,19l22.1-13.9
			c4.8,2.7,10,4.9,15.5,6.4l5.8,25.5h26.9l5.8-25.5c5.4-1.5,10.6-3.7,15.5-6.4l22.1,13.9l19-19l-13.9-22.1c2.7-4.8,4.9-10,6.4-15.5
			L11104-578.8z"/>
	</g>
	<g transform="matrix(.087765 0 0 .087765 699.72 410.66)">
		<circle fill="#455A64" cx="11010.2" cy="-592.2" r="46.9"/>
	</g>
</g>
<g>
	<path fill-rule="evenodd" fill="#FF7043" d="M1695.8,119.4h52.4c0.4,0,0.8,0.4,0.8,0.8V152c0,0.4-0.4,0.8-0.8,0.8h-52.4
		c-0.4,0-0.8-0.4-0.8-0.8v-31.8C1695,119.7,1695.4,119.4,1695.8,119.4z"/>
	<circle fill-rule="evenodd" fill="#FFFFFF" cx="1722" cy="136.1" r="7.3"/>
	<circle fill-rule="evenodd" fill="#FF7043" cx="1722" cy="136.1" r="6.4"/>
	<g>
		<path fill="#FFFFFF" d="M1719.5,140.1l6.8-3.9l-6.7-3.9L1719.5,140.1z"/>
	</g>
</g>
<g>
	<path fill-rule="evenodd" fill="#CDDC39" d="M1696,162.4h52.4c0.4,0,0.8,0.4,0.8,0.8V195c0,0.4-0.4,0.8-0.8,0.8H1696
		c-0.4,0-0.8-0.4-0.8-0.8v-31.8C1695.2,162.7,1695.5,162.4,1696,162.4z"/>
	<circle fill-rule="evenodd" fill="#FFFFFF" cx="1722.1" cy="179.1" r="7.3"/>
	<circle fill-rule="evenodd" fill="#CDDC39" cx="1722.1" cy="179.1" r="6.4"/>
	<g>
		<path fill="#FFFFFF" d="M1719.6,183.1l6.8-3.9l-6.7-3.9L1719.6,183.1z"/>
	</g>
</g>
<g>
	<path fill-rule="evenodd" fill="#29B6F6" d="M1696.1,205.4h52.4c0.4,0,0.8,0.4,0.8,0.8V238c0,0.4-0.4,0.8-0.8,0.8h-52.4
		c-0.4,0-0.8-0.4-0.8-0.8v-31.8C1695.3,205.7,1695.7,205.4,1696.1,205.4z"/>
	<circle fill-rule="evenodd" fill="#FFFFFF" cx="1722.3" cy="222.1" r="7.3"/>
	<circle fill-rule="evenodd" fill="#29B6F6" cx="1722.3" cy="222.1" r="6.4"/>
	<g>
		<path fill="#FFFFFF" d="M1719.8,226.1l6.8-3.9l-6.7-3.9L1719.8,226.1z"/>
	</g>
</g>
<g>
	<path fill-rule="evenodd" fill="#FFB300" d="M1696.2,248.4h52.4c0.4,0,0.8,0.4,0.8,0.8V281c0,0.4-0.4,0.8-0.8,0.8h-52.4
		c-0.4,0-0.8-0.4-0.8-0.8v-31.8C1695.4,248.7,1695.7,248.4,1696.2,248.4z"/>
	<circle fill-rule="evenodd" fill="#FFFFFF" cx="1722.4" cy="265.1" r="7.3"/>
	<circle fill-rule="evenodd" fill="#FFB300" cx="1722.4" cy="265.1" r="6.4"/>
	<g>
		<path fill="#FFFFFF" d="M1719.9,269.1l6.8-3.9l-6.7-3.9L1719.9,269.1z"/>
	</g>
</g>
<g>
	<rect x="518.2" y="33.7" fill-rule="evenodd" fill="#005E7A" width="44.4" height="163.6"/>
	<path fill-rule="evenodd" fill="#263238" d="M245,33.7h264.8c2.2,0,4,1.7,4,3.7v148.5c0,2-1.8,3.7-4,3.7H245c-2.2,0-4-1.7-4-3.7
		V37.4C241,35.4,242.8,33.7,245,33.7z"/>
	<g transform="translate(-4.2952 -5.3213)">
		<ellipse fill-rule="evenodd" fill="#FFFFFF" cx="381.2" cy="110.9" rx="34.6" ry="34.1"/>
		<ellipse fill-rule="evenodd" fill="#263238" cx="381.2" cy="110.9" rx="30.1" ry="29.7"/>
		<g>
			<path fill="#FFFFFF" d="M369.4,129.6l32.1-18.3L369.8,93L369.4,129.6z"/>
		</g>
	</g>
	<path fill-rule="evenodd" fill="#455A64" d="M244.7,177.4h265.4c2,0,3.7,1.5,3.7,3.4v13.2c0,1.8-1.6,3.4-3.7,3.4H244.7
		c-2,0-3.7-1.5-3.7-3.4v-13.2C241,178.8,242.6,177.4,244.7,177.4z"/>
	<g>
		<path fill="#FFFFFF" d="M255.2,193.9l11.5-6.1l-11.4-6.1L255.2,193.9z"/>
	</g>
	<path fill-rule="evenodd" fill="#263238" d="M278,184.9h111.8c1.7,0,3,1.3,3,2.8l0,0c0,1.6-1.4,2.8-3,2.8H278c-1.7,0-3-1.3-3-2.8
		l0,0C274.9,186.2,276.3,184.9,278,184.9z"/>
	<path fill-rule="evenodd" fill="#546E7A" d="M278,184.9H347c1.7,0,3,1.3,3,2.8l0,0c0,1.6-1.4,2.8-3,2.8H278c-1.7,0-3-1.3-3-2.8l0,0
		C274.9,186.2,276.3,184.9,278,184.9z"/>
	<path fill-rule="evenodd" fill="#90A4AE" d="M486.2,183h1.7c0.4,0,0.7,0.3,0.7,0.6v8.3c0,0.3-0.3,0.6-0.7,0.6h-1.7
		c-0.4,0-0.7-0.3-0.7-0.6v-8.3C485.5,183.3,485.8,183,486.2,183z"/>
	<path fill-rule="evenodd" fill="#90A4AE" d="M481.8,184.9h2c0.3,0,0.6,0.2,0.6,0.5v6.6c0,0.3-0.2,0.5-0.6,0.5h-2
		c-0.3,0-0.6-0.2-0.6-0.5v-6.6C481.3,185.1,481.5,184.9,481.8,184.9z"/>
	<path fill-rule="evenodd" fill="#90A4AE" d="M477.4,186.8h2.3c0.2,0,0.4,0.2,0.4,0.3v5c0,0.2-0.2,0.3-0.4,0.3h-2.3
		c-0.2,0-0.4-0.2-0.4-0.3v-5C477,187,477.1,186.8,477.4,186.8z"/>
	<path fill-rule="evenodd" fill="#90A4AE" d="M473.2,188.6h2.5c0.2,0,0.3,0.1,0.3,0.3v3.3c0,0.2-0.1,0.3-0.3,0.3h-2.5
		c-0.2,0-0.3-0.1-0.3-0.3v-3.3C472.9,188.7,473,188.6,473.2,188.6z"/>
	<path fill-rule="evenodd" fill="#90A4AE" d="M469.1,190.1h2.3c0.2,0,0.4,0.2,0.4,0.3v1.7c0,0.2-0.2,0.3-0.4,0.3h-2.3
		c-0.2,0-0.4-0.2-0.4-0.3v-1.7C468.8,190.3,468.9,190.1,469.1,190.1z"/>
	<g transform="matrix(.087765 0 0 .087765 699.72 410.66)">
		<path fill="#90A4AE" d="M-2185.1-2531.5v-16.9l-17.2-3.6c-1-3.4-2.5-6.6-4.4-9.7l9.4-13.8l-12.9-11.9l-15,8.6
			c-3.3-1.7-6.8-3.1-10.5-4l-3.9-15.9h-18.3l-3.9,15.9c-3.7,1-7.2,2.3-10.5,4l-15-8.6l-12.9,11.9l9.4,13.8c-1.8,3.1-3.3,6.3-4.4,9.7
			l-17.2,3.6v16.9l17.2,3.6c1,3.4,2.5,6.6,4.4,9.7l-9.4,13.8l12.9,11.9l15-8.6c3.3,1.7,6.8,3.1,10.5,4l3.9,15.9h18.3l3.9-15.9
			c3.7-1,7.2-2.3,10.5-4l15,8.6l12.9-11.9l-9.4-13.8c1.8-3.1,3.3-6.3,4.4-9.7L-2185.1-2531.5z"/>
	</g>
	<g transform="matrix(.087765 0 0 .087765 699.72 410.66)">
		<ellipse fill="#455A64" cx="-2248.6" cy="-2539.9" rx="2.8" ry="2.6"/>
	</g>
	<path fill-rule="evenodd" fill="#FF8000" d="M522.5,47.1h35.5c0.3,0,0.6,0.3,0.6,0.5v19.9c0,0.3-0.3,0.5-0.6,0.5h-35.5
		c-0.3,0-0.6-0.3-0.6-0.5V47.6C522,47.3,522.3,47.1,522.5,47.1z"/>
	<ellipse fill-rule="evenodd" fill="#FFFFFF" cx="540.3" cy="57.5" rx="4.9" ry="4.5"/>
	<ellipse fill-rule="evenodd" fill="#FF7043" cx="540.3" cy="57.5" rx="4.4" ry="4"/>
	<g>
		<path fill="#FFFFFF" d="M538.5,60l4.6-2.4l-4.5-2.4L538.5,60z"/>
	</g>
	<path fill-rule="evenodd" fill="#F1CA6B" d="M522.6,73.9h35.5c0.3,0,0.6,0.3,0.6,0.5v19.9c0,0.3-0.3,0.5-0.6,0.5h-35.5
		c-0.3,0-0.6-0.3-0.6-0.5V74.4C522.1,74.1,522.4,73.9,522.6,73.9z"/>
	<ellipse fill-rule="evenodd" fill="#FFFFFF" cx="540.3" cy="84.3" rx="4.9" ry="4.5"/>
	<ellipse fill-rule="evenodd" fill="#CDDC39" cx="540.3" cy="84.3" rx="4.4" ry="4"/>
	<g>
		<path fill="#FFFFFF" d="M538.6,86.9l4.6-2.4l-4.5-2.4L538.6,86.9z"/>
	</g>
	<path fill-rule="evenodd" fill="#29B6F6" d="M522.7,100.8h35.5c0.3,0,0.6,0.3,0.6,0.5v19.9c0,0.3-0.3,0.5-0.6,0.5h-35.5
		c-0.3,0-0.6-0.3-0.6-0.5v-19.9C522.3,100.9,522.4,100.8,522.7,100.8z"/>
	<ellipse fill-rule="evenodd" fill="#FFFFFF" cx="540.4" cy="111.2" rx="4.9" ry="4.5"/>
	<ellipse fill-rule="evenodd" fill="#29B6F6" cx="540.4" cy="111.2" rx="4.4" ry="4"/>
	<g>
		<path fill="#FFFFFF" d="M538.8,113.7l4.6-2.4l-4.5-2.4L538.8,113.7z"/>
	</g>
	<path fill-rule="evenodd" fill="#FFB300" d="M522.8,127.6h35.4c0.3,0,0.6,0.3,0.6,0.5V148c0,0.3-0.3,0.5-0.6,0.5h-35.5
		c-0.3,0-0.6-0.3-0.6-0.5v-19.9C522.3,127.8,522.4,127.6,522.8,127.6z"/>
	<ellipse fill-rule="evenodd" fill="#FFFFFF" cx="540.5" cy="138.1" rx="4.9" ry="4.5"/>
	<ellipse fill-rule="evenodd" fill="#FFB300" cx="540.5" cy="138.1" rx="4.4" ry="4"/>
	<g>
		<path fill="#FFFFFF" d="M538.8,140.6l4.6-2.4l-4.5-2.4L538.8,140.6z"/>
	</g>
</g>
<rect x="828.9" y="-185.9" width="24.8" height="24.8"/>
<text transform="matrix(1 0 0 1 869.7164 -168.8278)" font-family="'HelveticaNeue'" font-size="15.6641px">#000000</text>
<rect x="828.9" y="-149.4" fill="#1D3E47" width="24.8" height="24.8"/>
<text transform="matrix(1 0 0 1 869.7164 -132.278)" font-family="'HelveticaNeue'" font-size="15.6641px">#1D3E47</text>
<rect x="828.9" y="-112.8" fill="#005E7A" width="24.8" height="24.8"/>
<text transform="matrix(1 0 0 1 869.7164 -95.7291)" font-family="'HelveticaNeue'" font-size="15.6641px">#005E7A</text>
<rect x="828.9" y="-76.3" fill="#B06E2C" width="24.8" height="24.8"/>
<text transform="matrix(1 0 0 1 869.7164 -59.1793)" font-family="'HelveticaNeue'" font-size="15.6641px">#B06E2C</text>
<rect x="828.9" y="-39.7" fill="#FF8000" width="24.8" height="24.8"/>
<text transform="matrix(1 0 0 1 869.7164 -22.6295)" font-family="'HelveticaNeue'" font-size="15.6641px">#FF8000</text>
<rect x="1052.9" y="-185.9" fill="#663000" width="24.8" height="24.8"/>
<text transform="matrix(1 0 0 1 1093.7164 -168.8278)" font-family="'HelveticaNeue'" font-size="15.6641px">#ccc</text>
<rect x="1052.9" y="-149.4" fill="#4A8D9B" width="24.8" height="24.8"/>
<text transform="matrix(1 0 0 1 1093.7164 -132.278)" font-family="'HelveticaNeue'" font-size="15.6641px">#4a8d9b</text>
<rect x="1052.9" y="-112.8" fill="#00B9D4" width="24.8" height="24.8"/>
<text transform="matrix(1 0 0 1 1093.7164 -95.7291)" font-family="'HelveticaNeue'" font-size="15.6641px">#00b9d4</text>
<rect x="1052.9" y="-76.3" fill="#F1CA6B" width="24.8" height="24.8"/>
<text transform="matrix(1 0 0 1 1093.7164 -59.1793)" font-family="'HelveticaNeue'" font-size="15.6641px">#f1ca6b</text>
<rect x="1052.9" y="-39.7" fill="#FFD900" width="24.8" height="24.8"/>
<text transform="matrix(1 0 0 1 1093.7164 -22.6295)" font-family="'HelveticaNeue'" font-size="15.6641px">#</text>
<text transform="matrix(1 0 0 1 1102.4254 -22.6295)" font-family="'HelveticaNeue'" font-size="15.6641px">f</text>
<text transform="matrix(1 0 0 1 1106.7799 -22.6295)" font-family="'HelveticaNeue'" font-size="15.6641px">f</text>
<text transform="matrix(1 0 0 1 1111.4166 -22.6295)" font-family="'HelveticaNeue'" font-size="15.6641px">d</text>
<text transform="matrix(1 0 0 1 1120.7057 -22.6295)" font-family="'HelveticaNeue'" font-size="15.6641px">9</text>
<text transform="matrix(1 0 0 1 1129.4147 -22.6295)" font-family="'HelveticaNeue'" font-size="15.6641px">0</text>
<text transform="matrix(1 0 0 1 1138.1237 -22.6295)" font-family="'HelveticaNeue'" font-size="15.6641px">0</text>
</svg>
