<?xml version="1.0" encoding="utf-8"?>
<!-- Generator: Adobe Illustrator 25.2.0, SVG Export Plug-In . SVG Version: 6.00 Build 0)  -->
<svg version="1.2" baseProfile="tiny" id="Laag_1" xmlns="http://www.w3.org/2000/svg" xmlns:xlink="http://www.w3.org/1999/xlink"
	 x="0px" y="0px" viewBox="0 0 809 505" overflow="visible" xml:space="preserve">
<rect y="17" fill-rule="evenodd" fill="#7C5B99" width="809" height="488"/>
<g>
	<rect x="0.4" y="-0.3" fill="#A5A5A5" width="809" height="17.3"/>
</g>
<g transform="translate(-1.4374 .30535)">
	<ellipse fill="#7986CB" cx="560.7" cy="8.2" rx="4.7" ry="4.7"/>
	<ellipse fill="#7986CB" cx="547.2" cy="8.2" rx="4.7" ry="4.7"/>
	<ellipse fill="#7986CB" cx="534" cy="8.2" rx="4.7" ry="4.7"/>
</g>
<rect x="1689.4" y="112" fill-rule="evenodd" fill="#ECEFF1" width="65.6" height="262"/>
<g>
	<g>
		<g>
			<path fill-rule="evenodd" fill="#263238" d="M1285.9,112H1677c3.3,0,5.9,2.6,5.9,5.9v237.7c0,3.3-2.6,5.9-5.9,5.9h-391.1
				c-3.3,0-5.9-2.6-5.9-5.9V117.9C1280,114.6,1282.6,112,1285.9,112z"/>
			<g transform="translate(-4.2952 -5.3213)">
				<circle fill-rule="evenodd" fill="#FFFFFF" cx="1485.8" cy="232.3" r="54.7"/>
				<circle fill-rule="evenodd" fill="#263238" cx="1485.8" cy="232.3" r="47.5"/>
				<g>
					<path fill="#FFFFFF" d="M1467.1,262.3l50.7-29.3l-50.2-29.3L1467.1,262.3z"/>
				</g>
			</g>
		</g>
		<path fill-rule="evenodd" fill="#455A64" d="M1285.4,342h392.1c3,0,5.4,2.4,5.4,5.4v21.2c0,3-2.4,5.4-5.4,5.4h-392.1
			c-3,0-5.4-2.4-5.4-5.4v-21.2C1280,344.4,1282.4,342,1285.4,342z"/>
		<g>
			<path fill="#FFFFFF" d="M1301,368.5l16.9-9.8l-16.7-9.8L1301,368.5z"/>
		</g>
		<path fill-rule="evenodd" fill="#263238" d="M1334.7,354.2h165.2c2.5,0,4.5,2,4.5,4.5v0c0,2.5-2,4.5-4.5,4.5h-165.2
			c-2.5,0-4.5-2-4.5-4.5v0C1330.1,356.2,1332.2,354.2,1334.7,354.2z"/>
		<path fill-rule="evenodd" fill="#546E7A" d="M1334.7,354.2h101.8c2.5,0,4.5,2,4.5,4.5v0c0,2.5-2,4.5-4.5,4.5h-101.8
			c-2.5,0-4.5-2-4.5-4.5v0C1330.1,356.2,1332.2,354.2,1334.7,354.2z"/>
	</g>
	<path fill-rule="evenodd" fill="#90A4AE" d="M1642.1,351.1h2.6c0.5,0,1,0.4,1,1v13.2c0,0.5-0.4,1-1,1h-2.6c-0.5,0-1-0.4-1-1v-13.2
		C1641.1,351.5,1641.5,351.1,1642.1,351.1z"/>
	<path fill-rule="evenodd" fill="#90A4AE" d="M1635.7,354.1h3c0.4,0,0.8,0.3,0.8,0.8v10.6c0,0.4-0.3,0.8-0.8,0.8h-3
		c-0.4,0-0.8-0.3-0.8-0.8v-10.6C1634.9,354.4,1635.3,354.1,1635.7,354.1z"/>
	<path fill-rule="evenodd" fill="#90A4AE" d="M1629.1,357.1h3.4c0.3,0,0.6,0.3,0.6,0.6v8c0,0.3-0.3,0.6-0.6,0.6h-3.4
		c-0.3,0-0.6-0.3-0.6-0.6v-8C1628.5,357.4,1628.8,357.1,1629.1,357.1z"/>
	<path fill-rule="evenodd" fill="#90A4AE" d="M1622.9,360h3.6c0.3,0,0.5,0.2,0.5,0.5v5.3c0,0.3-0.2,0.5-0.5,0.5h-3.6
		c-0.3,0-0.5-0.2-0.5-0.5v-5.3C1622.5,360.2,1622.7,360,1622.9,360z"/>
	<path fill-rule="evenodd" fill="#90A4AE" d="M1617,362.4h3.4c0.3,0,0.6,0.3,0.6,0.6v2.7c0,0.3-0.3,0.6-0.6,0.6h-3.4
		c-0.3,0-0.6-0.3-0.6-0.6V363C1616.4,362.7,1616.7,362.4,1617,362.4z"/>
	<g transform="matrix(.087765 0 0 .087765 699.72 410.66)">
		<path fill="#90A4AE" d="M11104-578.8v-26.9l-25.5-5.8c-1.5-5.4-3.7-10.6-6.4-15.5l13.9-22.1l-19-19l-22.1,13.9
			c-4.8-2.7-10-4.9-15.5-6.4l-5.8-25.5h-26.9l-5.8,25.5c-5.4,1.5-10.6,3.7-15.5,6.4l-22.1-13.9l-19,19l13.9,22.1
			c-2.7,4.8-4.9,10-6.4,15.5l-25.5,5.8v26.9l25.5,5.8c1.5,5.4,3.7,10.6,6.4,15.5l-13.9,22.1l19,19l22.1-13.9
			c4.8,2.7,10,4.9,15.5,6.4l5.8,25.5h26.9l5.8-25.5c5.4-1.5,10.6-3.7,15.5-6.4l22.1,13.9l19-19l-13.9-22.1c2.7-4.8,4.9-10,6.4-15.5
			L11104-578.8z"/>
	</g>
	<g transform="matrix(.087765 0 0 .087765 699.72 410.66)">
		<circle fill="#455A64" cx="11010.2" cy="-592.2" r="46.9"/>
	</g>
</g>
<g>
	<path fill-rule="evenodd" fill="#FF7043" d="M1695.8,119.4h52.4c0.4,0,0.8,0.4,0.8,0.8V152c0,0.4-0.4,0.8-0.8,0.8h-52.4
		c-0.4,0-0.8-0.4-0.8-0.8v-31.8C1695,119.7,1695.4,119.4,1695.8,119.4z"/>
	<circle fill-rule="evenodd" fill="#FFFFFF" cx="1722" cy="136.1" r="7.3"/>
	<circle fill-rule="evenodd" fill="#FF7043" cx="1722" cy="136.1" r="6.4"/>
	<g>
		<path fill="#FFFFFF" d="M1719.5,140.1l6.8-3.9l-6.7-3.9L1719.5,140.1z"/>
	</g>
</g>
<g>
	<path fill-rule="evenodd" fill="#CDDC39" d="M1696,162.4h52.4c0.4,0,0.8,0.4,0.8,0.8V195c0,0.4-0.4,0.8-0.8,0.8H1696
		c-0.4,0-0.8-0.4-0.8-0.8v-31.8C1695.2,162.7,1695.5,162.4,1696,162.4z"/>
	<circle fill-rule="evenodd" fill="#FFFFFF" cx="1722.1" cy="179.1" r="7.3"/>
	<circle fill-rule="evenodd" fill="#CDDC39" cx="1722.1" cy="179.1" r="6.4"/>
	<g>
		<path fill="#FFFFFF" d="M1719.6,183.1l6.8-3.9l-6.7-3.9L1719.6,183.1z"/>
	</g>
</g>
<g>
	<path fill-rule="evenodd" fill="#29B6F6" d="M1696.1,205.4h52.4c0.4,0,0.8,0.4,0.8,0.8V238c0,0.4-0.4,0.8-0.8,0.8h-52.4
		c-0.4,0-0.8-0.4-0.8-0.8v-31.8C1695.3,205.7,1695.7,205.4,1696.1,205.4z"/>
	<circle fill-rule="evenodd" fill="#FFFFFF" cx="1722.3" cy="222.1" r="7.3"/>
	<circle fill-rule="evenodd" fill="#29B6F6" cx="1722.3" cy="222.1" r="6.4"/>
	<g>
		<path fill="#FFFFFF" d="M1719.8,226.1l6.8-3.9l-6.7-3.9L1719.8,226.1z"/>
	</g>
</g>
<g>
	<path fill-rule="evenodd" fill="#FFB300" d="M1696.2,248.4h52.4c0.4,0,0.8,0.4,0.8,0.8V281c0,0.4-0.4,0.8-0.8,0.8h-52.4
		c-0.4,0-0.8-0.4-0.8-0.8v-31.8C1695.4,248.7,1695.7,248.4,1696.2,248.4z"/>
	<circle fill-rule="evenodd" fill="#FFFFFF" cx="1722.4" cy="265.1" r="7.3"/>
	<circle fill-rule="evenodd" fill="#FFB300" cx="1722.4" cy="265.1" r="6.4"/>
	<g>
		<path fill="#FFFFFF" d="M1719.9,269.1l6.8-3.9l-6.7-3.9L1719.9,269.1z"/>
	</g>
</g>
<g>
	<rect x="265" y="26.3" fill-rule="evenodd" fill="#E1F5FE" width="274.1" height="177.7"/>
	<rect x="456.9" y="26.3" fill-rule="evenodd" fill="#FFFFFF" width="4" height="177.7"/>
	<rect x="265" y="26.3" fill-rule="evenodd" fill="#81D4FA" width="274.1" height="15"/>
	<rect x="278.5" y="78" fill-rule="evenodd" fill="#81D4FA" width="23.7" height="20.7"/>
	<rect x="308.1" y="78.5" fill-rule="evenodd" fill="#FFFFFF" width="139.4" height="36.5"/>
	<rect x="278.5" y="120.7" fill-rule="evenodd" fill="#81D4FA" width="23.7" height="20.7"/>
	<rect x="308.1" y="121.1" fill-rule="evenodd" fill="#FFFFFF" width="139.4" height="75.6"/>
	<rect x="278.2" y="46.6" fill-rule="evenodd" fill="#FFFFFF" width="169.4" height="22.8"/>
	<rect x="308.1" y="78.5" fill-rule="evenodd" fill="#81D4FA" width="139.4" height="7.1"/>
	<rect x="308.1" y="109.8" fill-rule="evenodd" fill="#81D4FA" width="139.4" height="5.2"/>
	<rect x="281.1" y="123" fill-rule="evenodd" fill="#FFFFFF" width="18.3" height="16"/>
	<rect x="308.1" y="121.1" fill-rule="evenodd" fill="#81D4FA" width="139.4" height="7.1"/>
	<rect x="308.1" y="191.2" fill-rule="evenodd" fill="#81D4FA" width="139.4" height="5.9"/>
	<rect x="278.2" y="46.6" fill-rule="evenodd" fill="#B3E5FC" width="1.8" height="22.8"/>
	<rect x="446" y="46.6" fill-rule="evenodd" fill="#B3E5FC" width="1.8" height="22.8"/>
	<rect x="278.2" y="46.6" fill-rule="evenodd" fill="#81D4FA" width="169.4" height="5.4"/>
	<rect x="278.2" y="65.7" fill-rule="evenodd" fill="#81D4FA" width="169.4" height="3.8"/>
	<g transform="matrix(.76435 0 0 .76435 438.8 423.52)">
		<rect x="-161.2" y="-351.9" fill-rule="evenodd" fill="#E3F2FD" width="51.3" height="43.9"/>
		<path fill-rule="evenodd" fill="#64B5F6" d="M-120.2-339.4l-21,12.8l-9.8-7.3l-10.3,8.6v17.3h51.3v-22.8L-120.2-339.4
			L-120.2-339.4z"/>
	</g>
	<g transform="matrix(.76435 0 0 .76435 473.51 423.52)">
		<rect x="-150.3" y="-351.9" fill-rule="evenodd" fill="#E3F2FD" width="51.3" height="43.9"/>
		<path fill-rule="evenodd" fill="#64B5F6" d="M-109.3-339.4l-21,12.8l-9.8-7.3l-10.3,8.6v17.3H-99v-22.8L-109.3-339.4L-109.3-339.4
			z"/>
	</g>
	<g transform="matrix(.76435 0 0 .76435 507.83 423.52)">
		<rect x="-139.5" y="-351.9" fill-rule="evenodd" fill="#E3F2FD" width="51.3" height="43.9"/>
		<path fill-rule="evenodd" fill="#64B5F6" d="M-98.5-339.4l-21,12.8l-9.8-7.3l-10.3,8.6v17.3h51.3v-22.8L-98.5-339.4L-98.5-339.4z"
			/>
	</g>
	<rect x="468.5" y="46.6" fill-rule="evenodd" fill="#FFFFFF" width="65.5" height="43.5"/>
	<rect x="468.5" y="46.6" fill-rule="evenodd" fill="#81D4FA" width="65.5" height="7.7"/>
	<g transform="matrix(1.1529 0 0 .50308 494.03 456.13)">
		<rect x="-18.7" y="-776.7" fill-rule="evenodd" fill="#E3F2FD" width="51.3" height="43.9"/>
		<path fill-rule="evenodd" fill="#64B5F6" d="M22.3-764.1l-21,12.8l-9.8-7.3l-10.3,8.6v17.3h51.3v-22.8L22.3-764.1L22.3-764.1z"/>
	</g>
	<rect x="472.6" y="55.8" fill-rule="evenodd" fill="#B3E5FC" width="59.1" height="3.3"/>
	<rect x="472.6" y="60.2" fill-rule="evenodd" fill="#B3E5FC" width="39.8" height="3.3"/>
	<rect x="284.9" y="55.1" fill-rule="evenodd" fill="#B3E5FC" width="98.8" height="4.1"/>
	<rect x="313.4" y="89.7" fill-rule="evenodd" fill="#B3E5FC" width="114.2" height="4.1"/>
	<rect x="313.4" y="95.8" fill-rule="evenodd" fill="#B3E5FC" width="106" height="4.1"/>
	<rect x="313.4" y="102.1" fill-rule="evenodd" fill="#B3E5FC" width="71.6" height="4.1"/>
	<rect x="313.4" y="133.2" fill-rule="evenodd" fill="#B3E5FC" width="114.2" height="4.1"/>
	<rect x="313.4" y="139.2" fill-rule="evenodd" fill="#B3E5FC" width="106" height="4.1"/>
	<rect x="313.4" y="145.5" fill-rule="evenodd" fill="#B3E5FC" width="71.6" height="4.1"/>
	<rect x="472.6" y="183.4" fill-rule="evenodd" fill="#81D4FA" width="59.1" height="4"/>
	<rect x="472.6" y="189.5" fill-rule="evenodd" fill="#81D4FA" width="39.8" height="3.8"/>
	<rect x="472.6" y="101.8" fill-rule="evenodd" fill="#81D4FA" width="59.1" height="4"/>
	<rect x="472.6" y="107.9" fill-rule="evenodd" fill="#81D4FA" width="39.8" height="3.8"/>
	<ellipse fill-rule="evenodd" fill="#81D4FA" cx="484.4" cy="118.6" rx="3.1" ry="2.7"/>
	<rect x="491.2" y="116.8" fill-rule="evenodd" fill="#81D4FA" width="33.7" height="3.8"/>
	<ellipse fill-rule="evenodd" fill="#81D4FA" cx="484.4" cy="126.2" rx="3.1" ry="2.7"/>
	<rect x="491.2" y="124.4" fill-rule="evenodd" fill="#81D4FA" width="33.7" height="3.8"/>
	<ellipse fill-rule="evenodd" fill="#81D4FA" cx="484.4" cy="133.6" rx="3.1" ry="2.7"/>
	<rect x="491.2" y="131.8" fill-rule="evenodd" fill="#81D4FA" width="33.7" height="3.8"/>
	<rect x="472.6" y="149.3" fill-rule="evenodd" fill="#81D4FA" width="59.1" height="4"/>
	<rect x="472.6" y="155.5" fill-rule="evenodd" fill="#81D4FA" width="44.6" height="3.8"/>
	<rect x="472.6" y="161.8" fill-rule="evenodd" fill="#81D4FA" width="44.6" height="3.8"/>
	<path fill-rule="evenodd" fill="#FFFFFF" d="M434.7,32.1h92.5c0.5,0,0.9,0.3,0.9,0.8v5c0,0.4-0.4,0.8-0.9,0.8h-92.5
		c-0.5,0-0.9-0.3-0.9-0.8v-5C433.8,32.5,434.2,32.1,434.7,32.1z"/>
	<rect x="281.1" y="80.3" fill-rule="evenodd" fill="#FFFFFF" width="18.3" height="16"/>
</g>
</svg>
