<?xml version="1.0" encoding="utf-8"?>
<!-- Generator: Adobe Illustrator 25.2.0, SVG Export Plug-In . SVG Version: 6.00 Build 0)  -->
<svg version="1.2" baseProfile="tiny" id="Laag_1" xmlns="http://www.w3.org/2000/svg" xmlns:xlink="http://www.w3.org/1999/xlink"
	 x="0px" y="0px" viewBox="0 0 809 505" overflow="visible" xml:space="preserve">
<g>
	<rect x="0.4" y="-0.3" fill="#A5A5A5" width="809" height="17.3"/>
</g>
<g transform="translate(-1.4374 .30535)">
	<ellipse fill="#7986CB" cx="560.7" cy="8.2" rx="4.7" ry="4.7"/>
	<ellipse fill="#7986CB" cx="547.2" cy="8.2" rx="4.7" ry="4.7"/>
	<ellipse fill="#7986CB" cx="534" cy="8.2" rx="4.7" ry="4.7"/>
</g>
<rect x="1689.4" y="112" fill-rule="evenodd" fill="#ECEFF1" width="65.6" height="262"/>
<g>
	<g>
		<g>
			<path fill-rule="evenodd" fill="#263238" d="M1285.9,112H1677c3.3,0,5.9,2.6,5.9,5.9v237.7c0,3.3-2.6,5.9-5.9,5.9h-391.1
				c-3.3,0-5.9-2.6-5.9-5.9V117.9C1280,114.6,1282.6,112,1285.9,112z"/>
			<g transform="translate(-4.2952 -5.3213)">
				<circle fill-rule="evenodd" fill="#FFFFFF" cx="1485.8" cy="232.3" r="54.7"/>
				<circle fill-rule="evenodd" fill="#263238" cx="1485.8" cy="232.3" r="47.5"/>
				<g>
					<path fill="#FFFFFF" d="M1467.1,262.3l50.7-29.3l-50.2-29.3L1467.1,262.3z"/>
				</g>
			</g>
		</g>
		<path fill-rule="evenodd" fill="#455A64" d="M1285.4,342h392.1c3,0,5.4,2.4,5.4,5.4v21.2c0,3-2.4,5.4-5.4,5.4h-392.1
			c-3,0-5.4-2.4-5.4-5.4v-21.2C1280,344.4,1282.4,342,1285.4,342z"/>
		<g>
			<path fill="#FFFFFF" d="M1301,368.5l16.9-9.8l-16.7-9.8L1301,368.5z"/>
		</g>
		<path fill-rule="evenodd" fill="#263238" d="M1334.7,354.2h165.2c2.5,0,4.5,2,4.5,4.5v0c0,2.5-2,4.5-4.5,4.5h-165.2
			c-2.5,0-4.5-2-4.5-4.5v0C1330.1,356.2,1332.2,354.2,1334.7,354.2z"/>
		<path fill-rule="evenodd" fill="#546E7A" d="M1334.7,354.2h101.8c2.5,0,4.5,2,4.5,4.5v0c0,2.5-2,4.5-4.5,4.5h-101.8
			c-2.5,0-4.5-2-4.5-4.5v0C1330.1,356.2,1332.2,354.2,1334.7,354.2z"/>
	</g>
	<path fill-rule="evenodd" fill="#90A4AE" d="M1642.1,351.1h2.6c0.5,0,1,0.4,1,1v13.2c0,0.5-0.4,1-1,1h-2.6c-0.5,0-1-0.4-1-1v-13.2
		C1641.1,351.5,1641.5,351.1,1642.1,351.1z"/>
	<path fill-rule="evenodd" fill="#90A4AE" d="M1635.7,354.1h3c0.4,0,0.8,0.3,0.8,0.8v10.6c0,0.4-0.3,0.8-0.8,0.8h-3
		c-0.4,0-0.8-0.3-0.8-0.8v-10.6C1634.9,354.4,1635.3,354.1,1635.7,354.1z"/>
	<path fill-rule="evenodd" fill="#90A4AE" d="M1629.1,357.1h3.4c0.3,0,0.6,0.3,0.6,0.6v8c0,0.3-0.3,0.6-0.6,0.6h-3.4
		c-0.3,0-0.6-0.3-0.6-0.6v-8C1628.5,357.4,1628.8,357.1,1629.1,357.1z"/>
	<path fill-rule="evenodd" fill="#90A4AE" d="M1622.9,360h3.6c0.3,0,0.5,0.2,0.5,0.5v5.3c0,0.3-0.2,0.5-0.5,0.5h-3.6
		c-0.3,0-0.5-0.2-0.5-0.5v-5.3C1622.5,360.2,1622.7,360,1622.9,360z"/>
	<path fill-rule="evenodd" fill="#90A4AE" d="M1617,362.4h3.4c0.3,0,0.6,0.3,0.6,0.6v2.7c0,0.3-0.3,0.6-0.6,0.6h-3.4
		c-0.3,0-0.6-0.3-0.6-0.6V363C1616.4,362.7,1616.7,362.4,1617,362.4z"/>
	<g transform="matrix(.087765 0 0 .087765 699.72 410.66)">
		<path fill="#90A4AE" d="M11104-578.8v-26.9l-25.5-5.8c-1.5-5.4-3.7-10.6-6.4-15.5l13.9-22.1l-19-19l-22.1,13.9
			c-4.8-2.7-10-4.9-15.5-6.4l-5.8-25.5h-26.9l-5.8,25.5c-5.4,1.5-10.6,3.7-15.5,6.4l-22.1-13.9l-19,19l13.9,22.1
			c-2.7,4.8-4.9,10-6.4,15.5l-25.5,5.8v26.9l25.5,5.8c1.5,5.4,3.7,10.6,6.4,15.5l-13.9,22.1l19,19l22.1-13.9
			c4.8,2.7,10,4.9,15.5,6.4l5.8,25.5h26.9l5.8-25.5c5.4-1.5,10.6-3.7,15.5-6.4l22.1,13.9l19-19l-13.9-22.1c2.7-4.8,4.9-10,6.4-15.5
			L11104-578.8z"/>
	</g>
	<g transform="matrix(.087765 0 0 .087765 699.72 410.66)">
		<circle fill="#455A64" cx="11010.2" cy="-592.2" r="46.9"/>
	</g>
</g>
<g>
	<path fill-rule="evenodd" fill="#FF7043" d="M1695.8,119.4h52.4c0.4,0,0.8,0.4,0.8,0.8V152c0,0.4-0.4,0.8-0.8,0.8h-52.4
		c-0.4,0-0.8-0.4-0.8-0.8v-31.8C1695,119.7,1695.4,119.4,1695.8,119.4z"/>
	<circle fill-rule="evenodd" fill="#FFFFFF" cx="1722" cy="136.1" r="7.3"/>
	<circle fill-rule="evenodd" fill="#FF7043" cx="1722" cy="136.1" r="6.4"/>
	<g>
		<path fill="#FFFFFF" d="M1719.5,140.1l6.8-3.9l-6.7-3.9L1719.5,140.1z"/>
	</g>
</g>
<g>
	<path fill-rule="evenodd" fill="#CDDC39" d="M1696,162.4h52.4c0.4,0,0.8,0.4,0.8,0.8V195c0,0.4-0.4,0.8-0.8,0.8H1696
		c-0.4,0-0.8-0.4-0.8-0.8v-31.8C1695.2,162.7,1695.5,162.4,1696,162.4z"/>
	<circle fill-rule="evenodd" fill="#FFFFFF" cx="1722.1" cy="179.1" r="7.3"/>
	<circle fill-rule="evenodd" fill="#CDDC39" cx="1722.1" cy="179.1" r="6.4"/>
	<g>
		<path fill="#FFFFFF" d="M1719.6,183.1l6.8-3.9l-6.7-3.9L1719.6,183.1z"/>
	</g>
</g>
<g>
	<path fill-rule="evenodd" fill="#29B6F6" d="M1696.1,205.4h52.4c0.4,0,0.8,0.4,0.8,0.8V238c0,0.4-0.4,0.8-0.8,0.8h-52.4
		c-0.4,0-0.8-0.4-0.8-0.8v-31.8C1695.3,205.7,1695.7,205.4,1696.1,205.4z"/>
	<circle fill-rule="evenodd" fill="#FFFFFF" cx="1722.3" cy="222.1" r="7.3"/>
	<circle fill-rule="evenodd" fill="#29B6F6" cx="1722.3" cy="222.1" r="6.4"/>
	<g>
		<path fill="#FFFFFF" d="M1719.8,226.1l6.8-3.9l-6.7-3.9L1719.8,226.1z"/>
	</g>
</g>
<g>
	<path fill-rule="evenodd" fill="#FFB300" d="M1696.2,248.4h52.4c0.4,0,0.8,0.4,0.8,0.8V281c0,0.4-0.4,0.8-0.8,0.8h-52.4
		c-0.4,0-0.8-0.4-0.8-0.8v-31.8C1695.4,248.7,1695.7,248.4,1696.2,248.4z"/>
	<circle fill-rule="evenodd" fill="#FFFFFF" cx="1722.4" cy="265.1" r="7.3"/>
	<circle fill-rule="evenodd" fill="#FFB300" cx="1722.4" cy="265.1" r="6.4"/>
	<g>
		<path fill="#FFFFFF" d="M1719.9,269.1l6.8-3.9l-6.7-3.9L1719.9,269.1z"/>
	</g>
</g>
<rect x="276.3" y="31.6" fill="#FF8F00" width="148.1" height="6.8"/>
<rect x="284.3" y="58.5" fill="#9B128B" width="32.3" height="3.9"/>
<path fill="#9B128B" d="M284.4,62.4c-0.2,0.1-2.2-0.7-2.4-0.8c-0.2-0.1-2-1-2-1.1c0-0.2,1.9-1.1,2.1-1.2c0.2-0.1,2.1-0.9,2.3-0.8
	c0.2,0.1,0.3,1.8,0.3,2C284.7,60.7,284.6,62.3,284.4,62.4L284.4,62.4z"/>
<path fill="#9B128B" d="M316.5,62.4c0.2,0.1,2.2-0.7,2.4-0.8c0.2-0.1,2-1,2-1.1c0-0.2-1.9-1.1-2.1-1.2c-0.2-0.1-2.1-0.9-2.3-0.8
	c-0.2,0.1-0.3,1.8-0.3,2C316.2,60.7,316.3,62.3,316.5,62.4L316.5,62.4z"/>
<rect x="302.2" y="66.1" fill="#9B128B" width="32.3" height="3.9"/>
<path fill="#9B128B" d="M302.3,70c-0.2,0.1-2.2-0.7-2.4-0.8c-0.2-0.1-2-1-2-1.1c0-0.2,1.9-1.1,2.1-1.2c0.2-0.1,2.1-0.9,2.3-0.8
	c0.2,0.1,0.3,1.8,0.3,2C302.6,68.3,302.6,69.9,302.3,70L302.3,70z"/>
<path fill="#9B128B" d="M334.4,70c0.2,0.1,2.2-0.7,2.4-0.8c0.2-0.1,2-1,2-1.1c0-0.2-1.9-1.1-2.1-1.2c-0.2-0.1-2.1-0.9-2.3-0.8
	c-0.2,0.1-0.3,1.8-0.3,2C334.1,68.3,334.2,69.9,334.4,70L334.4,70z"/>
<rect x="316.1" y="73.3" fill="#9B128B" width="32.3" height="3.9"/>
<path fill="#9B128B" d="M316.3,77.2c-0.2,0.1-2.2-0.7-2.4-0.8c-0.2-0.1-2-1-2-1.1c0-0.2,1.9-1.1,2.1-1.2c0.2-0.1,2.1-0.9,2.3-0.8
	c0.2,0.1,0.3,1.8,0.3,2C316.5,75.5,316.5,77.1,316.3,77.2L316.3,77.2z"/>
<path fill="#9B128B" d="M348.4,77.2c0.2,0.1,2.2-0.7,2.4-0.8c0.2-0.1,2-1,2-1.1c0-0.2-1.9-1.1-2.1-1.2c-0.2-0.1-2.1-0.9-2.3-0.8
	c-0.2,0.1-0.3,1.8-0.3,2C348.1,75.5,348.1,77.1,348.4,77.2L348.4,77.2z"/>
<rect x="316.5" y="80.7" fill="#9B128B" width="32.3" height="3.9"/>
<path fill="#9B128B" d="M316.6,84.6c-0.2,0.1-2.2-0.7-2.4-0.8c-0.2-0.1-2-1-2-1.1c0-0.2,1.9-1.1,2.1-1.2c0.2-0.1,2.1-0.9,2.3-0.8
	c0.2,0.1,0.3,1.8,0.3,2C316.9,82.9,316.8,84.5,316.6,84.6L316.6,84.6z"/>
<path fill="#9B128B" d="M348.7,84.6c0.2,0.1,2.2-0.7,2.4-0.8c0.2-0.1,2-1,2-1.1c0-0.2-1.9-1.1-2.1-1.2c-0.2-0.1-2.1-0.9-2.3-0.8
	c-0.2,0.1-0.3,1.8-0.3,2C348.4,82.9,348.5,84.5,348.7,84.6L348.7,84.6z"/>
<rect x="316.8" y="87.9" fill="#9B128B" width="32.3" height="3.9"/>
<path fill="#9B128B" d="M316.9,91.8c-0.2,0.1-2.2-0.7-2.4-0.8c-0.2-0.1-2-1-2-1.1c0-0.2,1.9-1.1,2.1-1.2c0.2-0.1,2.1-0.9,2.3-0.8
	c0.2,0.1,0.3,1.8,0.3,2C317.2,90.1,317.1,91.7,316.9,91.8L316.9,91.8z"/>
<path fill="#9B128B" d="M349,91.8c0.2,0.1,2.2-0.7,2.4-0.8c0.2-0.1,2-1,2-1.1c0-0.2-1.9-1.1-2.1-1.2c-0.2-0.1-2.1-0.9-2.3-0.8
	c-0.2,0.1-0.3,1.8-0.3,2C348.7,90.1,348.8,91.7,349,91.8L349,91.8z"/>
<rect x="316.8" y="95.3" fill="#9B128B" width="32.3" height="3.9"/>
<path fill="#9B128B" d="M316.9,99.2c-0.2,0.1-2.2-0.7-2.4-0.8c-0.2-0.1-2-1-2-1.1c0-0.2,1.9-1.1,2.1-1.2c0.2-0.1,2.1-0.9,2.3-0.8
	c0.2,0.1,0.3,1.8,0.3,2C317.2,97.5,317.1,99.1,316.9,99.2L316.9,99.2z"/>
<path fill="#9B128B" d="M349,99.2c0.2,0.1,2.2-0.7,2.4-0.8c0.2-0.1,2-1,2-1.1c0-0.2-1.9-1.1-2.1-1.2c-0.2-0.1-2.1-0.9-2.3-0.8
	c-0.2,0.1-0.3,1.8-0.3,2C348.7,97.5,348.8,99.1,349,99.2L349,99.2z"/>
<rect x="316.8" y="121.4" fill="#9B128B" width="32.3" height="3.9"/>
<path fill="#9B128B" d="M316.9,125.3c-0.2,0.1-2.2-0.7-2.4-0.8c-0.2-0.1-2-1-2-1.1c0-0.2,1.9-1.1,2.1-1.2c0.2-0.1,2.1-0.9,2.3-0.8
	c0.2,0.1,0.3,1.8,0.3,2C317.2,123.6,317.1,125.2,316.9,125.3L316.9,125.3z"/>
<path fill="#9B128B" d="M349,125.3c0.2,0.1,2.2-0.7,2.4-0.8c0.2-0.1,2-1,2-1.1c0-0.2-1.9-1.1-2.1-1.2c-0.2-0.1-2.1-0.9-2.3-0.8
	c-0.2,0.1-0.3,1.8-0.3,2C348.7,123.6,348.8,125.2,349,125.3L349,125.3z"/>
<rect x="318.1" y="128.8" fill="#9B128B" width="32.3" height="3.9"/>
<path fill="#9B128B" d="M318.3,132.7c-0.2,0.1-2.2-0.7-2.4-0.8c-0.2-0.1-2-1-2-1.1c0-0.2,1.9-1.1,2.1-1.2c0.2-0.1,2.1-0.9,2.3-0.8
	c0.2,0.1,0.3,1.8,0.3,2C318.5,130.9,318.5,132.6,318.3,132.7L318.3,132.7z"/>
<path fill="#9B128B" d="M350.4,132.7c0.2,0.1,2.2-0.7,2.4-0.8c0.2-0.1,2-1,2-1.1c0-0.2-1.9-1.1-2.1-1.2c-0.2-0.1-2.1-0.9-2.3-0.8
	c-0.2,0.1-0.3,1.8-0.3,2C350.1,130.9,350.1,132.6,350.4,132.7L350.4,132.7z"/>
<rect x="302.2" y="136.9" fill="#9B128B" width="32.3" height="3.9"/>
<path fill="#9B128B" d="M302.3,140.9c-0.2,0.1-2.2-0.7-2.4-0.8c-0.2-0.1-2-1-2-1.1c0-0.2,1.9-1.1,2.1-1.2c0.2-0.1,2.1-0.9,2.3-0.8
	c0.2,0.1,0.3,1.8,0.3,2C302.6,139.1,302.6,140.8,302.3,140.9L302.3,140.9z"/>
<path fill="#9B128B" d="M334.4,140.9c0.2,0.1,2.2-0.7,2.4-0.8c0.2-0.1,2-1,2-1.1c0-0.2-1.9-1.1-2.1-1.2c-0.2-0.1-2.1-0.9-2.3-0.8
	c-0.2,0.1-0.3,1.8-0.3,2C334.1,139.1,334.2,140.8,334.4,140.9L334.4,140.9z"/>
<rect x="302.2" y="146.7" fill="#9B128B" width="32.3" height="3.9"/>
<path fill="#9B128B" d="M302.3,150.6c-0.2,0.1-2.2-0.7-2.4-0.8c-0.2-0.1-2-1-2-1.1c0-0.2,1.9-1.1,2.1-1.2c0.2-0.1,2.1-0.9,2.3-0.8
	c0.2,0.1,0.3,1.8,0.3,2C302.6,148.9,302.6,150.5,302.3,150.6L302.3,150.6z"/>
<path fill="#9B128B" d="M334.4,150.6c0.2,0.1,2.2-0.7,2.4-0.8c0.2-0.1,2-1,2-1.1c0-0.2-1.9-1.1-2.1-1.2c-0.2-0.1-2.1-0.9-2.3-0.8
	c-0.2,0.1-0.3,1.8-0.3,2C334.1,148.9,334.2,150.5,334.4,150.6L334.4,150.6z"/>
<rect x="361.8" y="95.3" fill="#CCCCCC" width="154.7" height="3.9"/>
<path fill="#CCCCCC" d="M362,99.2c-0.2,0.1-2.2-0.7-2.4-0.8c-0.2-0.1-2-1-2-1.1c0-0.2,1.9-1.1,2.1-1.2c0.2-0.1,2.1-0.9,2.3-0.8
	c0.2,0.1,0.3,1.8,0.3,2C362.3,97.5,362.2,99.1,362,99.2L362,99.2z"/>
<path fill="#CCCCCC" d="M516.2,99.2c0.2,0.1,2.2-0.7,2.4-0.8c0.2-0.1,2-1,2-1.1c0-0.2-1.9-1.1-2.1-1.2c-0.2-0.1-2.1-0.9-2.3-0.8
	c-0.2,0.1-0.3,1.8-0.3,2C515.9,97.5,515.9,99.1,516.2,99.2L516.2,99.2z"/>
<rect x="317.6" y="102.3" fill="#CCCCCC" width="198.6" height="3.9"/>
<path fill="#CCCCCC" d="M317.8,106.2c-0.3,0.1-2.8-0.7-3.1-0.8c-0.3-0.1-2.6-1-2.6-1.1c0-0.2,2.4-1.1,2.7-1.2
	c0.3-0.1,2.7-0.9,2.9-0.8c0.3,0.1,0.4,1.8,0.4,2C318.1,104.5,318,106.1,317.8,106.2L317.8,106.2z"/>
<path fill="#CCCCCC" d="M515.6,106.2c0.3,0.1,2.8-0.7,3.1-0.8c0.3-0.1,2.6-1,2.6-1.1c0-0.2-2.4-1.1-2.7-1.2
	c-0.3-0.1-2.7-0.9-2.9-0.8c-0.3,0.1-0.4,1.8-0.4,2C515.2,104.5,515.3,106.1,515.6,106.2L515.6,106.2z"/>
<rect x="317.6" y="108.9" fill="#CCCCCC" width="198.6" height="3.9"/>
<path fill="#CCCCCC" d="M317.8,112.8c-0.3,0.1-2.8-0.7-3.1-0.8c-0.3-0.1-2.6-1-2.6-1.1c0-0.2,2.4-1.1,2.7-1.2
	c0.3-0.1,2.7-0.9,2.9-0.8c0.3,0.1,0.4,1.8,0.4,2C318.1,111.1,318,112.7,317.8,112.8L317.8,112.8z"/>
<path fill="#CCCCCC" d="M515.6,112.8c0.3,0.1,2.8-0.7,3.1-0.8c0.3-0.1,2.6-1,2.6-1.1c0-0.2-2.4-1.1-2.7-1.2
	c-0.3-0.1-2.7-0.9-2.9-0.8c-0.3,0.1-0.4,1.8-0.4,2C515.2,111.1,515.3,112.7,515.6,112.8L515.6,112.8z"/>
<rect x="317" y="114.9" fill="#CCCCCC" width="175.9" height="3.9"/>
<path fill="#CCCCCC" d="M317.1,118.9c-0.3,0.1-2.4-0.7-2.7-0.8c-0.2-0.1-2.3-1-2.3-1.1c0-0.2,2.1-1.1,2.4-1.2
	c0.2-0.1,2.3-0.9,2.6-0.8c0.3,0.1,0.3,1.8,0.3,2C317.4,117.1,317.4,118.8,317.1,118.9L317.1,118.9z"/>
<path fill="#CCCCCC" d="M492.3,118.9c0.3,0.1,2.4-0.7,2.7-0.8c0.2-0.1,2.3-1,2.3-1.1c0-0.2-2.1-1.1-2.4-1.2
	c-0.2-0.1-2.3-0.9-2.6-0.8c-0.3,0.1-0.3,1.8-0.3,2C492,117.1,492.1,118.8,492.3,118.9L492.3,118.9z"/>
<rect x="362.6" y="80.5" fill="#FF7043" width="32.3" height="3.9"/>
<path fill="#FF7043" d="M362.7,84.4c-0.2,0.1-2.2-0.7-2.4-0.8c-0.2-0.1-2-1-2-1.1c0-0.2,1.9-1.1,2.1-1.2c0.2-0.1,2.1-0.9,2.3-0.8
	c0.2,0.1,0.3,1.8,0.3,2C363,82.7,362.9,84.3,362.7,84.4L362.7,84.4z"/>
<path fill="#FF7043" d="M394.8,84.4c0.2,0.1,2.2-0.7,2.4-0.8c0.2-0.1,2-1,2-1.1c0-0.2-1.9-1.1-2.1-1.2c-0.2-0.1-2.1-0.9-2.3-0.8
	c-0.2,0.1-0.3,1.8-0.3,2C394.5,82.7,394.6,84.3,394.8,84.4L394.8,84.4z"/>
<rect x="443.2" y="80.5" fill="#FF7043" width="32.3" height="3.9"/>
<path fill="#FF7043" d="M443.3,84.4c-0.2,0.1-2.2-0.7-2.4-0.8c-0.2-0.1-2-1-2-1.1c0-0.2,1.9-1.1,2.1-1.2c0.2-0.1,2.1-0.9,2.3-0.8
	c0.2,0.1,0.3,1.8,0.3,2C443.6,82.7,443.6,84.3,443.3,84.4L443.3,84.4z"/>
<path fill="#FF7043" d="M475.4,84.4c0.2,0.1,2.2-0.7,2.4-0.8c0.2-0.1,2-1,2-1.1c0-0.2-1.9-1.1-2.1-1.2c-0.2-0.1-2.1-0.9-2.3-0.8
	c-0.2,0.1-0.3,1.8-0.3,2C475.1,82.7,475.2,84.3,475.4,84.4L475.4,84.4z"/>
<rect x="486.3" y="80.5" fill="#9B128B" width="32.3" height="3.9"/>
<path fill="#9B128B" d="M486.5,84.4c-0.2,0.1-2.2-0.7-2.4-0.8c-0.2-0.1-2-1-2-1.1c0-0.2,1.9-1.1,2.1-1.2c0.2-0.1,2.1-0.9,2.3-0.8
	c0.2,0.1,0.3,1.8,0.3,2C486.7,82.7,486.7,84.3,486.5,84.4L486.5,84.4z"/>
<path fill="#9B128B" d="M518.6,84.4c0.2,0.1,2.2-0.7,2.4-0.8c0.2-0.1,2-1,2-1.1c0-0.2-1.9-1.1-2.1-1.2c-0.2-0.1-2.1-0.9-2.3-0.8
	c-0.2,0.1-0.3,1.8-0.3,2C518.3,82.7,518.3,84.3,518.6,84.4L518.6,84.4z"/>
<rect x="406" y="80.5" fill="#CCCCCC" width="27" height="3.9"/>
<path fill="#CCCCCC" d="M406.1,84.4c-0.2,0.1-1.8-0.7-2-0.8c-0.2-0.1-1.7-1-1.7-1.1c0-0.2,1.6-1.1,1.7-1.2c0.2-0.1,1.7-0.9,1.9-0.8
	c0.2,0.1,0.3,1.8,0.3,2C406.4,82.7,406.3,84.3,406.1,84.4L406.1,84.4z"/>
<path fill="#CCCCCC" d="M433,84.4c0.2,0.1,1.8-0.7,2-0.8c0.2-0.1,1.7-1,1.7-1.1c0-0.2-1.6-1.1-1.7-1.2c-0.2-0.1-1.7-0.9-1.9-0.8
	c-0.2,0.1-0.3,1.8-0.3,2C432.8,82.7,432.8,84.3,433,84.4L433,84.4z"/>
<rect x="347.7" y="136.9" fill="#FF7043" width="53" height="3.9"/>
<path fill="#FF7043" d="M347.8,140.9c-0.2,0.1-2.2-0.7-2.4-0.8c-0.2-0.1-2-1-2-1.1c0-0.2,1.9-1.1,2.1-1.2c0.2-0.1,2.1-0.9,2.3-0.8
	c0.2,0.1,0.3,1.8,0.3,2C348.1,139.1,348,140.8,347.8,140.9L347.8,140.9z"/>
<path fill="#FF7043" d="M400.4,140.9c0.2,0.1,2.2-0.7,2.4-0.8c0.2-0.1,2-1,2-1.1c0-0.2-1.9-1.1-2.1-1.2c-0.2-0.1-2.1-0.9-2.3-0.8
	c-0.2,0.1-0.3,1.8-0.3,2C400.2,139.1,400.2,140.8,400.4,140.9L400.4,140.9z"/>
<rect x="348.2" y="146.3" fill="#FF7043" width="53" height="3.9"/>
<path fill="#FF7043" d="M348.3,150.2c-0.2,0.1-2.2-0.7-2.4-0.8c-0.2-0.1-2-1-2-1.1c0-0.2,1.9-1.1,2.1-1.2c0.2-0.1,2.1-0.9,2.3-0.8
	c0.2,0.1,0.3,1.8,0.3,2C348.6,148.5,348.5,150.1,348.3,150.2L348.3,150.2z"/>
<path fill="#FF7043" d="M400.9,150.2c0.2,0.1,2.2-0.7,2.4-0.8c0.2-0.1,2-1,2-1.1c0-0.2-1.9-1.1-2.1-1.2c-0.2-0.1-2.1-0.9-2.3-0.8
	c-0.2,0.1-0.3,1.8-0.3,2C400.7,148.5,400.7,150.1,400.9,150.2L400.9,150.2z"/>
<rect x="318.1" y="155.4" fill="#9B128B" width="32.3" height="3.9"/>
<path fill="#9B128B" d="M318.3,159.3c-0.2,0.1-2.2-0.7-2.4-0.8c-0.2-0.1-2-1-2-1.1c0-0.2,1.9-1.1,2.1-1.2c0.2-0.1,2.1-0.9,2.3-0.8
	c0.2,0.1,0.3,1.8,0.3,2C318.5,157.6,318.5,159.3,318.3,159.3L318.3,159.3z"/>
<path fill="#9B128B" d="M350.4,159.3c0.2,0.1,2.2-0.7,2.4-0.8c0.2-0.1,2-1,2-1.1c0-0.2-1.9-1.1-2.1-1.2c-0.2-0.1-2.1-0.9-2.3-0.8
	c-0.2,0.1-0.3,1.8-0.3,2C350.1,157.6,350.1,159.3,350.4,159.3L350.4,159.3z"/>
<rect x="364.1" y="155" fill="#FF7043" width="84.7" height="3.9"/>
<path fill="#FF7043" d="M364.2,159c-0.2,0.1-2.2-0.7-2.4-0.8c-0.2-0.1-2-1-2-1.1c0-0.2,1.9-1.1,2.1-1.2c0.2-0.1,2.1-0.9,2.3-0.8
	c0.2,0.1,0.3,1.8,0.3,2C364.5,157.2,364.4,158.9,364.2,159L364.2,159z"/>
<path fill="#FF7043" d="M448.1,159c0.2,0.1,2.2-0.7,2.4-0.8c0.2-0.1,2-1,2-1.1c0-0.2-1.9-1.1-2.1-1.2c-0.2-0.1-2.1-0.9-2.3-0.8
	c-0.2,0.1-0.3,1.8-0.3,2C447.8,157.2,447.9,158.9,448.1,159L448.1,159z"/>
<rect x="318.1" y="162.8" fill="#9B128B" width="32.3" height="3.9"/>
<path fill="#9B128B" d="M318.3,166.7c-0.2,0.1-2.2-0.7-2.4-0.8c-0.2-0.1-2-1-2-1.1c0-0.2,1.9-1.1,2.1-1.2c0.2-0.1,2.1-0.9,2.3-0.8
	c0.2,0.1,0.3,1.8,0.3,2C318.5,165,318.5,166.7,318.3,166.7L318.3,166.7z"/>
<path fill="#9B128B" d="M350.4,166.7c0.2,0.1,2.2-0.7,2.4-0.8c0.2-0.1,2-1,2-1.1c0-0.2-1.9-1.1-2.1-1.2c-0.2-0.1-2.1-0.9-2.3-0.8
	c-0.2,0.1-0.3,1.8-0.3,2C350.1,165,350.1,166.7,350.4,166.7L350.4,166.7z"/>
<rect x="276.3" y="41.5" fill="#FF8F00" width="121.3" height="2.2"/>
<rect x="259" y="48.8" fill-rule="evenodd" fill="#2196F3" width="288.6" height="1.4"/>
<rect x="413.2" y="136.7" fill="#CCCCCC" width="84.7" height="3.9"/>
<path fill="#CCCCCC" d="M413.3,140.7c-0.2,0.1-2.2-0.7-2.4-0.8c-0.2-0.1-2-1-2-1.1c0-0.2,1.9-1.1,2.1-1.2c0.2-0.1,2.1-0.9,2.3-0.8
	c0.2,0.1,0.3,1.8,0.3,2C413.6,138.9,413.5,140.6,413.3,140.7L413.3,140.7z"/>
<path fill="#CCCCCC" d="M497.2,140.7c0.2,0.1,2.2-0.7,2.4-0.8c0.2-0.1,2-1,2-1.1c0-0.2-1.9-1.1-2.1-1.2c-0.2-0.1-2.1-0.9-2.3-0.8
	c-0.2,0.1-0.3,1.8-0.3,2C496.9,138.9,497,140.6,497.2,140.7L497.2,140.7z"/>
<rect x="414.5" y="145.7" fill="#CCCCCC" width="84.7" height="3.9"/>
<path fill="#CCCCCC" d="M414.6,149.6c-0.2,0.1-2.2-0.7-2.4-0.8c-0.2-0.1-2-1-2-1.1c0-0.2,1.9-1.1,2.1-1.2c0.2-0.1,2.1-0.9,2.3-0.8
	c0.2,0.1,0.3,1.8,0.3,2C414.9,147.9,414.9,149.5,414.6,149.6L414.6,149.6z"/>
<path fill="#CCCCCC" d="M498.5,149.6c0.2,0.1,2.2-0.7,2.4-0.8c0.2-0.1,2-1,2-1.1c0-0.2-1.9-1.1-2.1-1.2c-0.2-0.1-2.1-0.9-2.3-0.8
	c-0.2,0.1-0.3,1.8-0.3,2C498.2,147.9,498.3,149.5,498.5,149.6L498.5,149.6z"/>
<rect x="461.5" y="155.4" fill="#CCCCCC" width="32.3" height="3.9"/>
<path fill="#CCCCCC" d="M461.6,159.3c-0.2,0.1-2.2-0.7-2.4-0.8c-0.2-0.1-2-1-2-1.1c0-0.2,1.9-1.1,2.1-1.2c0.2-0.1,2.1-0.9,2.3-0.8
	c0.2,0.1,0.3,1.8,0.3,2C461.9,157.6,461.8,159.3,461.6,159.3L461.6,159.3z"/>
<path fill="#CCCCCC" d="M493.7,159.3c0.2,0.1,2.2-0.7,2.4-0.8c0.2-0.1,2-1,2-1.1c0-0.2-1.9-1.1-2.1-1.2c-0.2-0.1-2.1-0.9-2.3-0.8
	c-0.2,0.1-0.3,1.8-0.3,2C493.4,157.6,493.5,159.3,493.7,159.3L493.7,159.3z"/>
<rect x="365" y="163" fill="#CCCCCC" width="150.2" height="3.9"/>
<path fill="#CCCCCC" d="M365.2,166.9c-0.2,0.1-2.1-0.7-2.3-0.8c-0.2-0.1-1.9-1-1.9-1.1c0-0.2,1.8-1.1,2-1.2c0.2-0.1,2-0.9,2.2-0.8
	c0.2,0.1,0.3,1.8,0.3,2C365.4,165.2,365.4,166.8,365.2,166.9L365.2,166.9z"/>
<path fill="#CCCCCC" d="M515,166.9c0.2,0.1,2.1-0.7,2.3-0.8c0.2-0.1,1.9-1,1.9-1.1c0-0.2-1.8-1.1-2-1.2c-0.2-0.1-2-0.9-2.2-0.8
	c-0.2,0.1-0.3,1.8-0.3,2C514.7,165.2,514.7,166.8,515,166.9L515,166.9z"/>
<rect x="319.6" y="171.4" fill="#9B128B" width="32.3" height="3.9"/>
<path fill="#9B128B" d="M319.7,175.3c-0.2,0.1-2.2-0.7-2.4-0.8c-0.2-0.1-2-1-2-1.1c0-0.2,1.9-1.1,2.1-1.2c0.2-0.1,2.1-0.9,2.3-0.8
	c0.2,0.1,0.3,1.8,0.3,2C320,173.5,319.9,175.2,319.7,175.3L319.7,175.3z"/>
<path fill="#9B128B" d="M351.8,175.3c0.2,0.1,2.2-0.7,2.4-0.8c0.2-0.1,2-1,2-1.1c0-0.2-1.9-1.1-2.1-1.2c-0.2-0.1-2.1-0.9-2.3-0.8
	c-0.2,0.1-0.3,1.8-0.3,2C351.5,173.5,351.6,175.2,351.8,175.3L351.8,175.3z"/>
<rect x="319.6" y="181.1" fill="#9B128B" width="32.3" height="3.9"/>
<path fill="#9B128B" d="M319.7,185c-0.2,0.1-2.2-0.7-2.4-0.8c-0.2-0.1-2-1-2-1.1c0-0.2,1.9-1.1,2.1-1.2c0.2-0.1,2.1-0.9,2.3-0.8
	c0.2,0.1,0.3,1.8,0.3,2C320,183.3,319.9,184.9,319.7,185L319.7,185z"/>
<path fill="#9B128B" d="M351.8,185c0.2,0.1,2.2-0.7,2.4-0.8c0.2-0.1,2-1,2-1.1c0-0.2-1.9-1.1-2.1-1.2c-0.2-0.1-2.1-0.9-2.3-0.8
	c-0.2,0.1-0.3,1.8-0.3,2C351.5,183.3,351.6,184.9,351.8,185L351.8,185z"/>
<rect x="365" y="171.4" fill="#FF7043" width="53" height="3.9"/>
<path fill="#FF7043" d="M365.1,175.3c-0.2,0.1-2.2-0.7-2.4-0.8c-0.2-0.1-2-1-2-1.1c0-0.2,1.9-1.1,2.1-1.2c0.2-0.1,2.1-0.9,2.3-0.8
	c0.2,0.1,0.3,1.8,0.3,2C365.4,173.5,365.4,175.2,365.1,175.3L365.1,175.3z"/>
<path fill="#FF7043" d="M417.8,175.3c0.2,0.1,2.2-0.7,2.4-0.8c0.2-0.1,2-1,2-1.1c0-0.2-1.9-1.1-2.1-1.2c-0.2-0.1-2.1-0.9-2.3-0.8
	c-0.2,0.1-0.3,1.8-0.3,2C417.5,173.5,417.6,175.2,417.8,175.3L417.8,175.3z"/>
<rect x="365.5" y="180.7" fill="#FF7043" width="53" height="3.9"/>
<path fill="#FF7043" d="M365.6,184.6c-0.2,0.1-2.2-0.7-2.4-0.8c-0.2-0.1-2-1-2-1.1c0-0.2,1.9-1.1,2.1-1.2c0.2-0.1,2.1-0.9,2.3-0.8
	c0.2,0.1,0.3,1.8,0.3,2C365.9,182.9,365.9,184.5,365.6,184.6L365.6,184.6z"/>
<path fill="#FF7043" d="M418.3,184.6c0.2,0.1,2.2-0.7,2.4-0.8c0.2-0.1,2-1,2-1.1c0-0.2-1.9-1.1-2.1-1.2c-0.2-0.1-2.1-0.9-2.3-0.8
	c-0.2,0.1-0.3,1.8-0.3,2C418,182.9,418.1,184.5,418.3,184.6L418.3,184.6z"/>
<rect x="430.5" y="171.2" fill="#CCCCCC" width="84.7" height="3.9"/>
<path fill="#CCCCCC" d="M430.7,175.1c-0.2,0.1-2.2-0.7-2.4-0.8c-0.2-0.1-2-1-2-1.1c0-0.2,1.9-1.1,2.1-1.2c0.2-0.1,2.1-0.9,2.3-0.8
	c0.2,0.1,0.3,1.8,0.3,2C431,173.3,430.9,175,430.7,175.1L430.7,175.1z"/>
<path fill="#CCCCCC" d="M514.5,175.1c0.2,0.1,2.2-0.7,2.4-0.8c0.2-0.1,2-1,2-1.1c0-0.2-1.9-1.1-2.1-1.2c-0.2-0.1-2.1-0.9-2.3-0.8
	c-0.2,0.1-0.3,1.8-0.3,2C514.3,173.3,514.3,175,514.5,175.1L514.5,175.1z"/>
<rect x="431.9" y="180.1" fill="#CCCCCC" width="84.7" height="3.9"/>
<path fill="#CCCCCC" d="M432,184c-0.2,0.1-2.2-0.7-2.4-0.8c-0.2-0.1-2-1-2-1.1c0-0.2,1.9-1.1,2.1-1.2c0.2-0.1,2.1-0.9,2.3-0.8
	c0.2,0.1,0.3,1.8,0.3,2C432.3,182.3,432.2,183.9,432,184L432,184z"/>
<path fill="#CCCCCC" d="M515.9,184c0.2,0.1,2.2-0.7,2.4-0.8c0.2-0.1,2-1,2-1.1c0-0.2-1.9-1.1-2.1-1.2c-0.2-0.1-2.1-0.9-2.3-0.8
	c-0.2,0.1-0.3,1.8-0.3,2C515.6,182.3,515.6,183.9,515.9,184L515.9,184z"/>
<rect x="319.6" y="188.4" fill="#9B128B" width="32.3" height="3.9"/>
<path fill="#9B128B" d="M319.7,192.3c-0.2,0.1-2.2-0.7-2.4-0.8c-0.2-0.1-2-1-2-1.1c0-0.2,1.9-1.1,2.1-1.2c0.2-0.1,2.1-0.9,2.3-0.8
	c0.2,0.1,0.3,1.8,0.3,2C320,190.6,319.9,192.2,319.7,192.3L319.7,192.3z"/>
<path fill="#9B128B" d="M351.8,192.3c0.2,0.1,2.2-0.7,2.4-0.8c0.2-0.1,2-1,2-1.1c0-0.2-1.9-1.1-2.1-1.2c-0.2-0.1-2.1-0.9-2.3-0.8
	c-0.2,0.1-0.3,1.8-0.3,2C351.5,190.6,351.6,192.2,351.8,192.3L351.8,192.3z"/>
<rect x="319.6" y="198.2" fill="#9B128B" width="32.3" height="3.9"/>
<path fill="#9B128B" d="M319.7,202.1c-0.2,0.1-2.2-0.7-2.4-0.8c-0.2-0.1-2-1-2-1.1c0-0.2,1.9-1.1,2.1-1.2c0.2-0.1,2.1-0.9,2.3-0.8
	c0.2,0.1,0.3,1.8,0.3,2C320,200.3,319.9,202,319.7,202.1L319.7,202.1z"/>
<path fill="#9B128B" d="M351.8,202.1c0.2,0.1,2.2-0.7,2.4-0.8c0.2-0.1,2-1,2-1.1c0-0.2-1.9-1.1-2.1-1.2c-0.2-0.1-2.1-0.9-2.3-0.8
	c-0.2,0.1-0.3,1.8-0.3,2C351.5,200.3,351.6,202,351.8,202.1L351.8,202.1z"/>
<rect x="365" y="188.4" fill="#FF7043" width="53" height="3.9"/>
<path fill="#FF7043" d="M365.1,192.3c-0.2,0.1-2.2-0.7-2.4-0.8c-0.2-0.1-2-1-2-1.1c0-0.2,1.9-1.1,2.1-1.2c0.2-0.1,2.1-0.9,2.3-0.8
	c0.2,0.1,0.3,1.8,0.3,2C365.4,190.6,365.4,192.2,365.1,192.3L365.1,192.3z"/>
<path fill="#FF7043" d="M417.8,192.3c0.2,0.1,2.2-0.7,2.4-0.8c0.2-0.1,2-1,2-1.1c0-0.2-1.9-1.1-2.1-1.2c-0.2-0.1-2.1-0.9-2.3-0.8
	c-0.2,0.1-0.3,1.8-0.3,2C417.5,190.6,417.6,192.2,417.8,192.3L417.8,192.3z"/>
<rect x="365.5" y="197.8" fill="#FF7043" width="53" height="3.9"/>
<path fill="#FF7043" d="M365.6,201.7c-0.2,0.1-2.2-0.7-2.4-0.8c-0.2-0.1-2-1-2-1.1c0-0.2,1.9-1.1,2.1-1.2c0.2-0.1,2.1-0.9,2.3-0.8
	c0.2,0.1,0.3,1.8,0.3,2C365.9,200,365.9,201.6,365.6,201.7L365.6,201.7z"/>
<path fill="#FF7043" d="M418.3,201.7c0.2,0.1,2.2-0.7,2.4-0.8c0.2-0.1,2-1,2-1.1c0-0.2-1.9-1.1-2.1-1.2c-0.2-0.1-2.1-0.9-2.3-0.8
	c-0.2,0.1-0.3,1.8-0.3,2C418,200,418.1,201.6,418.3,201.7L418.3,201.7z"/>
<rect x="430.5" y="188.2" fill="#CCCCCC" width="84.7" height="3.9"/>
<path fill="#CCCCCC" d="M430.7,192.1c-0.2,0.1-2.2-0.7-2.4-0.8c-0.2-0.1-2-1-2-1.1c0-0.2,1.9-1.1,2.1-1.2c0.2-0.1,2.1-0.9,2.3-0.8
	c0.2,0.1,0.3,1.8,0.3,2C431,190.4,430.9,192.1,430.7,192.1L430.7,192.1z"/>
<path fill="#CCCCCC" d="M514.5,192.1c0.2,0.1,2.2-0.7,2.4-0.8c0.2-0.1,2-1,2-1.1c0-0.2-1.9-1.1-2.1-1.2c-0.2-0.1-2.1-0.9-2.3-0.8
	c-0.2,0.1-0.3,1.8-0.3,2C514.3,190.4,514.3,192.1,514.5,192.1L514.5,192.1z"/>
<rect x="431.9" y="197.2" fill="#CCCCCC" width="84.7" height="3.9"/>
<path fill="#CCCCCC" d="M432,201.1c-0.2,0.1-2.2-0.7-2.4-0.8c-0.2-0.1-2-1-2-1.1c0-0.2,1.9-1.1,2.1-1.2c0.2-0.1,2.1-0.9,2.3-0.8
	c0.2,0.1,0.3,1.8,0.3,2C432.3,199.4,432.2,201,432,201.1L432,201.1z"/>
<path fill="#CCCCCC" d="M515.9,201.1c0.2,0.1,2.2-0.7,2.4-0.8c0.2-0.1,2-1,2-1.1c0-0.2-1.9-1.1-2.1-1.2c-0.2-0.1-2.1-0.9-2.3-0.8
	c-0.2,0.1-0.3,1.8-0.3,2C515.6,199.4,515.6,201,515.9,201.1L515.9,201.1z"/>
<rect x="302.2" y="209.1" fill="#9B128B" width="32.3" height="3.9"/>
<path fill="#9B128B" d="M302.3,213c-0.2,0.1-2.2-0.7-2.4-0.8c-0.2-0.1-2-1-2-1.1c0-0.2,1.9-1.1,2.1-1.2c0.2-0.1,2.1-0.9,2.3-0.8
	c0.2,0.1,0.3,1.8,0.3,2C302.6,211.3,302.6,212.9,302.3,213L302.3,213z"/>
<path fill="#9B128B" d="M334.4,213c0.2,0.1,2.2-0.7,2.4-0.8c0.2-0.1,2-1,2-1.1c0-0.2-1.9-1.1-2.1-1.2c-0.2-0.1-2.1-0.9-2.3-0.8
	c-0.2,0.1-0.3,1.8-0.3,2C334.1,211.3,334.2,212.9,334.4,213L334.4,213z"/>
<rect x="347.7" y="209.1" fill="#FF7043" width="53" height="3.9"/>
<path fill="#FF7043" d="M347.8,213c-0.2,0.1-2.2-0.7-2.4-0.8c-0.2-0.1-2-1-2-1.1c0-0.2,1.9-1.1,2.1-1.2c0.2-0.1,2.1-0.9,2.3-0.8
	c0.2,0.1,0.3,1.8,0.3,2C348.1,211.3,348,212.9,347.8,213L347.8,213z"/>
<path fill="#FF7043" d="M400.4,213c0.2,0.1,2.2-0.7,2.4-0.8c0.2-0.1,2-1,2-1.1c0-0.2-1.9-1.1-2.1-1.2c-0.2-0.1-2.1-0.9-2.3-0.8
	c-0.2,0.1-0.3,1.8-0.3,2C400.2,211.3,400.2,212.9,400.4,213L400.4,213z"/>
<rect x="413.2" y="208.9" fill="#CCCCCC" width="84.7" height="3.9"/>
<path fill="#CCCCCC" d="M413.3,212.8c-0.2,0.1-2.2-0.7-2.4-0.8c-0.2-0.1-2-1-2-1.1c0-0.2,1.9-1.1,2.1-1.2c0.2-0.1,2.1-0.9,2.3-0.8
	c0.2,0.1,0.3,1.8,0.3,2C413.6,211.1,413.5,212.7,413.3,212.8L413.3,212.8z"/>
<path fill="#CCCCCC" d="M497.2,212.8c0.2,0.1,2.2-0.7,2.4-0.8c0.2-0.1,2-1,2-1.1c0-0.2-1.9-1.1-2.1-1.2c-0.2-0.1-2.1-0.9-2.3-0.8
	c-0.2,0.1-0.3,1.8-0.3,2C496.9,211.1,497,212.7,497.2,212.8L497.2,212.8z"/>
</svg>
