<?xml version="1.0" encoding="utf-8"?>
<!-- Generator: Adobe Illustrator 25.2.0, SVG Export Plug-In . SVG Version: 6.00 Build 0)  -->
<svg version="1.2" baseProfile="tiny" id="Laag_1" xmlns="http://www.w3.org/2000/svg" xmlns:xlink="http://www.w3.org/1999/xlink"
	 x="0px" y="0px" viewBox="0 0 809 505" overflow="visible" xml:space="preserve">
<g>
	<rect x="0.4" y="-0.3" fill="#4A8D9B" width="809" height="313.3"/>
	<rect x="0.4" y="-0.3" fill="#A5A5A5" width="809" height="17.3"/>
</g>
<g transform="translate(-1.4374 .30535)">
	<ellipse fill="#7986CB" cx="560.7" cy="8.2" rx="4.7" ry="4.7"/>
	<ellipse fill="#7986CB" cx="547.2" cy="8.2" rx="4.7" ry="4.7"/>
	<ellipse fill="#7986CB" cx="534" cy="8.2" rx="4.7" ry="4.7"/>
</g>
<g>
	<path fill="#141414" d="M283.8,22.9c0.1,0,0.3-0.1,0.4-0.1C284.1,22.8,284,22.8,283.8,22.9z"/>
	<g>
		<path fill="none" d="M252.8,64.5C252.8,64.5,252.8,64.5,252.8,64.5c0.1,3,1.2,5.6,2.5,8.1C254,70.1,252.9,67.5,252.8,64.5
			C252.8,64.5,252.8,64.5,252.8,64.5z"/>
		<path fill="none" d="M335.9,122.4c0.8-0.2,1.5-0.3,2.1-0.4C337.3,122.2,336.6,122.3,335.9,122.4z"/>
		<path fill="none" d="M305.9,173.6c-0.1-0.1-0.2-0.2-0.3-0.3C305.7,173.4,305.8,173.5,305.9,173.6z"/>
		<path fill="none" d="M288.1,121.9c0.1-2.2,0.2-4.2,0.3-5.8C288.1,118,288.1,120,288.1,121.9z"/>
		<path fill="none" d="M338.5,122c0.2,0,0.5-0.1,1-0.1C339.1,121.9,338.7,122,338.5,122z"/>
		<path fill="none" d="M310.5,178.2c-0.2-0.2-0.4-0.4-0.6-0.6C310.2,177.8,310.3,178,310.5,178.2z"/>
		<path fill="none" d="M271.9,40.8L271.9,40.8C271.9,40.8,271.8,40.8,271.9,40.8C271.8,40.8,271.9,40.8,271.9,40.8z"/>
		<path fill="none" d="M315.7,125.3c3.9-4.2,9.4-5.2,14.4-7.1c1.3-0.5,2.7-0.8,4-1.1c6.7-2.1,13.7-2.7,20.6-3.8
			c2.2-0.7,13.9-1.4,17.3-2.3c1-0.2,2-0.2,3-0.2c1-0.1,2.2-0.2,3.5-0.4c0.1,0,0.1,0,0.2-0.1c0,0,0,0,0,0.1
			c15.1-1.6,50.2-5.8,47.3-7.4c-8.8-5.8-17.8-11.2-27.2-16.1c-0.4,0.2-39.4-19.1-75.7-21.8c-7.7-0.2-15.4-0.5-23.2-0.1
			c-9.4,1.6-17.3,5-25.6,8.4c-0.7,0.3-1.5,0.5-2.2,0.8c0,0.3-7.6,3.3-10.5,6c-0.3,0-0.6,0-1,0c0,0.1,0.1,0.1,0.1,0.2
			c-0.4,0.8,0.1,1.3,0.6,1.9c3,3.5,5.8,7.3,9.1,10.5c0.5,0.4,0.9,0.8,1.3,1.2c0.4,0.4,0.8,0.7,1.2,1.1c1,0.8,1.7,2,2.6,3h0
			c3.3,3.5,7,6.4,9.9,10.3c0,0,0,0,0,0c1.3,1.1,2.7,2.1,3.7,3.5c0.1,0,0.2,0,0.2-0.1c0.3,0.1,0.6,0.3,1,0.3
			c1.1,1.2,17.7,14.5,22.1,18C313.2,128.4,314,126.6,315.7,125.3z"/>
		<path fill="none" d="M289.8,23.5c1.7-0.3,3.4-0.7,5.1-1C293.2,22.8,291.5,23.1,289.8,23.5L289.8,23.5z"/>
		<path fill="none" d="M290.9,36.2C290.9,36.2,290.9,36.2,290.9,36.2C290.9,36.2,290.9,36.2,290.9,36.2L290.9,36.2z"/>
		<path fill="none" d="M315.3,132.5C315.4,132.5,315.4,132.5,315.3,132.5C315.4,132.5,315.4,132.5,315.3,132.5z"/>
		<path fill="none" d="M356.7,127.4c-0.1,0-0.1,0-0.2,0c-0.1,0-0.3,0-0.4,0.1c1.5-0.1,3.1-0.1,4.8-0.2c0,0,1.9-0.1,4.6-0.2
			C361.5,127.3,357.6,127.4,356.7,127.4z"/>
		<path fill="none" d="M321.6,141.9c-0.1,0.2-0.2,0.3-0.3,0.5C321.4,142.3,321.5,142.1,321.6,141.9z"/>
		<path fill="none" d="M311.7,179.5c-0.2-0.2-0.4-0.4-0.6-0.6C311.3,179,311.5,179.3,311.7,179.5z"/>
		<path fill="none" d="M329.3,134.3c0.1-0.1,0.2-0.1,0.4-0.2c-0.8,0.5-1.5,0.8-1.6,0.9C328.5,134.8,328.9,134.5,329.3,134.3z"/>
		<path fill="none" d="M401.9,155.8c0.4-0.3,0.9-0.6,1.3-0.9c0.3-0.2,1.1-0.6,2.3-1.2c-1.4,0.6-2.4,1.1-2.6,1.3
			C402.5,155.3,402.2,155.5,401.9,155.8z"/>
		<path fill="none" d="M535.3,115.9c-3.4,0.5-6.7,1.5-9.8,3.1c-1,0.3-1.9,0.5-2.9,0.8c-6.2,2-58,18-65.1,19.3
			c-1.4,0.3-11.5,2.5-12.6,3.1c-2.1,0.4-6.1,1.5-7.2,1.8c10-2.5,19.5-4.8,20.2-4.9c7.2-1.4,59-17.4,65.1-19.3c1-0.3,1.9-0.5,2.9-0.8
			c3.1-1.5,6.3-2.6,9.8-3.1c0.3-0.2,0.6-0.3,0.9-0.4c0.1,0,0.2-0.1,0.4-0.1c-0.2,0.1-0.5,0.1-0.7,0.2
			C535.9,115.6,535.6,115.6,535.3,115.9z"/>
		<path fill="none" d="M541.2,115.2c0.1-0.1,0.1-0.1,0.2-0.2c-0.2,0-0.5-0.1-0.8-0.1C540.8,115.1,541,115.1,541.2,115.2z"/>
		<path fill="none" d="M394.7,240.9c-0.4-0.9-0.8-1.9-1.1-3c0.1,0.6,0.3,1.2,0.4,1.8C394.2,240.1,394.4,240.5,394.7,240.9z"/>
		<path fill="none" d="M416.1,149.3c-0.2,0.1-0.7,0.3-1.5,0.6c2.1-0.6,7.1-1.9,12.9-3.4c-2.6,0.6-4.7,1.1-4.7,1.1
			C422.5,147.7,417.2,148.9,416.1,149.3z"/>
		<path fill="none" d="M284.5,23.5C284.5,23.5,284.5,23.5,284.5,23.5c-3.5,0.7-7.1,1.3-10.6,2.1C277.5,24.8,281,24.2,284.5,23.5
			C284.5,23.5,284.5,23.5,284.5,23.5z"/>
		<path fill="none" d="M313.9,182.1c-0.2-0.3-0.4-0.5-0.6-0.8C313.5,181.6,313.7,181.9,313.9,182.1z"/>
		<path fill="none" d="M312.8,180.8c-0.2-0.2-0.4-0.5-0.6-0.7C312.4,180.3,312.6,180.6,312.8,180.8z"/>
		<path fill="none" d="M315,183.6c-0.2-0.3-0.4-0.6-0.7-0.9C314.6,183,314.8,183.3,315,183.6z"/>
		<path fill="none" d="M316.4,185.5c-0.3-0.5-0.7-0.9-1-1.4C315.7,184.5,316.1,185,316.4,185.5z"/>
		<path fill="none" d="M334.1,213.6c-1.4-0.8-2.6-1.9-3.6-3.1c-1.8-1.6-4.4-3.5-6.6-9.4C327.6,212,333.3,213.1,334.1,213.6z"/>
		<linearGradient id="SVGID_1_" gradientUnits="userSpaceOnUse" x1="438.6486" y1="136.6727" x2="479.7316" y2="190.4803">
			<stop  offset="0" style="stop-color:#E6E6EA"/>
			<stop  offset="3.626710e-02" style="stop-color:#D7D7DB"/>
			<stop  offset="0.1694" style="stop-color:#A6A6A8"/>
			<stop  offset="0.3054" style="stop-color:#7C7C7D"/>
			<stop  offset="0.4418" style="stop-color:#5A5A5A"/>
			<stop  offset="0.5789" style="stop-color:#3F3F3E"/>
			<stop  offset="0.7169" style="stop-color:#2C2C2B"/>
			<stop  offset="0.8565" style="stop-color:#21211F"/>
			<stop  offset="1" style="stop-color:#1D1D1B"/>
		</linearGradient>
		<path fill="url(#SVGID_1_)" d="M549.8,126.5L549.8,126.5C549.8,126.5,549.8,126.5,549.8,126.5c-0.2-3.6-0.3-7.3-3.1-10.1l-0.1,0.1
			c-0.1,0-0.2,0-0.2,0l-0.1,0.1c-1.2-0.1-2.5-1.1-4.9-1.4c-0.1,0.1-0.1,0.1-0.2,0.2c-0.2-0.1-0.4-0.2-0.6-0.2c-1-0.1-2.2,0-3.6,0.3
			c-0.1,0-0.2,0.1-0.4,0.1c-0.3,0-0.6,0.1-0.9,0.4c-3.4,0.5-6.7,1.5-9.8,3.1c-1,0.3-1.9,0.5-2.9,0.8c-6.2,2-58,18-65.1,19.3
			c-0.7,0.1-10.1,2.4-20.2,4.9c-0.2,0-0.3,0.1-0.3,0.1c-0.7,0.2-5.9,1.5-9.9,2.5c-5.9,1.5-10.8,2.8-12.9,3.4
			c-2.2,0.9-6.4,2.6-9.1,3.8c-1.1,0.6-2,1.1-2.3,1.2c-0.5,0.3-0.9,0.6-1.3,0.9c-8.3,7.3-10.9,17.1-11.4,27.8c-0.2,1-0.3,16.5-0.3,21
			c0.3,4.1-0.4,17.6,3.4,33.3c0.3,1.1,0.7,2.1,1.1,3c1,1.5,2.2,2.8,3.7,3.9c0,0,0.1,0,0.1,0c4.3,1.1,10.7,1.4,14.7,0.6
			c18.1-3.6,83.2-26.7,98.1-32.7c3.3-1.4,6.5-2.8,9.8-4.2c2.8-1.1,5.6-2.3,7.9-4.3c-0.3-0.2,13.7-11.2,15.8-21.4
			c1-4.9,3.6-16.9,4.8-23.8C550.9,145.6,550.7,133.1,549.8,126.5z"/>
		<path fill="none" d="M443.7,120C443.7,120,443.7,120,443.7,120C443.7,120,443.7,120,443.7,120C443.7,120,443.7,120,443.7,120z"/>
		<path fill="#101010" d="M260.7,80c-0.1,0-0.1,0.1-0.2,0.1c0,0.1,0.1,0.1,0.1,0.2c0.3,0,0.6,0,1,0C261.3,80.2,261,80.1,260.7,80z"
			/>
		<path fill="#0F0F0F" d="M271.7,37.4c0.2-0.2,0.4-0.6,0.5-0.9c0-0.1,0.1-0.2,0.1-0.2c0,0,0,0,0-0.1c0,0,0-0.1,0.1-0.1
			c0,0,0-0.1,0.1-0.1c0.3-0.3,0.6-0.2,1,0.3c1.4,1.5,3.7-0.9,5.2,1.3c-2.3,1.1-5.2,0.9-7,3.1c0,0,0.1,0,0.1,0
			c0.4-0.2,0.8-0.4,1.2-0.6c1.9-1,4.2-1,6.2-1.5c2-0.5,3.9-1.2,5.9-1.7c1.9-0.5,3.7-0.6,5.7-0.7c0,0,0.1,0,0.1,0
			c0.1-0.1,0.3-0.2,0.4-0.2c-0.2-1.1-0.8-2.1-0.2-3.2c0.3-0.8,0.5-1.5,0.8-2.3c0-0.1,0-0.2,0-0.2s0,0.1,0,0.2c3-2,2.2-5.3,2.9-8.1
			c-1.7,0.3-3.4,0.7-5.1,1h0c-2,0.4-4.1,0.8-6.1,1.2c-0.5,0.2-1.1,0.3-1.7,0.5c-2.1,0.6-4.4,0.6-6.3,1.6c0.1,0,0.1,0.1,0.1,0.1
			c3.5-0.2,6.8-1.6,10.3-1.6c0,0,0,0,0,0c-0.1,0-0.1,0-0.2,0c-4.1,0.7-8.2,1.4-12.2,2.7c-0.3,0-0.7,0-0.7-0.1
			c-0.2-0.5,0.4-0.7,0.6-1.1c0,0,0,0,0,0c0,0,0,0,0,0c-2.2-1-0.1-1.1,0.3-1.2c3.5-0.7,7-1.4,10.6-2.1c-0.2-0.2-0.5-0.4-0.7-0.6
			c-4.1,0.7-8.1,1.4-12.2,2.1c-0.5,0.1-1.2,0.3-1.3,0.6c-0.8,2.6-1.5,5.2-2.1,7.8c-0.4,1.6,1.4,1.7,2.1,2.5c0.3,0.4,0.3,1.1,0.5,1.7
			C271.2,37.8,271.5,37.7,271.7,37.4z M289.9,26.6C289.7,26.7,290.2,26.6,289.9,26.6L289.9,26.6z M276.2,29.6c4.3-1,8.7-1.9,13-2.9
			c0,0,0,0,0.1,0c0.1,0,0.2-0.1,0.4-0.1c0.1,0,1.7-0.2,1.7-0.2s0.5,3.2,0.5,3.2v0c-5.1,0.6-10,2-14.9,3.1c-1,0.2-2.4,1-2.7-0.8
			C274,30.5,275.1,29.9,276.2,29.6z"/>
		<path fill="#0F0F0F" d="M273.8,26.7c-0.1,0-0.1,0-0.2,0c0,0,0,0,0,0c0,0,0,0,0,0C273.7,26.8,273.7,26.7,273.8,26.7z"/>
		<path fill="#0F0F0F" d="M273.6,26.8C273.6,26.8,273.6,26.8,273.6,26.8c-0.2,0.3-0.8,0.5-0.6,1c0,0.1,0.5,0.1,0.7,0.1
			c4-1.3,8.1-2,12.2-2.7c0.1,0,0.1,0,0.2,0c0,0,0,0,0,0c-3.5,0-6.8,1.5-10.3,1.6c0,0-0.1-0.1-0.1-0.1c2-1,4.2-0.9,6.3-1.6
			c0.5-0.2,1.2-0.2,1.7-0.5c-3.3,0.7-6.6,1.3-9.9,2C273.7,26.7,273.7,26.8,273.6,26.8z"/>
		<path fill="#2A2A2A" d="M249.3,73.7C249.3,73.7,249.3,73.7,249.3,73.7C249.3,73.8,249.3,73.8,249.3,73.7z"/>
		<path fill="#252525" d="M284.5,23.5C284.5,23.5,284.5,23.5,284.5,23.5c-3.5,0.7-7.1,1.3-10.6,2.1c-0.4,0.1-2.5,0.2-0.3,1.2
			c0,0,0,0,0,0c0.1,0,0.1,0,0.2,0c2-0.6,3.9-1.5,5.9-1.9c1.9-0.4,3.8-0.6,5.7-1c1.4-0.3,3-0.6,4.4-0.3c1.7-0.3,3.4-0.7,5.1-1
			c0-0.2,0-0.4,0-0.7c-0.1-0.9-0.7-1.1-1.5-1c-3.1,0.7-6.2,1.3-9.3,2c-0.1,0-0.3,0.1-0.4,0.1C284,23.1,284.3,23.3,284.5,23.5
			C284.5,23.5,284.5,23.5,284.5,23.5z"/>
		<path fill="#252525" d="M285.4,23.8c-1.9,0.4-3.8,0.6-5.7,1c-2,0.4-3.9,1.3-5.9,1.9c3.3-0.7,6.6-1.3,9.9-2c2-0.4,4.1-0.8,6.1-1.2
			C288.4,23.2,286.8,23.5,285.4,23.8z"/>
		<path fill="#343434" d="M270.7,37.7c-0.3,0.4-0.5,0.8-0.8,1.2c0.5-0.1,0.9-0.3,1.2-0.6C271,38.2,270.9,38,270.7,37.7z"/>
		<path fill="#343434" d="M271.8,39.2c0.7-0.9,1.2-1.8,1.8-2.7c0,0,0,0,0,0c-1.1-0.3-0.9,0.8-1.2,1.3c-0.4,0.6-0.8,1-1.2,0.6
			c-0.3,0.3-0.7,0.5-1.2,0.6C270.4,39.8,271.1,40,271.8,39.2z"/>
		<path fill="#343434" d="M271.7,37.4c-0.2,0.2-0.5,0.3-1,0.2c0.1,0.3,0.3,0.5,0.4,0.6C271.4,38,271.6,37.8,271.7,37.4z"/>
		<path fill="#343434" d="M272.6,36.1C272.6,36.1,272.5,36.1,272.6,36.1c-0.1,0.1-0.1,0.1-0.1,0.2c0,0,0,0,0,0.1
			c0,0.1-0.1,0.1-0.1,0.2c-0.2,0.3-0.3,0.7-0.5,0.9c-0.2,0.3-0.4,0.6-0.6,0.8c0.4,0.4,0.8,0,1.2-0.6c0.3-0.5,0.1-1.5,1.2-1.3
			c0,0,0,0,0,0C273.2,35.9,272.9,35.8,272.6,36.1z"/>
		<path fill="#0C0C0C" d="M315.2,128.1c0.4-0.4,0.8-0.8,1.2-1.2h0l-0.7-1.5c-1.7,1.2-2.5,3.1-3.3,4.9c0.5,0.4,0.9,0.7,1,0.8
			c0.4,0.3,1.1,1,1.7,1.4c0.1,0,0.2,0,0.3,0c0,0,0,0,0,0c0.1,0,0.2,0.1,0.4,0.1c0,0.1,0.1,0.2,0.1,0.3c0.6,0.4,1.2,0.8,1.8,1.2
			c0.1,0.1,1.4,1,1.4,1c0.8,0.5,1.1,5.9,1,13.1c0.1,0,0.1-0.1,0.2-0.1c0.2-0.1,0.3-0.2,0.5-0.2c0-0.6,0-0.9,0-1
			c-1.1-1.7-0.3-3.2,0.6-4.6c0.1-0.2,0.2-0.3,0.3-0.5c1.5-2.6,3.5-4.7,5.8-6.6c-3.9-1.7-7.7-3.5-11.6-5.2
			C314.5,129.6,313.9,129.1,315.2,128.1z"/>
		<path fill="#0C0C0C" d="M323.9,201c-2.2-5.9-3.8-15.9-3.7-33.7c0-1.4,0.4-13.9,0.5-18.6c0,0,0,0,0,0c-0.2-0.1-0.4-0.2-0.6-0.3
			c-0.1,12-0.9,28.6-1.4,35.3c0,3.2-0.5,2.4-2.3,1.7c-0.3-0.5-0.7-0.9-1-1.4c-0.1-0.2-0.2-0.3-0.4-0.5c-0.2-0.3-0.4-0.6-0.7-0.9
			c-0.1-0.2-0.3-0.4-0.4-0.6c-0.2-0.3-0.4-0.5-0.6-0.8c-0.2-0.2-0.3-0.4-0.5-0.6c-0.2-0.2-0.4-0.5-0.6-0.7c-0.2-0.2-0.4-0.4-0.5-0.6
			c-0.2-0.2-0.4-0.4-0.6-0.6c-0.2-0.2-0.4-0.4-0.6-0.6c-0.2-0.2-0.4-0.4-0.6-0.6c-0.6-0.6-1.1-1.2-1.7-1.8c0,0,0,0.1,0,0.1
			c-0.9-0.9-1.7-1.7-2.3-2.3c0,0,0,0-0.1-0.1c-0.1-0.1-0.2-0.2-0.3-0.3c-0.3-0.3-0.6-0.6-0.6-0.6c0,0-0.1-0.1-0.1-0.1
			c0,0.9-0.5,7,0,9.2c0.9,7,3.6,13.2,8.5,18.4c1.5,2.2,3.4,3.9,5.5,5.4c1.2,1.4,2.8,2.2,4.2,3.2c3.3,2.2,6.9,3.8,10.4,5.5
			c0.2-0.2,0.4-0.5,0.7-0.7C333.3,213.1,327.6,212,323.9,201z"/>
		<path fill="#0C0C0C" d="M320.2,148.2c-0.1,0-0.1,0.1-0.2,0.1c0,0.1,0,0.2,0,0.2c0.2,0.1,0.4,0.2,0.6,0.3c0,0,0,0,0,0
			c0-0.3,0-0.6,0-0.8C320.5,148,320.4,148.1,320.2,148.2z"/>
		<path fill="#0C0C0C" d="M315.4,132.5C315.4,132.5,315.4,132.5,315.4,132.5c-0.1,0-0.2,0-0.3,0c0.3,0.3,0.6,0.4,0.7,0.4
			c0,0,0.1,0.1,0.1,0.1c0-0.1-0.1-0.2-0.1-0.3C315.6,132.6,315.5,132.5,315.4,132.5z"/>
		<path fill="#0C0C0C" d="M315.3,132.5c-0.1,0-0.2,0-0.3,0c0,0,0,0,0,0C315.1,132.5,315.2,132.5,315.3,132.5z"/>
		<path fill="#0C0C0C" d="M315.4,132.5c0.1,0,0.2,0.1,0.4,0.1C315.6,132.6,315.5,132.5,315.4,132.5z"/>
		<path fill="#878787" d="M277,32.7c5-1,9.9-2.5,14.9-3.1v0c0,0-0.5-3.2-0.5-3.2s-1.7,0.2-1.7,0.2c-0.1,0-0.3,0-0.4,0.1
			c0,0,0,0-0.1,0c-4.3,0.9-8.7,1.9-13,2.9c-1.1,0.3-2.2,0.8-2,2.3C274.6,33.7,276,32.9,277,32.7z"/>
		<path fill="#646464" d="M289.9,26.6C290.2,26.6,289.7,26.7,289.9,26.6L289.9,26.6z"/>
		<path fill="#646464" d="M289.6,26.7c0,0.1,0.1,0.1,0.1,0.2C289.7,26.8,289.7,26.8,289.6,26.7C289.6,26.7,289.6,26.7,289.6,26.7z"
			/>
		<path fill="#272727" d="M374.9,110.8c-1,0-2,0-3,0.2C372,111.1,373.1,111,374.9,110.8z"/>
		<path fill="#272727" d="M378.7,110.4c-0.1,0-0.1,0.1-0.2,0.1C378.5,110.5,378.6,110.5,378.7,110.4
			C378.7,110.4,378.7,110.4,378.7,110.4z"/>
		<path fill="#272727" d="M378.7,110.5C378.7,110.5,378.7,110.5,378.7,110.5C378.7,110.4,378.7,110.4,378.7,110.5
			C378.7,110.4,378.7,110.4,378.7,110.5z"/>
		<path fill="#2E2E2E" d="M378.5,110.5c-1.4,0.1-2.5,0.3-3.5,0.4C376.1,110.8,377.3,110.9,378.5,110.5z"/>
		<path fill="#2E2E2E" d="M279.3,38.6c-2,0.5-4.3,0.5-6.2,1.5c-0.4,0.2-0.8,0.4-1.2,0.6c0.9-0.1,1.7-0.3,2.6-0.5
			c5.2-1.1,10.3-3,15.6-3.6c0.2-0.1,0.5-0.3,0.8-0.4c-1.9,0.1-3.7,0.2-5.7,0.7C283.2,37.4,281.3,38.1,279.3,38.6z"/>
		<path fill="#2E2E2E" d="M464.3,89.5c-2.9-2.7-5.9-1.8-9-1.3C458.2,89,461,90.1,464.3,89.5z"/>
		<path fill="#2E2E2E" d="M434.4,104.3c0.3-0.1,0.9-0.3,0.5-0.7c-0.3-0.3-0.9-0.4-1.3-0.6c-0.2,1.8-1.5,0.7-2.3,0.8
			c-1.1,0.2-2.1,0.7-3.2,0.4C430.2,105.1,432.3,104.9,434.4,104.3z"/>
		<path fill="#2E2E2E" d="M432.4,103.2c-0.4,0.1-0.9,0.1-1.3,0.2C431.5,103.5,432,103.5,432.4,103.2z"/>
		<path fill="#2E2E2E" d="M431.4,103.8c0.8-0.1,2.1,1.1,2.3-0.8c0,0,0,0,0,0c-0.4,0.1-0.9,0.1-1.3,0.2c-0.4,0.3-0.9,0.3-1.3,0.2
			c-1,0.1-2,0.4-2.9,0.9C429.3,104.5,430.3,103.9,431.4,103.8z"/>
		<path fill="#2E2E2E" d="M378.7,110.5c-0.1,0-0.1,0-0.2,0c-1.1,0.4-2.3,0.4-3.5,0.4c-1.9,0.2-3,0.3-3,0.2c0.3,0.4,0.3,0.7,0.1,1
			c1.4-0.2,2.7-0.3,4.1-0.4c0.8-0.1,1.6-0.3,2.3-0.7C378.5,110.8,378.5,110.6,378.7,110.5z"/>
		<path fill="#2E2E2E" d="M378.6,111c0,0,0.1,0,0.1,0c0-0.2,0-0.3,0-0.5c0,0,0,0,0,0C378.5,110.6,378.5,110.8,378.6,111z"/>
		<path fill="#2E2E2E" d="M372,112.2c1.4-0.2,2.8-0.3,4.2-0.5c-1.4,0.1-2.7,0.2-4.1,0.4C372.1,112.1,372.1,112.1,372,112.2z"/>
		<path fill="#2E2E2E" d="M372,111c0,0.3,0,0.7,0,1c0,0,0.1,0,0.1,0C372.3,111.7,372.2,111.4,372,111z"/>
		<path fill="#2E2E2E" d="M372,112.1c0,0,0,0.1,0,0.1C372,112.2,372,112.2,372,112.1c0.1,0.1,0.1,0,0.1,0
			C372.1,112.1,372,112.1,372,112.1z"/>
		<path fill="#575756" d="M472.5,89.4c-0.6-0.8-1.4-0.9-2.2-0.6c-2.8,1-20.5-11.5-22-12.3c-10.3-5.7-20.6-11.3-30.9-16.9
			c-3.4-0.3-6.3-1.8-9.3-3.1c-1.7-0.8-3.4-1.9-5.4-1.8c-0.2-0.6-0.7-0.9-1.3-1.1c-4.4-1.7-8.7-3.7-13.4-4.9
			c-3.8-1.7-7.7-2.9-11.7-4.1c-0.8-0.3-1.7-0.5-2.5-0.8c-6.7-2.4-13.5-4.3-20.5-5.5c-2.9-0.8-5.8-1.5-8.7-1.7
			c-9.9-2.2-19.9-2.4-29.9-3.1c-4.3-0.4-8.6-0.4-12.8,0c-0.6,0-1.2,0-1.8-0.1c-2.9-0.8-5.9,0.8-8.7-0.5c-0.6,1.1,0,2.1,0.2,3.2
			c-0.1,0.1-0.3,0.2-0.4,0.2l-0.1,0c-0.3,0.1-0.5,0.3-0.8,0.4c-5.3,0.6-10.4,2.5-15.6,3.6c-0.9,0.2-1.7,0.3-2.6,0.5h0
			c0,0-0.1,0-0.1,0c1.8-2.2,4.6-2,7-3.1c-1.4-2.1-3.7,0.2-5.2-1.3c-0.6,0.9-1.1,1.9-1.8,2.7c-0.7,0.9-1.3,0.7-1.8-0.3
			c-2.1,1-4.3,1.8-6.3,3c-4.6,2.7-8.9,5.6-10.9,11c0.2,0.9,1.9-1.6,1.3,0.6c-1,3.7-1.3,7.4-1.3,11.2c0,0,0,0,0,0
			c0.1,3,1.2,5.6,2.5,8.1c0.6,1.2,1.2,2.3,1.8,3.5c1.5,0.3,1.3,2.8,3.2,2.5c-0.3,0.5-0.1,1,0.2,1.4c0.1,0,0.1-0.1,0.2-0.1
			c0.3,0.1,0.6,0.2,0.8,0.3c2.9-2.8,10.5-5.7,10.5-6c0.8-0.3,1.5-0.5,2.2-0.8c8.4-3.4,16.2-6.7,25.6-8.4c7.7-0.4,15.4-0.2,23.2,0.1
			c36.3,2.7,75.3,22.1,75.7,21.8c9.4,4.8,18.4,10.3,27.2,16.1c2.9,1.6-32.2,5.8-47.3,7.4c0,0.2,0,0.3,0,0.5c0,0-0.1,0-0.1,0
			c-0.8,0.3-1.5,0.5-2.3,0.7c-1.4,0.2-2.8,0.3-4.2,0.5c0,0-0.1,0-0.1,0c0,0,0-0.1,0-0.1c0-0.3,0-0.7,0-1c-3.4,0.9-15,1.6-17.3,2.3
			c-6.9,1.1-13.9,1.7-20.6,3.8c-1.3,0.4-2.7,0.6-4,1.1c-5,1.9-10.5,2.9-14.4,7.1l0.7,1.5h0c0.2-0.1,0.5-0.2,0.7-0.3
			c0.8-0.3,1.6-0.6,2.4-0.9l0,0c0.5,0.7,1.1,0.9,1.8,0.5c2.6-1.6,5.5-2.1,8.5-2.5c0.8-0.1,3.9-0.7,6.2-1.2c0.7-0.2,1.4-0.3,2.1-0.4
			c0.2,0,0.4-0.1,0.5-0.1c0.2,0,0.6-0.1,1-0.1c8.9-0.9,63.8-5.5,64.2-5.6c5.2-0.8,10.4-1.5,15.6-2.5c8.3-1.6,16.6-3.4,24.9-5.1
			c0.2,0,0.3-0.1,0.5-0.1c2.6-0.8,5.2-1.5,7.8-2.4c4.7-1.8,9.8-2.9,13.9-6c0.4-0.3,0.7-0.6,1.1-0.9c0.1-0.1,0.3-0.3,0.4-0.4
			c1.5-1.1,2.8-2.3,4-3.7c0.3-0.4,0.6-0.8,0.9-1.2c0-1.1,0-2.2,0.1-3.2C473.1,90.1,473,89.7,472.5,89.4z M434.7,104.3
			c-2.1,0.6-4.2,0.8-6.3-0.1c0.9-0.5,1.9-0.7,2.9-0.9c0.4-0.1,0.9-0.1,1.3-0.2c0.4-0.1,0.9-0.1,1.3-0.2c0,0,0,0,0,0
			c0.5,0.2,1,0.2,1.3,0.6C435.6,104.1,435,104.2,434.7,104.3z M455.6,88.1c3-0.5,6.1-1.3,9,1.3C461.2,90.1,458.4,89,455.6,88.1z"/>
		<path fill="#1D1D1B" d="M449.6,115.3c-0.9,0.9-3.4,1.4-2.7,2.4c1.1,1.6,2.5-0.5,3.6-1.1c0.1,0,0.2-0.1,0.2-0.2c0,0,0,0,0,0
			c0,0,0,0,0,0c0.9-0.4,1.8-0.7,2.8-1.1c0.5-0.2,1-0.4,1.5-0.6c-0.6-0.2-1.3-0.5-1.9-0.7c-0.1,0-0.3,0.1-0.4,0.1
			C451.6,114.2,450.5,114.6,449.6,115.3z"/>
		<path d="M442.4,119.9c0.4,0,0.8,0,1.3,0.1c0,0,0,0,0,0c0,0,0,0,0,0c-1.6,1-2.7,1.7-4.5,2.9c0,0-0.1,0-0.1,0.1c0.1,0,0.2,0,0.3,0
			c2.1,0,3.9,0.2,5.5,0.1c0.9-0.1,1.8-0.2,2.6-0.5c5.6-1.9,11.4-2.9,17-5.4c-3.3-0.4-6-2.8-9.5-2.5c-0.5,0.2-1,0.4-1.5,0.6
			c-0.9,0.4-1.8,0.7-2.8,1.1c0,0,0,0,0,0c0,0,0,0,0,0c-0.1,0.1-0.1,0.1-0.2,0.2c-1.2,0.7-2.5,2.7-3.6,1.1c-0.7-1.1,1.8-1.5,2.7-2.4
			c1-0.6,2-1,3.1-1.2c0.1,0,0.3-0.1,0.4-0.1c0-0.1,0-0.1,0.1-0.2C449.4,113.8,445.1,116.8,442.4,119.9z M460,117.5
			c0.2,0.1,0.4,0.2,0.6,0.2c-0.9,0.2-2.1,0.2-3,0.4c-3.5,0.8-6.3,1.7-10.1,2.5C450.5,117.5,456.1,116.1,460,117.5z"/>
		<path fill="#1F1F1F" d="M472.8,90.6c0,1.1,0,2.2-0.1,3.2c-0.3,0.4-0.6,0.8-0.9,1.2c-1.1,1.4-2.5,2.6-4,3.7
			c-0.1,0.1-0.3,0.3-0.4,0.4c-0.4,0.3-0.7,0.6-1.1,0.9c-4.1,3.1-9.2,4.3-13.9,6c-2.5,0.9-5.2,1.6-7.8,2.4c-0.2,0-0.3,0.1-0.5,0.1
			c-8.3,1.7-16.6,3.5-24.9,5.1c-5.2,1-10.4,1.7-15.6,2.5c-0.4,0.1-0.8,0.1-1.2,0.2c-5.8,0.6-54.6,4.5-63,5.4c-0.5,0-0.8,0.1-1,0.1
			c-0.2,0-0.3,0.1-0.5,0.1c-0.5,0.1-1.3,0.2-2.1,0.4c-0.8,0.2-1.7,0.4-2.5,0.7c-1.2,0.2-2.5,0.3-3.7,0.5c-2.9,0.4-5.8,0.9-8.5,2.5
			c-0.7,0.4-1.4,0.2-1.8-0.5l0,0c-0.8,0.3-1.6,0.6-2.4,0.9c-0.2,0.1-0.5,0.2-0.7,0.3c-0.4,0.4-0.8,0.8-1.2,1.2
			c-1.3,1.1-0.6,1.5,0.6,2.1c3.9,1.7,7.8,3.5,11.6,5.2c0.2-0.1,0.5-0.2,0.7-0.4c0.1-0.1,0.7-0.4,1.6-0.9c2.3-1.5,9.4-5.7,26.4-6.6
			c0.1,0,0.3,0,0.4-0.1c0.1,0,0.1,0,0.2,0c0.9,0,4.8-0.1,8.8-0.3c6.5-0.3,17.9-0.8,21-1l8.6-0.5c0,0,0,0,0.1,0
			c3.1-0.8,6.3-0.9,9.5-1.2c0.1,0,0.2,0,0.3,0c5.3-0.9,10.7-1.7,16-2.7c3.8-0.7,7.5-1.7,11.3-0.7c2.2,0.5,4.2,0.4,6.2-0.4
			c1.2,0.1,2.4-0.7,3.9-0.7c2.7-3.1,7-6.1,10.8-6.1c0-0.1,0.1-0.2,0.1-0.3c4.5-0.5,8.4-2.7,12.3-4.8c0.4-0.2,0.9-0.4,1.3-0.6
			c6.8-3,12.2-7.1,12.6-15.4C477.8,90,475.3,90.5,472.8,90.6z M474.7,100.5c0.3-2.6,1.1-4.8-0.4-7.3
			C477.1,95.1,477.1,97,474.7,100.5z"/>
		<path d="M474.7,100.5c2.4-3.6,2.3-5.4-0.4-7.3C475.9,95.7,475.1,97.9,474.7,100.5z"/>
		<path d="M335.9,122.4c-2.4,0.5-5.4,1.1-6.2,1.2c1.2-0.2,2.5-0.3,3.7-0.5C334.3,122.9,335.1,122.6,335.9,122.4z"/>
		<path d="M338,122.1c0.2,0,0.3-0.1,0.5-0.1C338.4,122,338.2,122,338,122.1z"/>
		<path d="M403.7,116.3c-0.4,0.1-55.3,4.7-64.2,5.6c8.4-0.9,57.2-4.9,63-5.4C402.9,116.4,403.3,116.3,403.7,116.3z"/>
		<path d="M460.5,117.8c-0.2-0.1-0.4-0.2-0.6-0.2c-0.6,0.3-1.3,0.6-1.9,0.8C458.8,118.2,459.7,118,460.5,117.8z"/>
		<path fill="#2E2E2E" d="M304.9,172.7C304.9,172.7,304.9,172.7,304.9,172.7C304.9,172.7,304.9,172.7,304.9,172.7
			c0.2,0.2,0.4,0.4,0.6,0.6c0.1,0.1,0.2,0.2,0.3,0.3c0.3,0.3,0.6,0.6,0.9,0.9c1.1,1,2.1,2.1,3.1,3.1c0.2,0.2,0.4,0.4,0.6,0.6
			c0.2,0.2,0.4,0.4,0.6,0.6c0.2,0.2,0.4,0.4,0.6,0.6c0.2,0.2,0.4,0.4,0.5,0.6c0.2,0.2,0.4,0.5,0.6,0.7c0.2,0.2,0.3,0.4,0.5,0.6
			c0.2,0.3,0.4,0.5,0.6,0.8c0.1,0.2,0.3,0.4,0.4,0.6c0.2,0.3,0.4,0.6,0.7,0.9c0.1,0.2,0.2,0.3,0.4,0.5c0.3,0.5,0.7,0.9,1,1.4
			c1.8,0.8,1.8,0.8,1.8-2.4c0.5-6.9,1-13.8,1.2-20.7c0.2-0.4,0.2-0.9,0.2-1.4c0-6,0.4-11.9-0.5-17.9c-0.1-0.6-0.2-1.2-0.3-1.9
			c0-1.5,0-3.1-0.6-4.6c0-0.7-0.1-1.5-0.5-2.1c0-0.1-0.1-0.2-0.2-0.3c-0.6-0.4-1.2-0.8-1.8-1.2c0,0-0.1-0.1-0.1-0.1
			c-0.4,0-0.8,0-1.2,0c-0.2,0-0.4,0-0.6,0c0,0,0,0,0,0c0-0.2,0-0.3,0-0.5c-0.6-0.6-1.6-0.4-2.2-1c-0.4-0.4-0.5-0.8,0-0.9
			c0.1,0,0.3,0,0.5,0c0-0.1,0-0.1,0.1-0.2c-4.4-3.5-21-16.9-22.1-18c-0.3-0.1-0.7-0.2-1-0.3c-0.1,0-0.2,0-0.2,0.1c0,0,0,0,0,0
			c-0.1,0.5-0.1,1,0,1.6c-0.3,0.8-0.5,1.6-0.7,2.5c-0.1,1.6-0.2,3.6-0.3,5.8c0,0,0,0.1,0,0.1c0,4,0,7.9,0,11.9
			c0,2.7-0.1,5.5-0.2,8.2c-0.4,3.9-0.8,7.9-1.1,11.8c-0.2-0.2-0.3-0.3-0.5-0.5c-0.1-0.1-0.2-0.2-0.3-0.3c0,0.1,0,0.1,0,0.1
			c0.4,0.6,18.6,19.1,18.5,19c-1.4-1.3-0.1-0.1,0.4,0.4l0,0C304.8,172.7,304.9,172.7,304.9,172.7z"/>
		<path fill="#2E2E2E" d="M314,131.8C314,131.7,313.9,131.7,314,131.8C313.9,131.7,314,131.7,314,131.8z"/>
		<path fill="#2E2E2E" d="M313.5,131.5C313.5,131.5,313.5,131.5,313.5,131.5C313.5,131.5,313.5,131.5,313.5,131.5z"/>
		<path fill="#2E2E2E" d="M313,131.3C313,131.3,312.9,131.3,313,131.3C312.9,131.3,313,131.3,313,131.3z"/>
		<path fill="#2E2E2E" d="M314.8,132.3c-0.2-0.1-0.4-0.2-0.5-0.3c0.1,0.1,0.1,0.1,0.1,0.2c0,0.1,0.1,0.2,0.1,0.3
			c0.2-0.1,0.3-0.1,0.5-0.1h0C314.9,132.4,314.9,132.4,314.8,132.3z"/>
		<path fill="#2E2E2E" d="M314.1,131.8C314.1,131.9,314.2,131.9,314.1,131.8C314.2,131.9,314.1,131.9,314.1,131.8z"/>
		<path fill="#2E2E2E" d="M313.2,131.4C313.2,131.4,313.2,131.4,313.2,131.4C313.2,131.4,313.2,131.4,313.2,131.4z"/>
		<path fill="#2E2E2E" d="M313.8,131.6C313.8,131.6,313.7,131.6,313.8,131.6C313.7,131.6,313.8,131.6,313.8,131.6z"/>
		<path fill="#2E2E2E" d="M313.3,181.4c-0.2-0.2-0.3-0.4-0.5-0.6C313,181,313.1,181.2,313.3,181.4z"/>
		<path fill="#2E2E2E" d="M314.4,182.7c-0.1-0.2-0.3-0.4-0.4-0.6C314.1,182.3,314.2,182.5,314.4,182.7z"/>
		<path fill="#2E2E2E" d="M315.4,184.1c-0.1-0.2-0.2-0.3-0.4-0.5C315.2,183.8,315.3,183.9,315.4,184.1z"/>
		<path fill="#2E2E2E" d="M312.2,180.1c-0.2-0.2-0.4-0.4-0.5-0.6C311.9,179.7,312,179.9,312.2,180.1z"/>
		<path fill="#2E2E2E" d="M304.9,172.7c0,0,0.3,0.3,0.6,0.6C305.3,173.1,305.1,172.9,304.9,172.7
			C304.9,172.7,304.9,172.7,304.9,172.7z"/>
		<path fill="#2E2E2E" d="M311.1,178.8c-0.2-0.2-0.4-0.4-0.6-0.6C310.7,178.4,310.9,178.6,311.1,178.8z"/>
		<path fill="#2E2E2E" d="M304.9,172.7c0,0-0.1-0.1-0.1-0.1l0,0C304.9,172.7,304.9,172.7,304.9,172.7
			C304.9,172.7,304.9,172.7,304.9,172.7z"/>
		<path fill="#2E2E2E" d="M306.8,174.5c-0.3-0.3-0.6-0.6-0.9-0.9c0,0,0,0,0.1,0.1c0.6,0.6,1.4,1.4,2.3,2.3c0,0,0-0.1,0-0.1
			c0.6,0.6,1.2,1.2,1.7,1.8C309,176.6,307.9,175.5,306.8,174.5z"/>
		<path fill="#2E2E2E" d="M320,148.3c0-7.2-0.2-12.6-1-13.1c0-0.1-1.3-1-1.4-1c0.1,0.1,0.1,0.2,0.2,0.3c0.4,0.6,0.4,1.4,0.5,2.1
			c0.6,1.5,0.6,3,0.6,4.6c0.1,0.6,0.2,1.3,0.3,1.9c0.9,5.9,0.5,11.9,0.5,17.9c0,0.5-0.1,1-0.2,1.4c-0.2,6.9-0.7,13.8-1.2,20.7
			c0,3.2,0,3.2-1.8,2.4c1.8,0.8,2.2,1.6,2.3-1.7c0.5-6.7,1.3-23.3,1.4-35.3c-0.1,0-0.2-0.1-0.2-0.1C319.9,148.4,320,148.4,320,148.3
			z"/>
		<path fill="#2E2E2E" d="M312.7,131.1c0.1,0,0.1,0.1,0.2,0.1c0,0,0,0,0.1,0c0.1,0,0.1,0.1,0.2,0.1c0,0,0,0,0.1,0
			c0.1,0,0.2,0.1,0.3,0.1c0,0,0,0,0,0c0.1,0,0.1,0,0.2,0.1c0,0,0.1,0,0.1,0c0,0,0.1,0,0.1,0.1c0,0,0.1,0,0.1,0.1
			c0,0,0.1,0.1,0.1,0.1c0,0,0.1,0,0.1,0.1c0,0,0.1,0.1,0.1,0.1c0.2,0.1,0.4,0.2,0.5,0.3c0.1,0,0.1,0.1,0.2,0.1h0c0,0,0,0,0,0
			c-0.5-0.4-1.3-1.1-1.7-1.4c-0.1-0.1-0.5-0.4-1-0.8c0,0.1,0,0.1-0.1,0.2c0,0.2,0.1,0.4,0.2,0.5C312.5,131,312.6,131,312.7,131.1z"
			/>
		<path fill="#2E2E2E" d="M314.4,132.2c0-0.1-0.1-0.2-0.1-0.2c0,0,0,0,0,0c0,0-0.1-0.1-0.1-0.1c0,0-0.1-0.1-0.1-0.1
			c0,0-0.1-0.1-0.1-0.1c0,0-0.1,0-0.1-0.1c0,0-0.1,0-0.1-0.1c0,0-0.1,0-0.1,0c-0.1,0-0.1,0-0.2-0.1c0,0,0,0,0,0
			c-0.1,0-0.2-0.1-0.3-0.1c0,0,0,0-0.1,0c-0.1,0-0.1-0.1-0.2-0.1c0,0,0,0-0.1,0c-0.1,0-0.1-0.1-0.2-0.1c-0.1-0.1-0.2-0.1-0.3-0.2
			c0.4,0.6,1.3,0.7,1.5,1.4h0c0,0.2,0,0.3,0,0.5c0.2-0.2,0.4-0.3,0.6-0.3C314.5,132.4,314.5,132.3,314.4,132.2z"/>
		<path fill="#2E2E2E" d="M313.9,131.7c0,0-0.1,0-0.1-0.1C313.8,131.6,313.9,131.7,313.9,131.7z"/>
		<path fill="#2E2E2E" d="M314.1,131.8c0,0-0.1-0.1-0.1-0.1C314,131.8,314.1,131.8,314.1,131.8z"/>
		<path fill="#2E2E2E" d="M312.9,131.2c-0.1,0-0.1-0.1-0.2-0.1C312.8,131.2,312.9,131.2,312.9,131.2z"/>
		<path fill="#2E2E2E" d="M313.2,131.4c-0.1,0-0.1-0.1-0.2-0.1C313,131.3,313.1,131.3,313.2,131.4z"/>
		<path fill="#2E2E2E" d="M313.5,131.5c-0.1,0-0.2-0.1-0.3-0.1C313.3,131.4,313.4,131.5,313.5,131.5z"/>
		<path fill="#2E2E2E" d="M314.2,131.9C314.2,131.9,314.3,132,314.2,131.9C314.3,132,314.3,132,314.2,131.9
			C314.3,132,314.2,131.9,314.2,131.9z"/>
		<path fill="#2E2E2E" d="M313.7,131.6c-0.1,0-0.1,0-0.2-0.1C313.6,131.5,313.6,131.6,313.7,131.6z"/>
		<path fill="#2E2E2E" d="M319.8,148.5c0.1,0,0.2,0.1,0.2,0.1c0-0.1,0-0.2,0-0.2C320,148.4,319.9,148.4,319.8,148.5z"/>
		<path fill="#2E2E2E" d="M315,132.4c-0.2,0-0.3,0-0.5,0.1c0,0.1,0,0.2,0.1,0.3c0.4,0,0.8,0,1.2,0
			C315.6,132.9,315.4,132.7,315,132.4C315,132.4,315,132.4,315,132.4z"/>
		<path fill="#2E2E2E" d="M315,132.5C315,132.4,315,132.4,315,132.5C315,132.4,315,132.4,315,132.5C315,132.4,315,132.4,315,132.5z"
			/>
		<path fill="#2E2E2E" d="M313.9,132.8C313.9,132.8,313.9,132.8,313.9,132.8c0.2,0,0.4,0,0.6,0c0-0.1,0-0.2-0.1-0.3
			C314.3,132.6,314.1,132.7,313.9,132.8z"/>
		<path fill="#2E2E2E" d="M312.3,130.4c-0.2,0-0.4,0-0.5,0c0.2,0.2,0.4,0.3,0.7,0.5C312.3,130.8,312.3,130.6,312.3,130.4z"/>
		<path fill="#2E2E2E" d="M312.4,130.9c-0.2-0.2-0.4-0.3-0.7-0.5c-0.5,0.1-0.4,0.5,0,0.9c0.6,0.6,1.5,0.4,2.2,1h0
			C313.7,131.6,312.8,131.5,312.4,130.9z"/>
		<path fill="#2C2C2C" d="M251.2,59c0-0.2,0.7,3.9,1.6,5.5c0-3.8,0.3-7.5,1.3-11.2c0.6-2.2-1.2,0.3-1.3-0.6c-1.6,2.7-2,5.7-2.3,8.7
			C250.7,61.7,251,58.8,251.2,59z"/>
		<path fill="#6B6B6B" d="M288.4,116.1c0.1-2.4,0.2-3.9,0.2-4c0.1-0.1,0.3-0.1,0.4-0.1c-1-1.4-2.4-2.4-3.7-3.5c0,0,0,0,0,0
			c-2.9-3.8-6.6-6.8-9.9-10.3h0c-0.9-1-1.6-2.1-2.6-3c-0.4-0.4-0.8-0.7-1.2-1.1c-0.4-0.4-0.8-0.8-1.3-1.2c-3.3-3.3-6-7-9.1-10.5
			c-0.5-0.6-0.9-1.1-0.6-1.9c0-0.1-0.1-0.1-0.1-0.2c0-0.1-0.1-0.1-0.1-0.2c-0.2-0.4-0.4-0.9-0.2-1.4c-1.9,0.3-1.7-2.2-3.2-2.5
			c-0.6-1.2-1.2-2.3-1.8-3.5c-1.3-2.5-2.4-5.1-2.5-8.1c0,0,0,0,0,0c-1-1.6-1.4-3.8-1.6-2.9c0,0.2-0.1,0.3-0.1,0.5
			c-0.2-0.2-0.4-0.4-0.6-0.6c-0.5,3.8-1,11.7-1.2,12.2c1.1,0,1.2,0.8,1.4,1.6c-0.3,0.1-0.6,0.1-0.9,0.2c-0.2-0.6-0.4-1.2-0.6-1.8
			c-0.4,5.7-0.4,11.3,0.1,17c0.4,4.6,0.6,9.2,2.4,13.5c0.7,3.3,1.9,6.4,3.4,9.5c0.1,0.1,0.1,0.2,0.2,0.4c0.4,1.3,1.3,2.7,1.2,4
			c-0.3,4.2,2,6.9,4.6,9.5c8.3,8.5,15.8,17.9,24.9,25.6c0.6-2.7,1.5-20,2.1-31.2C288.1,120,288.1,118,288.4,116.1z M269.5,98.5
			c-1.3,0.3-2.3,0-3.1-1.5c-0.4-0.8-1.4-1.6-0.8-2.4c0.9-1.2,1.7,0.5,2.6,0.5c0.1,0,0.2,0.1,0.3,0.1c0,0,0.1,0,0.1,0
			c0.1,0.1,0.2,0.1,0.4,0.2c0.2,0.1,0.3,0.2,0.5,0.2c0.1,0.2,0.2,0.4,0.3,0.6c0.3,0.6,0.6,1.2,0.9,1.8c0,0,0,0,0,0
			C270.2,98.3,269.8,98.4,269.5,98.5z M287.2,120.7c-0.2-0.2-0.3-0.4-0.4-0.6c0.2-0.2,0.4-0.3,0.6-0.4
			C287.3,120.1,287.2,120.4,287.2,120.7z"/>
		<path fill="#6B6B6B" d="M250.7,75.3c-0.2-0.8-0.3-1.6-1.4-1.6c0,0,0,0,0,0c0.2,0.6,0.4,1.2,0.6,1.8
			C250.1,75.4,250.4,75.4,250.7,75.3z"/>
		<path fill="#6B6B6B" d="M287.2,120.7c0.1-0.3,0.1-0.7,0.2-1c-0.2,0.1-0.4,0.2-0.6,0.4C286.8,120.4,287,120.6,287.2,120.7z"/>
		<path fill="#6B6B6B" d="M288.4,116.1c0.1-0.8,0.3-1.7,0.7-2.5c-0.1-0.6-0.1-1.1,0-1.6c0,0,0,0,0,0c-0.2,0-0.3,0.1-0.4,0.1
			C288.6,112.2,288.5,113.7,288.4,116.1z"/>
		<path fill="#6B6B6B" d="M286.8,154c0.3-4,0.7-7.9,1.1-11.8c0.1-2.7,0.2-5.5,0.2-8.2c0-4,0-7.9,0-11.9c0,0,0-0.1,0-0.1
			c-0.6,11.3-1.5,28.5-2.1,31.2c0.1,0.1,0.2,0.2,0.3,0.3C286.5,153.6,286.6,153.8,286.8,154z"/>
		<path fill="#6B6B6B" d="M268.6,95.9c-0.2,0-0.3-0.1-0.4-0.2c-0.1,0.5,0.1,0.9,0.4,1.2C268.5,96.6,268.5,96.3,268.6,95.9z"/>
		<path fill="#6B6B6B" d="M268.6,95.9c-0.1,0.3-0.1,0.6,0,0.9c0.5,0.5,1.4,0.7,2,1.2c-0.3-0.6-0.6-1.2-0.9-1.8
			c-0.2-0.1-0.4-0.3-0.6-0.5C268.9,95.9,268.7,95.9,268.6,95.9z"/>
		<path fill="#6B6B6B" d="M269.7,96.3c-0.1-0.2-0.2-0.4-0.3-0.6c-0.1,0.1-0.2,0.1-0.3,0.2C269.2,96,269.4,96.2,269.7,96.3z"/>
		<path fill="#6B6B6B" d="M268.2,95.7c-0.1-0.1-0.1-0.3-0.1-0.6c-0.9,0-1.7-1.6-2.6-0.5c-0.6,0.8,0.4,1.6,0.8,2.4
			c0.8,1.5,1.9,1.9,3.1,1.5c-0.4-0.5-0.7-1.1-0.9-1.7C268.3,96.6,268.1,96.2,268.2,95.7z"/>
		<path fill="#6B6B6B" d="M268.6,96.9c0.1,0.6,0.5,1.1,0.9,1.7c0.4-0.1,0.7-0.2,1.1-0.4c0,0,0,0,0,0C270,97.6,269.1,97.4,268.6,96.9
			z"/>
		<path fill="#6B6B6B" d="M268.6,95.9c0-0.1,0.1-0.2,0.1-0.3c0,0,0,0,0,0c-0.1-0.1-0.2-0.2-0.3-0.3c0,0-0.1,0-0.1,0
			c-0.1,0.2-0.1,0.3-0.2,0.5C268.3,95.9,268.5,95.9,268.6,95.9z"/>
		<path fill="#6B6B6B" d="M268.8,95.4c-0.1-0.1-0.2-0.1-0.4-0.2c0.1,0.1,0.2,0.2,0.3,0.3C268.8,95.5,268.8,95.5,268.8,95.4z"/>
		<path fill="#6B6B6B" d="M268.8,95.7c0,0-0.1-0.1-0.1-0.1c0,0,0,0,0,0c0,0.1-0.1,0.2-0.1,0.3c0.1,0,0.2,0,0.4-0.1
			C269,95.8,268.9,95.7,268.8,95.7z"/>
		<path fill="#6B6B6B" d="M268.8,95.7c0.1,0.1,0.1,0.1,0.2,0.1c0.1,0,0.2-0.1,0.3-0.2c-0.2-0.1-0.3-0.2-0.5-0.2c0,0-0.1,0.1-0.1,0.1
			C268.8,95.6,268.8,95.7,268.8,95.7z"/>
		<path fill="#6B6B6B" d="M268.4,95.2c-0.1,0-0.2-0.1-0.3-0.1c0,0.3,0,0.5,0.1,0.6C268.3,95.5,268.3,95.4,268.4,95.2z"/>
		<path fill="#6B6B6B" d="M251.2,61.6c0.2-0.8,0.7,1.3,1.6,2.9c-1-1.6-1.6-5.7-1.6-5.5c-0.2-0.2-0.5,2.7-0.7,2.5
			c0.2,0.2,0.4,0.4,0.6,0.6C251.1,62,251.1,61.8,251.2,61.6z"/>
		<linearGradient id="SVGID_2_" gradientUnits="userSpaceOnUse" x1="401.8007" y1="180.7968" x2="415.2528" y2="150.9842">
			<stop  offset="0" style="stop-color:#C7C8CC"/>
			<stop  offset="0.3396" style="stop-color:#FFFFFF"/>
			<stop  offset="0.7591" style="stop-color:#D9D9D9"/>
			<stop  offset="1" style="stop-color:#C9C9C9"/>
		</linearGradient>
		<path fill="url(#SVGID_2_)" d="M371.1,235c-1.8-1.5-3.2-3.3-4.5-5.2c-0.2-0.3-0.4-0.6-0.6-0.9c-1.2-2.7-2.3-5.4-3.5-8.1
			c-0.1-0.4-0.2-0.7-0.3-1.1c-0.2-0.6-0.4-1.3-0.5-1.9c-0.1-0.4-0.2-0.8-0.4-1.3c0.2-1.6-0.9-3-0.6-4.5c0-0.1,0-0.1,0-0.2l-0.6-3.8
			h0c-0.1-4.6-0.1-9.2-0.2-13.8c0.2-3.7,0.4-7.4,0.6-11c0.3-2.4,0.5-4.8,0.8-7.3c1.1-4.4,2-9,3.7-13.3c0.6-1,1.2-2.1,1.8-3.1
			c0.8-1,1.6-2,2.4-3c0,0,0,0,0-0.1c0.2,0,5.8-7.1,13.5-9.2c1.8-0.4,3.5-0.9,5-1.8c6.4-1.2,12.9-2.5,19.3-3.7
			c6.9-0.9,13.7-2,20.5-3.4c1.7-0.3,3.4-0.7,5.1-1c12.3-1.8,24.3-4.8,36.3-7.8c18.8-4.7,36.7-11.7,54.1-20.3c0.1,0,0.2-0.1,0.3-0.1
			c2.4-0.9,4.7-2.3,7.2-2.5c0.9-0.1,1.8-0.1,2.7,0.1c-2.6-1.9-5.6-2.9-8.6-3.6c0,0,0,0,0,0c-2.1-1.2-4.6-1.6-6.9-2.2
			c-9.2-2.4-18.3-5.2-27.8-6.4v0c-1-0.6-2.1-0.6-3.2-0.6c-2.5,0.1-5,0-7.2-1.2c-0.4,8.2-5.8,12.4-12.6,15.4
			c-0.4,0.2-0.9,0.4-1.3,0.6c-3.9,2.1-7.7,4.3-12.3,4.8c0,0.2-0.1,0.4-0.2,0.5c0.6,0.2,1.3,0.5,1.9,0.7c3.5-0.3,6.2,2.1,9.5,2.5
			c-5.5,2.5-11.4,3.5-17,5.4c-0.9,0.3-1.7,0.5-2.6,0.5c-1.7,0.1-3.4,0-5.5-0.1c-0.1,0-0.2,0-0.3,0c0,0,0.1,0,0.1-0.1
			c1.8-1.1,3-1.9,4.5-2.9c0,0,0,0,0,0c-2.2-0.5-3.6,0.7-5.2,0.6c-2,0.8-4.1,0.9-6.2,0.4c-3.8-0.9-7.6,0-11.3,0.7
			c-5.3,1-10.7,1.8-16,2.7c-0.1,0-0.2,0-0.3,0c-3.2,0.3-6.4,0.5-9.5,1.2c0,0,0,0-0.1,0l-8.6,0.5c-4.4,0.3-8.9,0.5-13.3,0.8
			c0.2,0.1,0.4,0.2,0.7,0.2c-0.2,0-0.4-0.1-0.7-0.2c-1.7,0-4.7,0.1-7.7,0.2c-2.7,0.1-4.6,0.2-4.6,0.2c-1.7,0-3.3,0.1-4.8,0.2
			c-2.6,0.4-5.2,0.6-7.8,0.9c-1.5,0.2-5.6,0.9-6.2,0.9c0,0,0,0,0,0c0,0-6,1.9-6.2,1.9c-1.6,0.4-4.5,1.9-6.3,2.8
			c-0.1,0.1-0.3,0.2-0.4,0.2c-0.4,0.2-0.8,0.4-1.2,0.6c-0.2,0.1-0.5,0.2-0.7,0.4c-2.3,1.9-4.3,4-5.8,6.6c-0.1,0.2-0.2,0.3-0.3,0.5
			c-0.3,0.6-0.7,1.2-0.9,1.8c0.2,0.4,0.4,0.8,0.5,1.2c0.3,1,0.4,1.9,0.4,2.9c1.1,1,0.7,2.4,0.5,3.6c-0.1,0.6-0.1,1.2-0.2,1.8
			c0.3,0.9,0.2,1.8-0.2,2.7c-0.1,1.5-0.2,2.9-0.3,4.4c-1.5,20.2,0.1,32.5,2.7,40.1c2.1,5.9,4.8,7.8,6.6,9.4c1,1.3,2.2,2.3,3.6,3.1
			c-0.2,0.2-0.4,0.5-0.7,0.7c3.5,1.4,6.4,3.8,9.7,5.4l0,0c2.5,2.3,5.6,3.9,8.6,5.5l0,0c2.5,2.1,5.4,3.5,8.2,5.1
			c4.8,2.6,9.2,6,14.5,7.5c-0.6-0.5-1.1-1.1-1.7-1.6C372.1,235.9,371.6,235.5,371.1,235z M321.2,183.9
			C321.2,183.9,321.2,183.9,321.2,183.9c-0.8-5.7-0.7-11.4,0-17.1C321.2,172.5,321.2,178.2,321.2,183.9z M350.6,199.3
			C350.6,199.3,350.6,199.4,350.6,199.3c0,0.1,0,0.1,0,0.1c0,0,0,0.1,0,0.1c0,0.2,0,0.4,0,0.6c0,0,0,0,0,0c0,0.4,0,0.8,0,1.2
			c0,0,0,0,0,0h0c0,1.6,0,3.3,0,4.9c-0.3,1.5-0.4,3-0.9,4.5c-1.2,3.8-4.1,4.9-7.8,3.4c-2.6-1-4.9-2.3-7.1-3.9c-1.6-0.9-2.9-2-4-3.4
			c-0.5-0.5-1-1-1.5-1.5c-0.8-0.8-1.6-1.6-1.8-2.8c-1-1.6-5.5-19.1-5.4-20.5c0.1-2.6-0.2-5.2-0.1-7.8c0.1-2,0.1-4,0.1-6
			c0-1,0.1-2,0.2-3c0.2-1.7,0.5-3.4,1.1-5.1c0.5-1.5,1.2-2.8,2.2-3.9h0c4.2-4.4,8.9-3.5,13.6-1.1c2.1,1,4,2.4,6,3.6
			c0.1,0.2,0.3,0.4,0.4,0.5c1.1,1.5,2.4,3,3.1,4.7c0,0.1,0.1,0.2,0.1,0.3v0c0,0,0,0,0,0.1c2,4,2.2,9.5,2.4,13.8
			c0.2,3,0.2,5.9,0.1,8.7C351.3,188.5,350.8,197.7,350.6,199.3z M352.4,180.6C352.4,180.6,352.4,180.6,352.4,180.6
			C352.4,180.6,352.4,180.6,352.4,180.6C352.4,180.6,352.4,180.6,352.4,180.6z"/>
		<polygon fill="#7D7D7D" points="352.4,180.6 352.4,180.6 352.4,180.6 		"/>
		<path fill="#7D7D7D" d="M320.7,147c0,0,0,0.4,0,1c0.1,0,0.2-0.1,0.4-0.1c0.1,0.1,0.1,0.3,0.2,0.4c-0.2,0.2-0.4,0.3-0.5,0.5
			c-0.1,4.7-0.5,17.2-0.5,18.6c-0.1,17.8,1.6,27.7,3.7,33.7c-2.6-7.6-4.2-19.9-2.7-40.1c0.1-1.5,0.1-2.9,0.3-4.4
			c0.4-0.8,0.5-1.8,0.2-2.7c0.1-0.6,0.1-1.2,0.2-1.8c0.1-1.2,0.6-2.6-0.5-3.6c-0.1-1-0.2-2-0.4-2.9c-0.1-0.5-0.3-0.9-0.5-1.2
			c0.2-0.6,0.5-1.2,0.9-1.8C320.4,143.8,319.6,145.3,320.7,147z"/>
		<path fill="#7D7D7D" d="M321.1,147.9c-0.1,0-0.2,0.1-0.4,0.1c0,0.2,0,0.5,0,0.8c0.2-0.2,0.4-0.3,0.5-0.5
			C321.2,148.2,321.1,148,321.1,147.9z"/>
		<path fill="#7D7D7D" d="M321.2,183.9C321.2,183.9,321.2,183.9,321.2,183.9c-0.4-5.7-0.4-11.4,0-17.1
			C320.5,172.5,320.4,178.2,321.2,183.9z"/>
		<path fill="#7D7D7D" d="M321.2,183.9c0-5.7,0-11.4,0-17.1C320.8,172.5,320.8,178.2,321.2,183.9z"/>
		<path fill="#7D7D7D" d="M373.2,126.9c4.4-0.3,8.9-0.5,13.3-0.8c-3.1,0.2-14.6,0.7-21,1C368.5,127,371.5,126.9,373.2,126.9z"/>
		<path fill="#7D7D7D" d="M335.9,131.2c0.2,0,6.2-1.9,6.2-1.9c0,0,0,0,0,0c0.6,0,4.7-0.7,6.2-0.9c2.6-0.4,5.2-0.5,7.8-0.9
			c-17.1,0.9-24.1,5.1-26.4,6.6C331.4,133.1,334.3,131.6,335.9,131.2z"/>
		<path fill="#7D7D7D" d="M373.2,126.9c0.2,0.1,0.4,0.2,0.7,0.2C373.6,127,373.4,127,373.2,126.9z"/>
		<path fill="#7D7D7D" d="M350.6,200.2c0-0.2,0-0.4,0-0.6C350.6,199.7,350.6,200,350.6,200.2C350.6,200.2,350.6,200.2,350.6,200.2z"
			/>
		<path fill="#7D7D7D" d="M350.6,199.4C350.6,199.4,350.6,199.3,350.6,199.4C350.6,199.4,350.6,199.4,350.6,199.4
			C350.6,199.4,350.6,199.4,350.6,199.4z"/>
		<path fill="#969696" d="M350.6,199.4C350.6,199.5,350.6,199.5,350.6,199.4C350.6,199.5,350.6,199.5,350.6,199.4z"/>
		<path fill="#969696" d="M351.1,178c-0.2-4.3-0.4-9.8-2.4-13.8c0,0,0,0,0-0.1v0c0-0.1-0.1-0.2-0.1-0.3c-0.8-1.8-2-3.2-3.1-4.7
			c-0.1-0.2-0.3-0.4-0.4-0.5c-2-1.2-3.9-2.5-6-3.6c-4.7-2.4-9.4-3.3-13.6,1.1h0c-1.1,1.1-1.7,2.5-2.2,3.9c-0.6,1.7-0.9,3.4-1.1,5.1
			c-0.1,1-0.2,2-0.2,3c-0.1,2-0.1,4-0.1,6c-0.1,2.6,0.2,5.2,0.1,7.8c-0.1,1.3,4.5,18.9,5.4,20.5c0.2,1.2,1,1.9,1.8,2.8
			c0.5,0.5,1,1,1.5,1.5c1.1,1.4,2.4,2.5,4,3.4c2.2,1.6,4.5,2.9,7.1,3.9c3.7,1.5,6.6,0.4,7.8-3.4c0.5-1.4,0.6-3,0.9-4.5
			c0-1.6,0-3.3,0-4.9h0c0,0,0,0,0,0c0-0.4,0-0.8,0-1.2c-0.2,3.5-0.6,7.2-2.2,10.2c-2.7,5.1-9.8,0.8-13.8-1.7
			c-1.2-1.4-2.7-2.3-3.8-3.8c-0.2-0.2-0.3-0.5-0.5-0.7c-0.1-2.1-0.7-4.3-1.4-6.2c-0.3-0.6-1.1-1-1.7-0.8c-0.5-1.4-0.9-2.7-1.3-4.2
			c-0.3-1.2-0.7-2.5-1-3.7c0-2.2,0-4.4,0-6.6c0-1.8,0.3-3.8-0.2-5.5c-0.1-0.3-0.3-0.5-0.5-0.6c0.1-3.2,0-6.5,0.3-9.7
			c0.1-1.1-1-1.4-1.8-1c0.4-2.5,1.2-5,2.4-7.3c3-5.8,9.5-4.7,14.4-2.2c4.3,2.2,7.8,5.9,9.6,10.4c1.9,4.6,1.6,10.1,1.6,15
			c0.1,5.5,0.3,11,0,16.5c0,0.3,0,0.6,0,1c0.2-1.6,0.7-10.8,0.6-12.6C351.3,183.9,351.3,181,351.1,178z"/>
		<path fill="#969696" d="M350.7,181.9c-0.1-4.9,0.3-10.4-1.6-15c-1.8-4.5-5.3-8.2-9.6-10.4c-4.9-2.5-11.4-3.6-14.4,2.2
			c-1.2,2.3-1.9,4.7-2.4,7.3c0.8-0.4,1.9-0.1,1.8,1c-0.3,3.2-0.2,6.5-0.3,9.7c0.2,0.2,0.4,0.4,0.5,0.6c0.5,1.7,0.2,3.7,0.2,5.5
			c0,2.2,0,4.4,0,6.6c0.3,1.3,0.6,2.5,1,3.7c0.4,1.4,0.8,2.8,1.3,4.2c0.6-0.2,1.4,0.2,1.7,0.8c0.8,1.9,1.4,4.1,1.4,6.2
			c0.2,0.3,0.3,0.5,0.5,0.7c1.1,1.5,2.6,2.4,3.8,3.8c4,2.5,11.1,6.7,13.8,1.7c1.6-3,2-6.8,2.2-10.2c0-0.2,0-0.4,0-0.6
			c0,0,0-0.1,0-0.1c0,0,0-0.1,0-0.1c0-0.3,0-0.6,0-1C351,192.9,350.8,187.4,350.7,181.9z M345.5,196.9c-0.8,0.1-1.3-0.4-1.5-1.2
			c-0.1-0.9,0.2-1.6,1-1.9c1.2,0,1.4,0.8,1.5,1.6C346.7,196.2,346.4,196.8,345.5,196.9z"/>
		<path fill="#969696" d="M345,193.8c-0.8,0.3-1.1,1-1,1.9c0.1,0.8,0.7,1.2,1.5,1.2c0.9-0.1,1.2-0.7,1-1.5
			C346.4,194.6,346.2,193.8,345,193.8z"/>
		<path fill="#3F3F3F" d="M399.2,245.1c0.1,0,0.2,0,0.2,0C399.3,245.1,399.3,245.1,399.2,245.1z"/>
		<linearGradient id="SVGID_3_" gradientUnits="userSpaceOnUse" x1="425.4117" y1="205.7406" x2="445.7716" y2="161.3854">
			<stop  offset="0" style="stop-color:#1D1D1B"/>
			<stop  offset="0.3396" style="stop-color:#616161"/>
			<stop  offset="0.5656" style="stop-color:#3B3B3B"/>
			<stop  offset="0.8531" style="stop-color:#101010"/>
			<stop  offset="1" style="stop-color:#000000"/>
		</linearGradient>
		<path fill="url(#SVGID_3_)" d="M394.7,240.9c-0.2-0.4-0.5-0.8-0.7-1.1c-0.2-0.6-0.3-1.2-0.4-1.8c-4.9-15.5-3.3-51.2-3.3-51.3
			c0.2-1-1.4-21.7,11.7-30.9c0.3-0.3,0.6-0.6,1-0.8c0.2-0.2,1.2-0.7,2.6-1.3c2.8-1.5,7.2-3.7,8.1-3.4c0.1-0.1,0.5-0.2,1-0.4
			c0.7-0.3,1.3-0.5,1.5-0.6c1.1-0.4,6.4-1.6,6.8-1.7c0,0,2.1-0.5,4.7-1.1c3.2-0.8,6.7-1.7,10.1-2.5c1.1-0.3,5.1-1.4,7.2-1.8
			c1.1-0.5,11.2-2.8,12.6-3.1c7.2-1.4,59-17.4,65.1-19.3c1-0.3,1.9-0.5,2.9-0.8c3.1-1.5,6.3-2.6,9.8-3.1c0.3-0.2,0.6-0.3,0.9-0.4
			c0.2-0.1,0.5-0.1,0.7-0.2c1.2-0.4,2.4-0.7,3.6-0.3c0.3,0,0.5,0,0.8,0.1c2.1-1.5,3.3,1,5,1.4l0,0c-0.9-2.4-3.4-3.1-5.1-4.7
			c-0.4,0-0.7-0.1-1.1-0.1c-2-2.4-5.3-2.7-7.4-4.9c-0.8-0.2-1.6-0.2-2.3-0.2c-2.4,0.3-4.6,1.6-6.9,2.4c-0.1,0-0.2,0.1-0.3,0.1
			c-17.3,8.6-35.3,15.6-54.1,20.3c-12,3-24,6.1-36.3,7.8c-1.7,0.3-3.4,0.7-5.1,1c-6.8,1.3-13.6,2.5-20.5,3.4
			c-6.4,1.2-12.9,2.5-19.3,3.7c-1.6,0.9-3.3,1.4-5,1.8c-1.6,0.9-3.7,1-5.1,2.4c-2.6,2.3-5.9,3.7-7.8,6.8c-0.2,0-0.4,0.1-0.5,0.1
			c0,0,0,0,0,0.1c-0.8,1-1.6,2-2.4,3c-0.6,1-1.2,2.1-1.8,3.1c-1.7,4.3-2.5,8.8-3.7,13.3c-0.3,2.4-0.5,4.8-0.8,7.3
			c-0.2,3.7-0.4,7.4-0.6,11c0.1,4.6,0.1,9.2,0.2,13.8c0,0,0,0,0,0l0.6,3.8c0,0.1,0,0.1,0,0.2c-0.3,1.6,0.9,3,0.6,4.5
			c0.1,0.4,0.2,0.8,0.4,1.3c0.2,0.6,0.4,1.3,0.5,1.9c0.1,0.4,0.2,0.7,0.3,1.1c1.2,2.7,2.3,5.4,3.5,8.1c0.2,0.3,0.4,0.6,0.6,0.9
			c1.3,2,2.7,3.7,4.5,5.2c0.5,0.4,1.1,0.9,1.7,1.2c0.6,0.6,1.3,1.2,1.9,1.8c-0.2-0.1-0.4-0.1-0.6-0.2c0.1,0.1,0.1,0.1,0.2,0.2
			c4.9,3,22.6,6.6,24.5,7c-0.3-0.1-0.8-0.2-0.8-0.2c0,0-0.1,0-0.1-0.1C396.9,244.4,395.7,243,394.7,240.9z M418.9,144.5
			c0.4-0.2,0.9-0.4,1.3-0.5c3.6-0.8,7.3-1.7,10.9-2.5c0.2,0.2,0.4,0.4,0.7,0.7c-0.1,0-0.3,0.1-0.4,0.1c-2.1,0.6-4.2,1.2-6.4,1.8
			c-1.7,0.5-3.5,1-5.2,1.5c-0.3-0.1-0.6,0-0.8,0.2c-0.3,0-0.6,0-0.8,0c-0.1,0-0.3,0-0.4,0c-0.2-0.2-0.4-0.4-0.5-0.5
			C417.7,144.9,418.3,144.7,418.9,144.5z M367.6,209.8c-0.1,1.6-0.6,2.9-2.4,2.7c-0.2,0-0.4-0.1-0.6-0.1c1.1-5,0.8-10,1-15
			c0.1-2.1-0.3-4.2-0.4-6.3c0-0.1,0-0.1,0-0.2c0-0.6,0-1.3,0-1.9c0-0.4-0.1-0.8-0.3-1.2c0-0.1-0.1-0.3-0.2-0.4
			c0.3-1.3-0.8-2.2-1.3-3.2c0.8-0.6,1.7-0.4,2.4-0.4c0.4,0.4,0.8,0.8,1.2,1.2c0.2,0.2,0.4,0.4,0.6,0.6c0,5.2,0,10.5,0,15.7
			c0,0.1,0,0.1,0,0.2C367.7,204.2,367.7,207,367.6,209.8z M384.4,180c-0.2,1.8-0.2,3.6-0.2,5.4c0,1.6,0,3.2,0,4.9c0,0,0,0.1,0,0.1
			c0,0-0.6,14.7-0.6,22c-0.1,1.3,0.1,2.5,0.3,3.7c-0.4,0.4-0.7,0.9-0.9,1.5c-3.1,0.9-6.2,1.8-9.4,1.7c-0.2-0.1-0.4-0.2-0.5-0.3
			c-0.1-0.1-0.2-0.1-0.2-0.1c0,0-0.1-0.1-0.2-0.1c0,0,0,0,0,0c-0.1-0.4-0.2-0.8-0.2-1.2c-0.1-0.6-0.3-1.3-0.5-1.8
			c0.7-0.8,0.7-1.9,0.7-3c0-1.9,0.7-34,1.1-36.5c0.2-1.6,0.5-3.2,0.7-4.7c0,0,0,0,0,0s0,0,0,0c-0.1-1.8,0.7-2.4,2.5-1.8h0
			c0.3,0.2,0.6,0.4,1,0.6c0.3,0.2,0.6,0.4,0.9,0.6c0,0,0.1,0,0.1,0c1.5,2.1,3.4,3.9,5.5,5.5c0,0.2,0.1,0.4,0.1,0.6
			c0,0.3,0.1,0.6,0.1,1c0,0.3,0,0.6,0,0.8C384.5,179.2,384.5,179.6,384.4,180z"/>
		<path fill="#3F3F3F" d="M405.5,153.7c2.7-1.2,6.9-2.9,9.1-3.8c-0.6,0.2-0.9,0.3-1,0.4C412.7,150,408.3,152.2,405.5,153.7z"/>
		<path fill="#3F3F3F" d="M394.7,240.9c1,2.1,2.2,3.5,3.7,3.9C396.8,243.7,395.6,242.4,394.7,240.9z"/>
		<path fill="#3F3F3F" d="M390.2,186.7c0,0-1.6,35.8,3.3,51.3c-3.7-15.7-3-29.2-3.4-33.3c0-4.5,0.1-20,0.3-21
			c0.5-10.7,3.1-20.5,11.4-27.8C388.8,165,390.4,185.7,390.2,186.7z"/>
		<path fill="#3F3F3F" d="M437.4,144c0,0,0.1,0,0.3-0.1c-3.4,0.8-6.9,1.7-10.1,2.5C431.5,145.5,436.7,144.2,437.4,144z"/>
		<path fill="#3F3F3F" d="M541.4,115.1c2.4,0.3,3.7,1.3,4.9,1.4l0.1-0.1C544.7,116.1,543.5,113.5,541.4,115.1z"/>
		<path fill="#3F3F3F" d="M537,115.4c1.4-0.3,2.6-0.4,3.6-0.3C539.3,114.6,538.1,114.9,537,115.4z"/>
		<path fill="#3F3F3F" d="M420.1,144.8c-0.3,0.7-1.2,0.7-1.9,0.9c0.3,0,0.6,0,0.8,0c0.3-0.2,0.5-0.3,0.8-0.2c1.7-0.5,3.5-1,5.2-1.5
			c-1.6,0.4-3.1,0.7-4.8,0.8C420.2,144.8,420.1,144.8,420.1,144.8z"/>
		<path fill="#3F3F3F" d="M420.2,144.8c1.6-0.1,3.2-0.4,4.8-0.8c2.1-0.6,4.2-1.2,6.4-1.8c-0.1-0.2-0.2-0.5-0.2-0.8
			c-3.6,0.8-7.3,1.7-10.9,2.5c0,0.4-0.1,0.6-0.2,0.8C420.1,144.8,420.2,144.8,420.2,144.8z"/>
		<path fill="#3F3F3F" d="M418.1,145.7c0.7-0.2,1.6-0.2,1.9-0.9c-0.4-0.1-0.8-0.2-1.2-0.3c-0.6,0.2-1.1,0.5-1.7,0.7
			c0.2,0.2,0.4,0.4,0.5,0.5C417.9,145.7,418,145.7,418.1,145.7z"/>
		<path fill="#3F3F3F" d="M420.2,144c-0.4,0.2-0.9,0.4-1.3,0.5c0.4,0.1,0.8,0.2,1.2,0.3C420.2,144.6,420.2,144.3,420.2,144z"/>
		<path fill="#3F3F3F" d="M431.8,142.1c-0.2-0.2-0.4-0.4-0.7-0.7c0,0.3,0.1,0.6,0.2,0.8C431.5,142.2,431.7,142.1,431.8,142.1z"/>
		<path fill="#3F3F3F" d="M373.1,236.2c-0.6-0.4-1.2-0.8-1.7-1.2c-1.8-1.5-3.2-3.3-4.5-5.2c-0.2-0.3-0.4-0.6-0.6-0.9
			c-1.2-2.7-2.3-5.4-3.5-8.1c-0.1-0.4-0.2-0.7-0.3-1.1c-0.2-0.6-0.4-1.3-0.5-1.9c-0.1-0.4-0.2-0.8-0.4-1.3c0.2-1.6-0.9-3-0.6-4.5
			c0-0.1,0-0.1,0-0.2l-0.6-3.8c0,0,0,0,0,0c-0.1-4.6-0.1-9.2-0.2-13.8c0.2-3.7,0.4-7.4,0.6-11c0.3-2.4,0.5-4.8,0.8-7.3
			c1.1-4.4,2-9,3.7-13.3c0.6-1,1.2-2.1,1.8-3.1c0.8-1,1.6-2,2.4-3c0,0,0,0,0-0.1c0.2,0,0.4,0,0.5-0.1c1.9-3.1,5.3-4.5,7.8-6.8
			c1.4-1.4,3.4-1.5,5.1-2.4c1.8-0.4,3.5-0.9,5-1.8c6.4-1.2,12.9-2.5,19.3-3.7c6.9-0.9,13.7-2,20.5-3.4c1.7-0.3,3.4-0.7,5.1-1
			c12.3-1.8,24.3-4.8,36.3-7.8c18.8-4.7,36.7-11.7,54.1-20.3c0.1,0,0.2-0.1,0.3-0.1c2.3-0.8,4.4-2.1,6.9-2.4
			c-2.6,0.2-4.8,1.6-7.2,2.5c-0.1,0-0.2,0.1-0.3,0.1c-17.3,8.6-35.3,15.6-54.1,20.3c-12,3-24,6.1-36.3,7.8c-1.7,0.3-3.4,0.7-5.1,1
			c-6.8,1.3-13.6,2.5-20.5,3.4c-6.4,1.2-12.9,2.5-19.3,3.7c-1.6,0.9-3.3,1.4-5,1.8c-7.7,2.2-13.3,9.2-13.5,9.2c0,0,0,0,0,0.1
			c-0.8,1-1.6,2-2.4,3c-0.6,1-1.2,2.1-1.8,3.1c-1.7,4.3-2.5,8.8-3.7,13.3c-0.3,2.4-0.5,4.8-0.8,7.3c-0.2,3.7-0.4,7.4-0.6,11
			c0.1,4.6,0.1,9.2,0.2,13.8h0l0.6,3.8c0,0.1,0,0.1,0,0.2c-0.3,1.6,0.9,3,0.6,4.5c0.1,0.4,0.2,0.8,0.4,1.3c0.2,0.6,0.4,1.3,0.5,1.9
			c0.1,0.4,0.2,0.7,0.3,1.1c1.2,2.7,2.3,5.4,3.5,8.1c0.2,0.3,0.4,0.6,0.6,0.9c1.3,2,2.7,3.7,4.5,5.2c0.5,0.4,1.1,0.9,1.7,1.2
			c0.6,0.5,1.1,1.1,1.7,1.6c0.2,0.1,0.4,0.1,0.6,0.2C374.4,237.4,373.7,236.8,373.1,236.2z"/>
		<path fill="#1D1D1B" d="M384.4,177c0-0.2-0.1-0.4-0.1-0.6c-2-1.6-3.9-3.4-5.5-5.5c0,0-0.1,0-0.1,0c-0.3-0.2-0.6-0.4-0.9-0.6
			c-0.3-0.2-0.6-0.4-1-0.6h0c-1.7-0.6-2.5,0-2.5,1.8c0,0,0,0,0,0s0,0,0,0c-0.2,1.6-0.5,3.2-0.7,4.7c-0.4,2.5-1.1,34.5-1.1,36.5
			c0,1.1,0,2.2-0.7,3c0.2,0.6,0.4,1.2,0.5,1.8c0.1,0.4,0.1,0.8,0.2,1.2c0,0,0,0,0,0c0.1,0.1,0.1,0.1,0.2,0.1c0.1,0,0.1,0.1,0.2,0.1
			c0.2,0.1,0.4,0.2,0.5,0.3c3.2,0.1,6.3-0.8,9.4-1.7c0.2-0.6,0.5-1.1,0.9-1.5c-0.2-1.2-0.4-2.4-0.3-3.7c0-7.3,0.6-22,0.6-22
			c0,0,0-0.1,0-0.1c0-1.6,0-3.2,0-4.9c0-1.8,0.1-3.6,0.2-5.4c0-0.4,0.1-0.8,0.1-1.2c0-0.3,0-0.6,0-0.8
			C384.5,177.6,384.5,177.3,384.4,177z"/>
		<path fill="#1D1D1B" d="M367.7,201.2c0-5.2,0-10.5,0-15.7c-0.2-0.2-0.4-0.4-0.6-0.6c-0.4-0.4-0.8-0.8-1.2-1.2
			c-0.8,0.1-1.6-0.2-2.4,0.4c0.5,1,1.5,1.9,1.3,3.2c0.1,0.1,0.2,0.3,0.2,0.4c0.2,0.4,0.3,0.8,0.3,1.2c0.1,0.6,0,1.3,0,1.9
			c0,0.1,0,0.1,0,0.2c0.1,2.1,0.4,4.3,0.4,6.3c-0.2,5,0.1,10.1-1,15c0.2,0.1,0.4,0.1,0.6,0.1c1.8,0.2,2.3-1.1,2.4-2.7
			c0.1-2.8,0.1-5.6,0.1-8.4C367.7,201.3,367.7,201.2,367.7,201.2z"/>
	</g>
	<path fill="#212121" d="M267.1,68.1c2.1-0.2,4-0.7,6.1-1.2c3.9-1,5.9-2.1,7.9-4.8c1.3-1.8,2.4-2.9,4.7-1.2c2.4,1.7,6.5,1.4,8.9-0.3
		c0.5-0.4,1-0.7,1.5-1c0-0.2,0-0.3,0-0.5c0.1-2.8,0.6-5.5,1-8.2c0.2-1.8,0.7-7,0.9-7.8c-0.2-0.2-0.1-0.2,0,0
		c0.2-1.8,0.4-3.7,0.6-5.5l0.1-0.6c-0.3-0.1-9.3,1.2-9.8,1.3c-0.2,0-8,1.8-8,1.8c-0.8,0.2-10.7,3-11.7,3.4c-0.8,0.3-1.6,0.6-2.5,0.9
		c-0.2,0.8-0.3,1.6-0.5,2.4h0c-0.5,1.4-1.6,13.6-1.7,19C264.5,67,264.4,68.4,267.1,68.1z"/>
</g>
</svg>
