<svg id="Laag_1" data-name="Laag 1" xmlns="http://www.w3.org/2000/svg" viewBox="0 0 1023.85 787.85"><defs><style>.cls-1{fill:#ff8000;}</style></defs><path class="cls-1" d="M981.72,159.14q-42-42-132-42H173.87q-89.61-.47-131.81,41.52T-.15,291.17V731.92q0,88.65,42.21,130.86T173.87,905H849.68q90.06,0,132-42.22t42-131.8V291.17Q1023.7,201.11,981.72,159.14ZM900.84,544.25q0,29.55-29.55,29.55H535v30.49q0,64.26,25.1,89.12t89.82,24.86h76.92q55.81,0,81.14-13.14t31.43-45.49q3.29-14.08,10.32-21.11c4.7-4.69,11.72-7,21.11-7q14.52,0,22.28,7.73T898.49,662q-7.5,58.65-50,87T726.82,777.37H649.9q-89.6,0-131.81-42.22T475.88,604.29V497.34q0-91,42.21-133t131.81-41h76.92q90.06,0,132,42t42,132Z" transform="translate(0.15 -117.15)"/><path class="cls-1" d="M649.9,382.43q-64.74-.93-89.82,23.93t-25.1,91V514.7H841.74V497.34q0-65.19-24.86-90t-90.06-24.86Z" transform="translate(0.15 -117.15)"/></svg>