<?xml version="1.0" encoding="utf-8"?>
<!-- Generator: Adobe Illustrator 25.2.0, SVG Export Plug-In . SVG Version: 6.00 Build 0)  -->
<svg version="1.2" baseProfile="tiny" id="Laag_1" xmlns="http://www.w3.org/2000/svg" xmlns:xlink="http://www.w3.org/1999/xlink"
	 x="0px" y="0px" viewBox="0 0 1024 788" overflow="visible" xml:space="preserve">
<g>
	<path fill="#FF8000" d="M982,42C954,14,910,0,850,0H174C114.3-0.3,70.4,13.5,42.2,41.5C14.1,69.5,0,113.7,0,174.1v440.8
		C0,674,14.1,717.6,42.2,745.8C70.4,773.9,114.3,788,174,788H850c60,0,104.1-14.1,132.1-42.2c28-28.2,42-72.1,42-131.8V174.1
		C1024,114,1010,70,982,42z"/>
</g>
<path d="M512,18.6c-212.6,0-384.9,172.4-384.9,384.9c0,170.1,110.3,314.3,263.1,365.2c19.3,3.6,26.3-8.3,26.3-18.6
	c0-9.1-0.2-33.3-0.4-65.4C309.1,707.9,286.5,633,286.5,633c-17.5-44.4-42.8-56.3-42.8-56.3c-34.8-23.8,2.8-23.3,2.8-23.3
	c38.6,2.6,58.9,39.6,58.9,39.6c34.3,58.9,90.1,41.9,112.1,31.9c3.4-24.8,13.4-41.9,24.3-51.4c-85.4-9.6-175.3-42.7-175.3-190.2
	c0-42.1,14.9-76.4,39.6-103.4c-4.3-9.6-17.3-48.9,3.4-101.9c0,0,32.2-10.3,105.8,39.5c30.8-8.5,63.5-12.8,96.2-13
	c32.7,0.2,65.4,4.5,96.2,13c73.2-49.7,105.4-39.5,105.4-39.5c20.7,53,7.6,92.2,3.9,101.9c24.4,26.9,39.3,61.3,39.3,103.4
	c0,147.8-90,180.4-175.5,189.8c13.4,11.5,25.9,35.2,25.9,71.2c0,51.5-0.5,92.9-0.5,105.5c0,10,6.7,22,26.6,18.2
	c154-50.3,264.1-194.7,264.1-364.6C896.9,191,724.6,18.6,512,18.6L512,18.6z"/>
</svg>
