<?xml version="1.0" encoding="utf-8"?>
<!-- Generator: Adobe Illustrator 25.1.0, SVG Export Plug-In . SVG Version: 6.00 Build 0)  -->
<svg version="1.2" baseProfile="tiny" id="Laag_1" xmlns="http://www.w3.org/2000/svg" xmlns:xlink="http://www.w3.org/1999/xlink"
	 x="0px" y="0px" viewBox="0 0 1024 1024" overflow="visible" xml:space="preserve">
<g>
	<g>
		<g>
			<path fill="#FFCCCC" d="M982.24,160c-27.99-27.99-72.01-41.99-132.06-41.99H174.24c-59.74-0.31-103.67,13.54-131.83,41.52
				C14.27,187.52,0.19,231.7,0.19,292.06v440.83c0,59.11,14.08,102.74,42.22,130.89C70.57,891.92,114.5,906,174.24,906h675.94
				c60.05,0,104.07-14.08,132.06-42.22c27.99-28.15,41.99-72.08,41.99-131.83V292.06C1024.23,232.01,1010.23,187.99,982.24,160z"/>
		</g>
	</g>
	<g>
		<path fill="none" d="M910.33,289.64c-6.89-26.41-18.88-44.83-35.97-55.26c-17.09-10.43-38.59-12.26-64.51-5.5
			c-25.93,6.77-43.79,18.87-53.6,36.32c-9.82,17.45-11.27,39.38-4.38,65.79l61.64,236.22c6.77,25.93,18.84,44.19,36.24,54.79
			c17.39,10.62,38.8,12.6,64.24,5.96c25.92-6.76,43.75-18.98,53.5-36.68c9.75-17.69,11.24-39.49,4.48-65.42L910.33,289.64z"/>
		<path fill="#FFFFFF" d="M0.19,360.43v92.01c10.96-11.56,26.71-20.04,47.28-25.41c25.92-6.76,47.62-5.63,65.13,3.38
			c17.5,9.02,29.12,24.53,34.87,46.53l85.83-22.4c-12.1-44.37-36.55-75.99-73.33-94.87c-36.79-18.86-80.62-21.67-131.47-8.4
			C18.51,353.88,9.09,356.94,0.19,360.43z"/>
		<path fill="#FFFFFF" d="M305.61,790.23c8.49-26.5,8.79-54.91,0.87-85.24c-10.34-39.61-29.97-70.26-58.87-91.98
			c-28.91-21.7-65.07-32.64-108.46-32.82l-71.73-1.65c-21.1-0.76-38.69-6.62-52.77-17.57c-5.51-4.28-10.32-9.22-14.45-14.82v108.6
			c20.8,7.88,44.12,12.01,69.97,12.4l69.34,1.5c21.32-0.34,39.19,5.05,53.59,16.18c14.39,11.13,24.08,26.23,29.06,45.31
			c6,22.99,2.86,43.01-9.41,60.04c-12.28,17.05-31.86,29.08-58.75,36.09c-28.86,7.53-53.33,6.86-73.39-2
			c-20.08-8.87-33.11-24.78-39.11-47.78l-36.75,9.59c6.21,32.89,18.76,58.8,37.66,77.7c25.5,25.49,63.93,39.44,115.33,41.85
			c4.77-1.01,9.6-2.14,14.5-3.41c35.21-9.19,64.11-23.52,86.72-43C281.57,839.73,297.11,816.74,305.61,790.23z"/>
		<polygon fill="#FFFFFF" points="606.85,444.83 399.25,499 361.16,353.02 594.44,292.15 574.91,217.32 257.27,300.2 397,835.73 
			714.65,752.84 695.12,678.01 461.84,738.89 418.77,573.83 626.38,519.66 		"/>
		<path fill="#FFFFFF" d="M1024.23,377.85l-28.81-110.42c-8.42-32.28-22.3-58.43-41.63-78.46c-19.33-20.03-42.88-33.2-70.65-39.55
			c-27.78-6.33-58.78-5.03-93.01,3.9c-33.75,8.81-61.31,22.79-82.69,41.95c-21.38,19.17-35.61,42.2-42.69,69.12
			c-7.08,26.92-6.41,56.52,2.01,88.8l61.64,236.22c8.3,31.8,22.14,57.82,41.53,78.09c19.4,20.28,43.1,33.55,71.11,39.82
			c28.01,6.27,58.9,5,92.64-3.8c34.23-8.93,61.91-22.95,83.05-42.04c2.6-2.35,5.09-4.76,7.48-7.24V377.85z M967.49,591.28
			c-9.75,17.7-27.59,29.92-53.5,36.68c-25.43,6.64-46.85,4.66-64.24-5.96c-17.4-10.6-29.47-28.87-36.24-54.79l-61.64-236.22
			c-6.89-26.41-5.44-48.34,4.38-65.79c9.81-17.45,27.67-29.55,53.6-36.32c25.92-6.76,47.42-4.93,64.51,5.5
			c17.08,10.43,29.08,28.85,35.97,55.26l61.64,236.22C978.73,551.79,977.23,573.59,967.49,591.28z"/>
	</g>
</g>
</svg>
