<?xml version="1.0" encoding="utf-8"?>
<!-- Generator: Adobe Illustrator 25.2.0, SVG Export Plug-In . SVG Version: 6.00 Build 0)  -->
<svg version="1.2" baseProfile="tiny" id="Laag_1" xmlns="http://www.w3.org/2000/svg" xmlns:xlink="http://www.w3.org/1999/xlink"
	 x="0px" y="0px" viewBox="0 0 891.8 191" overflow="visible" xml:space="preserve">
<polyline fill="#00B9D4" points="0,0 891.8,0 891.8,190.6 0,190.6 "/>
<g>
	<path fill="#E44D26" d="M619.4,9.5l-10.2,114.1l-45.8,12.7l-45.7-12.7L507.6,9.5H619.4L619.4,9.5z"/>
	<path fill="#F16529" d="M563.5,126.6l37-10.2l8.7-97.5h-45.7V126.6L563.5,126.6z"/>
	<path fill="#EBEBEB" d="M543.8,46.8h19.8v-14h-35.2l0.3,3.8l3.4,38.6h31.4v-14H545L543.8,46.8L543.8,46.8z"/>
	<path fill="#EBEBEB" d="M546.9,82.2h-14l1.9,22l28.6,8h0.1V97.6h-0.1l-15.6-4.2L546.9,82.2L546.9,82.2z"/>
	<path fill="#FFFFFF" d="M563.5,75.2h17.3l-1.6,18.1l-15.6,4.2v14.6l28.7-8l0.2-2.4l3.3-36.9l0.3-3.8h-32.5V75.2L563.5,75.2z"/>
	<path fill="#FFFFFF" d="M563.5,46.8L563.5,46.8h33.8l0.3-3.2l0.6-7.1l0.3-3.8h-35.1V46.8L563.5,46.8z"/>
</g>
<line fill="#00B9D4" x1="0" y1="190.6" x2="0" y2="0"/>
</svg>
