<?xml version="1.0" encoding="utf-8"?>
<!-- Generator: Adobe Illustrator 25.1.0, SVG Export Plug-In . SVG Version: 6.00 Build 0)  -->
<svg version="1.2" baseProfile="tiny" id="Laag_1" xmlns="http://www.w3.org/2000/svg" xmlns:xlink="http://www.w3.org/1999/xlink"
	 x="0px" y="0px" viewBox="0 0 1024 1024" overflow="visible" xml:space="preserve">
<g>
	<g>
		<g>
			<path fill="#005E7A" d="M982.24,160c-27.99-27.99-72.01-41.99-132.06-41.99H174.24c-59.74-0.31-103.67,13.54-131.83,41.52
				C14.27,187.52,0.19,231.7,0.19,292.06v440.83c0,59.11,14.08,102.74,42.22,130.89C70.57,891.92,114.5,906,174.24,906h675.94
				c60.05,0,104.07-14.08,132.06-42.22c27.99-28.15,41.99-72.08,41.99-131.83V292.06C1024.23,232.01,1010.23,187.99,982.24,160z"/>
		</g>
	</g>
	<g>
		<polygon fill="#FFFFFF" points="136.86,465.8 88.2,478.5 120.54,602.41 35.71,624.55 3.38,500.63 0.19,501.46 0.19,687.58 
			33.93,816.88 82.58,804.18 47.43,669.46 132.26,647.32 167.41,782.05 216.06,769.36 		"/>
		<polygon fill="#FFFFFF" points="168.84,504.98 249.51,483.93 317.11,742.99 365.34,730.4 297.74,471.34 378.41,450.29 
			366.7,405.39 157.12,460.07 		"/>
		<path fill="#FFFFFF" d="M546.45,542.8l4.96-156.3c1.71,11.1,3.74,24.27,6.09,39.49c2.34,15.23,5.03,31.19,8.05,47.87
			c3.02,16.69,6.21,33.17,9.58,49.46c3.37,16.3,6.82,31.24,10.36,44.82l25.61,98.14l45.74-11.94l-79.21-303.55l-58.63,15.3
			l-3.41,104.37c-0.31,10.15-0.38,19.57-0.18,28.25c0.19,8.69,0.38,15.08,0.56,19.17c-1.84-3.66-4.81-9.33-8.88-17
			c-4.08-7.67-8.87-15.82-14.38-24.45l-55.22-89.07l-58.63,15.3l79.21,303.55l45.74-11.94l-25.61-98.14
			c-3.83-14.69-8.3-30.1-13.4-46.25c-5.1-16.14-10.39-32.15-15.87-48.05c-5.48-15.89-10.78-30.79-15.89-44.71
			c-5.12-13.91-9.74-25.95-13.87-36.13l81.53,133.73L546.45,542.8z"/>
		<polygon fill="#FFFFFF" points="860.51,553.23 729.94,587.3 662.45,328.66 613.8,341.35 693,644.9 872.23,598.14 		"/>
		<path fill="#FFFFFF" d="M1024.23,558.13V376.68c-2.27-1.92-4.63-3.71-7.11-5.33c-17.67-11.53-38.84-14.07-63.51-7.63
			c-17.19,4.49-29.87,11.79-38.03,21.91c-5.76,7.13-8.62,15-8.63,23.57l-1.34,0.35L883,317.74l122.25-31.9l-11.39-43.66
			l-168.41,43.94l41.54,167.7l47.41-12.37c1.52-7.79,5.2-14.68,11.05-20.65c5.84-5.97,13.48-10.18,22.91-12.64
			c14.97-3.91,27.37-2.92,37.19,2.95c9.82,5.88,16.65,16.16,20.49,30.85l7.7,29.52c3.76,14.42,2.81,26.66-2.86,36.72
			c-5.66,10.07-16.12,17.09-31.37,21.06c-13.59,3.54-25.04,3.35-34.35-0.58c-9.32-3.93-15.91-11.02-19.76-21.27l-48.24,12.59
			c7.74,22.85,21.78,38.95,42.14,48.3c20.35,9.35,43.97,10.51,70.86,3.5C1003.16,568.42,1014.52,563.86,1024.23,558.13z"/>
	</g>
</g>
</svg>
