<?xml version="1.0" encoding="utf-8"?>
<!-- Generator: Adobe Illustrator 25.2.0, SVG Export Plug-In . SVG Version: 6.00 Build 0)  -->
<svg version="1.2" baseProfile="tiny" id="Laag_1" xmlns="http://www.w3.org/2000/svg" xmlns:xlink="http://www.w3.org/1999/xlink"
	 x="0px" y="0px" viewBox="0 0 1024 787.9" overflow="visible" xml:space="preserve">
<g>
	<g>
		<g>
			<path fill="#515151" d="M982.2,42c-28-28-72-42-132.1-42H174.2C114.5-0.3,70.5,13.5,42.4,41.5S0.2,113.7,0.2,174v440.8
				c0,59.1,14.1,102.7,42.2,130.9c28.2,28.1,72.1,42.2,131.8,42.2h675.9c60,0,104.1-14.1,132.1-42.2c28-28.2,42-72.1,42-131.8V174.1
				C1024.2,114,1010.2,70,982.2,42z"/>
		</g>
	</g>
</g>
<path fill="#ED2224" d="M603.9,1l261.9,624.9V1H603.9z M158.6,1v624.9L420.5,1H158.6z M398.1,498.5h119.6l52.5,127.2h108.4
	L510.4,229.2L398.1,498.5z"/>
<g>
	<g>
		<path fill="#FFFFFF" d="M199.7,695.1c0,4-0.7,7.5-2,10.5s-3.4,5.3-6.4,6.9c-2.9,1.6-6.8,2.4-11.7,2.4c-4.9,0-8.8-0.8-11.7-2.4
			c-2.9-1.6-5-3.9-6.3-6.9c-1.3-3-2-6.6-2-10.7v-30.6h10.3v31.4c0,3.7,0.9,6.5,2.7,8.2c1.8,1.7,4.1,2.6,7,2.6c1.9,0,3.6-0.4,5.1-1.1
			c1.5-0.8,2.6-1.9,3.5-3.5c0.8-1.6,1.3-3.6,1.3-6.1v-31.4h10.2V695.1z"/>
		<path fill="#FFFFFF" d="M222.6,714.9c-2.5,0-4.9-0.4-7.2-1.2c-2.3-0.8-4.3-2.1-5.9-3.9c-1.6-1.8-2.6-4.1-3-6.9h8.8
			c0.3,1.3,0.8,2.3,1.6,3c0.8,0.7,1.7,1.3,2.7,1.6c1,0.3,2,0.5,2.9,0.5c1.9,0,3.5-0.3,4.7-0.9c1.2-0.6,1.8-1.6,1.8-2.8
			c0-1-0.4-1.7-1.1-2.3c-0.7-0.6-1.9-1-3.5-1.3l-6.3-1.3c-3.2-0.7-5.7-1.8-7.6-3.4c-1.9-1.6-2.9-3.9-2.9-6.8c0-2.1,0.6-4.1,1.7-5.8
			s2.8-3.1,5.1-4.1c2.2-1,5-1.5,8.2-1.5c4.4,0,7.9,1,10.6,2.9c2.6,1.9,4,4.7,4,8.2h-8.4c-0.3-1.4-0.9-2.5-2.1-3.2
			c-1.1-0.7-2.5-1.1-4.2-1.1c-1.8,0-3.2,0.3-4.3,0.9c-1.1,0.6-1.7,1.6-1.7,2.8c0,0.9,0.5,1.7,1.4,2.2c0.9,0.5,2.4,1,4.3,1.4l5.8,1.3
			c2,0.5,3.6,1.1,4.9,2c1.3,0.8,2.2,1.8,2.9,2.8c0.7,1,1.2,2,1.4,3c0.3,1,0.4,1.9,0.4,2.7c0,2.4-0.6,4.4-1.9,6.1
			c-1.3,1.7-3,2.9-5.3,3.8S225.6,714.9,222.6,714.9z"/>
		<path fill="#FFFFFF" d="M253.1,698.6c0,1.8,0.3,3.4,0.9,4.8s1.5,2.4,2.6,3.1c1.1,0.7,2.5,1.1,4.1,1.1c1.7,0,3.2-0.4,4.6-1.1
			c1.3-0.7,2.2-2,2.7-3.6h9.1c-0.4,2.5-1.4,4.7-3,6.5c-1.6,1.8-3.6,3.2-5.9,4.1c-2.3,0.9-4.7,1.4-7.2,1.4c-3.5,0-6.6-0.7-9.3-2.2
			c-2.7-1.5-4.8-3.6-6.3-6.3s-2.3-5.9-2.3-9.6c0-3.6,0.7-6.8,2-9.7c1.4-2.9,3.3-5.1,5.9-6.8c2.6-1.7,5.7-2.5,9.4-2.5
			c3.6,0,6.7,0.8,9.2,2.3c2.5,1.5,4.4,3.7,5.6,6.4c1.3,2.7,1.9,5.9,1.9,9.5v2.7H253.1z M253,692.6h14.6c0-1.4-0.3-2.7-0.8-3.9
			c-0.5-1.2-1.3-2.1-2.4-2.8s-2.4-1.1-4-1.1c-1.6,0-2.9,0.4-4,1.1c-1.1,0.8-1.9,1.7-2.5,2.9S253,691.3,253,692.6z"/>
		<path fill="#FFFFFF" d="M284.1,714.2v-35.8h9.7v8.5c0.6-1.8,1.4-3.4,2.4-4.8c1.1-1.4,2.3-2.4,3.8-3.2c1.5-0.8,3.2-1.2,5.1-1.2
			c0.3,0,0.6,0,0.9,0.1c0.3,0,0.5,0.1,0.6,0.2v9.6c-0.2-0.1-0.5-0.1-0.7-0.2c-0.3,0-0.5,0-0.8-0.1c-2-0.2-3.7-0.1-5.1,0.2
			c-1.4,0.3-2.6,0.8-3.4,1.4c-0.9,0.7-1.5,1.5-1.9,2.5c-0.4,1-0.6,2.1-0.6,3.3v19.6H284.1z"/>
		<path fill="#FFFFFF" d="M328.2,664.1h10.1v50.1h-10.1V664.1z"/>
		<path fill="#FFFFFF" d="M348.2,714.2v-35.8h9.9v5.1c0.6-0.9,1.3-1.7,2.2-2.5c0.9-0.8,2-1.5,3.4-2c1.4-0.5,3-0.8,4.8-0.8
			c2.2,0,4.2,0.4,6.1,1.3c1.9,0.9,3.4,2.2,4.6,4s1.8,4.2,1.8,7.2v23.6H371v-22.4c0-1.9-0.6-3.4-1.7-4.4c-1.2-1-2.6-1.5-4.2-1.5
			c-1.1,0-2.2,0.2-3.2,0.6c-1,0.4-1.9,1-2.5,1.8c-0.6,0.8-1,1.8-1,2.9v22.9H348.2z"/>
		<path fill="#FFFFFF" d="M409.5,685.4h-8l0.1,19.1c0,0.9,0.1,1.5,0.3,2c0.2,0.4,0.6,0.7,1,0.8s1.1,0.2,1.8,0.2h4.8v6.2
			c-0.5,0.2-1.2,0.4-2.2,0.6c-1,0.2-2.3,0.3-4.1,0.3c-3.1,0-5.6-0.4-7.3-1.2c-1.7-0.8-2.9-1.9-3.6-3.4c-0.7-1.5-1-3.1-1-5.1v-19.5
			h-5.8v-7h6.2l2.5-10.8h7.2v10.8h8V685.4z"/>
		<path fill="#FFFFFF" d="M424.1,698.6c0,1.8,0.3,3.4,0.9,4.8s1.5,2.4,2.6,3.1c1.1,0.7,2.5,1.1,4.1,1.1c1.7,0,3.2-0.4,4.6-1.1
			c1.3-0.7,2.2-2,2.7-3.6h9.1c-0.4,2.5-1.4,4.7-3,6.5c-1.6,1.8-3.6,3.2-5.9,4.1c-2.3,0.9-4.7,1.4-7.2,1.4c-3.5,0-6.6-0.7-9.3-2.2
			c-2.7-1.5-4.8-3.6-6.3-6.3s-2.3-5.9-2.3-9.6c0-3.6,0.7-6.8,2-9.7c1.4-2.9,3.3-5.1,5.9-6.8c2.6-1.7,5.7-2.5,9.4-2.5
			c3.6,0,6.7,0.8,9.2,2.3c2.5,1.5,4.4,3.7,5.6,6.4c1.3,2.7,1.9,5.9,1.9,9.5v2.7H424.1z M424.1,692.6h14.6c0-1.4-0.3-2.7-0.8-3.9
			c-0.5-1.2-1.3-2.1-2.4-2.8s-2.4-1.1-4-1.1c-1.6,0-2.9,0.4-4,1.1c-1.1,0.8-1.9,1.7-2.5,2.9S424.1,691.3,424.1,692.6z"/>
		<path fill="#FFFFFF" d="M455.2,714.2v-35.8h9.7v8.5c0.6-1.8,1.4-3.4,2.4-4.8c1.1-1.4,2.3-2.4,3.8-3.2c1.5-0.8,3.2-1.2,5.1-1.2
			c0.3,0,0.6,0,0.9,0.1c0.3,0,0.5,0.1,0.6,0.2v9.6c-0.2-0.1-0.5-0.1-0.7-0.2c-0.3,0-0.5,0-0.8-0.1c-2-0.2-3.7-0.1-5.1,0.2
			c-1.4,0.3-2.6,0.8-3.4,1.4c-0.9,0.7-1.5,1.5-1.9,2.5c-0.4,1-0.6,2.1-0.6,3.3v19.6H455.2z"/>
		<path fill="#FFFFFF" d="M506.3,678.4v7h-7.5v28.8h-10.1v-28.8h-6.6v-7h6.6v-5.2c0-2.9,0.8-5.1,2.5-6.7s4.1-2.4,7.2-2.4h8.2l0,6.8
			H502c-1.3,0-2.2,0.3-2.6,0.9c-0.5,0.6-0.7,1.7-0.7,3.1v3.5H506.3z"/>
		<path fill="#FFFFFF" d="M523.5,714.9c-2.3,0-4.3-0.4-6.2-1.3c-1.8-0.9-3.3-2.1-4.3-3.7c-1.1-1.6-1.6-3.6-1.6-5.9
			c0-3.9,1.5-6.9,4.4-9c2.9-2,7.6-3.1,13.9-3.2l4.5-0.1v-2.1c0-1.6-0.5-2.9-1.4-3.8c-1-0.9-2.4-1.3-4.4-1.3c-1.5,0-2.9,0.4-4.2,1
			c-1.3,0.7-2.2,1.8-2.7,3.5h-8.4c0.1-2.6,0.9-4.7,2.3-6.4c1.4-1.7,3.2-2.9,5.6-3.7c2.3-0.8,5-1.2,8-1.2c3.7,0,6.6,0.5,8.8,1.4
			c2.2,0.9,3.8,2.2,4.8,3.9c1,1.7,1.5,3.7,1.5,6v25.2h-8.4l-0.8-6.2c-1.2,2.6-2.8,4.4-4.6,5.4C528.1,714.4,526,714.9,523.5,714.9z
			 M526.9,708.2c0.9,0,1.8-0.2,2.7-0.5c0.9-0.3,1.6-0.8,2.3-1.4c0.7-0.6,1.2-1.2,1.6-1.9c0.4-0.7,0.6-1.5,0.6-2.2V697l-3.6,0
			c-1.7,0-3.3,0.2-4.7,0.6s-2.6,1-3.5,1.9c-0.9,0.9-1.3,2-1.3,3.5c0,1.7,0.6,3,1.7,3.9C523.8,707.8,525.2,708.2,526.9,708.2z"/>
		<path fill="#FFFFFF" d="M568.1,677.7c3,0,5.6,0.6,7.8,1.8c2.2,1.2,3.9,2.9,5.2,5c1.3,2.1,2,4.4,2.2,7h-8.4c-0.2-0.9-0.5-1.9-1-2.8
			c-0.5-0.9-1.2-1.7-2.1-2.3c-0.9-0.6-2.1-0.9-3.5-0.9c-2.4,0-4.3,0.9-5.7,2.7c-1.5,1.8-2.2,4.6-2.2,8.3c0,3.5,0.7,6.2,2.1,8.3
			c1.4,2,3.4,3.1,6,3.1c1.4,0,2.5-0.3,3.4-1c0.9-0.7,1.6-1.5,2.1-2.4c0.5-0.9,0.8-1.8,1-2.6h8.2c-0.2,2.5-0.9,4.7-2.1,6.7
			c-1.3,2-3,3.6-5.2,4.7c-2.2,1.2-4.7,1.7-7.7,1.7c-3.3,0-6.3-0.7-8.9-2.2c-2.6-1.5-4.7-3.6-6.1-6.4c-1.5-2.8-2.2-6.1-2.2-9.9
			c0-3.7,0.7-6.9,2.1-9.8c1.4-2.8,3.4-5,6-6.6C561.6,678.5,564.7,677.7,568.1,677.7z"/>
		<path fill="#FFFFFF" d="M598.5,698.6c0,1.8,0.3,3.4,0.9,4.8c0.6,1.4,1.5,2.4,2.6,3.1c1.1,0.7,2.5,1.1,4.1,1.1
			c1.7,0,3.2-0.4,4.6-1.1c1.3-0.7,2.2-2,2.7-3.6h9.1c-0.4,2.5-1.4,4.7-3,6.5c-1.6,1.8-3.6,3.2-5.9,4.1c-2.3,0.9-4.7,1.4-7.2,1.4
			c-3.5,0-6.6-0.7-9.3-2.2c-2.7-1.5-4.8-3.6-6.3-6.3c-1.5-2.7-2.2-5.9-2.2-9.6c0-3.6,0.7-6.8,2-9.7c1.4-2.9,3.3-5.1,5.9-6.8
			c2.6-1.7,5.7-2.5,9.4-2.5c3.6,0,6.7,0.8,9.2,2.3s4.4,3.7,5.6,6.4s1.9,5.9,1.9,9.5v2.7H598.5z M598.5,692.6h14.6
			c0-1.4-0.3-2.7-0.8-3.9c-0.5-1.2-1.3-2.1-2.4-2.8c-1.1-0.7-2.4-1.1-4-1.1c-1.6,0-2.9,0.4-4,1.1c-1.1,0.8-1.9,1.7-2.5,2.9
			S598.5,691.3,598.5,692.6z"/>
		<path fill="#FFFFFF" d="M645.3,664.1c0.3,0,1,0,2.1,0s2.5,0,4.1,0c1.6,0,3.2,0,4.7,0s2.9,0,4,0.1c6.1,0.2,11,1.3,14.9,3.3
			c3.8,2,6.6,4.9,8.4,8.5c1.8,3.6,2.7,7.9,2.7,12.9c0,5.2-0.9,9.7-2.8,13.5s-4.8,6.7-8.7,8.7c-3.9,2.1-8.8,3.1-14.8,3.1h-14.6V664.1
			z M655.5,672.3V706h4.6c2.9,0,5.5-0.6,7.8-1.7c2.3-1.1,4.2-2.9,5.6-5.4c1.4-2.5,2.1-5.9,2.1-10.1c0-3.9-0.6-7.1-1.9-9.5
			c-1.2-2.4-3-4.2-5.3-5.3c-2.3-1.1-5-1.7-8.2-1.7H655.5z"/>
		<path fill="#FFFFFF" d="M702.2,698.6c0,1.8,0.3,3.4,0.9,4.8c0.6,1.4,1.5,2.4,2.6,3.1c1.1,0.7,2.5,1.1,4.1,1.1
			c1.7,0,3.2-0.4,4.6-1.1c1.3-0.7,2.2-2,2.7-3.6h9.1c-0.4,2.5-1.4,4.7-3,6.5c-1.6,1.8-3.6,3.2-5.9,4.1c-2.3,0.9-4.7,1.4-7.2,1.4
			c-3.5,0-6.6-0.7-9.3-2.2c-2.7-1.5-4.8-3.6-6.3-6.3c-1.5-2.7-2.2-5.9-2.2-9.6c0-3.6,0.7-6.8,2-9.7c1.4-2.9,3.3-5.1,5.9-6.8
			c2.6-1.7,5.7-2.5,9.4-2.5c3.6,0,6.7,0.8,9.2,2.3s4.4,3.7,5.6,6.4s1.9,5.9,1.9,9.5v2.7H702.2z M702.2,692.6h14.6
			c0-1.4-0.3-2.7-0.8-3.9c-0.5-1.2-1.3-2.1-2.4-2.8c-1.1-0.7-2.4-1.1-4-1.1c-1.6,0-2.9,0.4-4,1.1c-1.1,0.8-1.9,1.7-2.5,2.9
			S702.2,691.3,702.2,692.6z"/>
		<path fill="#FFFFFF" d="M747.3,714.9c-2.5,0-4.9-0.4-7.2-1.2c-2.3-0.8-4.3-2.1-5.9-3.9c-1.6-1.8-2.6-4.1-3-6.9h8.8
			c0.3,1.3,0.8,2.3,1.6,3c0.8,0.7,1.7,1.3,2.7,1.6s2,0.5,2.9,0.5c1.9,0,3.5-0.3,4.7-0.9c1.2-0.6,1.8-1.6,1.8-2.8
			c0-1-0.4-1.7-1.1-2.3c-0.7-0.6-1.9-1-3.5-1.3l-6.3-1.3c-3.2-0.7-5.7-1.8-7.6-3.4c-1.9-1.6-2.9-3.9-2.9-6.8c0-2.1,0.6-4.1,1.7-5.8
			s2.8-3.1,5.1-4.1c2.2-1,5-1.5,8.2-1.5c4.4,0,7.9,1,10.6,2.9c2.6,1.9,4,4.7,4,8.2h-8.4c-0.3-1.4-0.9-2.5-2.1-3.2
			c-1.1-0.7-2.5-1.1-4.2-1.1c-1.8,0-3.2,0.3-4.3,0.9c-1.1,0.6-1.7,1.6-1.7,2.8c0,0.9,0.5,1.7,1.4,2.2s2.4,1,4.3,1.4l5.8,1.3
			c2,0.5,3.6,1.1,4.9,2s2.2,1.8,2.9,2.8c0.7,1,1.2,2,1.4,3c0.3,1,0.4,1.9,0.4,2.7c0,2.4-0.6,4.4-1.9,6.1s-3,2.9-5.3,3.8
			C752.9,714.5,750.3,714.9,747.3,714.9z"/>
		<path fill="#FFFFFF" d="M779.7,664.2v9.1h-9.9v-9.1H779.7z M779.6,678.4v35.8H770v-35.8H779.6z"/>
		<path fill="#FFFFFF" d="M805.1,726c-6.4,0-11.2-0.8-14.5-2.4c-3.3-1.6-5-3.7-5-6.4c0-1.2,0.3-2.3,1-3.1c0.6-0.8,1.4-1.5,2.3-2
			c0.9-0.5,1.7-0.9,2.4-1.1c0.7-0.3,1.2-0.4,1.3-0.5c-0.4-0.2-0.9-0.5-1.6-0.9c-0.7-0.4-1.3-1-1.9-1.7c-0.6-0.7-0.9-1.6-0.9-2.7
			c0-1.3,0.6-2.5,1.8-3.6s3.1-1.8,5.5-2.2c-2.4-1.1-4.1-2.6-5.4-4.5s-1.8-3.8-1.8-5.8c0-2.4,0.7-4.4,2.2-6.1c1.5-1.7,3.5-3,6-3.8
			s5.4-1.3,8.7-1.3c2.5,0,4.5,0.3,6.1,0.8c1.6,0.5,3,1.2,4.4,2c0.5-0.2,1.2-0.5,2.1-0.8c0.9-0.3,1.8-0.7,2.8-1.1s2-0.8,3-1.2
			c1-0.4,1.8-0.8,2.6-1.1l0,7.8l-6.2,1c0.3,0.6,0.5,1.3,0.6,2c0.1,0.7,0.2,1.3,0.2,1.8c0,2.1-0.6,4-1.8,5.8c-1.2,1.8-3,3.3-5.4,4.4
			c-2.4,1.1-5.4,1.7-9,1.7c-0.4,0-1,0-1.8,0c-0.7,0-1.3-0.1-1.8-0.1c-1.4,0.1-2.3,0.2-2.8,0.5c-0.5,0.3-0.8,0.6-0.8,1
			c0,0.6,0.5,0.9,1.6,1.1s2.6,0.3,4.7,0.5c0.7,0,1.8,0.1,3.1,0.2c1.3,0.1,2.8,0.2,4.4,0.3c4.4,0.3,7.7,1.4,9.8,3.2
			c2.2,1.9,3.2,4.2,3.2,7c0,3.3-1.6,6.1-4.8,8.3C816.3,725,811.5,726,805.1,726z M806.8,720.4c2.8,0,4.8-0.3,6-1s1.8-1.7,1.8-3
			c0-1.1-0.5-2-1.4-2.6s-2.3-1.1-4.1-1.2L801,712c-1.1-0.1-2,0.1-2.8,0.5c-0.8,0.4-1.5,0.9-1.9,1.5c-0.5,0.6-0.7,1.3-0.7,2.1
			c0,1.5,0.9,2.6,2.7,3.3C800.1,720.1,802.9,720.4,806.8,720.4z M804.9,695.2c1.9,0,3.5-0.5,4.6-1.6c1.2-1,1.7-2.5,1.7-4.3
			c0-1.9-0.6-3.4-1.7-4.5c-1.2-1.1-2.7-1.7-4.6-1.7c-1.9,0-3.4,0.6-4.6,1.7s-1.8,2.6-1.8,4.5c0,1.8,0.6,3.2,1.7,4.3
			C801.3,694.7,802.9,695.2,804.9,695.2z"/>
		<path fill="#FFFFFF" d="M832,714.2v-35.8h9.9v5.1c0.6-0.9,1.3-1.7,2.2-2.5c0.9-0.8,2-1.5,3.4-2c1.4-0.5,3-0.8,4.8-0.8
			c2.2,0,4.2,0.4,6.1,1.3c1.9,0.9,3.4,2.2,4.6,4c1.2,1.8,1.8,4.2,1.8,7.2v23.6h-10.1v-22.4c0-1.9-0.6-3.4-1.7-4.4
			c-1.2-1-2.6-1.5-4.2-1.5c-1.1,0-2.2,0.2-3.2,0.6s-1.9,1-2.5,1.8c-0.6,0.8-1,1.8-1,2.9v22.9H832z"/>
	</g>
</g>
</svg>
