<?xml version="1.0" encoding="utf-8"?>
<!-- Generator: Adobe Illustrator 25.2.0, SVG Export Plug-In . SVG Version: 6.00 Build 0)  -->
<svg version="1.1" id="Laag_1" xmlns="http://www.w3.org/2000/svg" xmlns:xlink="http://www.w3.org/1999/xlink" x="0px" y="0px"
	 viewBox="0 0 2600.3 199" enable-background="new 0 0 2600.3 199" xml:space="preserve">
<rect x="0.7" y="-0.2" fill="#4A8D9B" width="2600" height="199"/>
<path fill="#455A64" d="M371.4-249.7h0.8v0.6h-0.8V-249.7z M371.4-247.3h0.8v0.6l-0.4,0.7h-0.4l0.3-0.7h-0.3V-247.3L371.4-247.3z"/>
<g id="g9893">
	<path id="path17976" fill-rule="evenodd" clip-rule="evenodd" fill="#FFC701" d="M1575.7,34.5c0,0,2.2,32.4-6.7,39.2
		c-8.9,6.7-74.9,73.3-74.9,73.3l12.3,14l80-54.3l6.2-71L1575.7,34.5z"/>
	<path id="path18863" opacity="0.7" fill-rule="evenodd" clip-rule="evenodd" enable-background="new    " d="M1575.7,34.5
		c0,0,2.2,32.4-6.7,39.2c-8.9,6.7-74.9,73.3-74.9,73.3l12.3,14l80-54.3l6.2-71L1575.7,34.5z"/>
</g>
<g id="g2783">
	<path id="path6424" fill-rule="evenodd" clip-rule="evenodd" fill="#FFC701" d="M1572.8,13.2l-20.4,30.6c0,0-16.4,4.1-24.7,9.2
		c-8.3,5.2-34.4,24.2-92,20.1c-57.7-4.1-66.2-16.4-78.7-16.9c-12.5-0.5-31.4,1.7-36,5.2c-4.6,3.5,0.9,14,0.9,14s16.8,37.7,77.8,53.2
		c61,15.5,133.3-16.5,133.3-16.5l50.4-92.6L1572.8,13.2z"/>
	<path id="path1895" opacity="0.4" fill-rule="evenodd" clip-rule="evenodd" fill="#FFFFFF" enable-background="new    " d="
		M1571.2,15.7l-18.8,28.2c0,0-16.4,4.1-24.7,9.2s-34.4,24.2-92,20.1c-57.7-4.1-66.2-16.4-78.7-16.8c-12.5-0.5-31.4,1.7-36,5.2
		c-0.2,0.2-0.4,0.3-0.6,0.5c10.8-1.6,26.7-1.2,37.9,0.8c21.5,3.9,41.2,16.9,91.2,15.6c71.2-2,79.5-24.1,89.4-26.7
		C1552.7,48,1578.7,42.7,1571.2,15.7z"/>
	<path id="path9086" opacity="0.4" fill-rule="evenodd" clip-rule="evenodd" enable-background="new    " d="M1341.8,100
		c12,10.5,30.5,21.8,57.8,28.8c6.6,1.7,13.3,2.8,20,3.4l21.7-4.4C1405.4,133.4,1361.6,111.4,1341.8,100z"/>
</g>
<g id="g9941">
	<path id="path12644" fill-rule="evenodd" clip-rule="evenodd" fill="#FFC701" d="M1577.4,35c0,0,11.7,30.8,8.4,38.6
		s-22.9,52.6-59.3,69.4s-129.8,14.5-132,10.1c-2.2-4.5,0,42.5,56.5,59.8s128.7-20.6,141.5-33c16.2-15.7,47-55.9,38-86.1
		c-8.9-30.2-15.7-21.3-20.7-29.6s-10.6-24.6-10.6-31.3S1578,35,1577.4,35z"/>
	<path id="path8981" opacity="0.6" fill-rule="evenodd" clip-rule="evenodd" enable-background="new    " d="M1580.5,84.8
		c-8.5,16.6-26.4,45.4-54,58.2c-36.4,16.8-129.8,14.5-132,10.1c-0.6-1.1-0.8,1-0.1,5l0,0.1l1.2,3.8c0,0-0.1,0-0.2,0.1
		c0.1,0.2,0.1,0.4,0.2,0.6c0.1,0.3,0.2,0.5,0.2,0.8c0.2,0.5,0.4,1,0.5,1.6c0.1,0.2,0.1,0.4,0.2,0.5c0.1,0.4,0.3,0.7,0.4,1.1
		c0.2,0.4,0.3,0.8,0.5,1.3c0.1,0.3,0.3,0.6,0.4,0.9c0.2,0.4,0.4,0.8,0.5,1.2c0.1,0.2,0.2,0.4,0.3,0.6c0.6,1.3,1.3,2.7,2,4.1
		c0,0,0,0.1,0.1,0.1c0,0,0,0,0,0.1c0.2,0.4,0.4,0.7,0.6,1.1c0,0,0,0.1,0.1,0.1c0.2,0.4,0.5,0.8,0.7,1.2c0.3,0.4,0.5,0.9,0.8,1.3
		c0,0,0,0,0,0c0.3,0.4,0.5,0.8,0.8,1.2c0,0,0,0,0,0c22.8,10,103.7-9.2,140-35.7C1569.4,125.4,1577.8,99.4,1580.5,84.8z"/>
	<path id="path17089" opacity="0.4" fill-rule="evenodd" clip-rule="evenodd" enable-background="new    " d="M1595.1,30.3
		c-0.9,0-1.9,0.1-3,0.3c3.5,10.8,20.3,63.2,18.8,73.2c-1.7,11.2-19.5,51.8-48.7,69.4c-19.6,11.7-62.1,30.2-77.2,33
		c-9.6,1.8-28.3,4.4-42.9,3.6c2.8,1.1,5.7,2.1,8.8,3.1c56.5,17.3,128.7-20.6,141.5-33c16.2-15.7,47-55.9,38-86.1
		c-8.9-30.2-15.7-21.3-20.7-29.6s-10.6-24.6-10.6-31.3C1599.2,30.9,1597.5,30.3,1595.1,30.3z"/>
</g>
<g id="g9903">
	<path id="path1933" fill-rule="evenodd" clip-rule="evenodd" fill="#FFC701" d="M1580.2,40.6c0,0-10.6,10.6-7.8,20.7
		c2.8,10.1,12.3,34.7-22.9,62.6s-137.6,76.6-206.4,23.5c-19.6-22.4-8.4-36.9-8.4-36.9s11.2-1.6,15.7-1.1c5.6-1.7,31.9,0,56.5,1.1
		c32.9-0.6,123-42.5,140.4-58.7c0,0,21.3-25.7,21.8-30.2s15.1,8.9,15.7,12.9S1580.2,40.1,1580.2,40.6z"/>
	<path id="path7201" opacity="0.4" fill-rule="evenodd" clip-rule="evenodd" fill="#FFFFFF" enable-background="new    " d="
		M1569.8,20.7c-0.5,0.1-0.8,0.3-0.8,0.9c-0.6,4.5-21.8,30.2-21.8,30.2c-17.3,16.2-107.4,58.1-140.4,58.7
		c-24.6-1.1-50.9-2.8-56.5-1.1c-4.5-0.5-15.7,1.1-15.7,1.1s-0.2,0.3-0.5,0.8c6.1,1.8,17.3,4.3,35.3,4.8c41.6,1.1,59.1-1.2,95.2-15.2
		c37.8-14.7,88.5-33.7,108.4-78.9C1571.7,21.2,1570.6,20.6,1569.8,20.7z"/>
	<path id="path4646" opacity="0.4" fill-rule="evenodd" clip-rule="evenodd" enable-background="new    " d="M1572.1,59.8
		c-4.6,15.7-23.1,57.4-94.2,81.5c-86.9,29.5-108.1,12.5-136.2,4.5c0.5,0.6,0.9,1.1,1.4,1.7c68.8,53.1,171.1,4.5,206.4-23.5
		s25.7-52.6,22.9-62.6C1572.2,60.8,1572.1,60.3,1572.1,59.8z"/>
</g>
<g id="g9946">
	<path id="path23294" fill-rule="evenodd" clip-rule="evenodd" fill="#884A13" d="M1580.9,8.6c-3.2-0.8-14.4,8-14.2,11
		c0.2,3,10.9,12.5,17.7,14.9c2.2,0.6,14.5-0.6,15.1-2.8s0.6-11.7-1.7-14C1595.6,15.4,1584.7,9.6,1580.9,8.6z"/>
	<path id="path22407" fill-rule="evenodd" clip-rule="evenodd" fill="#884A13" d="M1580.9,8.6c-3.2-0.8-14.4,8-14.2,11
		c0.2,3,10.9,12.5,17.7,14.9c2.2,0.6,14.5-0.6,15.1-2.8c0.6-2.2,0.6-11.7-1.7-14C1595.6,15.4,1584.7,9.6,1580.9,8.6z"/>
	<path id="path25958" opacity="0.3" fill-rule="evenodd" clip-rule="evenodd" fill="#FFFFFF" enable-background="new    " d="
		M1580.2,8.6c-3.9,0.3-13.7,8.2-13.5,11c0.1,1.2,1.9,3.4,4.4,5.9c0.2-4.7,2.5-11.4,13.3-15.5c-1.4-0.6-2.6-1.1-3.5-1.3
		C1580.7,8.6,1580.5,8.6,1580.2,8.6z"/>
	<path id="path26854" opacity="0.4" fill-rule="evenodd" clip-rule="evenodd" enable-background="new    " d="M1597.8,17.6
		c0.1,10.2-8.7,14.5-14.8,16.3c0.5,0.2,0.9,0.4,1.4,0.5c2.2,0.6,14.5-0.6,15.1-2.8S1600.1,19.9,1597.8,17.6
		C1597.8,17.7,1597.8,17.6,1597.8,17.6z"/>
</g>
</svg>
