<?xml version="1.0" encoding="utf-8"?>
<!-- Generator: Adobe Illustrator 25.1.0, SVG Export Plug-In . SVG Version: 6.00 Build 0)  -->
<svg version="1.2" baseProfile="tiny" id="Laag_1" xmlns="http://www.w3.org/2000/svg" xmlns:xlink="http://www.w3.org/1999/xlink"
	 x="0px" y="0px" viewBox="0 0 1024 1024" overflow="visible" xml:space="preserve">
<g>
	<g>
		<g>
			<path fill="#005E7A" d="M982.24,160c-27.99-27.99-72.01-41.99-132.06-41.99H174.24c-59.74-0.31-103.67,13.54-131.83,41.52
				C14.27,187.52,0.19,231.7,0.19,292.06v440.83c0,59.11,14.08,102.74,42.22,130.89C70.57,891.92,114.5,906,174.24,906h675.94
				c60.05,0,104.07-14.08,132.06-42.22c27.99-28.15,41.99-72.08,41.99-131.83V292.06C1024.23,232.01,1010.23,187.99,982.24,160z"/>
		</g>
	</g>
	<g>
		<path fill="none" d="M1015.93,392.33c-3.44-13.17-10.59-24.53-21.44-34.07c-10.86-9.52-23.89-15.73-39.1-18.62l-21.45-3.98
			L916,350.5c-11.6,9.5-19.74,20.94-24.42,34.33c-4.69,13.4-5.35,26.51-2.01,39.33c4.46,17.1,13.73,29.33,27.83,36.68
			c14.09,7.36,30.76,8.52,49.99,3.5c19.23-5.02,33.2-14.17,41.9-27.48C1017.99,423.56,1020.21,408.71,1015.93,392.33z"/>
		<path fill="none" d="M921.35,287.69l10.79-8.74c11.86-9.94,20.2-21.34,25.03-34.21c4.82-12.86,5.52-25.88,2.08-39.06
			c-3.99-15.31-12.15-26.12-24.44-32.43c-12.3-6.3-26.99-7.22-44.09-2.76c-17.1,4.46-29.54,12.56-37.32,24.29
			c-7.78,11.73-9.67,25.26-5.68,40.57c3.35,12.82,10.24,23.58,20.69,32.26c10.44,8.69,23.09,14.52,37.95,17.49L921.35,287.69z"/>
		<path fill="none" d="M701.26,344.33c8.6-14.41,10.44-31.06,5.51-49.94c-5.11-19.58-14.92-33.48-29.42-41.68
			c-14.51-8.2-31.37-9.79-50.61-4.77l-66.78,17.43l32.76,125.55l66.78-17.43C678.74,368.47,692.66,358.75,701.26,344.33z"/>
		<path fill="none" d="M145.63,489.31c8.6-14.41,10.44-31.06,5.51-49.94c-5.11-19.58-14.92-33.48-29.42-41.68
			c-14.51-8.2-31.37-9.79-50.61-4.77L4.33,410.34l32.76,125.55l66.78-17.43C123.11,513.45,137.03,503.74,145.63,489.31z"/>
		<path fill="#FFFFFF" d="M181.47,542.45c16.32-14.72,27.39-32.44,33.2-53.17c5.81-20.72,5.65-42.85-0.48-66.35
			c-6.32-24.22-17.06-43.86-32.21-58.93c-15.16-15.06-33.45-25.03-54.88-29.91c-21.44-4.86-44.97-3.96-70.62,2.73L0.19,351.5v298.83
			l28.76,110.23l62.51-16.31L51.73,591.99l66.78-17.43C144.16,567.87,165.14,557.17,181.47,542.45z M37.09,535.89L4.33,410.34
			l66.78-17.43c19.23-5.02,36.1-3.43,50.61,4.77c14.5,8.2,24.31,22.1,29.42,41.68c4.93,18.88,3.08,35.53-5.51,49.94
			c-8.6,14.42-22.52,24.14-41.75,29.16L37.09,535.89z"/>
		<polygon fill="#FFFFFF" points="478.8,643.19 541.31,626.88 439.54,236.86 377.03,253.17 418.58,412.38 309.59,440.82 
			268.04,281.61 205.53,297.92 307.3,687.94 369.81,671.62 324.64,498.52 433.63,470.08 		"/>
		<path fill="#FFFFFF" d="M737.09,397.46c16.32-14.72,27.39-32.44,33.2-53.17c5.81-20.72,5.65-42.85-0.48-66.35
			c-6.32-24.22-17.06-43.86-32.21-58.93c-15.16-15.06-33.45-25.03-54.88-29.91c-21.44-4.86-44.97-3.96-70.62,2.73l-129.29,33.74
			l101.77,390.01l62.51-16.31l-39.73-152.27l66.78-17.43C699.79,422.89,720.77,412.19,737.09,397.46z M592.72,390.91l-32.76-125.55
			l66.78-17.43c19.23-5.02,36.1-3.43,50.61,4.77c14.5,8.2,24.31,22.1,29.42,41.68c4.93,18.88,3.08,35.53-5.51,49.94
			c-8.6,14.42-22.52,24.14-41.75,29.16L592.72,390.91z"/>
		<path fill="#FFFFFF" d="M1024.23,313c-12.68-6.44-27.77-11.5-45.28-15.18c17.35-16.3,29.68-32.54,36.98-48.72
			c1.53-3.39,2.82-6.83,3.88-10.33c-6.13-33.58-18.65-59.84-37.58-78.76c-24.89-24.89-62.46-38.71-112.68-41.47
			c-20.69,6.23-37.97,15.24-51.82,27.06c-15.4,13.15-25.93,28.55-31.6,46.19c-5.67,17.65-5.9,36.45-0.69,56.39
			c5.76,22.09,17.12,39.38,34.08,51.88c14.59,10.76,33.45,18.93,56.55,24.51c-20.39,17.62-34.58,35.71-42.55,54.3
			c-8.64,20.14-9.88,41.95-3.75,65.46c5.58,21.37,15.51,38.66,29.79,51.86c14.29,13.2,31.83,21.75,52.63,25.64
			c20.79,3.89,43.84,2.54,69.13-4.06c16.18-4.22,30.48-9.79,42.91-16.71V313z M847.72,235.35c-4-15.31-2.1-28.84,5.68-40.57
			c7.78-11.73,20.22-19.83,37.32-24.29c17.1-4.46,31.79-3.53,44.09,2.76c12.29,6.31,20.45,17.12,24.44,32.43
			c3.44,13.18,2.75,26.2-2.08,39.06c-4.83,12.87-13.17,24.27-25.03,34.21l-10.79,8.74l-15-2.59c-14.85-2.97-27.5-8.8-37.95-17.49
			C857.96,258.93,851.07,248.17,847.72,235.35z M967.39,464.34c-19.23,5.02-35.9,3.86-49.99-3.5c-14.1-7.35-23.37-19.58-27.83-36.68
			c-3.35-12.82-2.68-25.93,2.01-39.33C896.25,371.44,904.4,360,916,350.5l17.95-14.83l21.45,3.98c15.21,2.88,28.24,9.09,39.1,18.62
			c10.85,9.54,18.01,20.89,21.44,34.07c4.28,16.39,2.06,31.23-6.64,44.53C1000.58,450.17,986.62,459.32,967.39,464.34z"/>
	</g>
</g>
<g>
	<path fill="#FFFFFF" d="M134.74,864.01c-3.66,0.95-7.01,1.09-10.04,0.41c-3.04-0.68-5.63-2.11-7.79-4.29
		c-2.16-2.18-3.69-5.02-4.6-8.52l-2.86-10.97c-0.91-3.5-0.96-6.73-0.15-9.68c0.81-2.96,2.38-5.47,4.7-7.55
		c2.32-2.08,5.3-3.59,8.96-4.55c3.71-0.97,7.07-1.11,10.08-0.42c3.01,0.69,5.59,2.12,7.75,4.31c2.15,2.18,3.68,5,4.58,8.44
		l2.88,11.05c0.91,3.5,0.96,6.73,0.15,9.68c-0.81,2.96-2.37,5.47-4.66,7.54C141.45,861.53,138.45,863.04,134.74,864.01z
		 M132.63,855.9c2.75-0.72,4.7-2.05,5.84-3.99c1.14-1.94,1.32-4.37,0.56-7.28l-2.86-10.97c-0.77-2.97-2.13-5.01-4.06-6.12
		c-1.93-1.11-4.28-1.3-7.03-0.58c-2.7,0.71-4.64,2.02-5.81,3.94c-1.17,1.92-1.37,4.36-0.59,7.33l2.86,10.97
		c0.76,2.92,2.12,4.94,4.09,6.07C127.59,856.4,129.92,856.61,132.63,855.9z"/>
	<path fill="#FFFFFF" d="M185.89,850.75c-3.6,0.94-6.73,0.68-9.38-0.78c-2.65-1.46-4.42-3.94-5.34-7.44l2.55,1.63l-1.99,0.52
		l2.18,8.35l-9.14,2.39l-15.15-58.04l9.3-2.43l3.24,12.4l2.44,10.32l2.07-0.54l-1.43,2.67c-0.91-3.5-0.56-6.53,1.06-9.11
		c1.62-2.58,4.21-4.33,7.76-5.25c4.4-1.15,8.31-0.57,11.75,1.73c3.43,2.3,5.81,6,7.14,11.09l3.15,12.09
		c1.33,5.09,1.06,9.48-0.81,13.16C193.42,847.19,190.29,849.6,185.89,850.75z M180.53,843.57c2.7-0.71,4.61-2.04,5.71-3.99
		c1.1-1.96,1.28-4.37,0.53-7.23l-2.95-11.29c-0.75-2.86-2.08-4.88-4-6.05c-1.92-1.17-4.23-1.4-6.93-0.7
		c-2.54,0.66-4.36,1.99-5.46,3.97c-1.1,1.98-1.28,4.38-0.54,7.19l2.95,11.29c0.73,2.81,2.06,4.81,3.99,6.01
		C175.75,843.97,177.99,844.24,180.53,843.57z"/>
	<path fill="#FFFFFF" d="M216.45,857.21l-2.24-8.59l11.37-2.97c2.76-0.72,4.71-2.03,5.85-3.95c1.14-1.91,1.35-4.25,0.64-7l-8.4-32.2
		l-17.73,4.63l-2.24-8.59l27.03-7.05l10.68,40.95c1.37,5.25,0.86,9.82-1.51,13.73c-2.38,3.9-6.3,6.57-11.76,7.99L216.45,857.21z
		 M223.68,785.35c-1.96,0.51-3.63,0.42-5-0.27c-1.37-0.69-2.27-1.88-2.72-3.58c-0.46-1.75-0.26-3.27,0.59-4.57
		c0.85-1.3,2.26-2.2,4.22-2.72c1.96-0.51,3.63-0.41,5.01,0.31c1.38,0.72,2.29,1.95,2.75,3.7c0.44,1.7,0.24,3.18-0.62,4.45
		C227.05,783.95,225.64,784.84,223.68,785.35z"/>
	<path fill="#FFFFFF" d="M277.88,826.75c-3.61,0.94-6.94,1.06-10.01,0.36c-3.07-0.7-5.68-2.14-7.84-4.32
		c-2.16-2.18-3.67-4.97-4.56-8.36l-2.95-11.29c-0.89-3.39-0.92-6.57-0.11-9.53c0.81-2.96,2.39-5.49,4.73-7.6
		c2.34-2.11,5.31-3.63,8.91-4.58c3.66-0.96,7.01-1.08,10.05-0.37c3.04,0.71,5.64,2.15,7.8,4.33c2.15,2.18,3.67,4.97,4.56,8.36
		l2.05,7.87l-27.03,7.05l0.89,3.42c0.82,3.13,2.22,5.31,4.21,6.54c1.99,1.24,4.47,1.46,7.44,0.69c2.38-0.62,4.2-1.55,5.43-2.78
		c1.24-1.23,1.84-2.66,1.81-4.29l9.14-2.39c0.28,3.89-0.91,7.37-3.56,10.44C286.2,823.39,282.54,825.53,277.88,826.75z
		 M280.2,798.54l-0.64-2.46c-0.82-3.13-2.2-5.33-4.14-6.6c-1.95-1.28-4.43-1.52-7.45-0.73c-2.92,0.76-4.93,2.19-6.05,4.3
		c-1.12,2.1-1.28,4.69-0.48,7.77l0.48,1.83l18.74-4.98L280.2,798.54z"/>
	<path fill="#FFFFFF" d="M325.9,814.22c-3.71,0.97-7.11,1.12-10.2,0.45c-3.09-0.67-5.72-2.09-7.91-4.26
		c-2.18-2.18-3.72-4.99-4.62-8.43l-2.95-11.29c-0.91-3.5-0.95-6.72-0.1-9.66c0.85-2.94,2.45-5.45,4.83-7.54
		c2.37-2.09,5.41-3.62,9.12-4.59c5.35-1.4,10.01-1.11,13.98,0.85c3.97,1.97,6.66,5.34,8.08,10.12l-9.22,2.41
		c-0.78-2.34-2.11-3.98-4-4.9c-1.88-0.92-4.12-1.04-6.72-0.37c-2.81,0.73-4.82,2.08-6.04,4.04c-1.22,1.96-1.45,4.37-0.7,7.23
		l2.95,11.29c0.73,2.81,2.11,4.79,4.14,5.93c2.02,1.14,4.44,1.35,7.25,0.61c2.6-0.68,4.49-1.88,5.68-3.61
		c1.19-1.72,1.56-3.8,1.09-6.23l9.22-2.41c1.1,4.87,0.4,9.12-2.1,12.78C335.18,810.3,331.25,812.82,325.9,814.22z"/>
	<path fill="#FFFFFF" d="M377.85,799.81c-4.08,1.07-7.56,0.77-10.42-0.89c-2.87-1.66-4.82-4.48-5.86-8.45l-5.91-22.66l-12.01,3.13
		l-2.18-8.35l12.01-3.13l-3.22-12.32l9.22-2.41l3.22,12.32l17.01-4.44l2.18,8.35l-17.01,4.44l5.91,22.66c0.76,2.92,2.57,4,5.43,3.25
		l11.93-3.11l2.18,8.35L377.85,799.81z"/>
	<path fill="#FFFFFF" d="M460.61,793.5l-2.05-7.87l13.2-3.44c2.23-0.58,3.76-1.55,4.59-2.9c0.84-1.35,0.99-3.03,0.47-5.05l-1.02-3.9
		l-1.96-8.15l-2.07,0.54l1.49-2.43c0.9,3.45,0.56,6.42-1.02,8.93c-1.58,2.51-4.15,4.22-7.7,5.15c-4.51,1.18-8.45,0.61-11.83-1.71
		c-3.38-2.32-5.73-6.02-7.06-11.11l-2.26-8.67c-1.33-5.09-1.08-9.47,0.73-13.14c1.81-3.67,4.98-6.1,9.48-7.27
		c3.55-0.93,6.63-0.68,9.23,0.73c2.61,1.42,4.36,3.85,5.26,7.29l-2.49-1.39l1.99-0.52l-2.34-8.31l9.22-2.41L486,772.02
		c1.12,4.29,0.61,8.05-1.52,11.27c-2.13,3.22-5.64,5.46-10.51,6.73L460.61,793.5z M465.55,765.55c2.6-0.68,4.43-2.01,5.5-3.98
		c1.07-1.98,1.24-4.37,0.5-7.18l-2.05-7.87c-0.73-2.81-2.05-4.82-3.95-6.02c-1.9-1.2-4.15-1.47-6.74-0.79
		c-2.7,0.71-4.58,2.03-5.63,3.97c-1.05,1.94-1.2,4.35-0.45,7.21l2.05,7.87c0.75,2.86,2.05,4.89,3.92,6.07
		C460.56,766.02,462.84,766.26,465.55,765.55z"/>
	<path fill="#FFFFFF" d="M516.4,764.51c-3.61,0.94-6.94,1.06-10.01,0.36c-3.07-0.7-5.68-2.14-7.84-4.32
		c-2.16-2.18-3.68-4.97-4.56-8.36l-2.95-11.29c-0.89-3.39-0.92-6.57-0.11-9.53c0.81-2.96,2.39-5.49,4.73-7.6
		c2.34-2.11,5.31-3.63,8.91-4.58c3.66-0.95,7.01-1.08,10.05-0.37c3.04,0.71,5.64,2.15,7.8,4.33c2.15,2.18,3.67,4.97,4.56,8.36
		l2.05,7.87L502,746.44l0.89,3.42c0.82,3.13,2.22,5.31,4.21,6.54c1.99,1.24,4.47,1.46,7.44,0.69c2.38-0.62,4.2-1.55,5.43-2.78
		c1.24-1.23,1.84-2.66,1.81-4.29l9.14-2.39c0.28,3.89-0.91,7.37-3.56,10.44C524.72,761.15,521.06,763.29,516.4,764.51z
		 M518.72,736.31l-0.64-2.46c-0.82-3.13-2.2-5.33-4.14-6.6s-4.43-1.52-7.45-0.73c-2.92,0.76-4.93,2.19-6.05,4.3
		c-1.12,2.1-1.28,4.69-0.48,7.77l0.48,1.83l18.74-4.98L518.72,736.31z"/>
	<path fill="#FFFFFF" d="M564.08,751.98c-3.66,0.95-7.01,1.09-10.04,0.41c-3.04-0.68-5.63-2.11-7.79-4.29
		c-2.16-2.18-3.69-5.03-4.6-8.52l-2.86-10.97c-0.91-3.5-0.96-6.73-0.15-9.68c0.81-2.96,2.38-5.48,4.7-7.55
		c2.32-2.08,5.3-3.59,8.96-4.55c3.71-0.97,7.07-1.11,10.08-0.42c3.01,0.69,5.59,2.12,7.75,4.31c2.15,2.18,3.68,5,4.58,8.44
		l2.88,11.05c0.91,3.5,0.96,6.73,0.15,9.68c-0.81,2.96-2.37,5.47-4.66,7.54C570.79,749.5,567.79,751.02,564.08,751.98z
		 M561.97,743.87c2.75-0.72,4.7-2.05,5.84-3.99c1.14-1.94,1.32-4.37,0.56-7.28l-2.86-10.97c-0.77-2.97-2.13-5.01-4.06-6.12
		c-1.93-1.11-4.28-1.3-7.03-0.58c-2.7,0.71-4.64,2.02-5.81,3.94c-1.17,1.92-1.37,4.36-0.59,7.33l2.86,10.97
		c0.76,2.92,2.12,4.94,4.09,6.07C556.93,744.37,559.26,744.58,561.97,743.87z"/>
	<path fill="#FFFFFF" d="M595.54,743.01l-11.41-43.73l8.83-2.3l2.18,8.35l2.31-0.6l-1.43,5.89c-1.23-4.72-1.12-8.55,0.35-11.51
		c1.46-2.96,4.24-4.97,8.32-6.04c4.72-1.23,8.8-0.75,12.26,1.43c3.46,2.18,5.86,5.85,7.2,10.99l0.79,3.02l-9.62,2.51l-0.62-2.39
		c-0.77-2.97-2.12-5.05-4.05-6.25c-1.93-1.2-4.21-1.45-6.86-0.76c-2.7,0.71-4.59,2.06-5.65,4.06c-1.06,2-1.21,4.46-0.45,7.38
		l7.18,27.51L595.54,743.01z"/>
	<path fill="#FFFFFF" d="M641.65,730.98l-2.2-8.43l15.35-4l-7.03-26.95l-13.36,3.49l-2.18-8.35l22.26-5.81l9.21,35.3l13.83-3.61
		l2.2,8.43L641.65,730.98z M647.29,674.82c-1.96,0.51-3.63,0.42-5-0.27c-1.37-0.69-2.27-1.88-2.72-3.58
		c-0.46-1.75-0.26-3.27,0.59-4.57c0.85-1.3,2.26-2.2,4.22-2.71c1.96-0.51,3.63-0.41,5.01,0.31c1.38,0.72,2.29,1.95,2.75,3.7
		c0.44,1.7,0.24,3.18-0.62,4.45C650.67,673.41,649.25,674.3,647.29,674.82z"/>
	<path fill="#FFFFFF" d="M684.42,665.13c-1.7,0.44-3.19,0.31-4.48-0.4c-1.29-0.71-2.16-1.91-2.6-3.61c-0.46-1.75-0.3-3.26,0.47-4.54
		s2-2.14,3.7-2.58c1.75-0.46,3.26-0.31,4.53,0.43c1.27,0.75,2.13,1.99,2.59,3.74c0.44,1.7,0.29,3.17-0.46,4.41
		C687.42,663.82,686.17,664.67,684.42,665.13z M707.21,714.72c-3.6,0.94-6.94,1.06-10.01,0.36c-3.07-0.7-5.68-2.14-7.84-4.32
		c-2.16-2.18-3.68-4.97-4.56-8.36l-2.95-11.29c-0.89-3.39-0.92-6.57-0.11-9.53c0.81-2.96,2.39-5.49,4.73-7.6
		c2.34-2.11,5.31-3.63,8.91-4.58c3.66-0.96,7.01-1.08,10.05-0.37c3.04,0.71,5.64,2.15,7.8,4.33c2.15,2.18,3.67,4.97,4.56,8.36
		l2.05,7.87l-27.03,7.05l0.89,3.42c0.82,3.13,2.22,5.31,4.21,6.54c1.99,1.24,4.47,1.46,7.44,0.69c2.38-0.62,4.2-1.55,5.43-2.78
		c1.24-1.23,1.84-2.66,1.81-4.29l9.14-2.39c0.28,3.89-0.91,7.37-3.56,10.44C715.54,711.36,711.88,713.5,707.21,714.72z
		 M709.54,686.51l-0.64-2.46c-0.82-3.13-2.2-5.33-4.14-6.6c-1.95-1.28-4.43-1.52-7.45-0.73c-2.92,0.76-4.93,2.19-6.05,4.3
		c-1.12,2.1-1.28,4.69-0.48,7.77l0.48,1.83l18.74-4.98L709.54,686.51z M702.87,660.31c-1.75,0.46-3.26,0.33-4.52-0.39
		c-1.26-0.72-2.12-1.92-2.56-3.62c-0.46-1.75-0.31-3.26,0.43-4.53s1.99-2.13,3.74-2.59c1.7-0.44,3.19-0.29,4.49,0.44
		s2.17,1.98,2.63,3.73c0.44,1.7,0.27,3.17-0.5,4.42C705.8,659.03,704.57,659.87,702.87,660.31z"/>
	<path fill="#FFFFFF" d="M737.22,706.04l-11.41-43.73l9.14-2.39l2.18,8.35l2.38-0.62l-1.83,2.77c-0.93-3.55-0.6-6.59,0.97-9.13
		c1.57-2.53,4.16-4.27,7.77-5.21c4.35-1.13,8.18-0.63,11.52,1.5c3.33,2.13,5.62,5.61,6.88,10.43l7.53,28.86l-9.3,2.43l-7.28-27.91
		c-0.72-2.76-2-4.69-3.85-5.79c-1.85-1.1-4.04-1.32-6.58-0.66c-2.6,0.68-4.43,1.99-5.51,3.94s-1.24,4.36-0.49,7.22l7.18,27.51
		L737.22,706.04z"/>
	<path fill="#FFFFFF" d="M807.19,687.78c-4.08,1.07-7.56,0.77-10.42-0.89c-2.87-1.66-4.82-4.48-5.86-8.45L785,655.79l-12.01,3.13
		l-2.18-8.35l12.01-3.13l-3.22-12.32l9.22-2.41l3.22,12.32l17.01-4.44l2.18,8.35l-17.01,4.44l5.91,22.66c0.76,2.92,2.57,4,5.44,3.25
		l11.93-3.11l2.18,8.35L807.19,687.78z"/>
	<path fill="#FFFFFF" d="M850.33,677.38c-3.61,0.94-6.94,1.06-10.01,0.36s-5.68-2.14-7.84-4.32c-2.15-2.18-3.67-4.97-4.56-8.36
		l-2.95-11.29c-0.88-3.39-0.92-6.57-0.11-9.53c0.81-2.96,2.39-5.49,4.73-7.6c2.34-2.11,5.31-3.63,8.91-4.58
		c3.66-0.95,7.01-1.08,10.05-0.37c3.04,0.71,5.64,2.15,7.8,4.33c2.16,2.18,3.67,4.97,4.56,8.36l2.05,7.87l-27.03,7.05l0.89,3.42
		c0.82,3.13,2.22,5.31,4.21,6.54c1.99,1.24,4.47,1.46,7.44,0.69c2.39-0.62,4.2-1.55,5.43-2.78c1.24-1.23,1.84-2.66,1.81-4.29
		l9.14-2.39c0.28,3.89-0.91,7.37-3.56,10.44C858.65,674.02,854.99,676.16,850.33,677.38z M852.65,649.17l-0.64-2.46
		c-0.82-3.13-2.2-5.33-4.14-6.6c-1.95-1.28-4.43-1.52-7.45-0.73c-2.92,0.76-4.93,2.19-6.06,4.3c-1.12,2.1-1.28,4.69-0.48,7.77
		l0.48,1.83l18.74-4.98L852.65,649.17z"/>
	<path fill="#FFFFFF" d="M898.03,664.93c-3.61,0.94-6.94,1.06-10.01,0.36c-3.07-0.7-5.68-2.14-7.84-4.32
		c-2.16-2.18-3.67-4.97-4.56-8.36l-2.95-11.29c-0.88-3.39-0.92-6.57-0.11-9.53c0.81-2.96,2.39-5.49,4.72-7.6
		c2.34-2.11,5.31-3.63,8.91-4.58c3.66-0.95,7.01-1.08,10.05-0.37c3.04,0.71,5.64,2.15,7.8,4.34c2.15,2.18,3.68,4.97,4.56,8.36
		l2.05,7.87l-27.03,7.05l0.89,3.42c0.82,3.13,2.22,5.31,4.21,6.54c1.99,1.24,4.47,1.46,7.44,0.69c2.39-0.62,4.2-1.55,5.43-2.78
		c1.24-1.23,1.84-2.66,1.81-4.29l9.14-2.39c0.28,3.89-0.91,7.37-3.56,10.44C906.35,661.57,902.7,663.71,898.03,664.93z
		 M900.35,636.72l-0.64-2.46c-0.82-3.13-2.2-5.33-4.14-6.6c-1.95-1.28-4.43-1.52-7.45-0.73c-2.92,0.76-4.93,2.19-6.05,4.3
		c-1.12,2.1-1.28,4.69-0.48,7.77l0.48,1.83l18.74-4.98L900.35,636.72z"/>
	<path fill="#FFFFFF" d="M929.47,655.88l-11.41-43.73l8.83-2.3l2.18,8.35l2.31-0.6l-1.43,5.89c-1.23-4.72-1.12-8.55,0.35-11.51
		c1.46-2.96,4.24-4.97,8.32-6.04c4.72-1.23,8.8-0.75,12.26,1.43c3.46,2.18,5.86,5.85,7.2,10.99l0.79,3.02l-9.62,2.51l-0.62-2.39
		c-0.78-2.97-2.12-5.05-4.05-6.25c-1.93-1.2-4.21-1.45-6.86-0.76c-2.7,0.71-4.59,2.06-5.65,4.06c-1.06,2-1.21,4.46-0.45,7.38
		l7.18,27.51L929.47,655.88z"/>
	<path fill="#FFFFFF" d="M990.02,640.93c-4.4,1.15-8.32,0.57-11.75-1.73c-3.43-2.3-5.81-6-7.14-11.09l-3.15-12.09
		c-1.33-5.09-1.06-9.47,0.81-13.16c1.87-3.69,5-6.1,9.4-7.25c3.6-0.94,6.73-0.68,9.38,0.78c2.64,1.46,4.42,3.94,5.34,7.44
		l-2.55-1.63l2.07-0.54l-2.92-10.19l-3.24-12.4l9.3-2.43l15.14,58.04l-9.14,2.39l-2.18-8.35l-1.99,0.52l1.43-2.67
		c0.91,3.5,0.57,6.53-1.02,9.1C996.23,638.23,993.62,639.99,990.02,640.93z M991.19,632.04c2.6-0.68,4.43-2.01,5.5-3.98
		c1.07-1.98,1.24-4.37,0.5-7.18l-2.95-11.29c-0.73-2.81-2.05-4.81-3.95-6.02c-1.9-1.2-4.15-1.47-6.74-0.79
		c-2.7,0.71-4.61,2.04-5.71,4c-1.1,1.96-1.28,4.37-0.53,7.23l2.95,11.29c0.75,2.86,2.08,4.88,4,6.05
		C986.17,632.52,988.48,632.75,991.19,632.04z"/>
</g>
<rect x="-227.39" y="295.21" width="24.8" height="24.8"/>
<text transform="matrix(1 0 0 1 -186.6108 312.2834)" font-family="'HelveticaNeue'" font-size="15.6641px">#000000</text>
<rect x="-227.39" y="331.76" fill="#1D3E47" width="24.8" height="24.8"/>
<text transform="matrix(1 0 0 1 -186.6108 348.8332)" font-family="'HelveticaNeue'" font-size="15.6641px">#1D3E47</text>
<rect x="-227.39" y="368.31" fill="#005E7A" width="24.8" height="24.8"/>
<text transform="matrix(1 0 0 1 -186.6108 385.382)" font-family="'HelveticaNeue'" font-size="15.6641px">#005E7A</text>
<rect x="-227.39" y="404.86" fill="#B06E2C" width="24.8" height="24.8"/>
<text transform="matrix(1 0 0 1 -186.6108 421.9318)" font-family="'HelveticaNeue'" font-size="15.6641px">#B06E2C</text>
<rect x="-227.39" y="441.4" fill="#FF8000" width="24.8" height="24.8"/>
<text transform="matrix(1 0 0 1 -186.6108 458.4816)" font-family="'HelveticaNeue'" font-size="15.6641px">#FF8000</text>
</svg>
