<?xml version="1.0" encoding="utf-8"?>
<!-- Generator: Adobe Illustrator 25.2.0, SVG Export Plug-In . SVG Version: 6.00 Build 0)  -->
<svg version="1.2" baseProfile="tiny" id="Laag_1" xmlns="http://www.w3.org/2000/svg" xmlns:xlink="http://www.w3.org/1999/xlink"
	 x="0px" y="0px" viewBox="0 0 1024 787.9" overflow="visible" xml:space="preserve">
<g>
	<g>
		<g>
			<path fill="#FF9900" d="M982.2,42c-28-28-72-42-132.1-42H174.2C114.5-0.3,70.5,13.5,42.4,41.5S0.2,113.7,0.2,174v440.8
				c0,59.1,14.1,102.7,42.2,130.9c28.2,28.1,72.1,42.2,131.8,42.2h675.9c60,0,104.1-14.1,132.1-42.2c28-28.2,42-72.1,42-131.8V174.1
				C1024.2,114,1010.2,70,982.2,42z"/>
		</g>
	</g>
</g>
<path fill="#ED2224" d="M603.9,1l261.9,624.9V1H603.9z M158.6,1v624.9L420.5,1H158.6z M398.1,498.5h119.6l52.5,127.2h108.4
	L510.4,229.2L398.1,498.5z"/>
<g>
	<path d="M180.9,710.9c-4,0-7.4-0.9-10.3-2.7c-2.9-1.8-5.2-4.3-6.7-7.6c-1.6-3.3-2.4-7.2-2.4-11.7c0-4.6,0.8-8.5,2.5-11.8
		c1.7-3.3,4-5.9,7-7.7c3-1.8,6.5-2.7,10.4-2.7c2.6,0,4.9,0.4,7,1.2c2.1,0.8,3.9,1.9,5.5,3.3c1.6,1.4,2.8,3,3.7,4.8
		c0.9,1.8,1.4,3.6,1.4,5.5h-9.2c-0.3-1.4-0.8-2.6-1.5-3.8c-0.8-1.1-1.7-2-2.9-2.7c-1.2-0.7-2.6-1-4.2-1c-1.9,0-3.6,0.5-5.2,1.5
		s-2.8,2.6-3.7,4.7c-0.9,2.2-1.3,5-1.3,8.5c0,2.8,0.3,5.2,0.9,7.1c0.6,1.9,1.4,3.4,2.4,4.5c1,1.1,2.1,1.9,3.4,2.3s2.6,0.7,3.9,0.7
		c1.3,0,2.4-0.2,3.4-0.6c1-0.4,1.9-1,2.6-1.7s1.3-1.4,1.7-2.2s0.7-1.6,0.8-2.4l0.4-2.6h-8.9v-6l18,0.1v22.5h-5.9v-5.6
		c-0.7,1-1.6,1.9-2.7,2.9c-1.1,1-2.4,1.8-4,2.4C185.2,710.6,183.2,710.9,180.9,710.9z"/>
	<path d="M207.6,710.4v-30.8h8.4v7.3c0.5-1.6,1.2-2.9,2.1-4.1c0.9-1.2,2-2.1,3.3-2.8c1.3-0.7,2.8-1,4.4-1c0.3,0,0.5,0,0.8,0
		c0.2,0,0.4,0.1,0.6,0.1v8.3c-0.2-0.1-0.4-0.1-0.6-0.1c-0.2,0-0.5,0-0.7-0.1c-1.7-0.1-3.2-0.1-4.4,0.1c-1.2,0.2-2.2,0.6-3,1.2
		c-0.8,0.6-1.3,1.3-1.6,2.1c-0.3,0.8-0.5,1.8-0.5,2.8v16.9H207.6z"/>
	<path d="M240.4,710.9c-2,0-3.7-0.4-5.3-1.1c-1.6-0.7-2.8-1.8-3.7-3.2c-0.9-1.4-1.4-3.1-1.4-5.1c0-3.4,1.3-5.9,3.8-7.7
		c2.5-1.8,6.5-2.7,12-2.7l3.8-0.1v-1.8c0-1.4-0.4-2.5-1.2-3.3c-0.8-0.8-2.1-1.1-3.8-1.1c-1.3,0-2.5,0.3-3.6,0.9s-1.9,1.6-2.3,3h-7.2
		c0.1-2.2,0.8-4.1,1.9-5.5s2.8-2.5,4.8-3.2c2-0.7,4.3-1.1,6.9-1.1c3.2,0,5.7,0.4,7.6,1.2c1.9,0.8,3.3,1.9,4.1,3.4
		c0.9,1.5,1.3,3.2,1.3,5.2v21.7h-7.3l-0.7-5.3c-1.1,2.2-2.4,3.8-3.9,4.6S242.5,710.9,240.4,710.9z M243.3,705.2
		c0.8,0,1.6-0.1,2.3-0.4s1.4-0.7,2-1.2c0.6-0.5,1.1-1,1.4-1.7c0.4-0.6,0.5-1.3,0.5-1.9v-4.5l-3.1,0c-1.5,0-2.8,0.2-4.1,0.5
		c-1.3,0.3-2.3,0.9-3,1.6c-0.8,0.7-1.1,1.7-1.1,3c0,1.4,0.5,2.5,1.5,3.4C240.7,704.8,241.9,705.2,243.3,705.2z"/>
	<path d="M265.6,720v-40.4h8.7l0,4.4c0.5-0.7,1-1.4,1.7-2c0.7-0.6,1.4-1.1,2.2-1.6c0.8-0.5,1.7-0.8,2.7-1.1c1-0.2,2-0.4,3-0.4
		c2.3,0,4.3,0.6,6.1,1.7c1.8,1.1,3.2,2.9,4.2,5.2c1,2.3,1.5,5.3,1.5,8.9c0,3.7-0.6,6.8-1.7,9.2c-1.1,2.4-2.6,4.2-4.5,5.3
		s-4.1,1.7-6.5,1.7c-1,0-1.9-0.1-2.8-0.4c-0.9-0.3-1.7-0.6-2.4-1.1s-1.4-1-2-1.7c-0.6-0.6-1.1-1.3-1.5-2V720H265.6z M281,704.6
		c1.9,0,3.5-0.8,4.8-2.4c1.3-1.6,1.9-4,1.9-7.4c0-3-0.6-5.3-1.8-7c-1.2-1.7-2.8-2.5-4.8-2.5c-2.2,0-3.9,0.9-5,2.7
		c-1.1,1.8-1.7,4.1-1.7,6.8c0,1.7,0.2,3.3,0.7,4.8s1.2,2.7,2.2,3.6C278.3,704.1,279.5,704.6,281,704.6z"/>
	<path d="M301.6,710.4v-44.3h8.6V684c0.5-0.7,1.1-1.4,1.9-2.1c0.8-0.7,1.7-1.3,2.8-1.8c1.1-0.5,2.5-0.7,4.1-0.7c2,0,3.8,0.4,5.4,1.1
		c1.6,0.8,2.9,1.9,3.9,3.3c1,1.5,1.5,3.2,1.5,5.3v21.2h-8.7v-19.9c0-1.4-0.5-2.5-1.5-3.2c-1-0.7-2.2-1.1-3.7-1.1
		c-0.9,0-1.8,0.2-2.7,0.5c-0.9,0.3-1.6,0.8-2.1,1.5s-0.8,1.5-0.8,2.5v19.7H301.6z"/>
	<path d="M345.8,667.3v7.8h-8.5v-7.8H345.8z M345.7,679.5v30.8h-8.3v-30.8H345.7z"/>
	<path d="M366.8,678.9c2.6,0,4.8,0.5,6.7,1.6c1.9,1.1,3.4,2.5,4.4,4.3s1.7,3.8,1.9,6h-7.2c-0.1-0.8-0.4-1.6-0.9-2.4s-1.1-1.5-1.8-2
		c-0.8-0.5-1.8-0.8-3-0.8c-2,0-3.7,0.8-4.9,2.3c-1.3,1.6-1.9,3.9-1.9,7.1c0,3,0.6,5.4,1.8,7.1c1.2,1.8,3,2.6,5.2,2.6
		c1.2,0,2.2-0.3,2.9-0.9s1.4-1.3,1.8-2.1c0.4-0.8,0.7-1.6,0.8-2.3h7.1c-0.1,2.1-0.8,4-1.8,5.8c-1.1,1.7-2.6,3.1-4.5,4.1
		c-1.9,1-4.1,1.5-6.6,1.5c-2.9,0-5.4-0.6-7.7-1.9c-2.2-1.3-4-3.1-5.3-5.5s-1.9-5.2-1.9-8.5c0-3.2,0.6-6,1.8-8.4
		c1.2-2.4,3-4.3,5.2-5.7C361.2,679.6,363.8,678.9,366.8,678.9z"/>
	<path d="M399.3,667.3c0.2,0,0.8,0,1.8,0s2.2,0,3.5,0c1.4,0,2.7,0,4.1,0c1.4,0,2.5,0,3.4,0c5.2,0.1,9.5,1.1,12.8,2.8
		c3.3,1.7,5.7,4.2,7.3,7.3c1.5,3.1,2.3,6.8,2.3,11.1c0,4.5-0.8,8.3-2.4,11.6c-1.6,3.2-4.1,5.8-7.5,7.5c-3.3,1.8-7.6,2.7-12.7,2.7
		h-12.6V667.3z M408.1,674.3v29h4c2.5,0,4.7-0.5,6.7-1.4c2-1,3.6-2.5,4.8-4.7s1.8-5.1,1.8-8.7c0-3.4-0.5-6.1-1.6-8.2
		c-1.1-2.1-2.6-3.6-4.6-4.6c-2-1-4.3-1.5-7.1-1.5H408.1z"/>
	<path d="M448.3,696.9c0,1.6,0.2,2.9,0.7,4.1c0.5,1.2,1.3,2.1,2.2,2.7s2.2,0.9,3.6,0.9c1.5,0,2.8-0.3,3.9-1s1.9-1.7,2.3-3.1h7.8
		c-0.3,2.2-1.2,4.1-2.6,5.6s-3.1,2.7-5.1,3.5c-2,0.8-4.1,1.2-6.2,1.2c-3,0-5.7-0.6-8-1.9c-2.3-1.3-4.1-3.1-5.4-5.4
		c-1.3-2.3-1.9-5.1-1.9-8.3c0-3.1,0.6-5.9,1.8-8.3s2.9-4.4,5.1-5.9s4.9-2.2,8.1-2.2c3.1,0,5.8,0.7,7.9,2c2.1,1.3,3.7,3.2,4.8,5.5
		c1.1,2.4,1.6,5.1,1.6,8.2v2.4H448.3z M448.3,691.8h12.6c0-1.2-0.2-2.4-0.7-3.4c-0.5-1-1.1-1.8-2.1-2.4s-2.1-0.9-3.5-0.9
		c-1.4,0-2.5,0.3-3.4,1c-0.9,0.6-1.7,1.5-2.2,2.5C448.5,689.5,448.3,690.6,448.3,691.8z"/>
	<path d="M487.2,710.9c-2.1,0-4.2-0.4-6.2-1.1c-2-0.7-3.7-1.8-5-3.3c-1.4-1.5-2.2-3.5-2.6-5.9h7.5c0.3,1.1,0.7,2,1.4,2.6
		s1.5,1.1,2.3,1.4c0.9,0.3,1.7,0.4,2.5,0.4c1.7,0,3-0.3,4-0.8s1.5-1.3,1.5-2.4c0-0.8-0.3-1.5-0.9-2c-0.6-0.5-1.6-0.9-3-1.1l-5.4-1.1
		c-2.7-0.6-4.9-1.6-6.6-2.9s-2.5-3.3-2.5-5.9c0-1.8,0.5-3.5,1.5-5c1-1.5,2.4-2.6,4.4-3.5c1.9-0.9,4.3-1.3,7.1-1.3
		c3.8,0,6.8,0.8,9.1,2.5c2.3,1.7,3.4,4,3.5,7.1h-7.3c-0.2-1.2-0.8-2.1-1.8-2.8c-1-0.6-2.2-1-3.6-1c-1.5,0-2.8,0.3-3.7,0.8
		s-1.5,1.4-1.5,2.4c0,0.8,0.4,1.5,1.2,1.9c0.8,0.5,2,0.9,3.7,1.2l5,1.1c1.7,0.4,3.1,1,4.2,1.7c1.1,0.7,1.9,1.5,2.5,2.4
		c0.6,0.9,1,1.7,1.2,2.6c0.2,0.9,0.3,1.6,0.3,2.3c0,2-0.5,3.8-1.6,5.2c-1.1,1.4-2.6,2.5-4.6,3.3S489.7,710.9,487.2,710.9z"/>
	<path d="M515,667.3v7.8h-8.5v-7.8H515z M515,679.5v30.8h-8.3v-30.8H515z"/>
	<path d="M536.9,720.5c-5.5,0-9.7-0.7-12.5-2.1c-2.9-1.4-4.3-3.2-4.3-5.5c0-1.1,0.3-1.9,0.8-2.7c0.6-0.7,1.2-1.3,2-1.7
		c0.7-0.4,1.4-0.8,2.1-1c0.6-0.2,1-0.4,1.1-0.5c-0.3-0.2-0.8-0.4-1.4-0.8c-0.6-0.3-1.2-0.8-1.7-1.4c-0.5-0.6-0.7-1.4-0.7-2.3
		c0-1.1,0.5-2.1,1.6-3.1c1-0.9,2.6-1.6,4.8-1.9c-2-1-3.6-2.3-4.6-3.9c-1.1-1.6-1.6-3.3-1.6-5c0-2,0.6-3.8,1.9-5.2
		c1.3-1.5,3-2.6,5.2-3.3c2.2-0.8,4.7-1.1,7.5-1.1c2.1,0,3.9,0.2,5.2,0.7c1.4,0.4,2.6,1,3.8,1.7c0.5-0.2,1.1-0.4,1.8-0.7
		s1.6-0.6,2.4-1c0.9-0.3,1.7-0.7,2.6-1c0.8-0.3,1.6-0.7,2.2-0.9l0,6.7l-5.3,0.9c0.2,0.5,0.4,1.1,0.5,1.7c0.1,0.6,0.2,1.1,0.2,1.5
		c0,1.8-0.5,3.5-1.6,5s-2.6,2.8-4.7,3.8c-2.1,1-4.6,1.4-7.7,1.4c-0.4,0-0.9,0-1.5,0c-0.6,0-1.1,0-1.5-0.1c-1.2,0.1-2,0.2-2.4,0.4
		c-0.4,0.2-0.7,0.5-0.7,0.8c0,0.5,0.4,0.8,1.3,0.9c0.9,0.1,2.2,0.3,4.1,0.4c0.6,0,1.5,0.1,2.7,0.1c1.1,0.1,2.4,0.1,3.8,0.2
		c3.8,0.3,6.6,1.2,8.5,2.8c1.9,1.6,2.8,3.6,2.8,6c0,2.9-1.4,5.3-4.1,7.1C546.5,719.6,542.4,720.5,536.9,720.5z M538.3,715.7
		c2.4,0,4.2-0.3,5.2-0.9c1-0.6,1.5-1.5,1.5-2.6c0-0.9-0.4-1.7-1.2-2.3s-2-0.9-3.5-1l-7.1-0.4c-0.9-0.1-1.7,0.1-2.4,0.4
		c-0.7,0.3-1.3,0.8-1.6,1.3c-0.4,0.6-0.6,1.2-0.6,1.8c0,1.3,0.8,2.2,2.4,2.8C532.6,715.4,535,715.7,538.3,715.7z M536.7,694
		c1.6,0,3-0.5,4-1.4c1-0.9,1.5-2.1,1.5-3.7c0-1.6-0.5-2.9-1.5-3.9c-1-1-2.3-1.5-4-1.5c-1.6,0-3,0.5-4,1.5c-1,1-1.5,2.3-1.5,3.9
		c0,1.5,0.5,2.8,1.5,3.7C533.6,693.6,535,694,536.7,694z"/>
	<path d="M560.1,710.4v-30.8h8.6v4.4c0.5-0.8,1.1-1.5,1.9-2.2c0.8-0.7,1.7-1.3,2.9-1.7c1.2-0.5,2.6-0.7,4.2-0.7
		c1.9,0,3.7,0.4,5.3,1.1c1.6,0.7,3,1.9,4,3.5c1,1.6,1.5,3.6,1.5,6.2v20.3h-8.7v-19.3c0-1.7-0.5-2.9-1.5-3.8c-1-0.8-2.2-1.3-3.6-1.3
		c-1,0-1.9,0.2-2.8,0.5s-1.6,0.8-2.2,1.5c-0.6,0.7-0.8,1.5-0.8,2.5v19.7H560.1z"/>
	<path d="M625.4,710.9c-2.1,0-4.2-0.3-6.3-0.8c-2-0.5-3.9-1.3-5.6-2.4c-1.7-1.1-3.1-2.4-4.2-4c-1.1-1.6-1.8-3.5-2-5.7h8.9
		c0.3,1.3,0.9,2.4,1.7,3.3c0.8,0.9,1.9,1.6,3.2,2.1s2.7,0.7,4.2,0.7c1.6,0,3-0.2,4.4-0.6s2.4-1,3.1-1.8c0.8-0.8,1.2-1.8,1.2-3
		c0-1.1-0.3-2-1-2.7c-0.6-0.7-1.5-1.3-2.6-1.7c-1.1-0.4-2.3-0.8-3.7-1.1l-7.5-1.5c-3.3-0.6-5.8-1.9-7.8-3.9c-1.9-2-2.9-4.6-3-7.9
		c0-2.7,0.7-5,2.2-7c1.5-2,3.4-3.5,6-4.6c2.5-1.1,5.3-1.6,8.4-1.6c3.7,0,6.8,0.6,9.4,1.7c2.5,1.2,4.5,2.7,5.8,4.7c1.3,2,2,4.2,2,6.6
		h-8.7c-0.2-1.5-0.6-2.7-1.4-3.6c-0.8-0.9-1.7-1.6-2.9-2c-1.2-0.4-2.5-0.6-4-0.6c-1.2,0-2.2,0.1-3.1,0.4c-0.9,0.3-1.7,0.6-2.4,1.1
		c-0.7,0.5-1.2,1-1.5,1.7c-0.4,0.6-0.5,1.4-0.5,2.1c0,1.3,0.4,2.3,1.3,3c0.8,0.8,2.4,1.4,4.7,1.9l7.4,1.5c2.6,0.5,4.7,1.3,6.3,2.3
		c1.6,1,2.7,2.2,3.5,3.4c0.8,1.3,1.3,2.6,1.5,3.9c0.2,1.3,0.4,2.5,0.4,3.7c0,2.3-0.7,4.4-2.2,6.3c-1.5,1.9-3.5,3.3-6.1,4.4
		C631.9,710.4,628.8,710.9,625.4,710.9z"/>
	<path d="M662.3,710.9c-3,0-5.6-0.6-7.9-1.9c-2.2-1.3-4-3.1-5.2-5.5s-1.8-5.2-1.8-8.4c0-3.2,0.6-6.1,1.8-8.5c1.2-2.4,3-4.3,5.2-5.7
		c2.2-1.4,4.9-2,7.9-2s5.7,0.7,7.9,2s3.9,3.2,5.2,5.6s1.8,5.3,1.8,8.6c0,3.1-0.6,5.8-1.8,8.2c-1.2,2.4-2.9,4.2-5.1,5.6
		C668.1,710.3,665.5,710.9,662.3,710.9z M662.3,704.5c1.5,0,2.8-0.4,3.7-1.3c0.9-0.9,1.6-2.1,2-3.5c0.4-1.5,0.6-3.1,0.6-4.8
		c0-1.6-0.2-3.2-0.6-4.6c-0.4-1.5-1-2.6-2-3.5c-0.9-0.9-2.2-1.3-3.8-1.3c-1.5,0-2.8,0.4-3.7,1.3c-0.9,0.8-1.6,2-2.1,3.4
		c-0.4,1.4-0.7,3-0.7,4.8c0,1.6,0.2,3.2,0.6,4.6s1.1,2.7,2,3.6C659.4,704,660.7,704.5,662.3,704.5z"/>
	<path d="M700.9,679.5v6.1h-6.5v24.8h-8.7v-24.8H680v-6.1h5.7v-4.4c0-2.5,0.7-4.4,2.2-5.8c1.5-1.4,3.5-2.1,6.2-2.1h7.1l0,5.8h-4.1
		c-1.1,0-1.9,0.3-2.3,0.8c-0.4,0.5-0.6,1.4-0.6,2.7v3H700.9z"/>
	<path d="M725.1,685.6h-6.9l0.1,16.4c0,0.8,0.1,1.3,0.3,1.7c0.2,0.4,0.5,0.6,0.9,0.7c0.4,0.1,0.9,0.2,1.6,0.2h4.1v5.4
		c-0.4,0.2-1,0.3-1.9,0.5c-0.8,0.2-2,0.2-3.5,0.2c-2.7,0-4.8-0.3-6.3-1c-1.5-0.7-2.5-1.7-3.1-2.9c-0.6-1.3-0.9-2.7-0.9-4.4v-16.8h-5
		v-6.1h5.3l2.2-9.3h6.2v9.3h6.9V685.6z"/>
	<path d="M774.1,679.5L764,710.4h-6.9l-5.8-18.7l-5.7,18.7h-6.7l-10-30.8h7.7l5.9,19.1h0.2l5.7-19.1h6.2l5.7,19.1h0.2l5.7-19.1
		H774.1z"/>
	<path d="M786.4,710.9c-2,0-3.7-0.4-5.3-1.1c-1.6-0.7-2.8-1.8-3.7-3.2c-0.9-1.4-1.4-3.1-1.4-5.1c0-3.4,1.3-5.9,3.8-7.7
		c2.5-1.8,6.5-2.7,12-2.7l3.8-0.1v-1.8c0-1.4-0.4-2.5-1.2-3.3c-0.8-0.8-2.1-1.1-3.8-1.1c-1.3,0-2.5,0.3-3.6,0.9
		c-1.1,0.6-1.9,1.6-2.3,3h-7.2c0.1-2.2,0.8-4.1,1.9-5.5c1.2-1.4,2.8-2.5,4.8-3.2c2-0.7,4.3-1.1,6.9-1.1c3.2,0,5.7,0.4,7.6,1.2
		c1.9,0.8,3.3,1.9,4.1,3.4c0.9,1.5,1.3,3.2,1.3,5.2v21.7h-7.3L796,705c-1.1,2.2-2.4,3.8-3.9,4.6
		C790.5,710.5,788.6,710.9,786.4,710.9z M789.4,705.2c0.8,0,1.6-0.1,2.3-0.4s1.4-0.7,2-1.2s1.1-1,1.4-1.7s0.5-1.3,0.5-1.9v-4.5
		l-3.1,0c-1.5,0-2.8,0.2-4.1,0.5s-2.3,0.9-3,1.6s-1.1,1.7-1.1,3c0,1.4,0.5,2.5,1.5,3.4C786.8,704.8,788,705.2,789.4,705.2z"/>
	<path d="M811.7,710.4v-30.8h8.4v7.3c0.5-1.6,1.2-2.9,2.1-4.1c0.9-1.2,2-2.1,3.3-2.8c1.3-0.7,2.8-1,4.4-1c0.3,0,0.5,0,0.8,0
		c0.2,0,0.4,0.1,0.6,0.1v8.3c-0.2-0.1-0.4-0.1-0.6-0.1c-0.2,0-0.5,0-0.7-0.1c-1.7-0.1-3.2-0.1-4.4,0.1c-1.2,0.2-2.2,0.6-3,1.2
		s-1.3,1.3-1.6,2.1c-0.3,0.8-0.5,1.8-0.5,2.8v16.9H811.7z"/>
	<path d="M842.9,696.9c0,1.6,0.2,2.9,0.7,4.1c0.5,1.2,1.3,2.1,2.2,2.7s2.2,0.9,3.6,0.9c1.5,0,2.8-0.3,3.9-1c1.1-0.6,1.9-1.7,2.3-3.1
		h7.8c-0.3,2.2-1.2,4.1-2.6,5.6c-1.4,1.5-3.1,2.7-5.1,3.5c-2,0.8-4.1,1.2-6.2,1.2c-3,0-5.7-0.6-8-1.9c-2.3-1.3-4.1-3.1-5.4-5.4
		s-1.9-5.1-1.9-8.3c0-3.1,0.6-5.9,1.8-8.3c1.2-2.5,2.9-4.4,5.1-5.9s4.9-2.2,8.1-2.2s5.8,0.7,7.9,2c2.1,1.3,3.7,3.2,4.8,5.5
		s1.6,5.1,1.6,8.2v2.4H842.9z M842.9,691.8h12.6c0-1.2-0.2-2.4-0.7-3.4c-0.5-1-1.1-1.8-2.1-2.4s-2.1-0.9-3.5-0.9
		c-1.4,0-2.5,0.3-3.4,1c-0.9,0.6-1.7,1.5-2.2,2.5S842.9,690.6,842.9,691.8z"/>
</g>
</svg>
