<?xml version="1.0" encoding="utf-8"?>
<!-- Generator: Adobe Illustrator 25.2.0, SVG Export Plug-In . SVG Version: 6.00 Build 0)  -->
<svg version="1.2" baseProfile="tiny" id="Laag_1" xmlns="http://www.w3.org/2000/svg" xmlns:xlink="http://www.w3.org/1999/xlink"
	 x="0px" y="0px" viewBox="0 0 247 191" overflow="visible" xml:space="preserve">
<path fill="#00B9D4" d="M41.8,190.6c-14.4,0-25-3.4-31.8-10.2s-10.2-17.3-10.2-31.6V42.4c0-14.6,3.4-25.2,10.2-32s17.4-10.1,31.8-10
	h163.1c14.5,0,25.1,3.4,31.9,10.1c6.8,6.8,10.1,17.4,10.1,31.9v106.2c0,14.4-3.4,25-10.1,31.8c-6.8,6.8-17.4,10.2-31.9,10.2H41.8z"
	/>
<g>
	<path fill-rule="evenodd" d="M164.9,3.7c1.1,0,2.1,0.3,3.2,0.4c1.8,0.4,3.5,0.9,5.2,1.6c1.1,0.4,2,1.2,3,1.5c1.4,0.7,2.4,2,3.8,2.8
		c0.9,1,1.7,1.6,2.6,2.6c0.5,0.6,0.9,1.1,1.3,1.7c0.2,0.7,0.9,1.3,1.1,2c0.4,0.8,0.7,1.8,0.9,2.8c0.3,1.1,0.5,2.2,0.5,3.3
		c-0.2,8.6-0.3,17.3,0,25.9c0.4,2.5,0.2,5.2,0.9,7.7c0.4,1.8,0.6,3.7,1.4,5.2c1.4,2.5,2.5,5.1,4,7.6c0.8,0.9,1.5,1.9,2.3,2.9
		c1.6,2.4,3,5.1,4.8,7.3c1.1,2.2,2.3,4.4,3.6,6.7c0.9,2.8,2.6,5.4,3.3,8.4c0.9,3.3,2,6.6,2.5,10.3c1.1,5.8,1.8,11.6,2.5,17.5
		c0,3.2-0.4,6.4-0.3,9.5c-0.3,1.1-0.1,2.1-0.4,3.2c-0.3,1.5-1.2,2.9-1.5,4.3c0.1,0.8-0.3,1.6-0.1,2.5c0.7,1.4,0.7,3,1.1,4.5
		c0.6,0.3,0.9,1,1.5,1.5c1.1-0.2,2.2,0.3,3.3,0.1c1.3-0.4,2.7-0.3,4.1-0.6c1.6-0.2,3.2,0.3,4.8,0.1c1,0.7,2.3,1.2,3.2,1.8
		c0.8,0.5,1.2,1.6,2,2.2c-0.3,1.4,0,2.9-0.4,4.3c-1.5,2-2.7,4.2-4.1,6.2c-2.4,2.4-4.2,5.1-6.5,7.6c-2.8,2.8-5.2,5.9-8,8.8
		c-3.3,1.9-5.7,4.9-8.9,7c-1.4,0.6-2.6,1.8-4.1,2c-1.2,0.4-2.6,0.6-3.9,0.8h-3.4c-1.1-0.4-2.2-0.4-3.3-0.8c-0.7-0.4-1.4-0.5-2-0.9
		c-1.2-0.7-2.1-1.8-3.2-2.5c-0.3-0.8-0.9-1.3-1.5-2c-0.6-1.3-1.2-2.6-1.5-4c0-0.7-0.2-1.3-0.4-1.9c-2.8,0.2-5.6,0.3-8.4,0.6
		c-2.9-0.1-5.8-0.2-8.7-0.1c-3.8-0.5-7.5-0.7-11.3-1.5c-2.7-0.6-5.3-1.2-8-2c-2-0.9-4-1.5-5.9-2.4c-0.3-0.4-0.9-0.5-1.2-0.9
		c-0.9,0.8-1.5,1.9-2.4,2.8c-0.7,1.7-1.8,3.2-2.7,4.9c-0.4,0.4-0.9,0.9-0.9,1.4c-0.8,0.6-1.4,1.3-2.1,2c-1.4,0.5-2.6,1.5-4.1,1.7
		c-0.4,0.5-1.4,0-1.7,0.4c-1.3,0.3-2.6-0.3-3.8-0.1c-1.6-0.7-3.3-1.2-4.7-1.9c-2.6-1.5-5.2-2.9-7.8-4.3c-5.2-3.9-10.4-7.9-15.5-12
		c-1.6-1.6-3.2-3.2-4.8-4.8c-0.4-1.3-0.9-2.5-1.2-3.8c0.3-0.9,0.6-1.7,0.9-2.7c0.4-0.4,0.8-1,1.3-1.4c0.6-1.2,2.2-1.2,3.2-1.7
		c1.2-0.4,2.3-0.4,3.5-0.6c1.4,0,2.4-0.8,3.6-1c0.1-0.4,0.4-0.7,0.6-1.2c0.3-1.5-0.4-3-0.3-4.6c0.3-0.9,0.6-1.7,0.9-2.6
		c0.2-0.6,0.9-1.3,1.4-1.6c0.4-0.1,0.5-0.5,1.1-0.5c1.2-0.1,2.3-0.1,3.5,0c1.1,0.4,2.2,0.8,3.3,1.2c0.5,0.3,1.3,0.1,2,0.1
		c0.7-0.4,1-1.4,1.7-1.8c0.8-1.7,1.8-3.4,3-4.8c0.3-0.2,0.4-0.5,0.8-0.6c0.5-0.3,0.3-1,0.4-1.3c-0.5-3.5-0.1-7-0.1-10.6
		c0.3-2.8,0.6-5.7,1.1-8.4c0.5-2.5,1.2-5.1,1.7-7.6c1.1-3,2.4-6.1,3.5-9c5.7-11.6,12.2-22.8,18.2-34.1c1.1-1.6,1.9-3.4,3-4.9v-0.3
		c-0.2-1.5,0.5-3,0.3-4.5V38.8c-0.3-2.6-0.1-5.2-0.3-7.8c0-0.3-0.1-0.6-0.1-0.9v-7.4c0.2-0.1,0.1-0.2,0.1-0.3
		c-0.2-0.7,0.3-1.2,0.1-2c0.4-0.8,0.6-1.8,0.7-2.7c0.9-1.8,2-3.5,3.3-5c1.2-1.3,2.6-2.3,3.9-3.4c1.8-1.4,3.8-2.5,5.8-3.5
		c1.3-0.4,2.5-1.2,4-1.4C161,3.9,163,3.7,164.9,3.7L164.9,3.7z"/>
	<path fill-rule="evenodd" fill="#FFFFFF" d="M173,31.8c0.9,0.6,1.7,1.2,2.6,1.7c0.7,1.6,0,3.4,0.1,5.1c-0.8,2.1-1.3,4.6-3.5,5.8
		c-1.3,0-2.6-0.5-3.8-0.9c1.1-0.4,2.7-0.9,3.2-2.3c0.6-0.9,1-2.1,1-3.2c-0.1-1.3-0.4-2.7-1.2-3.8c-0.7-0.8-1.6-1.3-2.6-1.6
		c-1.7-0.3-3,0.7-3.8,1.8c-0.4,0.8-0.8,1.6-0.9,2.5c-0.3,1.9,0.4,3.8,1.2,5.4c-0.7-0.8-2.1-0.9-2.5-1.9c-1.2-2.7-1.2-5.8-0.1-8.5
		C166.1,30.7,169.7,30.5,173,31.8L173,31.8z M150.5,31.7c0.7,0.5,1.7,0.4,2.3,1.1c1,2.6,1.2,5.5,0.6,8.2c-0.8,0-1.5,1.4-1.9,0.7
		c0.9-2.1,0.9-4.5-0.4-6.5c-0.6-0.8-1.5-1.7-2.5-1.7c-0.8,0.3-1.6,0.4-2.2,1.2c-1.3,1.5-1.4,3.5-1.3,5.4c0.3,1.8,1.4,3.4,3.1,4.2
		c-0.8,0.4-1.5,0.8-2.3,1c-1.1-1.3-1.6-2.9-2.1-4.4c-0.7-2.2-0.3-4.5-0.3-6.7c0.8-0.9,1.9-1.6,3-2.1
		C147.5,31.3,149.4,31.7,150.5,31.7L150.5,31.7z M173.5,56.4c0.9,2.7,1.4,5.5,2.2,8.2c0.9,3.1,2.4,5.9,3.5,8.8
		c1.3,2.4,2.5,4.8,3.5,7.4c0,0.1,0.1,0.2,0.1,0.3c2.5,5.5,5,10.9,7.5,16.4c1.6,4.1,3,8.2,4.1,12.5c0.1,2.2,1,4.3,0.7,6.5
		c-1.2,4.2-2,8.4-3.5,12.5c-0.3,0.8-0.6,1.5-1.2,2.1c-0.3,0-0.3,0.3-0.6,0.3c-0.6,0.5-1.1,1.1-1.4,1.8c-0.5,1.4-0.7,2.9-0.7,4.4
		c-0.6-0.1-1.1-0.5-1.6-0.8c-1.1-0.3-2.1-0.6-3.2-0.9c-1.3,0.2-3.5-0.8-3.9,0.8c-0.6,0.8-1.1,1-1.6,1.8c-0.7,4-1.1,8-1.3,12.1
		c0.1,2.7-0.3,5.4-0.1,8.1c-1.8,1.2-3.7,2-5.8,2.7c-1.6,0.5-3.1,1.1-5.1,1.2c-1.7,0.3-3.5,0.3-5.2,0.6c-2.6,0.1-5.2,0-7.8,0.1
		c-1.9-0.2-3.9-0.6-5.6-0.7c-3.6-0.8-7.2-1.8-10.6-3.6c0.1-1.3,0.7-2.7,0.3-4.1c-1.9-5.4-4.6-10.5-6.8-15.8c-2-5-3.5-10.2-5.4-15.1
		c-1.2-2.6-2.3-5.2-3.2-7.8c-0.5-0.7,0-1.5,0.1-2.2c0.7-3.7,2.3-6.9,3.6-10.4c2.2-4.3,4.1-8.8,6.7-12.9c1.3-2.1,1.2-4.6,2-6.9
		c0.8-2.8,2.3-5.3,3.5-7.9c1.8-2.9,3.1-6,4.8-8.8c1.5-3.2,2.6-6.8,4.3-9.7c1,0.9,2.1,1.7,3.1,2.6c1.4,0.7,2.9,1.4,4.4,1.3
		c2.1,0.3,4.2,0,6.4,0c2.9-0.5,5.7-1.1,8.2-2.5c1.8-0.9,3.5-2.1,5.3-2.8C173.4,56.1,173.5,56.2,173.5,56.4L173.5,56.4z M120.5,96.7
		c0-0.1,0.1-0.3,0.1-0.4C120.6,96.4,120.5,96.6,120.5,96.7z M119.6,99.5L119.6,99.5L119.6,99.5z"/>
	<path fill-rule="evenodd" fill="#E7BF5D" d="M159,39.1c0.9,0.3,1.8,0.4,2.5,0.9c0.2,0.4,0.7,0.7,0.9,1.1c2.9,1.6,5.7,3.2,9,3.9
		c1.5-0.2,3,0.5,4.3,1.2c0.4,0.5,0.8,0.8,1.2,1.2c0.2,1,0.9,1.9,0.5,3.1c-0.3,0.6-0.3,1.4-0.8,1.9c-0.7,0.6-0.9,1.4-1.7,1.9
		c-3,1.4-5.5,3.3-8.6,4.6c-3.2,1.4-7.3,1.7-11.4,2c-1.2-0.2-2.5-0.2-3.5-0.6c-0.8-0.2-1.6-0.7-2.2-1c-1.8-1.5-3.9-2.8-5.4-4.8
		c-0.1-0.6-0.5-0.8-0.7-1.3c-0.6-1-0.5-3.1-0.1-4.1c0.1-0.7,0.6-1.2,0.7-1.8c2.3-1.6,5-2.3,7.3-3.9c1.1-1.5,3.3-1.9,4.3-3.3
		C156.6,39.7,157.7,38.7,159,39.1L159,39.1z"/>
	<path fill-rule="evenodd" d="M173.1,51.4c-1.4,1.5-3.5,1.9-5.4,2.5c-4.5,0.8-9.1,1.3-13.6,1.6c-1.9,0.1-3.9,0.1-5.8,0
		c-1.3-0.2-2.5-0.8-3.6-1.5c-0.5-0.7-1.4-1.3-1.4-2.2c1.5,0.7,2.3,2.5,4.2,2.7c3.9,0.8,7.9,0.1,11.9-0.1
		C164,54,169.2,52.7,173.1,51.4z"/>
	<path fill-rule="evenodd" fill="#C6C7C9" d="M141.1,22.8c0-0.1,0.1-0.2,0.1-0.3C141.3,22.6,141.4,22.7,141.1,22.8z M171,27
		c0.6,0.1,0.9,0.7,1.5,0.7c0.6,0.7,1.2,1.4,1.9,2.2c0.2,1.2,1.3,2.3,1.2,3.6c-0.9-0.5-1.7-1.2-2.6-1.7c-3.3-1.3-6.9-1.1-10.1,0
		c0.1-0.8,0.8-1.4,1-2.2c0.8-1.2,2-2,3.3-2.5C168.3,26.3,169.8,26.8,171,27L171,27z M148.8,28.1c0.6,0.2,0.9,0.7,1.4,0.8
		c0.7,0.8,1.5,1.5,2,2.5c0.4,0.4,0.3,1,0.6,1.4c-0.6-0.7-1.6-0.6-2.3-1.1c-1.2,0-3-0.4-3.9,0.3c-1.1,0.5-2.2,1.2-3,2.1v-1
		c0.3-1.2,0.7-2.4,1.3-3.5c0.7-0.4,0.9-1.2,1.7-1.4C147.1,27.8,148.2,28,148.8,28.1L148.8,28.1z M141.3,31c-0.1-0.3-0.1-0.6-0.1-0.9
		C141.2,30.5,141.2,30.7,141.3,31z M141.3,56.1c-0.1-0.1-0.1-0.2,0-0.3V56.1z M183,81.1c0-0.1-0.1-0.2-0.1-0.3
		C183,80.8,182.9,81,183,81.1z M121.8,93.4c0-0.1,0.1-0.2,0.1-0.3C121.9,93.2,121.8,93.3,121.8,93.4z M154.5,99.8
		c0.1,0.8,0.1,1.7,0.3,2.4c-1,6-1.7,11.9-2.2,17.9c-0.6,5-0.4,9.9-1.2,14.9c-0.1,0.4-0.5,1-0.9,1.3c-0.4,0.1-0.6-0.1-0.8-0.4
		c-0.3-0.5-0.5-0.9-0.5-1.7c-0.3-1.1-0.1-2.1-0.1-3.2c0.2-6.7,0.9-13.3,1.7-20c0.5-3.5,0.8-7.1,1.9-10.6c0.2-0.5,0.5-0.9,0.9-1.2
		c0.3-0.1,0.3-0.2,0.7-0.1C154.2,99.5,154.3,99.6,154.5,99.8L154.5,99.8z"/>
	<path fill-rule="evenodd" fill="#E7BF5D" d="M118.5,131c0.8,0.3,1.2,1,2,1.4c0.7,1.7,1.7,3.2,2.4,5c2.1,5.5,3.9,11.1,5.6,16.8
		c0.1,1,0.6,1.7,0.7,2.7c0.2,4.4,1.4,8.7,1.4,13.2c-0.2,1.1,0.2,2.6-0.4,3.4c-0.4,1.8-1.3,3.2-2.2,4.8c-0.9,0.8-1.6,1.8-2.9,2.1
		c-0.7,0.4-1.4,0.7-2.3,0.9c-1.6,0.5-3.6,0.6-5.5,0.4c-1.3-0.5-2.7-0.9-4-1.4c-2.9-1.8-5.9-3.2-8.8-4.8c-4.8-3.8-9.9-7.6-14.6-11.4
		c-1.7-1.8-3.5-3.5-5.2-5.3c-0.2-1-0.6-2-1-3c0.3-1.1,0.9-2.1,1.2-3.2c0.5-0.4,1-0.9,1.3-1.2c1.1-0.4,2.2-1.1,3.5-1.2
		c1.3-0.4,3-0.2,4.2-0.7c0.9-0.5,2.3-0.5,2.6-1.6c0.1-0.5,0.3-0.8,0.6-1.2c-0.1-0.9-0.4-1.9-0.4-2.8c-0.1-0.6-0.2-1.6,0.1-2
		c0-1,0.8-1.7,0.9-2.6c0.5-0.3,0.9-0.6,1.4-0.8c0.8,0.1,1.4-0.4,2.2-0.1c0.8,0.1,1.6,0,2.3,0.4c0.8,0.5,1.9,0.4,2.6,1
		c0.6,0.1,1.2,0,1.8,0.1c0.9-0.7,1.3-1.7,2.2-2.4c0.6-1.2,1.2-2.3,2-3.4c0.4-0.6,0.8-1.1,1.3-1.6c0.7-0.3,1.1-0.8,1.7-1
		c0.9-0.5,1.9-0.9,3-0.9C118.3,130.9,118.5,130.8,118.5,131L118.5,131z M184.4,137c0.6,0,1.3,0.4,1.9,0.5c0.4,0.2,0.7,0.7,1.3,0.7
		c0.2,1.7-0.3,3.5,0.2,5.2c0.2,0.8,0.6,1.6,0.9,2.2c0.9,1.2,2.3,1.7,3.4,2.7c1.4,0.6,2.7,1.4,4.3,1.7c1.2,0.3,3.3,0.7,4.5,0
		c0.4-0.3,0.9-0.4,1.2-0.6c0.9-0.8,1.5-1.8,2.2-2.7c1-2.3,2.2-4.4,3.3-6.6c0.4,0.2,0.5,0.6,0.9,0.9c1.1,1.7,0.6,4.1,1.9,5.7
		c0.6,0.4,0.9,1.1,1.6,1.2c1,0.2,2.2-0.1,3.1,0.2c2.9-0.6,5.9-0.7,8.8-0.4c0.9,0.2,1.8,0.9,2.7,1.2c0.7,0.7,1.3,1.6,2,2.3
		c0,1.4,0,2.8-0.4,4.1c-1.5,2.2-2.8,4.4-4.3,6.6c-2.6,2.5-4.8,5.5-7.1,8.2c-2,1.7-3.5,4-5.2,5.8c-0.7,0.6-1.4,1.2-2,1.9
		c-0.9,0.4-1.4,1.3-2.4,1.6c-1.8,1.7-3.9,2.9-5.6,4.8c-1.1,0.5-2.1,1.1-3.2,1.7c-2.5,0.9-5.1,1.3-7.7,1.2c-1.3-0.5-2.8-0.2-4.1-0.9
		c-0.7-0.4-1.5-0.6-2.2-1.1c-1.4-1-2.5-2.3-3.6-3.6c-0.5-0.8-0.8-1.5-1.1-2.3c-1.1-4.6-2-9.2-3-13.8c0.1-5.3-0.2-10.9,0.2-16
		c0.2-1.5-0.1-3.3,0.3-4.6c0.2-2.1,0.8-4.2,0.9-6.2c0.7-0.5,1-1.2,1.6-1.7C181.4,136.8,183.3,136.3,184.4,137L184.4,137z M131,162.8
		c1.3,1.1,3,1.6,3.7,3.3c0.2,0.5,0.5,1.2,0.4,1.9c-1.3,1.8-3.5,3.1-3.9,5.5c0.4-3.7,0-7.4-0.7-11C130.5,162.7,130.9,162.6,131,162.8
		L131,162.8z"/>
	<path fill-rule="evenodd" fill="#FFFFFF" d="M120.5,96.7c0,0.1,0,0.2-0.1,0.4C120.4,97,120.4,96.8,120.5,96.7z M119.6,99.5
		c0,0.1-0.1,0.2-0.4,0.4C119.5,99.6,119.5,99.6,119.6,99.5z M120.3,97.1c0,0.1,0,0.2-0.1,0.4C120.3,97.4,120.3,97.3,120.3,97.1z
		 M120.4,97.1L120.4,97.1L120.4,97.1z M120.2,97.6c0,0.1,0,0.2-0.1,0.4C120.1,97.8,120.1,97.7,120.2,97.6z M120.2,97.5L120.2,97.5
		L120.2,97.5z M118.7,101.9L118.7,101.9z M120,98c0,0.1,0,0.2-0.1,0.4C120,98.3,120,98.1,120,98z M120.1,97.9
		C120.1,98,120.1,98,120.1,97.9C120.1,98,120.1,98,120.1,97.9z"/>
	<path fill-rule="evenodd" fill="#FFFFFF" d="M118.6,107.6c-0.1,0,0,0.7,0.1,1.4c0.1,0,0.1,0.6,0.1,1.3c-0.1-0.7-0.2-1.4-0.2-1.3
		c0-0.1-0.1-0.6-0.2-1s-0.2-1-0.1-0.6c-0.1-0.6,0-1.5,0.1-2.3c0.1-0.3,0,0,0.2-2.4c0.3-1.8,0.8-3.7,3.2-9.5
		c-2.5,6.6-2.7,7.7-2.7,7.9c-0.2,0.4-0.3,1.7-0.4,2.6C118.7,104.5,118.5,106.4,118.6,107.6L118.6,107.6z M194.3,82.3l-0.1,0.1
		C194.2,82.4,194.3,82.4,194.3,82.3z"/>
	<path fill-rule="evenodd" fill="#FFFFFF" d="M196.8,90.3c0.8,2,0.8,4.4,0.9,6.4c0.3,3.5,0,6.9,0,10.4c-0.6,5.8-1.3,11.6-2.6,17.4
		c-0.1,0.8-0.7,1.3-0.9,2c-0.1,0.2-0.3,0.2-0.4,0c0.1-0.5,0.4-0.8,0.6-1.2c0.7-3.3,1.3-6.7,2-10c0.4-2.6,0.5-5.2,0.6-7.7l0.1-0.1
		c-0.2-1.8,0.3-3.6,0.1-5.4c0.2-0.1,0.1-0.4,0.1-0.6c0.1-2.5-0.4-4.9-0.3-7.4c-0.1-2-1-4-1.2-5.9c-0.3-1.9-1.2-3.7-3.7-10.7
		c2.1,5.2,2.2,5.3,2.2,5.3c0.3,1,0.9,1.8,1.1,2.8C196,86.9,196.4,88.7,196.8,90.3L196.8,90.3z M119.9,98.4c0,0.1,0,0.2-0.1,0.4
		C119.8,98.7,119.9,98.6,119.9,98.4z M120,98.4C119.9,98.4,119.9,98.4,120,98.4L120,98.4z M119.8,98.8
		C119.8,98.8,119.8,98.9,119.8,98.8C119.8,98.9,119.8,98.8,119.8,98.8z"/>
</g>
<g>
	<g>
		
			<rect x="52.3" y="117.5" fill-rule="evenodd" stroke="#4A8D9B" stroke-width="2.8346" stroke-miterlimit="10" width="14" height="32.7"/>
		<polygon fill-rule="evenodd" stroke="#4A8D9B" stroke-width="2.8346" stroke-miterlimit="10" points="199.8,126 180.2,150.1 
			197.4,150.1 208.6,133.5 219.3,150.1 238.3,150.1 218.8,125.6 237.7,104 220.3,104 210.3,117.5 200.3,104 181.9,104 199.8,126 		
			"/>
		<path fill-rule="evenodd" stroke="#4A8D9B" stroke-width="2.8346" stroke-miterlimit="10" d="M128.5,104V133c0,3.5,1,6.7,3,9.5
			c2,2.8,4.9,5,8.6,6.6c3.7,1.6,8,2.4,12.9,2.4c5.8,0,10.6-0.8,14.4-2.4c3.8-1.6,6.6-3.8,8.3-6.7c1.8-2.8,2.6-6.2,2.6-10V104h-14.6
			v26.6c0,2.5-0.3,4.6-1,6.3c-0.6,1.7-1.8,3-3.3,3.9c-1.6,0.9-3.7,1.4-6.5,1.4c-6.6,0-9.8-3.7-9.8-11.2v-27H128.5z"/>
		<polygon fill-rule="evenodd" stroke="#4A8D9B" stroke-width="2.8346" stroke-miterlimit="10" points="72.6,104 72.6,150.1 
			85.4,150.1 85.4,115.4 102.6,150.1 122.9,150.1 122.9,104 109.9,104 109.9,138.1 92.7,104 		"/>
		<path fill-rule="evenodd" stroke="#4A8D9B" stroke-width="2.8346" stroke-miterlimit="10" d="M52.3,104v8h14v-8H52.3z"/>
		<path fill-rule="evenodd" stroke="#4A8D9B" stroke-width="2.8346" stroke-miterlimit="10" d="M11.2,104v46.2h37.5v-9.5H25.8V104
			H11.2z"/>
		<path fill-rule="evenodd" fill="#A6A8AA" d="M52.3,104v8h14v-8H52.3z"/>
	</g>
	<g>
		<path fill-rule="evenodd" d="M52.3,117.5v32.7h14v-32.7H52.3z M199.8,126l-19.6,24.1h17.2l11.3-16.7l10.6,16.7h19l-19.5-24.5
			l18.9-21.6h-17.4l-10,13.5l-10-13.5h-18.4L199.8,126L199.8,126z M128.5,104V133c0,3.5,1,6.7,3,9.5c2,2.8,4.9,5,8.6,6.6
			c3.7,1.6,8,2.4,12.9,2.4c5.8,0,10.6-0.8,14.4-2.4c3.8-1.6,6.6-3.8,8.3-6.7c1.8-2.8,2.6-6.2,2.6-10V104h-14.6v26.6
			c0,2.5-0.3,4.6-1,6.3c-0.6,1.7-1.8,3-3.3,3.9c-1.6,0.9-3.7,1.4-6.5,1.4c-6.6,0-9.8-3.7-9.8-11.2v-27H128.5z M72.6,104v46.2h12.7
			v-34.7l17.2,34.7h20.3V104h-13v34.2L92.7,104H72.6z"/>
		<path fill-rule="evenodd" d="M11.2,104v46.2h37.5v-9.5H25.8V104H11.2z"/>
	</g>
</g>
</svg>
