<?xml version="1.0" encoding="utf-8"?>
<!-- Generator: Adobe Illustrator 25.2.0, SVG Export Plug-In . SVG Version: 6.00 Build 0)  -->
<svg version="1.2" baseProfile="tiny" id="Laag_1" xmlns="http://www.w3.org/2000/svg" xmlns:xlink="http://www.w3.org/1999/xlink"
	 x="0px" y="0px" viewBox="0 0 247 191" overflow="visible" xml:space="preserve">
<g>
	<path fill-rule="evenodd" fill="#FABC05" d="M71.9,0h159.3c8.8,0,15.9,7.1,15.9,15.9v159.3c0,8.8-7.1,15.9-15.9,15.9H71.9
		c-8.8,0-15.9-7.1-15.9-15.9V15.9C56,7.1,63.1,0,71.9,0z"/>
	<path fill-rule="evenodd" fill="#EB4335" d="M49.9,109.5L0,78.1V15.9C0,7.1,7.1,0,15.9,0h215.3c8.8,0,15.9,7.1,15.9,15.9l-133.5,0
		C113.6,15.9,49.9,113.9,49.9,109.5z"/>
	<path fill-rule="evenodd" fill="#34A854" d="M141.2,127.1l-38.6,64H15.9C7.1,191.2,0,184,0,175.2V78.1L48.3,106
		c10.6,18,30.2,30.2,52.7,30.2c15.1,0,29.1-5.5,39.8-14.7l2,2C142.5,124.7,141.9,125.9,141.2,127.1L141.2,127.1z"/>
	<g>
		<path fill="#4285F5" d="M100.6,31.9c-24.9,0-44.8,19.5-44.8,43.8c0,24.3,19.9,43.8,44.8,43.8c24.9,0,44.8-19.5,44.8-43.8
			C145.4,51.3,125.5,31.9,100.6,31.9L100.6,31.9z"/>
		<path fill="#FFFFFF" d="M150.3,112.3l10.7,10.7l4.9-5.3l43.2,43.2L187,183.2L143.8,140l5.1-4.7l-10.8-10.8
			c-10.3,7.7-23,12.2-36.8,12.2c-33.9,0-61.4-27.5-61.4-61.4c0-33.9,27.5-61.4,61.4-61.4s61.4,27.5,61.4,61.4
			C162.7,89.2,158,102,150.3,112.3L150.3,112.3z M101.3,32.8c-23.6,0-42.5,18.9-42.5,42.5c0,23.6,18.9,42.5,42.5,42.5
			s42.5-18.9,42.5-42.5C143.8,51.7,124.9,32.8,101.3,32.8L101.3,32.8z"/>
	</g>
</g>
</svg>
