<?xml version="1.0" encoding="utf-8"?>
<!-- Generator: Adobe Illustrator 25.2.0, SVG Export Plug-In . SVG Version: 6.00 Build 0)  -->
<svg version="1.1" id="Laag_1" xmlns="http://www.w3.org/2000/svg" xmlns:xlink="http://www.w3.org/1999/xlink" x="0px" y="0px"
	 viewBox="0 0 1024 1024" style="enable-background:new 0 0 1024 1024;" xml:space="preserve">
<style type="text/css">
	.st0{fill:#EDE96B;}
	.st1{fill-rule:evenodd;clip-rule:evenodd;fill:#464342;}
</style>
<g>
	<g>
		<g>
			<path class="st0" d="M982.2,160c-28-28-72-42-132.1-42H174.2c-59.7-0.3-103.7,13.5-131.8,41.5c-28.1,28-42.2,72.2-42.2,132.5
				v440.8c0,59.1,14.1,102.7,42.2,130.9c28.2,28.1,72.1,42.2,131.8,42.2h675.9c60,0,104.1-14.1,132.1-42.2c28-28.2,42-72.1,42-131.8
				V292.1C1024.2,232,1010.2,188,982.2,160z"/>
		</g>
	</g>
</g>
<g transform="matrix(1.0755 0 0 1.0755 -3.5103 -1.6684)">
	<path class="st1" d="M491.9,190.1c75.7,0,144.6,29,196.3,76.5c-25.3-0.7-50.6,14.4-51.6,48.8c-2.1,69.7,83.3,84.5,37.3,224.7
		l-38.1,116L532,350.5c-1.6-4.7,0.3-7.4,6.1-7.4h29.3c1.5,0,2.8-1.3,2.8-2.9v-17.4c0-1.6-1.2-3-2.8-2.9c-55.5,2.4-110.8,2.4-165.7,0
		c-1.5-0.1-2.8,1.3-2.8,2.9v17.4c0,1.6,1.2,2.9,2.8,2.9h29.5c6.6,0,8.4,2.2,9.9,6.4l42.6,116.6l-64.1,193.6L314.3,349.2
		c-1.3-3.9,0.3-6.2,4-6.2h33.6c1.5,0,2.8-1.3,2.8-2.9v-17.4c0-1.6-1.3-3-2.8-2.9c-35.3,1.9-70.7,2.2-103.6,2.6
		C300,242.8,389.8,190.1,491.9,190.1L491.9,190.1L491.9,190.1z M747.1,342.1c22.3,41.1,35,88.2,35,138.2
		c0,109.8-61,205.3-150.9,254.7l90.5-256.4C735.7,438.9,748.7,385.3,747.1,342.1L747.1,342.1L747.1,342.1z M589,753.8
		c-30.4,10.8-63.1,16.7-97.2,16.7c-29.4,0-57.7-4.4-84.4-12.5l89.4-256.2L589,753.8L589,753.8L589,753.8z M367.7,742.6
		c-98.1-46.5-166-146.5-166-262.3c0-42.9,9.3-83.7,26.1-120.4L367.7,742.6L367.7,742.6L367.7,742.6z M491.9,162.8
		c175.3,0,317.4,142.2,317.4,317.4S667.2,797.7,491.9,797.7S174.4,655.6,174.4,480.3S316.6,162.8,491.9,162.8z M491.9,142.8
		c186.4,0,337.5,151.1,337.5,337.5S678.2,817.8,491.9,817.8S154.4,666.7,154.4,480.3S305.5,142.8,491.9,142.8L491.9,142.8z"/>
</g>
</svg>
