<?xml version="1.0" encoding="utf-8"?>
<!-- Generator: Adobe Illustrator 25.2.0, SVG Export Plug-In . SVG Version: 6.00 Build 0)  -->
<svg version="1.2" baseProfile="tiny" id="Laag_1" xmlns="http://www.w3.org/2000/svg" xmlns:xlink="http://www.w3.org/1999/xlink"
	 x="0px" y="0px" viewBox="0 0 2600.3 199" overflow="visible" xml:space="preserve">
<rect x="0.7" y="-0.2" fill="#FF9900" width="2600" height="199"/>
<path fill="#455A64" d="M371.4-249.7h0.8v0.6h-0.8V-249.7z M371.4-247.3h0.8v0.6l-0.4,0.7h-0.4l0.3-0.7h-0.3V-247.3L371.4-247.3z"/>
<path fill-rule="evenodd" fill="#1A1A1A" d="M1331.8,189.4h101.6c0.6,0,1.2-0.5,1-1l-5-12.3c-0.2-0.5-2.3-1-2.9-1h-87.9
	c-0.6,0-2.7,0.5-2.9,1l-5,12.3C1330.6,188.9,1331.2,189.4,1331.8,189.4L1331.8,189.4z"/>
<path fill-rule="evenodd" fill="#333333" d="M1374.3,146h16.4v31.7c-5.2,2.1-10.5,2.5-16.4,0V146z"/>
<path fill-rule="evenodd" fill="#212121" d="M1389.3,146h1.5v31.5c-0.3,0.4-0.9,0.9-1.5,0.9L1389.3,146z"/>
<path fill-rule="evenodd" fill="#FFFFFF" d="M1277.5,159.6h210c5.4,0,9.8-4.4,9.8-9.8V27.4c0-5.4-4.4-9.8-9.8-9.8h-210
	c-5.4,0-9.8,4.4-9.8,9.8v122.3C1267.7,155.2,1272.1,159.6,1277.5,159.6z"/>
<path fill-rule="evenodd" fill="#4D4D4D" d="M1267.7,5.5v141.8h229.8V5.5H1267.7z M1273.1,12.9h218v126.6h-218L1273.1,12.9
	L1273.1,12.9z"/>
<path fill-rule="evenodd" fill="#424242" d="M1331.8,189.4h101.6c0.6,0,1.2-0.1,1-0.2l-5-2.6c-0.2-0.1-2.3-0.2-2.9-0.2h-87.9
	c-0.6,0-2.7,0.1-2.9,0.2l-5,2.6C1330.6,189.3,1331.2,189.4,1331.8,189.4L1331.8,189.4z"/>
<rect x="1273.1" y="12.9" fill-rule="evenodd" fill="#101E28" width="218" height="126.6"/>
<text transform="matrix(1 0 0 1 1284.2607 35.5127)" fill="#FFFFFF" font-family="'JetBrainsMono-Bold'" font-size="10.1834px">&gt; git commit -m “first commit”</text>
<g id="surface1">
	<path fill="#2B1F0F" d="M1546.4,92.5c-7.2,0-12.6,3.5-12.6,12c0,6.4,3.5,10.9,12.2,10.9c7.3,0,12.3-4.3,12.3-11.1
		C1558.3,96.5,1553.8,92.5,1546.4,92.5z M1532,152.5c-1.7,2.1-3.4,4.3-3.4,6.9c0,5.2,6.7,6.8,15.8,6.8c7.6,0,17.9-0.5,17.9-7.6
		c0-4.2-5-4.4-11.2-4.9L1532,152.5z M1570.7,92.8c2.4,3,4.9,7.2,4.9,13.2c0,14.5-11.4,23-27.9,23c-4.2,0-8-0.5-10.3-1.2l-4.3,6.9
		l12.8,0.8c22.6,1.5,36,2.1,36,19.5c0,15.1-13.2,23.6-36,23.6c-23.7,0-32.7-6-32.7-16.3c0-5.9,2.6-9,7.2-13.4
		c-4.3-1.8-5.8-5.1-5.8-8.6c0-2.9,1.4-5.5,3.8-8s5-5,8.1-7.8c-6.4-3.1-11.2-10-11.2-19.6c0-15.1,10-25.4,29.9-25.4
		c5.6,0,9,0.5,12,1.3h25.5V92L1570.7,92.8"/>
	<path fill="#2B1F0F" d="M1605.8,69.1c-7.5,0-11.8-4.3-11.8-11.8s4.3-11.5,11.8-11.5c7.6,0,11.9,4.1,11.9,11.5
		S1613.3,69.1,1605.8,69.1z M1588.9,147.7v-10.3l6.7-0.9c1.8-0.3,2.1-0.7,2.1-2.6V95.4c0-1.4-0.4-2.4-1.7-2.7l-7-2.5l1.4-10.6h27.1
		v54.3c0,2.1,0.1,2.4,2.1,2.6l6.7,0.9v10.3L1588.9,147.7"/>
	<path fill="#2B1F0F" d="M1677.9,142.6c-5.6,2.7-13.9,5.2-21.3,5.2c-15.6,0-21.4-6.3-21.4-21.1V92.5c0-0.8,0-1.3-1-1.3h-9.2V79.6
		c11.5-1.3,16.1-7.1,17.5-21.3h12.4v18.6c0,0.9,0,1.3,1,1.3h18.5v13.1h-19.5v31.3c0,7.7,1.8,10.7,8.9,10.7c3.7,0,7.5-0.9,10.6-2.1
		L1677.9,142.6L1677.9,142.6"/>
	<path fill="#EB1D25" d="M1484.1,108.3l-59.8-59.8c-3.4-3.4-9-3.4-12.5,0l-12.4,12.4l15.7,15.7c3.7-1.2,7.9-0.4,10.8,2.5
		c2.9,2.9,3.7,7.2,2.5,10.9l15.2,15.2c3.7-1.3,7.9-0.5,10.9,2.5c4.1,4.1,4.1,10.8,0,14.8c-4.1,4.1-10.8,4.1-14.8,0
		c-3.1-3.1-3.9-7.6-2.3-11.4L1423.2,97v37.3c1,0.5,1.9,1.1,2.8,2c4.1,4.1,4.1,10.8,0,14.8c-4.1,4.1-10.8,4.1-14.8,0
		c-4.1-4.1-4.1-10.8,0-14.8c1-1,2.2-1.8,3.4-2.3V96.3c-1.2-0.5-2.4-1.3-3.4-2.3c-3.1-3.1-3.9-7.7-2.3-11.5L1393.3,67l-41,41
		c-3.4,3.4-3.4,9,0,12.5l59.8,59.8c1.7,1.7,4,2.6,6.2,2.6h0.1c2.3,0,4.5-0.9,6.2-2.6l59.5-59.5
		C1487.5,117.3,1487.5,111.7,1484.1,108.3"/>
</g>
</svg>
