<?xml version="1.0" encoding="utf-8"?>
<!-- Generator: Adobe Illustrator 25.2.0, SVG Export Plug-In . SVG Version: 6.00 Build 0)  -->
<svg version="1.2" baseProfile="tiny" id="Laag_1" xmlns="http://www.w3.org/2000/svg" xmlns:xlink="http://www.w3.org/1999/xlink"
	 x="0px" y="0px" viewBox="0 0 247 191" overflow="visible" xml:space="preserve">
<path fill="#FF8000" d="M41.8,190.6c-14.4,0-25-3.4-31.8-10.2s-10.2-17.3-10.2-31.6V42.4c0-14.6,3.4-25.2,10.2-32s17.4-10.1,31.8-10
	h163.1c14.5,0,25.1,3.4,31.9,10.1c6.8,6.8,10.1,17.4,10.1,31.9v106.2c0,14.4-3.4,25-10.1,31.8c-6.8,6.8-17.4,10.2-31.9,10.2H41.8z"
	/>
<path fill-rule="evenodd" fill="#A6A8AA" d="M51.9,118.5v8h14v-8H51.9z"/>
<g>
	<path fill-rule="evenodd" fill="#40586F" d="M162.6,185.4l6.3,0c-1.5,0.9-4.2,0.5-6.3,0.5V185.4L162.6,185.4z M160.9,184.9
		c0.5-0.5,1.8,0.7,0.7,0.3C161.6,185.2,160.1,185.6,160.9,184.9z M145.5,180.8c0.1-0.1,0.2,0.1,0.2,0.2c0,0,0.1,0.1,0.1,0.1
		C145.7,181.1,144.7,181.6,145.5,180.8z M143.7,180.3c0.1-0.1,0.2,0.1,0.2,0.2c0,0,0.1,0.1,0.1,0.1C144,180.5,143,181.1,143.7,180.3
		z M142,179.7c0.5-0.5,1.8,0.7,0.7,0.3C142.7,180,141.3,180.5,142,179.7z M159.8,179.1c0.1-0.1,0.2,0.1,0.2,0.2c0,0,0.1,0.1,0.1,0.1
		C160,179.4,159,179.9,159.8,179.1z M140.3,179.1l1.1,0.3L140.3,179.1z M156.9,179l-1.7,0.2C155.5,179,155,178,156.9,179z
		 M152.9,178c0.5-0.5,1.8,0.7,0.7,0.3C153.6,178.3,152.1,178.8,152.9,178z M186.1,177.5c0.5-0.5,1.8,0.7,0.7,0.3
		C186.8,177.8,185.3,178.2,186.1,177.5z M150,177.5c0.5-0.5,1.8,0.7,0.7,0.3C150.7,177.8,149.3,178.2,150,177.5z M188.4,176.9
		c0.1-0.1,0.2,0.1,0.2,0.2c0,0,0.1,0.1,0.1,0.1C188.6,177.1,187.6,177.7,188.4,176.9z M190.7,176.3c0.1-0.1,0.2,0.1,0.2,0.2
		c0,0,0.1,0.1,0.1,0.1C190.9,176.5,189.9,177.1,190.7,176.3z M146,176.3c0.5-0.5,1.8,0.7,0.7,0.3C146.7,176.6,145.3,177.1,146,176.3
		z M187.2,176.3c1-0.7,0.3-1.1,2.2-0.2L187.2,176.3z M190.1,175.2c0.1-0.1,0.2,0.1,0.2,0.2c0,0,0.1,0.1,0.1,0.1
		C190.3,175.4,189.3,175.9,190.1,175.2z M143.2,175.2c0.1-0.1,0.2,0.1,0.2,0.2c0,0,0.1,0.1,0.1,0.1
		C143.4,175.4,142.4,175.9,143.2,175.2z M184.4,175.2c1-0.7,0.3-1.1,2.2-0.2L184.4,175.2z M141.5,174.6l1.1,0.3L141.5,174.6z
		 M187.3,174c0.1-0.1,0.2,0.1,0.2,0.2c0,0,0.1,0.1,0.1,0.1C187.5,174.3,186.5,174.8,187.3,174z M158.6,174.2l-1.7,0.5
		C157.7,174,155.9,174.1,158.6,174.2z M141.5,174.6l-1.1-0.6L141.5,174.6z M154.6,173.5c0.1-0.1,0.2,0.1,0.2,0.2
		c0,0,0.1,0.1,0.1,0.1C154.9,173.7,153.9,174.2,154.6,173.5z M140.3,174l-1.1-0.6L140.3,174z M152.9,172.9c0.1-0.1,0.2,0.1,0.2,0.2
		c0,0,0.1,0.1,0.1,0.1C153.1,173.1,152.2,173.7,152.9,172.9z M150.6,172.3c0.1-0.1,0.2,0.1,0.2,0.2c0,0,0.1,0.1,0.1,0.1
		C150.9,172.6,149.9,173.1,150.6,172.3z M194.7,170c0.1-0.1,0.2,0.1,0.2,0.2c0,0,0.1,0.1,0.1,0.1C194.9,170.3,193.9,170.8,194.7,170
		z M195.9,169.5c0.1-0.1,0.2,0.1,0.2,0.2c0,0,0.1,0.1,0.1,0.1C196.1,169.7,195.1,170.2,195.9,169.5z M197,168.9
		c0.1-0.1,0.2,0.1,0.2,0.2c0,0,0.1,0.1,0.1,0.1C197.2,169.1,196.2,169.7,197,168.9z M199.3,168.3l-1,0.6L199.3,168.3z M200.4,167.8
		l-1.1,0.6L200.4,167.8z M200.4,167.8l0.2-0.5l0.4,0.3L200.4,167.8L200.4,167.8z M202.2,166.6l-0.2,0.5l-0.4-0.3L202.2,166.6
		L202.2,166.6z M203.3,166.1l-1.1,0.6L203.3,166.1z M204.5,165.5l-1.1,0.6L204.5,165.5z M205,164.9l-0.6,0.6L205,164.9z M205,164.9
		c0.9-1.3,2-1.9,3.4-2.3C207.3,164.4,207,164.4,205,164.9z M140.3,179.3c-6.8-0.6-22.3-12.5-25.8-17.8c1.7,0.4,9.5,7.9,12.1,9.6
		c2.3,1.5,4.3,2.8,6.6,4.2C135.5,176.7,138.6,177.7,140.3,179.3L140.3,179.3z M208.4,162.6c1.1-1.7,0.6-1.3,2.3-1.7
		C209.7,162.6,210.1,162.2,208.4,162.6z M114.6,161.5l-0.6-0.6L114.6,161.5z M114,160.9l-0.6-0.6L114,160.9z M113.4,160.4l-0.6-0.6
		L113.4,160.4z M210.7,160.9l2.3-2.3C212.7,160.5,212.4,160.5,210.7,160.9z M182.7,159.2l-0.1,0.5l-0.4-0.3L182.7,159.2L182.7,159.2
		z M112.8,159.8l-0.5-0.2l0.3-0.4L112.8,159.8L112.8,159.8z M182.7,159.2l1-0.6L182.7,159.2z M213,158.7l0.2-0.5l0.4,0.3L213,158.7
		L213,158.7z M223.9,146.1c0.1-0.1,0.2,0.1,0.2,0.2c0,0,0.1,0.1,0.1,0.1C224.1,146.3,223.2,146.8,223.9,146.1z M225.6,144.3
		l-0.1,0.5l-0.4-0.3L225.6,144.3L225.6,144.3z M226.2,143.2l-0.6,1.1L226.2,143.2z M226.2,143.2l1.1-1.7L226.2,143.2z M227.9,140.3
		l-0.6,1.1L227.9,140.3z M100.8,140.3c0.1-0.1,0.2,0.1,0.2,0.2c0,0,0.1,0.1,0.1,0.1C101.1,140.6,100.1,141.1,100.8,140.3z
		 M228.5,139.2l-0.6,1.1L228.5,139.2z M229.1,138l-0.6,1.1L229.1,138z M229.1,138l0.3-1.1L229.1,138z M230.2,135.2l-0.3,1.1
		L230.2,135.2z M230.2,135.2l0.3-1.1L230.2,135.2z M230.8,132.9c0.1-0.1,0.2,0.1,0.2,0.2c0,0,0.1,0.1,0.1,0.1
		C231,133.1,230,133.7,230.8,132.9z M231.3,131.7c0-1.3,0.7-0.1,0.4,0C231.7,131.7,231.3,133.2,231.3,131.7z M231.9,129.4
		c0.1-0.1,0.2,0.1,0.2,0.2c0,0,0.1,0.1,0.1,0.1C232.1,129.7,231.1,130.2,231.9,129.4z M233.1,126c0-1.3,0.7-0.1,0.4,0
		C233.4,126,233.1,127.5,233.1,126z M233.6,123.1c0.1-0.1,0.2,0.1,0.2,0.2c0,0,0.1,0.1,0.1,0.1C233.8,123.4,232.8,123.9,233.6,123.1
		z M234.1,120.3c0.6,0.7,0.6-0.8,0.5,1.7L234.1,120.3z M234.9,119.7c-0.1-1.2,0.6-13.1,0.9-13.7
		C236.2,109.6,236.6,116.9,234.9,119.7z M187.8,157.5l-1.7,0.6c-0.4,1.7-1.7,0-1.7,0c-2.9,0-4.2,0.8-6.9,1.1
		c-2.4,0.3-5.7,0.4-7.9,0.7c-3.8,0.6-12.2,0.7-15-1.3c-5.4-0.5-14.1-6.2-17.1-6.2c0.5,3.1,3.2,5.8,5,8.3c-9.1,1-16.9-9.5-23.3-14.1
		l0.9,2.7c-2.7-0.4-2.5-2.5-4.5-3.9l-0.9,0.6l-2.3-2.3c0.6,5.9,13.2,17.1,18,20.8c6.6,5,20.7,10.8,28.7,10.8c1.3-1.7,1.5,0,3.5,0.5
		c0.2,0.1,1.1,0.2,1.5,0.2c7.7,1.4,14.5-0.7,20.2-0.7c-3.1,2.2-8.4,2-12.5,2.4c4.3,2,10.8-1.2,15.4-1.3c-7,4.9-28.7,2.8-39.3-0.8
		c-2.4-0.8-9.5-4-11-4.2l2.2,2.1c-9.3-2.2-21.9-14.7-27.3-21.9c-3.3-4.3-7-10.3-9.1-15.5c-2.1-5.3-5.4-13.9-5.4-19.7l-1.7-0.2
		c0.8,3.2,0.9,7,2.2,12.2c0.9,3.5,2,8,3.5,11.2c-2-0.5-3.5-5.5-4.4-7.5c-0.6-1.5-1-2.8-1.5-4.2c-0.8-2-1.1-3.1-2.7-3.7
		c-1.7,3.1-0.3,7.5,0.7,10.3c7.5,22.1,24.8,42.2,46.6,49.6c9.5,3.2,13.4,3.8,23.7,3.8c14.2,0,32.1-3.9,43.9-11.1
		c16.9-10.3,28-31.7,31.2-51.3c1.4-8.3,1.4-17.1,0-25.3c-4.7-28.7-24.4-49.4-51.6-58.3c-6.2-2-16.8-4.4-23.3-4
		c-1.6-2.1-2.8-5.3-4.8-8c-4.2-5.6-14.8-16.1-21.1-16.7c1.1,1.5,5.2,3.5,7,5c4.4,3.8,16.1,15.2,16.9,19.5
		c-4.1,0.3-10.4-0.5-13.6,1.1c4.6,0.5,8.9-0.9,14.1-0.3c1.8,1.6,1,1.6,2.3,2.7l-0.5-2.7c1.8,0.2,3.4,0.3,5.1,0.5
		c1.8,0.3,3.2,0.9,5.2,1.1c-0.3,1.9-1.1,1.2,5.3,3.6c-3.1,0.5-10.1-1.3-13.8-1.4c-1.7-0.1-11.4,0.2-11.9,3.3
		c3.3,2.4,20.2,0.8,26.7,4c-2.6,0.3-4.8-0.3-7.4-0.4c-2.7-0.1-4.3-0.7-7.5-0.6c-2.6,0.1-11.7,1-13.1,2.7c5.2,0.6,7.7-0.3,16.6,0.7
		c5.6,0.6,8.8,0.1,14.3,2.9c2.6,1.3,3.3,0.8,5.2,1.7c1.4,0.7,8,4.6,8.8,5.5c10.1,10.1,15.1,13.7,20.7,28c0.9,2.2,2.1,3.3,2.5,4.9
		l0.7,12.1c-0.6,4-0.1,8.5-1,12.7c-1.3,5.6-4.5,14.6-8.5,19c0.1,1.7-0.1-0.5,0.7,1.8c-3.3,1.3-7.9,6.9-11.2,9.4
		c-2.6,1.9-3.1,3.2-5.9,4.4C193.7,155.4,190,157.4,187.8,157.5L187.8,157.5z"/>
	<path fill-rule="evenodd" fill="#219AB5" d="M102.5,114.4c0.5-0.5,1.8,0.7,0.7,0.3C103.2,114.7,101.8,115.1,102.5,114.4z
		 M99.1,113.8l1.7,0.1C98.9,114.9,99.8,114.2,99.1,113.8z M99.1,113.8l-1.7-0.1C99.3,112.7,98.4,113.4,99.1,113.8z M96.2,112.7
		c0.1-0.1,0.2,0.1,0.2,0.2c0,0,0.1,0.1,0.1,0.1C96.4,112.9,95.4,113.4,96.2,112.7z M83.1,105.8l0.5,0.1l-0.3,0.4L83.1,105.8
		L83.1,105.8z M83.1,105.8l-0.5-0.2l0.3-0.4L83.1,105.8L83.1,105.8z M80.8,104.1l0.5,0.1l-0.3,0.4L80.8,104.1L80.8,104.1z
		 M80.8,104.1l-0.6-0.6L80.8,104.1z M80.2,103.5l-0.5-0.2l0.3-0.4L80.2,103.5L80.2,103.5z M68.8,89.8l0.5,0.1L69,90.3L68.8,89.8
		L68.8,89.8z M68.8,89.8l-0.5-0.2l0.3-0.4L68.8,89.8L68.8,89.8z M67.6,88.1l0.5,0.1l-0.3,0.4L67.6,88.1L67.6,88.1z M67.6,88.1L67,87
		L67.6,88.1z M66.5,85.8c0.1-0.1,0.2,0.1,0.2,0.2c0,0,0.1,0.1,0.1,0.1C66.7,86,65.7,86.5,66.5,85.8z M65.9,84.6
		c0.1-0.1,0.2,0.1,0.2,0.2c0,0,0.1,0.1,0.1,0.1C66.1,84.8,65.1,85.4,65.9,84.6z M65.3,83.5c0-1.3,0.7-0.1,0.4,0
		C65.7,83.5,65.3,84.9,65.3,83.5z M64.8,81.7c0.1-0.1,0.2,0.1,0.2,0.2c0,0,0.1,0.1,0.1,0.1C65,82,64,82.5,64.8,81.7z M162.1,80.6
		l-0.2,0.5l-0.4-0.3L162.1,80.6L162.1,80.6z M157.5,80l-0.3,1.1L157.5,80z M64.2,80c0.1-0.1,0.2,0.1,0.2,0.2c0,0,0.1,0.1,0.1,0.1
		C64.4,80.3,63.4,80.8,64.2,80z M158.1,78.9l-0.6,1.1L158.1,78.9z M73.9,69.1l-0.1,1.7C72.8,68.9,73.5,69.8,73.9,69.1z M59.5,58.9
		l0.1,9.1C58.6,66.1,58.6,60.6,59.5,58.9z M72.8,66.9c0.1-0.1,0.2,0.1,0.2,0.2c0,0,0.1,0.1,0.1,0.1C73,67.1,72,67.6,72.8,66.9z
		 M55,50.2c0-1.3,0.7-0.1,0.4,0C55.4,50.2,55,51.7,55,50.2z M55.6,48c0.1-0.1,0.2,0.1,0.2,0.2c0,0,0.1,0.1,0.1,0.1
		C55.8,48.2,54.8,48.7,55.6,48L55.6,48z M77.9,45.7l-0.2,0.5l-0.4-0.3L77.9,45.7L77.9,45.7z M68.2,32.5L68,33l-0.4-0.3L68.2,32.5
		L68.2,32.5z M68.2,32.5l0.1-0.5l0.4,0.3L68.2,32.5L68.2,32.5z M63.6,31.9c0.1-0.1,0.2,0.1,0.2,0.2c0,0,0.1,0.1,0.1,0.1
		C63.8,32.1,62.8,32.7,63.6,31.9L63.6,31.9z M65.3,30.2l-0.2,0.5l-0.4-0.3L65.3,30.2L65.3,30.2z M65.9,29.6l-0.6,0.6L65.9,29.6z
		 M66.5,28.5l-0.6,1.1L66.5,28.5z M67,27.9l-0.6,0.6L67,27.9z M67.6,27.4L67,27.9L67.6,27.4z M67.6,27.4c0.5-1.7,0.1-1.2,1.7-2.3
		C68.8,26.7,69.2,26.3,67.6,27.4z M70.4,23.9l-0.1,1l-1.1,0.1L70.4,23.9L70.4,23.9z M71.6,22.8l-0.1,1l-1.1,0.1L71.6,22.8L71.6,22.8
		z M71.6,22.8c1.1-1.7,2.7-3.5,4.6-4C75.1,20.4,73.5,22.2,71.6,22.8z M76.2,18.8c1.1-1.7,2.6-2.9,4.6-3.4
		C79.8,16.7,77.7,18.3,76.2,18.8z M80.7,15.3l0.1-0.5l0.4,0.3L80.7,15.3L80.7,15.3z M95.6,116.1l1.7,0.2c2.7,2.4,19.2,3.1,22.9,1.3
		h0.6c8.5,1,27.6-10.6,34.1-19.4c8.3-11.1,15.1-24,15.1-38.7c-0.7,1.1-1.5,7.4-2,9.5c-0.9,4-1.1,5.2-3,9l-1.5,0.1l-1.5,2.6
		c0.2-2.8,1.8-5.9,2.4-9c0.7-3.5,1.6-6.5-0.1-9.9c-3.2,2.2-3.4,13.9-6.3,17.2c0.1-5.1,4.2-13.2,1.9-18.2c-1.4,1.9-1.6,6-2.2,8.7
		c-0.6,2.8-1.5,5.7-2.5,8.4c-3.4,9.6-12.5,18-21.6,22.5c-8.3,4.1-13.8,3.4-16.8,5.6c-5.9-1.6-7.4-0.9-8.5-1
		c-1.1-0.1-0.7-0.4-2.4-0.6c-3.1,0.1-1.3,0-2.2-0.7c-1.2,0-0.2,0.2-0.6-0.6c-1.6,0.6-5.2-0.9-6.9-1.8l-1.9-1.1
		c-3.4-2-6.4-3.5-8.9-6.4c-1.3-1.6-1.1-1.4-2.9-1.1c-0.8-4.5-9.1-12.5-8.6-19.9c0.1-2.1,1.4-1.5-0.1-3.5c0-6.9,0.2-15.9,2.9-21.8
		l1.7-1.7h-0.6l0.6-1.1l0.6-1.1l1.1-1.7c0.7-2.4,3.1-5.5,5.2-6.9L85,33.6c-3.8,0.3-4.1,1.8-7,2.3c1-6.2,9.4-11.2,14.1-15l-2.2-0.6
		l4.6-2.6l-1.1-0.3l1.1-0.3l1.1-1.5C87.2,16.5,76.6,26,71.1,33.2c-9.9,13.1-10.1,30.4-10.8,31.9l-0.2-6.8
		c-1.9-1.4,2.2-12.4,3.1-14.7c1.3-3.3,6.2-10.6,6.6-12.3l-1.1-0.2C75.7,24,79.2,19,90.1,13.8c4.7-2.2,9.5-3.5,14.5-4.4
		c9.8-1.8,10.6-0.3,18.5-1c-3.6-2-12.9-1.8-17.3-1.1c-1.3,0.2-5.1,0.7-6.2,0.6c2.9-1.6,11.5-1.9,13.3-3.9C109.8,0.2,95.6,4.4,91.5,6
		c-16.9,6.9-28.1,16.4-35.1,33.6c-6.4,15.7-4.2,43.8,6,55c5.3,5.8,7.6,8.6,14.3,13.1C81.5,110.9,90.1,115.8,95.6,116.1L95.6,116.1z"
		/>
</g>
<g>
	<path fill-rule="evenodd" fill="#FFFFFF" d="M56,104.2c-4.1-3.8-10.2-5.7-15.5-5.7c-9.6,0-19.5,4.8-19.5,15.7
		c0,9.9,7,13.1,13.5,15.1c6.7,2.1,12.3,3.7,12.3,9.3c0,5.7-5.2,7.9-9.6,7.9c-4.2,0-9-2.3-11.7-5.9l-6.8,6.3c4.2,5,11.4,7.6,18.3,7.6
		c10.5,0,19.4-5.6,19.4-17c0-10.5-8.7-13.5-15.6-15.6c-6-1.9-10.2-3.3-10.2-8.2c0-5.2,5-7.3,9.4-7.3c3.8,0,7.8,2,9.8,4.6L56,104.2
		L56,104.2z"/>
	<path fill-rule="evenodd" fill="#FFFFFF" d="M216.6,115.9c-5.4,0-9.5,2.5-11.9,6.9c-2-4.1-5.7-6.9-11.3-6.9
		c-5.8,0-9.6,3.3-11.2,6.9H182V117h-8.6v36.2h9v-19.9c0-4.8,2.5-9.8,7.9-9.8c4.6,0,6.7,3.4,6.7,7.8v21.8h9v-19.7
		c0-4.7,2.3-9.9,8-9.9c5.8,0,6.8,5.4,6.8,9.6v20h9v-22.6C229.9,123.2,226,115.9,216.6,115.9L216.6,115.9z"/>
	<path fill-rule="evenodd" fill="#FFFFFF" d="M162.6,117h-9v19.9c0,4.8-2.7,9.8-8.4,9.8c-5.8,0-6.8-5.4-6.8-9.6v-20h-9v22.6
		c0,7.4,3.9,14.6,13.3,14.6c5.4,0,9.6-3.2,11.2-6.9h0.1v5.8h8.6L162.6,117L162.6,117z"/>
	<path fill-rule="evenodd" fill="#FFFFFF" d="M102.2,153.1h9v-19.4c0-2.6,1.6-9.7,9.7-9.7c0.8,0,1.6,0.1,2.8,0.4v-8.3
		c-0.6-0.1-1.5-0.2-2.2-0.2c-4.7,0-8.6,2.9-10.5,7.1h-0.1v-6h-8.7L102.2,153.1z"/>
	<path fill-rule="evenodd" fill="#FFFFFF" d="M96.3,121.6c-2.9-3.5-8.4-5.7-13.6-5.7c-10.6,0-19.4,7.4-19.4,19.1
		c0,12,8.9,19.1,19.6,19.1c5.4,0,10.3-1.8,13.3-5l-5.7-5.7c-1.7,2.1-4.8,3.2-7.6,3.2c-6.9,0-10.2-5.9-10.2-11.6
		c0-5.7,3.3-11.6,9.9-11.6c2.9,0,6,1.5,7.5,3.5L96.3,121.6L96.3,121.6z"/>
</g>
</svg>
