<?xml version="1.0" encoding="utf-8"?>
<!-- Generator: Adobe Illustrator 25.2.0, SVG Export Plug-In . SVG Version: 6.00 Build 0)  -->
<svg version="1.2" baseProfile="tiny" id="Laag_1" xmlns="http://www.w3.org/2000/svg" xmlns:xlink="http://www.w3.org/1999/xlink"
	 x="0px" y="0px" viewBox="0 0 247 191" overflow="visible" xml:space="preserve">
<path d="M41.8,190.6c-14.4,0-25-3.4-31.8-10.2s-10.2-17.3-10.2-31.6V42.4c0-14.6,3.4-25.2,10.2-32s17.4-10.1,31.8-10h163.1
	c14.5,0,25.1,3.4,31.9,10.1c6.8,6.8,10.1,17.4,10.1,31.9v106.2c0,14.4-3.4,25-10.1,31.8c-6.8,6.8-17.4,10.2-31.9,10.2H41.8z"/>
<path fill="#303F9F" d="M57.5,95.5l-21.9,38l21.9,38l21.9-38L57.5,95.5z"/>
<path fill="#3F51B5" d="M189.2,19.5l-22,38l22,38l21.9-38L189.2,19.5z"/>
<path fill="#7986CB" d="M211.2,57.5l-65.9,114.1h43.9l43.9-76L211.2,57.5z"/>
<path fill="#FF4081" d="M145.3,19.5L57.5,171.5h43.9l87.8-152.1H145.3z"/>
<path fill="#536DFE" d="M57.5,19.5l-43.9,76l22,38l65.9-114.1H57.5z"/>
<path fill="#FFFFFF" fill-opacity="0.2" d="M145.3,19.5l22,38l22-38H145.3z"/>
<path fill="#FFFFFF" fill-opacity="0.1" d="M123.4,57.5l21.9-38l22,38H123.4z"/>
<path fill="#FFFFFF" fill-opacity="0" d="M123.4,57.5l21.9,38l22-38H123.4z"/>
<path fill-opacity="0.1" d="M101.4,95.5l21.9-38l21.9,38H101.4z"/>
<path fill-opacity="0.2" d="M101.4,95.5l21.9,38l21.9-38H101.4z"/>
<path fill-opacity="0.3" d="M79.5,133.5l22-38l21.9,38H79.5z"/>
<path fill-opacity="0.4" d="M79.5,133.5l22,38l21.9-38H79.5z"/>
<path fill-opacity="0.5" d="M57.5,171.5l22-38l22,38H57.5z"/>
<path fill="#FFFFFF" fill-opacity="0.2" d="M57.5,19.5l22,38l22-38H57.5z"/>
<path fill="#FFFFFF" fill-opacity="0.1" d="M35.6,57.5l21.9-38l22,38H35.6z"/>
<path fill="#FFFFFF" fill-opacity="0" d="M35.6,57.5l21.9,38l22-38H35.6z"/>
<path fill-opacity="0.1" d="M13.6,95.5l21.9-38l21.9,38H13.6z"/>
<path fill-opacity="0.2" d="M13.6,95.5l21.9,38l21.9-38H13.6z"/>
<path fill="#FFFFFF" fill-opacity="0" d="M79.5,133.5l-22-38l-21.9,38H79.5z"/>
<path fill-opacity="0.2" d="M79.5,133.5l-22,38l-21.9-38H79.5z M211.2,57.5l-21.9-38l-22,38H211.2z"/>
<path fill="#FFFFFF" fill-opacity="0" d="M211.2,57.5l-21.9,38l-22-38H211.2z"/>
<path fill="#FFFFFF" fill-opacity="0.2" d="M189.2,95.5l21.9-38l21.9,38H189.2z"/>
<path fill="#FFFFFF" fill-opacity="0.1" d="M189.2,95.5l21.9,38l21.9-38H189.2z"/>
<path fill="#FFFFFF" fill-opacity="0" d="M167.3,133.5l22-38l21.9,38H167.3z"/>
<path fill-opacity="0.1" d="M167.3,133.5l22,38l21.9-38H167.3z"/>
<path fill-opacity="0.2" d="M145.3,171.5l22-38l22,38H145.3z"/>
</svg>
