<?xml version="1.0" encoding="utf-8"?>
<!-- Generator: Adobe Illustrator 25.1.0, SVG Export Plug-In . SVG Version: 6.00 Build 0)  -->
<svg version="1.2" baseProfile="tiny" id="Laag_1" xmlns="http://www.w3.org/2000/svg" xmlns:xlink="http://www.w3.org/1999/xlink"
	 x="0px" y="0px" viewBox="0 0 1024 1024" overflow="visible" xml:space="preserve">
<g>
	<g>
		<g>
			<path fill="#005E7A" d="M982.24,160c-27.99-27.99-72.01-41.99-132.06-41.99H174.24c-59.74-0.31-103.67,13.54-131.83,41.52
				C14.27,187.52,0.19,231.7,0.19,292.06v440.83c0,59.11,14.08,102.74,42.22,130.89C70.57,891.92,114.5,906,174.24,906h675.94
				c60.05,0,104.07-14.08,132.06-42.22c27.99-28.15,41.99-72.08,41.99-131.83V292.06C1024.23,232.01,1010.23,187.99,982.24,160z"/>
		</g>
	</g>
	<g>
		<path fill="#FFFFFF" d="M238.32,750.23c5.66-20.59,5.41-42.7-0.75-66.33l-64.22,16.76c5.11,19.57,3.7,36.09-4.21,49.58
			c-7.91,13.5-21.65,22.8-41.21,27.9c-19.57,5.11-36.19,3.73-49.86-4.14C64.39,766.15,55,752.44,49.9,732.87L3.38,554.61
			c-5.2-19.93-3.73-36.57,4.41-49.93c8.14-13.36,21.99-22.59,41.56-27.7c19.56-5.1,36.06-3.79,49.51,3.93
			c13.44,7.73,22.77,21.55,27.97,41.48l64.22-16.76c-6.36-24.36-16.99-43.95-31.9-58.79c-14.91-14.83-32.96-24.71-54.15-29.63
			c-21.19-4.91-44.71-4-70.54,2.74c-12.51,3.26-23.93,7.49-34.28,12.66v300.27c0,23.36,2.21,44.3,6.61,62.82
			c3.3,4.53,6.89,8.77,10.78,12.7c15,15.21,33.26,25.13,54.77,29.76c21.51,4.63,45,3.63,70.47-3.01
			c25.83-6.74,46.79-17.44,62.88-32.08C221.78,788.45,232.66,770.83,238.32,750.23z"/>
		<path fill="#FFFFFF" d="M415.81,703.03c-21.78,5.68-40.24,5.18-55.39-1.51c-15.15-6.69-24.99-18.7-29.51-36.06l-64.22,16.76
			c5.97,22.89,16.61,41.4,31.93,55.53c15.31,14.14,34.15,23.22,56.48,27.25c22.34,4.02,47.16,2.48,74.48-4.65
			c26.57-6.93,48.38-17.75,65.45-32.45c17.06-14.7,28.79-32.05,35.2-52.06c6.4-20,6.63-41.44,0.66-64.33
			c-7.8-29.9-22.61-53.03-44.43-69.42c-21.82-16.38-49.1-24.63-81.85-24.76l-54.13-1.25c-15.92-0.58-29.2-4.99-39.83-13.26
			c-10.64-8.26-17.87-19.78-21.73-34.54c-4.14-15.87-2.13-29.69,6.03-41.49c8.16-11.78,21.65-20.14,40.47-25.05
			c19.56-5.1,35.94-4.25,49.15,2.55c13.21,6.81,21.98,18.51,26.31,35.12l64.77-16.9c-9.13-33.48-27.58-57.35-55.34-71.6
			c-27.76-14.24-60.84-16.35-99.22-6.34c-25.47,6.65-46.3,17.11-62.47,31.38c-16.19,14.28-27.19,31.04-33,50.3
			c-5.82,19.26-5.74,40.33,0.23,63.21c7.51,28.79,22.29,51.45,44.34,67.96c22.05,16.52,49.49,25.03,82.35,25.52l52.33,1.13
			c16.09-0.25,29.57,3.81,40.44,12.21c10.86,8.4,18.17,19.8,21.93,34.19c4.53,17.35,2.16,32.46-7.1,45.31
			C450.89,688.65,436.1,697.73,415.81,703.03z"/>
		<path fill="#FFFFFF" d="M703.69,627.91c-21.78,5.68-40.24,5.18-55.39-1.51c-15.15-6.69-24.99-18.7-29.51-36.06l-64.22,16.76
			c5.97,22.89,16.61,41.4,31.93,55.53c15.31,14.14,34.15,23.22,56.48,27.24c22.34,4.02,47.16,2.48,74.48-4.65
			c26.57-6.93,48.38-17.75,65.45-32.45c17.05-14.7,28.79-32.05,35.2-52.06c6.4-20,6.63-41.44,0.66-64.33
			c-7.8-29.9-22.61-53.03-44.43-69.42c-21.82-16.38-49.1-24.63-81.85-24.76l-54.13-1.25c-15.92-0.58-29.2-4.99-39.83-13.26
			c-10.64-8.26-17.87-19.77-21.73-34.54c-4.14-15.87-2.13-29.69,6.03-41.49c8.16-11.78,21.65-20.14,40.47-25.05
			c19.56-5.1,35.94-4.25,49.15,2.55c13.21,6.81,21.98,18.51,26.31,35.12l64.77-16.9c-9.13-33.48-27.58-57.35-55.34-71.6
			c-27.76-14.24-60.84-16.35-99.22-6.34c-25.47,6.65-46.3,17.11-62.47,31.38c-16.19,14.28-27.19,31.04-33,50.3
			c-5.82,19.26-5.74,40.33,0.23,63.21c7.51,28.79,22.29,51.45,44.34,67.96c22.05,16.52,49.49,25.03,82.35,25.52l52.33,1.13
			c16.09-0.25,29.57,3.81,40.44,12.21c10.86,8.4,18.17,19.8,21.93,34.19c4.53,17.35,2.16,32.46-7.1,45.31
			C738.76,613.54,723.98,622.61,703.69,627.91z"/>
		<path fill="#FFFFFF" d="M1024.23,603.43V533.3c-8.37,10.67-21.14,18.26-38.33,22.75c-19.93,5.2-36.83,3.9-50.69-3.92
			c-13.87-7.81-23.3-21.31-28.31-40.51l-64.77,16.9c6.07,23.25,16.65,42.28,31.74,57.06c15.09,14.79,33.39,24.5,54.91,29.13
			c21.51,4.63,45.18,3.58,71.02-3.16C1008.45,609.29,1016.59,606.58,1024.23,603.43z"/>
		<path fill="#FFFFFF" d="M994.99,175.23l-211.7,55.24l14.59,55.92l157.78-41.17l-69.37,110.34l15.46,59.24l44.29-11.56
			c19.93-5.2,36.83-3.89,50.69,3.92c13.16,7.42,22.32,19.97,27.5,37.63v-94.45c-21.49-9.21-45.94-11.6-73.31-7.18l68.31-107.55
			C1014.5,211.65,1006.42,191.53,994.99,175.23z"/>
	</g>
</g>
</svg>
