<?xml version="1.0" encoding="utf-8"?>
<!-- Generator: Adobe Illustrator 25.1.0, SVG Export Plug-In . SVG Version: 6.00 Build 0)  -->
<svg version="1.2" baseProfile="tiny" id="Laag_1" xmlns="http://www.w3.org/2000/svg" xmlns:xlink="http://www.w3.org/1999/xlink"
	 x="0px" y="0px" viewBox="0 0 73 729" overflow="visible" xml:space="preserve">
<path fill="#005E7A" d="M41,389.69c-1.3,0.1-2.64,0.16-4,0.16c-1.01,0-2.02-0.03-3-0.09l0-0.01v299.94h7L41,389.69L41,389.69z"/>
<path fill="#005E7A" d="M33,328.31c1.3-0.1,2.64-0.16,4-0.16c1.01,0,2.02,0.03,3,0.09l0,0.01V28.31h-7L33,328.31L33,328.31z"/>
<path fill="#005E7A" d="M63,359c0,14.36-11.64,26-26,26s-26-11.64-26-26s11.64-26,26-26S63,344.64,63,359z M37,341
	c-9.94,0-18,8.06-18,18s8.06,18,18,18s18-8.06,18-18S46.94,341,37,341z"/>
</svg>
