<?xml version="1.0" encoding="utf-8"?>
<!-- Generator: Adobe Illustrator 25.2.0, SVG Export Plug-In . SVG Version: 6.00 Build 0)  -->
<svg version="1.2" baseProfile="tiny" id="Laag_1" xmlns="http://www.w3.org/2000/svg" xmlns:xlink="http://www.w3.org/1999/xlink"
	 x="0px" y="0px" viewBox="0 0 2600.3 199" overflow="visible" xml:space="preserve">
<rect x="0.7" y="-0.2" fill="#B06E2C" width="2600" height="199"/>
<path fill="#455A64" d="M371.4-249.7h0.8v0.6h-0.8V-249.7z M371.4-247.3h0.8v0.6l-0.4,0.7h-0.4l0.3-0.7h-0.3V-247.3L371.4-247.3z"/>
<g>
	<rect x="1568.6" y="13.2" fill-rule="evenodd" fill="#005E7A" width="44.4" height="163.6"/>
	<path fill-rule="evenodd" fill="#263238" d="M1295.4,13.2h264.8c2.2,0,4,1.7,4,3.7v148.5c0,2-1.8,3.7-4,3.7h-264.8
		c-2.2,0-4-1.7-4-3.7V16.9C1291.4,14.9,1293.2,13.2,1295.4,13.2z"/>
	<g transform="translate(-4.2952 -5.3213)">
		<ellipse fill-rule="evenodd" fill="#FFFFFF" cx="1431.6" cy="90.4" rx="34.6" ry="34.1"/>
		<ellipse fill-rule="evenodd" fill="#263238" cx="1431.6" cy="90.4" rx="30.1" ry="29.7"/>
		<g>
			<path fill="#FFFFFF" d="M1419.8,109.1l32.1-18.3l-31.7-18.3L1419.8,109.1z"/>
		</g>
	</g>
	<path fill-rule="evenodd" fill="#455A64" d="M1295.1,156.9h265.4c2,0,3.7,1.5,3.7,3.4v13.2c0,1.8-1.6,3.4-3.7,3.4h-265.4
		c-2,0-3.7-1.5-3.7-3.4v-13.2C1291.4,158.3,1293,156.9,1295.1,156.9z"/>
	<g>
		<path fill="#FFFFFF" d="M1305.6,173.4l11.5-6.1l-11.4-6.1L1305.6,173.4z"/>
	</g>
	<path fill-rule="evenodd" fill="#263238" d="M1328.4,164.4h111.8c1.7,0,3,1.3,3,2.8l0,0c0,1.6-1.4,2.8-3,2.8h-111.8
		c-1.7,0-3-1.3-3-2.8l0,0C1325.3,165.7,1326.7,164.4,1328.4,164.4z"/>
	<path fill-rule="evenodd" fill="#546E7A" d="M1328.4,164.4h69c1.7,0,3,1.3,3,2.8l0,0c0,1.6-1.4,2.8-3,2.8h-69c-1.7,0-3-1.3-3-2.8
		l0,0C1325.3,165.7,1326.7,164.4,1328.4,164.4z"/>
	<path fill-rule="evenodd" fill="#90A4AE" d="M1536.6,162.5h1.7c0.4,0,0.7,0.3,0.7,0.6v8.3c0,0.3-0.3,0.6-0.7,0.6h-1.7
		c-0.4,0-0.7-0.3-0.7-0.6v-8.3C1535.9,162.8,1536.2,162.5,1536.6,162.5z"/>
	<path fill-rule="evenodd" fill="#90A4AE" d="M1532.2,164.4h2c0.3,0,0.6,0.2,0.6,0.5v6.6c0,0.3-0.2,0.5-0.6,0.5h-2
		c-0.3,0-0.6-0.2-0.6-0.5v-6.6C1531.7,164.6,1531.9,164.4,1532.2,164.4z"/>
	<path fill-rule="evenodd" fill="#90A4AE" d="M1527.8,166.3h2.3c0.2,0,0.4,0.2,0.4,0.3v5c0,0.2-0.2,0.3-0.4,0.3h-2.3
		c-0.2,0-0.4-0.2-0.4-0.3v-5C1527.4,166.5,1527.5,166.3,1527.8,166.3z"/>
	<path fill-rule="evenodd" fill="#90A4AE" d="M1523.6,168.1h2.5c0.2,0,0.3,0.1,0.3,0.3v3.3c0,0.2-0.1,0.3-0.3,0.3h-2.5
		c-0.2,0-0.3-0.1-0.3-0.3v-3.3C1523.3,168.2,1523.4,168.1,1523.6,168.1z"/>
	<path fill-rule="evenodd" fill="#90A4AE" d="M1519.5,169.6h2.3c0.2,0,0.4,0.2,0.4,0.3v1.7c0,0.2-0.2,0.3-0.4,0.3h-2.3
		c-0.2,0-0.4-0.2-0.4-0.3v-1.7C1519.2,169.8,1519.3,169.6,1519.5,169.6z"/>
	<g transform="matrix(.087765 0 0 .087765 699.72 410.66)">
		<path fill="#90A4AE" d="M9783.2-2765.6v-16.9l-17.2-3.6c-1-3.4-2.5-6.6-4.4-9.7l9.4-13.8l-12.9-11.9l-15,8.6
			c-3.3-1.7-6.8-3.1-10.5-4l-3.9-15.9h-18.3l-3.9,15.9c-3.7,1-7.2,2.3-10.5,4l-15-8.6l-12.9,11.9l9.4,13.8c-1.8,3.1-3.3,6.3-4.4,9.7
			l-17.2,3.6v16.9l17.2,3.6c1,3.4,2.5,6.6,4.4,9.7l-9.4,13.8l12.9,11.9l15-8.6c3.3,1.7,6.8,3.1,10.5,4l3.9,15.9h18.3l3.9-15.9
			c3.7-1,7.2-2.3,10.5-4l15,8.6l12.9-11.9l-9.4-13.8c1.8-3.1,3.3-6.3,4.4-9.7L9783.2-2765.6z"/>
	</g>
	<g transform="matrix(.087765 0 0 .087765 699.72 410.66)">
		<ellipse fill="#455A64" cx="9719.7" cy="-2774" rx="2.8" ry="2.6"/>
	</g>
	<path fill-rule="evenodd" fill="#FF8000" d="M1572.9,26.6h35.5c0.3,0,0.6,0.3,0.6,0.5V47c0,0.3-0.3,0.5-0.6,0.5h-35.5
		c-0.3,0-0.6-0.3-0.6-0.5V27.1C1572.4,26.8,1572.7,26.6,1572.9,26.6z"/>
	<ellipse fill-rule="evenodd" fill="#FFFFFF" cx="1590.7" cy="37" rx="4.9" ry="4.5"/>
	<ellipse fill-rule="evenodd" fill="#FF7043" cx="1590.7" cy="37" rx="4.4" ry="4"/>
	<g>
		<path fill="#FFFFFF" d="M1588.9,39.5l4.6-2.4l-4.5-2.4L1588.9,39.5z"/>
	</g>
	<path fill-rule="evenodd" fill="#F1CA6B" d="M1573,53.4h35.5c0.3,0,0.6,0.3,0.6,0.5v19.9c0,0.3-0.3,0.5-0.6,0.5H1573
		c-0.3,0-0.6-0.3-0.6-0.5V53.9C1572.5,53.6,1572.8,53.4,1573,53.4z"/>
	<ellipse fill-rule="evenodd" fill="#FFFFFF" cx="1590.7" cy="63.8" rx="4.9" ry="4.5"/>
	<ellipse fill-rule="evenodd" fill="#CDDC39" cx="1590.7" cy="63.8" rx="4.4" ry="4"/>
	<g>
		<path fill="#FFFFFF" d="M1589,66.4l4.6-2.4l-4.5-2.4L1589,66.4z"/>
	</g>
	<path fill-rule="evenodd" fill="#29B6F6" d="M1573.1,80.3h35.5c0.3,0,0.6,0.3,0.6,0.5v19.9c0,0.3-0.3,0.5-0.6,0.5h-35.5
		c-0.3,0-0.6-0.3-0.6-0.5V80.8C1572.7,80.4,1572.8,80.3,1573.1,80.3z"/>
	<ellipse fill-rule="evenodd" fill="#FFFFFF" cx="1590.8" cy="90.7" rx="4.9" ry="4.5"/>
	<ellipse fill-rule="evenodd" fill="#29B6F6" cx="1590.8" cy="90.7" rx="4.4" ry="4"/>
	<g>
		<path fill="#FFFFFF" d="M1589.2,93.2l4.6-2.4l-4.5-2.4L1589.2,93.2z"/>
	</g>
	<path fill-rule="evenodd" fill="#FFB300" d="M1573.2,107.1h35.4c0.3,0,0.6,0.3,0.6,0.5v19.9c0,0.3-0.3,0.5-0.6,0.5h-35.5
		c-0.3,0-0.6-0.3-0.6-0.5v-19.9C1572.7,107.3,1572.8,107.1,1573.2,107.1z"/>
	<ellipse fill-rule="evenodd" fill="#FFFFFF" cx="1590.9" cy="117.6" rx="4.9" ry="4.5"/>
	<ellipse fill-rule="evenodd" fill="#FFB300" cx="1590.9" cy="117.6" rx="4.4" ry="4"/>
	<g>
		<path fill="#FFFFFF" d="M1589.2,120.1l4.6-2.4l-4.5-2.4L1589.2,120.1z"/>
	</g>
</g>
</svg>
