<?xml version="1.0" encoding="utf-8"?>
<!-- Generator: Adobe Illustrator 25.2.0, SVG Export Plug-In . SVG Version: 6.00 Build 0)  -->
<svg version="1.1" id="Laag_1" xmlns="http://www.w3.org/2000/svg" xmlns:xlink="http://www.w3.org/1999/xlink" x="0px" y="0px"
	 viewBox="0 0 1090 199" style="enable-background:new 0 0 1090 199;" xml:space="preserve">
<style type="text/css">
	.st0{fill:#FF8000;}
	.st1{opacity:0.4;}
	.st2{fill:#FFFFFF;}
	.st3{opacity:0.2;fill:#FFFFFF;enable-background:new    ;}
	.st4{fill:#F4767A;}
	.st5{fill:#ED5561;}
	.st6{fill:#BBCEE1;}
	.st7{fill:#D8395A;}
	.st8{fill:#933E31;}
	.st9{fill:#1C75BC;}
	.st10{fill:#9D4D36;}
	.st11{fill:#A7BCCE;}
	.st12{fill:#2A87C6;}
	.st13{fill:#E8EBF5;}
	.st14{fill:#0F4463;}
	.st15{fill:#0B3B56;}
	.st16{fill:#1F5E77;}
	.st17{fill:#07304B;}
	.st18{fill:url(#SVGID_1_);}
	.st19{fill:#FED4BD;}
	.st20{fill:#F4C5A2;}
	.st21{fill:#DE495A;}
	.st22{fill:#EF4136;}
	.st23{fill:#91A6B7;}
	.st24{fill:#79FF68;}
	.st25{fill:#50E85E;}
	.st26{fill:#3CC743;}
	.st27{fill:#9263C1;}
	.st28{fill:#8444B2;}
	.st29{fill:#7231A3;}
	.st30{fill:#FFA8E1;}
	.st31{fill:#FF7AD2;}
	.st32{fill:#DE64C6;}
	.st33{fill:#FCEC32;}
	.st34{fill:#F5D012;}
	.st35{fill:#EAA10C;}
	.st36{fill:#EDF0F8;}
	.st37{fill:#F0CEC9;}
	.st38{fill:#FFFBF0;}
	.st39{fill:#F5DDD8;}
	.st40{fill:#DFBAB8;}
</style>
<rect x="0" class="st0" width="1090" height="199"/>
<g class="st1">
	<polygon class="st2" points="614,36.7 614,37.7 618.5,40.3 618.5,39.3 	"/>
	<polygon class="st2" points="614,38.6 614,39.7 618.5,42.3 618.5,41.2 	"/>
	<polygon class="st2" points="614,40.6 614,41.6 618.5,44.2 618.5,43.2 	"/>
	<polygon class="st2" points="647.9,63.2 647.9,62.1 620.2,46.1 620.2,47.2 	"/>
	<polygon class="st2" points="614,42.5 614,43.6 618.5,46.2 618.5,45.1 	"/>
	<polygon class="st2" points="614,44.5 614,45.6 618.5,48.2 618.5,47.1 	"/>
	<polygon class="st2" points="647.9,65.1 647.9,64.1 620.2,48.1 620.2,49.1 	"/>
	<polygon class="st2" points="614,50.4 614,51.4 618.5,54 618.5,52.9 	"/>
	<polygon class="st2" points="614,52.3 614,53.4 618.5,56 618.5,54.9 	"/>
	<polygon class="st2" points="614,60.1 614,61.2 618.5,63.8 618.5,62.7 	"/>
	<polygon class="st2" points="614,62.1 614,63.2 618.5,65.7 618.5,64.7 	"/>
	<polygon class="st2" points="637.7,75.8 620.2,65.7 620.2,66.7 637.7,76.8 	"/>
	<polygon class="st2" points="638.6,76.3 638.6,77.4 647.9,82.7 647.9,81.7 	"/>
	<polygon class="st2" points="629,68.8 620.2,63.7 620.2,64.8 629,69.8 	"/>
	<polygon class="st2" points="629.9,69.3 629.9,70.4 647.9,80.8 647.9,79.7 	"/>
	<polygon class="st2" points="645.5,72.5 645.5,73.5 647.9,74.9 647.9,73.8 	"/>
	<polygon class="st2" points="632.6,63.1 620.2,55.9 620.2,56.9 632.6,64.1 	"/>
	<polygon class="st2" points="627.5,44.5 620.2,40.2 620.2,41.3 627.5,45.5 	"/>
	<polygon class="st2" points="639.6,51.4 628.4,45 628.4,46.1 639.6,52.5 	"/>
	<polygon class="st2" points="633.1,49.6 625.2,45.1 625.2,46.2 633.1,50.7 	"/>
	<polygon class="st2" points="641.3,54.4 634,50.2 634,51.2 641.3,55.5 	"/>
	<polygon class="st2" points="642.2,54.9 642.2,56 647.9,59.3 647.9,58.2 	"/>
	<polygon class="st2" points="621.6,45 621.6,46 627.5,49.5 627.5,48.4 	"/>
	<polygon class="st2" points="645.6,58.8 628.4,48.9 628.4,50 645.6,59.9 	"/>
	<polygon class="st2" points="635.8,59 624.6,52.6 624.6,53.6 635.8,60.1 	"/>
	<polygon class="st2" points="645.6,64.7 636.7,59.6 636.7,60.6 645.6,65.8 	"/>
	<polygon class="st2" points="644.6,70 633.6,63.6 633.6,64.7 644.6,71.1 	"/>
	<polygon class="st2" points="638.6,68.5 638.6,69.5 644.6,73 644.6,71.9 	"/>
	<polygon class="st2" points="622.3,59.1 620.2,57.8 620.2,58.9 622.3,60.2 	"/>
	<polygon class="st2" points="626.4,61.4 626.4,62.5 637.7,69 637.7,67.9 	"/>
	<polygon class="st2" points="625.5,60.9 623.3,59.6 623.3,60.7 625.5,62 	"/>
	<polygon class="st2" points="635.6,68.7 623.3,61.6 623.3,62.6 635.6,69.8 	"/>
</g>
<g class="st1">
	<polygon class="st2" points="638,19 619.3,8.2 619.3,9.1 638,19.9 	"/>
	<polygon class="st2" points="619.3,11 647.9,27.5 647.9,26.6 619.3,10 	"/>
	<polygon class="st2" points="639.2,19.7 639.2,20.6 647.9,25.7 647.9,24.7 	"/>
	<polygon class="st2" points="638,22.6 619.3,11.8 619.3,12.7 638,23.5 	"/>
	<polygon class="st2" points="619.3,14.6 647.9,31.1 647.9,30.2 619.3,13.7 	"/>
	<polygon class="st2" points="639.2,24.2 647.9,29.3 647.9,28.3 639.2,23.3 	"/>
	<polygon class="st2" points="638,28.6 619.3,17.8 619.3,18.7 638,29.5 	"/>
	<polygon class="st2" points="619.3,20.6 647.9,37.1 647.9,36.2 619.3,19.7 	"/>
	<polygon class="st2" points="639.2,30.2 647.9,35.3 647.9,34.3 639.2,29.3 	"/>
	<polygon class="st2" points="638,32.2 619.3,21.4 619.3,22.4 638,33.2 	"/>
	<polygon class="st2" points="619.3,24.2 647.9,40.8 647.9,39.8 619.3,23.3 	"/>
	<polygon class="st2" points="639.2,33.9 647.9,38.9 647.9,38 639.2,32.9 	"/>
	<polygon class="st2" points="638,38.2 619.3,27.4 619.3,28.4 638,39.2 	"/>
	<polygon class="st2" points="619.3,30.2 647.9,46.8 647.9,45.8 619.3,29.3 	"/>
	<polygon class="st2" points="639.2,39.9 647.9,44.9 647.9,44 639.2,38.9 	"/>
	<polygon class="st2" points="638,41.9 619.3,31.1 619.3,32 638,42.8 	"/>
	<polygon class="st2" points="619.3,33.9 647.9,50.4 647.9,49.5 619.3,32.9 	"/>
	<polygon class="st2" points="639.2,43.5 647.9,48.6 647.9,47.6 639.2,42.6 	"/>
</g>
<path class="st3" d="M577.6,93.6l-13.9-8c-0.5-0.3-1.1-0.2-1.4,0.3c-0.1,0.2-0.2,0.4-0.2,0.6v16.7c0,0.8,0.4,1.6,1.1,2l13.9,8.1
	c0.5,0.3,1.1,0.2,1.4-0.3c0.1-0.2,0.2-0.4,0.2-0.6V95.6C578.8,94.7,578.4,94,577.6,93.6z"/>
<path class="st4" d="M571.5,107.6l-18.3-10.5c-0.6-0.3-1.3-0.3-1.8,0.1l0,0l-4,2.3l1.9,2.5l0.7,0.8v18.1c0,1.1,0.6,2.1,1.5,2.6
	l13.7,7.9l0.1,0.8l2.8,3.9l4.3-2.5l0,0l0,0l0,0c0.4-0.2,0.7-0.7,0.7-1.2v-22C573,109.3,572.4,108.2,571.5,107.6z"/>
<path class="st5" d="M567.2,110.1l-18.5-10.7c-0.7-0.4-1.5-0.1-1.8,0.5c-0.1,0.2-0.2,0.4-0.2,0.6v22.1c0,1.1,0.6,2.1,1.5,2.6
	l18.5,10.7c0.7,0.4,1.5,0.1,1.9-0.5c0.1-0.2,0.2-0.4,0.2-0.7v-22C568.8,111.7,568.2,110.7,567.2,110.1z"/>
<path class="st6" d="M568.1,136.1L568.1,136.1L568.1,136.1z"/>
<path class="st7" d="M568.7,134.9v-22c0-0.4-0.1-0.7-0.2-1.1l4.3-2.5c0.1,0.3,0.2,0.7,0.2,1v22c0,0.5-0.2,0.9-0.7,1.2l0,0l0,0l0,0
	l-4.2,2.5C568.5,135.8,568.7,135.3,568.7,134.9z"/>
<path class="st2" d="M551.1,110.1l-2.2-1.3v8.1l1.5,0.9v-2.9l0.6,0.4c0.6,0.4,1.3,0.6,2,0.5c0.5-0.2,0.7-0.7,0.7-1.6
	c0-0.8-0.2-1.6-0.7-2.3C552.5,111.1,551.9,110.5,551.1,110.1z M551.8,114c-0.4,0-0.7-0.1-1-0.3l-0.5-0.3V111l0.7,0.4
	c0.4,0.2,0.7,0.5,0.9,0.8c0.2,0.3,0.3,0.7,0.3,1.1C552.2,113.7,552.1,113.9,551.8,114z"/>
<polygon class="st2" points="558.9,117.7 556.1,116.1 556.1,113 554.6,112.1 554.6,120.2 556.1,121.1 556.1,117.6 558.9,119.2 
	558.9,122.7 560.4,123.5 560.4,115.4 558.9,114.6 "/>
<path class="st2" d="M566,119.3c-0.5-0.7-1.2-1.3-1.9-1.8l-2.2-1.3v8.1l1.5,0.9v-2.9l0.6,0.4c0.6,0.4,1.3,0.6,2,0.5
	c0.5-0.2,0.7-0.7,0.7-1.6C566.6,120.8,566.4,120,566,119.3z M564.7,121.5c-0.4,0-0.7-0.1-1-0.3l-0.5-0.3v-2.4l0.7,0.4
	c0.4,0.2,0.7,0.5,0.9,0.8c0.2,0.3,0.3,0.7,0.3,1.1C565.1,121.2,565,121.4,564.7,121.5z"/>
<g class="st1">
	<polygon class="st2" points="528.3,108.4 528.3,109.5 532.8,112.1 532.8,111 	"/>
	<polygon class="st2" points="528.3,110.4 528.3,111.5 532.8,114.1 532.8,113 	"/>
	<polygon class="st2" points="528.3,112.4 528.3,113.4 532.8,116 532.8,115 	"/>
	<polygon class="st2" points="562.3,135 562.3,133.9 534.5,117.9 534.5,119 	"/>
	<polygon class="st2" points="528.3,114.3 528.3,115.4 532.8,118 532.8,116.9 	"/>
	<polygon class="st2" points="528.3,116.3 528.3,117.3 532.8,119.9 532.8,118.9 	"/>
	<polygon class="st2" points="562.3,136.9 562.3,135.8 534.5,119.8 534.5,120.9 	"/>
	<polygon class="st2" points="528.3,122.1 528.3,123.2 532.8,125.8 532.8,124.7 	"/>
	<polygon class="st2" points="528.3,124.1 528.3,125.2 532.8,127.8 532.8,126.7 	"/>
	<polygon class="st2" points="528.3,131.9 528.3,133 532.8,135.6 532.8,134.5 	"/>
	<polygon class="st2" points="528.3,133.9 528.3,134.9 532.8,137.5 532.8,136.5 	"/>
	<polygon class="st2" points="552,147.5 534.5,137.4 534.5,138.5 552,148.6 	"/>
	<polygon class="st2" points="553,148.1 553,149.1 562.3,154.5 562.3,153.4 	"/>
	<polygon class="st2" points="543.3,140.6 534.5,135.5 534.5,136.6 543.3,141.6 	"/>
	<polygon class="st2" points="544.2,141.1 544.2,142.2 562.3,152.6 562.3,151.5 	"/>
	<polygon class="st2" points="559.9,144.3 559.9,145.3 562.3,146.7 562.3,145.6 	"/>
	<polygon class="st2" points="547,134.9 534.5,127.7 534.5,128.7 547,135.9 	"/>
	<polygon class="st2" points="541.9,116.3 534.5,112 534.5,113.1 541.9,117.3 	"/>
	<polygon class="st2" points="553.9,123.2 542.8,116.8 542.8,117.9 553.9,124.3 	"/>
	<polygon class="st2" points="547.5,121.4 539.6,116.9 539.6,118 547.5,122.5 	"/>
	<polygon class="st2" points="555.7,126.2 548.4,122 548.4,123 555.7,127.2 	"/>
	<polygon class="st2" points="556.6,126.7 556.6,127.8 562.3,131 562.3,130 	"/>
	<polygon class="st2" points="536,116.8 536,117.8 541.9,121.2 541.9,120.2 	"/>
	<polygon class="st2" points="560,130.6 542.8,120.7 542.8,121.8 560,131.7 	"/>
	<polygon class="st2" points="550.1,130.8 538.9,124.3 538.9,125.4 550.1,131.9 	"/>
	<polygon class="st2" points="560,136.5 551.1,131.3 551.1,132.4 560,137.5 	"/>
	<polygon class="st2" points="559,141.8 547.9,135.4 547.9,136.5 559,142.8 	"/>
	<polygon class="st2" points="553,140.2 553,141.3 559,144.8 559,143.7 	"/>
	<polygon class="st2" points="536.7,130.9 534.5,129.6 534.5,130.7 536.7,131.9 	"/>
	<polygon class="st2" points="540.8,133.2 540.8,134.3 552,140.8 552,139.7 	"/>
	<polygon class="st2" points="539.8,132.7 537.6,131.4 537.6,132.5 539.8,133.7 	"/>
	<polygon class="st2" points="549.9,140.5 537.6,133.4 537.6,134.4 549.9,141.5 	"/>
</g>
<path class="st3" d="M760.4,24.4l-13.9-8c-0.5-0.3-1.1-0.2-1.4,0.3c-0.1,0.2-0.2,0.4-0.2,0.6v16.7c0,0.8,0.4,1.6,1.1,2L760,44
	c0.5,0.3,1.1,0.2,1.4-0.2c0.1-0.2,0.2-0.4,0.2-0.7V26.4C761.6,25.6,761.2,24.8,760.4,24.4z"/>
<path class="st3" d="M811.5,21.1l-13.9-8c-0.5-0.3-1.1-0.2-1.4,0.3c-0.1,0.2-0.2,0.4-0.2,0.6v16.6c0,0.8,0.4,1.6,1.1,2l13.9,8.1
	c0.5,0.3,1.1,0.2,1.4-0.3c0.1-0.2,0.2-0.4,0.2-0.6V23.2C812.6,22.4,812.2,21.6,811.5,21.1z"/>
<path class="st3" d="M822.5,85.3l-13.9-8c-0.5-0.3-1.1-0.2-1.4,0.3c-0.1,0.2-0.2,0.4-0.2,0.6v16.7c0,0.8,0.4,1.6,1.1,2l13.9,8.1
	c0.5,0.3,1.1,0.2,1.4-0.2c0.1-0.2,0.2-0.4,0.2-0.7V87.4C823.7,86.6,823.2,85.8,822.5,85.3z"/>
<path class="st3" d="M647.2,21.3l-13.9-8c-0.5-0.3-1.1-0.1-1.4,0.3c-0.1,0.2-0.2,0.4-0.1,0.6v16.7c0,0.8,0.4,1.6,1.1,2l13.9,8.1
	c0.5,0.3,1.1,0.2,1.4-0.2c0.1-0.2,0.2-0.4,0.2-0.7V23.3C648.4,22.5,647.9,21.7,647.2,21.3z"/>
<path class="st8" d="M648.8,175.3c-3.7,0-2.5-2.8-2.5-2.8c-5.5-1.7-8.2-0.7-8.2-0.7c-0.8,2.9-1.1,5.9-0.9,8.9c0,0.6,0.4,0.9,0.9,1.1
	c3,1.1,5.6,1.8,11.1,1.3c4-0.4,8.3-4.1,7.4-8C656.1,172.8,652.5,175.3,648.8,175.3z"/>
<path class="st9" d="M647.2,140.6c-1.1-1.4-2.9-2.6-6-1.8l-33.1,6.4l1.2,8.5c3.4,4.1,8.9,5.7,13.9,4.1c5.2-1.4,10.1-3.7,14.6-6.7
	l-1.1,23.5c3.3,0.9,6.8,0.5,9.8-1.2c0.8-0.5,1.5-23.1,1.7-28.9C648.5,143.1,648.1,141.7,647.2,140.6z"/>
<path class="st10" d="M664.7,182.1c-3.8,0-2.6-2.9-2.6-2.9c-5.7-1.7-8.5-0.8-8.5-0.8c-0.8,3-1.2,6.2-0.9,9.3c0,0.6,0.4,1.1,1,1.2
	c3.1,1.1,5.9,1.9,11.6,1.3c4.2-0.4,8.7-4.3,7.6-8.3C672.2,179.5,668.5,182.1,664.7,182.1z"/>
<polygon class="st6" points="627.1,172.8 598.7,156.4 598.7,160.4 627.1,176.7 "/>
<polygon class="st2" points="624.5,141.5 598.7,156.4 627.1,172.8 652.9,157.9 "/>
<polygon class="st11" points="652.9,157.9 627.1,172.8 627.1,176.7 652.9,161.8 "/>
<path class="st12" d="M663,146c-1.1-1.5-3-2.7-6.2-1.9l-34.3,6.6l1.3,8.8c3.5,4.2,9.2,5.9,14.5,4.3c5.4-1.5,10.5-3.8,15.2-6.9
	l-1.2,24.3c3.4,0.9,7.1,0.5,10.2-1.2c0.8-0.5,1.6-24,1.8-30C664.3,148.6,663.9,147.1,663,146z"/>
<path class="st13" d="M601.7,96.3l58.6-34c2.5-1.4,5.5-1.4,8,0l92.3,53.4c1.7,1,2.3,3.1,1.3,4.8c-0.3,0.5-0.8,1-1.3,1.3l-57.3,33.3
	c-3,1.7-6.6,1.7-9.5,0l-92.1-53.3c-1.5-0.9-2-2.8-1.2-4.3C600.7,97,601.2,96.6,601.7,96.3z"/>
<path class="st11" d="M601.7,101.8l92.1,53.3c3,1.7,6.6,1.7,9.5,0l57.3-33.3c1.1-0.6,1.7-1.8,1.8-3v4.5l0,0c0,1.2-0.7,2.4-1.8,3
	l-57.3,33.2c-3,1.7-6.6,1.7-9.5,0l-92.1-53.3c-1-0.6-1.6-1.6-1.6-2.8l0,0v-4.4C600.1,100.2,600.7,101.3,601.7,101.8z"/>
<path class="st6" d="M601.7,101.8l92.1,53.3c1.3,0.8,2.8,1.2,4.4,1.2v4.4c-1.5-0.1-3-0.5-4.4-1.2l-92.1-53.3c-1-0.6-1.6-1.6-1.6-2.8
	l0,0v-4.4C600.1,100.2,600.7,101.3,601.7,101.8z"/>
<path class="st14" d="M645,108.6l10-5.8c0.5-0.3,1-0.3,1.5,0l30.7,17.8c0.3,0.2,0.4,0.6,0.2,0.9c-0.1,0.1-0.1,0.2-0.2,0.2l-9.7,5.6
	c-0.6,0.3-1.2,0.3-1.8,0L645,109.7c-0.3-0.2-0.4-0.5-0.2-0.8C644.8,108.8,644.9,108.7,645,108.6z"/>
<path class="st15" d="M645,109.7l30.7,17.7c0.6,0.3,1.2,0.3,1.8,0l9.7-5.6c0.2-0.1,0.3-0.3,0.3-0.6v1.2l0,0c0,0.2-0.1,0.4-0.3,0.6
	l-9.7,5.6c-0.6,0.3-1.2,0.3-1.8,0L645,110.9c-0.2-0.1-0.3-0.3-0.3-0.5l0,0v-1.2C644.7,109.4,644.8,109.6,645,109.7z"/>
<polygon class="st16" points="654.8,104.5 656.1,103.8 657.5,104.6 656.2,105.3 "/>
<polygon class="st16" points="656.6,105.5 657.8,104.8 659.2,105.6 658,106.3 "/>
<polygon class="st16" points="658.3,106.5 659.6,105.8 661,106.6 659.8,107.4 "/>
<polygon class="st16" points="660.1,107.6 661.4,106.8 662.8,107.6 661.5,108.4 "/>
<polygon class="st16" points="661.9,108.6 663.1,107.8 664.5,108.7 663.3,109.4 "/>
<polygon class="st16" points="663.6,109.6 664.9,108.9 666.3,109.7 665.1,110.4 "/>
<polygon class="st16" points="665.4,110.6 666.7,109.9 668.1,110.7 666.8,111.4 "/>
<polygon class="st16" points="667.2,111.6 668.4,110.9 669.8,111.7 668.6,112.4 "/>
<polygon class="st16" points="668.9,112.6 670.2,111.9 671.6,112.7 670.4,113.5 "/>
<polygon class="st16" points="670.7,113.7 672,112.9 673.4,113.7 672.1,114.5 "/>
<polygon class="st16" points="672.5,114.7 673.7,113.9 675.1,114.8 673.9,115.5 "/>
<polygon class="st16" points="674.2,115.7 675.5,115 676.9,115.8 675.7,116.5 "/>
<polygon class="st16" points="677.2,116 678.7,116.8 677.4,117.5 676,116.7 "/>
<polygon class="st16" points="654.6,106.3 653.2,105.4 654.4,104.7 655.9,105.5 "/>
<polygon class="st16" points="657.6,106.5 656.4,107.3 655,106.5 656.2,105.7 "/>
<polygon class="st16" points="659.4,107.6 658.2,108.3 656.7,107.5 658,106.7 "/>
<polygon class="st16" points="661.2,108.6 659.9,109.3 658.5,108.5 659.7,107.8 "/>
<polygon class="st16" points="662.9,109.6 661.7,110.3 660.3,109.5 661.5,108.8 "/>
<polygon class="st16" points="664.7,110.6 663.4,111.3 662,110.5 663.3,109.8 "/>
<polygon class="st16" points="666.5,111.6 665.2,112.4 663.8,111.5 665,110.8 "/>
<polygon class="st16" points="668.2,112.6 667,113.4 665.6,112.6 666.8,111.8 "/>
<polygon class="st16" points="670,113.7 668.7,114.4 667.3,113.6 668.6,112.8 "/>
<polygon class="st16" points="671.8,114.7 670.5,115.4 669.1,114.6 670.3,113.9 "/>
<polygon class="st16" points="673.5,115.7 672.3,116.4 670.9,115.6 672.1,114.9 "/>
<polygon class="st16" points="675.3,116.7 674,117.4 672.6,116.6 673.9,115.9 "/>
<polygon class="st16" points="675.6,116.9 677.1,117.7 675.8,118.5 674.4,117.6 "/>
<polygon class="st16" points="653,107.2 651.6,106.4 652.8,105.7 654.2,106.5 "/>
<polygon class="st16" points="656,107.5 654.8,108.2 653.4,107.4 654.6,106.7 "/>
<polygon class="st16" points="655.1,108.4 656.4,107.7 657.8,108.5 656.5,109.2 "/>
<polygon class="st16" points="659.5,109.5 658.3,110.2 656.9,109.4 658.1,108.7 "/>
<polygon class="st16" points="661.3,110.5 660.1,111.3 658.7,110.4 659.9,109.7 "/>
<polygon class="st16" points="663.1,111.5 661.8,112.3 660.4,111.5 661.7,110.7 "/>
<polygon class="st16" points="664.8,112.6 663.6,113.3 662.2,112.5 663.4,111.7 "/>
<polygon class="st16" points="666.6,113.6 665.4,114.3 663.9,113.5 665.2,112.8 "/>
<polygon class="st16" points="668.4,114.6 667.1,115.3 665.7,114.5 667,113.8 "/>
<polygon class="st16" points="670.1,115.6 668.9,116.3 667.5,115.5 668.7,114.8 "/>
<polygon class="st16" points="671.9,116.6 670.7,117.4 669.2,116.5 670.5,115.8 "/>
<polygon class="st16" points="671,117.6 672.3,116.8 673.7,117.6 672.4,118.4 "/>
<polygon class="st16" points="674,117.8 675.4,118.7 674.2,119.4 672.8,118.6 "/>
<polygon class="st16" points="651.4,108.1 650,107.3 651.2,106.6 652.6,107.4 "/>
<polygon class="st16" points="651.7,108.3 653,107.6 654.4,108.4 653.2,109.1 "/>
<polygon class="st16" points="653.5,109.3 654.8,108.6 656.2,109.4 654.9,110.2 "/>
<polygon class="st16" points="655.3,110.4 656.5,109.6 657.9,110.4 656.7,111.2 "/>
<polygon class="st16" points="657,111.4 658.3,110.6 659.7,111.5 658.5,112.2 "/>
<polygon class="st16" points="658.8,112.4 660.1,111.7 661.5,112.5 660.2,113.2 "/>
<polygon class="st16" points="660.6,113.4 661.8,112.7 663.2,113.5 662,114.2 "/>
<polygon class="st16" points="662.3,114.4 663.6,113.7 665,114.5 663.8,115.2 "/>
<polygon class="st16" points="664.1,115.4 665.3,114.7 666.8,115.5 665.5,116.3 "/>
<polygon class="st16" points="665.9,116.5 667.1,115.7 668.5,116.5 667.3,117.3 "/>
<polygon class="st16" points="667.6,117.5 668.9,116.7 670.3,117.6 669.1,118.3 "/>
<polygon class="st16" points="669.4,118.5 670.6,117.8 672.1,118.6 670.8,119.3 "/>
<polygon class="st16" points="672.4,118.8 673.8,119.6 672.6,120.3 671.2,119.5 "/>
<polygon class="st16" points="649.8,109.1 648.4,108.2 649.6,107.5 651,108.3 "/>
<polygon class="st16" points="650.1,109.3 651.4,108.5 652.8,109.3 651.6,110.1 "/>
<polygon class="st16" points="651.9,110.3 653.1,109.6 654.6,110.4 653.3,111.1 "/>
<polygon class="st16" points="653.7,111.3 654.9,110.6 656.3,111.4 655.1,112.1 "/>
<polygon class="st16" points="655.4,112.3 656.7,111.6 658.1,112.4 656.8,113.1 "/>
<polygon class="st16" points="657.2,113.3 658.4,112.6 659.9,113.4 658.6,114.1 "/>
<polygon class="st16" points="659,114.3 660.2,113.6 661.6,114.4 660.4,115.2 "/>
<polygon class="st16" points="660.7,115.4 662,114.6 663.4,115.4 662.1,116.2 "/>
<polygon class="st16" points="662.5,116.4 663.7,115.6 665.2,116.5 663.9,117.2 "/>
<polygon class="st16" points="664.3,117.4 665.5,116.7 666.9,117.5 665.7,118.2 "/>
<polygon class="st16" points="666,118.4 667.3,117.7 668.7,118.5 667.4,119.2 "/>
<polygon class="st16" points="667.8,119.4 669,118.7 670.5,119.5 669.2,120.2 "/>
<polygon class="st16" points="670.8,119.7 672.2,120.5 671,121.3 669.6,120.4 "/>
<polygon class="st16" points="648,108.5 649.4,109.3 648.2,110 646.8,109.2 "/>
<polygon class="st16" points="651.2,110.3 649.9,111 648.5,110.2 649.8,109.5 "/>
<polygon class="st16" points="652.9,111.3 651.7,112 650.3,111.2 651.5,110.5 "/>
<polygon class="st16" points="654.7,112.3 653.5,113 652.1,112.2 653.3,111.5 "/>
<polygon class="st16" points="656.5,113.3 655.2,114.1 653.8,113.2 655.1,112.5 "/>
<polygon class="st16" points="658.2,114.3 657,115.1 655.6,114.3 656.8,113.5 "/>
<polygon class="st16" points="658.6,114.6 660.4,115.6 660.4,115.6 660.7,115.8 662.1,116.6 662.1,116.6 662.8,117 663.9,117.6 
	663.9,117.6 665,118.2 667.1,119.4 665.8,120.2 663.7,118.9 662.6,118.3 662.6,118.3 661.6,117.7 660.9,117.3 660.9,117.3 
	659.5,116.5 659.1,116.3 659.1,116.3 657.3,115.3 "/>
<polygon class="st16" points="668.8,120.4 667.6,121.2 666.2,120.4 667.4,119.6 "/>
<polygon class="st16" points="670.6,121.5 669.4,122.2 667.9,121.4 669.2,120.6 "/>
<polygon class="st16" points="679.5,118.7 680.8,118 682.2,118.8 681,119.5 "/>
<polygon class="st16" points="681.3,119.8 682.5,119 684,119.8 682.7,120.6 "/>
<polygon class="st16" points="683.1,120.8 684.3,120 685.7,120.9 684.5,121.6 "/>
<polygon class="st16" points="680.6,119.8 679.3,120.5 677.9,119.7 679.2,118.9 "/>
<polygon class="st16" points="682.3,120.8 681.1,121.5 679.7,120.7 680.9,120 "/>
<polygon class="st16" points="684.1,121.8 682.9,122.5 681.5,121.7 682.7,121 "/>
<polygon class="st16" points="679,120.7 677.7,121.4 676.3,120.6 677.6,119.9 "/>
<polygon class="st16" points="680.7,121.7 679.5,122.4 678.1,121.6 679.3,120.9 "/>
<polygon class="st16" points="682.5,122.7 681.3,123.4 679.8,122.6 681.1,121.9 "/>
<polygon class="st16" points="674.7,121.5 675.9,120.8 677.4,121.6 676.1,122.3 "/>
<polygon class="st16" points="676.5,122.6 677.7,121.8 679.1,122.6 677.9,123.4 "/>
<polygon class="st16" points="678.2,123.6 679.5,122.8 680.9,123.7 679.6,124.4 "/>
<polygon class="st16" points="673.1,122.5 674.3,121.7 675.7,122.6 674.5,123.3 "/>
<polygon class="st16" points="674.9,123.5 676.1,122.8 677.5,123.6 676.3,124.3 "/>
<polygon class="st16" points="676.6,124.5 677.9,123.8 679.3,124.6 678,125.3 "/>
<polygon class="st16" points="674.1,123.5 672.9,124.2 671.5,123.4 672.7,122.7 "/>
<polygon class="st16" points="675.9,124.5 674.7,125.2 673.2,124.4 674.5,123.7 "/>
<path class="st16" d="M667,99.1l9.8-5.7c0.4-0.2,0.9-0.2,1.3,0l23.2,13.4c0.3,0.2,0.4,0.5,0.2,0.8c0,0.1-0.1,0.1-0.2,0.2l-9.6,5.5
	c-0.5,0.3-1.1,0.3-1.6,0L667,100c-0.2-0.2-0.3-0.5-0.2-0.7C666.9,99.2,667,99.1,667,99.1z"/>
<path class="st17" d="M667,100l23.2,13.4c0.5,0.3,1.1,0.3,1.6,0l9.6-5.5c0.2-0.1,0.3-0.3,0.3-0.5v1.2l0,0c0,0.2-0.1,0.4-0.3,0.5
	l-9.6,5.5c-0.5,0.3-1.1,0.3-1.6,0L667,101.2c-0.2-0.1-0.3-0.3-0.3-0.5l0,0v-1.1C666.8,99.7,666.9,99.9,667,100z"/>
<path class="st15" d="M667,100l23.2,13.4c0.2,0.1,0.5,0.2,0.7,0.2v1.2c-0.3,0-0.5-0.1-0.7-0.2L667,101.2c-0.2-0.1-0.3-0.3-0.3-0.5
	l0,0v-1.2C666.8,99.7,666.9,99.9,667,100z"/>
<polygon class="st14" points="692.4,100 674.4,89.5 674.4,98.5 692.4,108.9 "/>
<polygon class="st17" points="676.9,88.1 674.4,89.5 692.4,100 695,98.5 "/>
<polygon class="st17" points="695,98.5 692.4,100 692.4,108.9 695,107.5 "/>
<linearGradient id="SVGID_1_" gradientUnits="userSpaceOnUse" x1="676.4421" y1="76.5203" x2="693.7121" y2="133.3203" gradientTransform="matrix(1 0 0 -1 0 180.1102)">
	<stop  offset="0" style="stop-color:#1C75BC"/>
	<stop  offset="0.28" style="stop-color:#2077BC"/>
	<stop  offset="0.54" style="stop-color:#2B7EBC"/>
	<stop  offset="0.8" style="stop-color:#3E88BC"/>
	<stop  offset="1" style="stop-color:#5394BC"/>
</linearGradient>
<polygon class="st18" points="656.1,44 711,75.9 711,116.2 656.1,84.3 "/>
<polygon class="st17" points="711,75.9 712.8,74.8 712.8,115.1 711,116.2 "/>
<polygon class="st16" points="656.1,44 658,43 712.8,74.8 711,75.9 "/>
<path class="st15" d="M656.1,44.1v40.2l54.9,31.9V75.9L656.1,44.1z M709.7,114l-52.3-30.4V46.3l52.3,30.3V114z"/>
<path class="st19" d="M635.8,93.9c-0.6,5.8-4.8,10.1-9.5,9.6s-8-5.5-7.4-11.3s4.8-10.1,9.5-9.6S636.4,88.1,635.8,93.9z"/>
<path class="st20" d="M642.8,107.3c0,0,2,0.5,2.7,0.6s3.4,0.6,4.5,0.3c1.1-0.3-1-1.1-1.5-1.4c-0.5-0.4-0.5-1.3,0.6-1.6
	c1.1-0.3,3.6-0.2,4.9-0.4s-1.3-4.2-3.5-4.5c-2-0.4-4.1-0.1-5.9,0.8c-1.8,0.9-2.8,2.4-3.7,2.7L642.8,107.3z"/>
<path class="st5" d="M643.1,101.9l-13.9,3.5l-0.7,8.8l16.4-5.6C645.2,105.5,643.1,101.9,643.1,101.9z"/>
<path class="st5" d="M608.7,105.6c0,0-3.9,4.8,0,11.5c0,0,2.7,3.7,10.1,0.1L608.7,105.6z"/>
<path class="st21" d="M620.2,100c0,0,6-0.4,10.7,2.9c0.3,0.7,0.7,1.2,1.3,1.6c0.9,0.6,5.6,2.5,5.6,2.5s-2.1,27.4,0.3,40.7
	c0,0-10.1,7.9-26,0c0,0-2.3-33.6-3.3-42C608.7,105.6,611.4,102.4,620.2,100z"/>
<polygon class="st6" points="617.5,145.1 589.1,128.7 598.7,156.4 627.1,172.8 "/>
<polygon class="st2" points="592.3,126.9 589.1,128.7 617.5,145.1 620.7,143.3 "/>
<polygon class="st11" points="620.7,143.3 617.5,145.1 627.1,172.8 630.3,170.9 "/>
<path class="st20" d="M661.5,119.5c0,0,1.5-1.6,2.1-2s2.7-2.4,3.8-2.7s-0.8,1.8-1.1,2.4s1.2-0.5,2.3-0.9c1.2-0.4,2.5-0.4,3.7,0.1
	c2.7,1,2.6,6.3,0.4,5.7c-3.6-1-5.2,1.8-7.4,2.4c-1,0.3-2,0.4-3,0.6L661.5,119.5z"/>
<path class="st5" d="M637.7,107l11.7,15.5l12.2-3.6c0,0,2.6,3.3,1.8,6.8l-16.3,6.3l-13.2-14.5C633.9,117.5,629.5,108.2,637.7,107z"
	/>
<path class="st10" d="M631.2,77.7c0,0,0.9,2.2-3.4,2.8s-9.7,2.7-11.1,7.3c-0.9,2.9,0.1,6,1.6,8.6c0.5,0.9,1.1,1.7,1.7,2.5
	c2.2,0.4,4.4,0,6.4-1.1c1.5-1.1,2.7-2.5,3.4-4.2c0,0,2.6,1.1,3.4-1.1c0.6-1.6,2.5-2,3.5-2.8C636.7,89.6,642.5,80.1,631.2,77.7z"/>
<polygon class="st6" points="847.3,135.5 828.5,124.6 828.5,131.6 847.3,142.5 "/>
<polygon class="st2" points="847.9,113.4 828.5,124.6 847.3,135.5 866.8,124.3 "/>
<polygon class="st11" points="866.8,124.3 847.3,135.5 847.3,142.5 866.8,131.2 "/>
<polygon class="st6" points="847.3,124 828.5,113.1 828.5,120.1 847.3,131 "/>
<polygon class="st2" points="847.9,101.9 828.5,113.1 847.3,124 866.8,112.8 "/>
<polygon class="st11" points="866.8,112.8 847.3,124 847.3,131 866.8,119.7 "/>
<polygon class="st6" points="912.5,123.9 893.7,113 893.7,120 912.5,130.9 "/>
<polygon class="st2" points="913.1,101.8 893.7,113 912.5,123.9 932,112.7 "/>
<polygon class="st11" points="932,112.7 912.5,123.9 912.5,130.9 932,119.7 "/>
<polygon class="st6" points="912.5,112.4 893.7,101.5 893.7,108.5 912.5,119.4 "/>
<polygon class="st2" points="913.1,90.3 893.7,101.5 912.5,112.4 932,101.2 "/>
<polygon class="st11" points="932,101.2 912.5,112.4 912.5,119.4 932,108.2 "/>
<polygon class="st6" points="530.7,84.3 511.9,73.4 511.9,80.4 530.7,91.3 "/>
<polygon class="st2" points="531.3,62.2 511.9,73.4 530.7,84.3 550.2,73.1 "/>
<polygon class="st11" points="550.2,73.1 530.7,84.3 530.7,91.3 550.2,80.1 "/>
<polygon class="st6" points="530.7,72.8 511.9,61.9 511.9,68.9 530.7,79.8 "/>
<polygon class="st2" points="531.3,50.7 511.9,61.9 530.7,72.8 550.2,61.6 "/>
<polygon class="st11" points="550.2,61.6 530.7,72.8 530.7,79.8 550.2,68.6 "/>
<path class="st9" d="M536.6,65.9l-1.2-0.7c-0.9,0.3-1.8,0.6-2.8,0.7v1h-2.9v-1c-0.9-0.1-1.9-0.3-2.8-0.7l-1.2,0.7l-2-1.2l1.2-0.7
	c-0.5-0.4-0.9-1-1.2-1.6h-1.7v-1.7h1.6c0.2-0.6,0.6-1.2,1.1-1.6l-1.1-0.6l2-1.2l1.2,0.7c0.9-0.3,1.8-0.6,2.8-0.7v-1h2.9v1
	c1,0.1,1.9,0.3,2.8,0.7l1.2-0.7l2,1.2l-1.2,0.7c0.5,0.4,0.9,1,1.2,1.6h1.7v1.7h-1.6c-0.2,0.6-0.6,1.2-1.1,1.6l1.2,0.7L536.6,65.9z
	 M528.5,63.2c1.7,0.8,3.7,0.8,5.3,0c1.5-0.9,1.5-2.2,0-3.1c-1.7-0.8-3.6-0.8-5.3,0C527,60.9,527,62.3,528.5,63.2"/>
<polygon class="st22" points="914.6,96.4 916.4,100.3 918.2,104.2 911.5,103.2 904.7,102.1 909.6,99.3 "/>
<path class="st23" d="M840.6,112c-1-0.6-0.6-1.4,1.4-2.6c0.8-0.5,1.7-0.8,2.6-1c0.6-0.2,1.3-0.1,1.8,0.2c0.2,0.1,0.4,0.3,0.5,0.5
	c0.1,0.2,0.2,0.3,0.2,0.5l1.8-0.4c-0.1-0.3-0.3-0.5-0.5-0.8c-0.2-0.2-0.5-0.4-0.8-0.6c-1-0.6-2.2-0.8-3.3-0.6
	c-1.4,0.2-2.8,0.7-4,1.4c-1,0.5-1.9,1.3-2.4,2.3c-0.2,0.7,0.1,1.4,1,1.9c0.6,0.4,1.3,0.6,2,0.7l1.4-0.8
	C841.7,112.5,841.1,112.3,840.6,112z"/>
<path class="st23" d="M849,114.1c0.2-0.4,0.2-0.9,0-1.3c-0.1-0.3-0.2-0.6-0.1-0.9c0.1-0.3,0.2-0.5,0.5-0.6c0.3-0.2,0.6-0.3,0.9-0.3
	c0.3,0,0.6,0.1,0.8,0.2c0.2,0.1,0.4,0.3,0.5,0.5c0.1,0.2,0.2,0.3,0.3,0.5l1.8-0.4c-0.3-0.6-0.7-1.1-1.3-1.4
	c-0.7-0.4-1.5-0.6-2.2-0.6c-0.8,0-1.6,0.2-2.3,0.6c-0.3,0.2-0.6,0.4-0.8,0.7c-0.2,0.2-0.3,0.4-0.3,0.7c0,0.3,0,0.6,0.1,0.9
	c0.1,0.3,0.2,0.7,0.1,1c-0.1,0.3-0.2,0.5-0.5,0.6c-0.3,0.2-0.6,0.2-0.9,0.2c-0.3,0-0.6-0.1-0.9-0.2c-0.5-0.3-0.9-0.8-1.1-1.4
	l-1.5,0.9c0.3,0.6,0.8,1,1.4,1.3c0.7,0.4,1.5,0.6,2.3,0.6c0.8,0,1.7-0.3,2.4-0.7C848.5,114.9,848.8,114.5,849,114.1z"/>
<path class="st23" d="M857.2,113.2c-0.7-0.4-1.5-0.6-2.2-0.6c-0.8,0-1.6,0.2-2.3,0.6c-0.3,0.2-0.6,0.4-0.8,0.7
	c-0.2,0.2-0.3,0.4-0.3,0.7c0,0.3,0,0.6,0.1,0.9c0.1,0.3,0.2,0.7,0.1,1c-0.1,0.3-0.3,0.5-0.5,0.6c-0.3,0.2-0.6,0.2-0.9,0.2
	c-0.3,0-0.6-0.1-0.9-0.2c-0.5-0.3-0.9-0.8-1.1-1.4l-1.5,0.9c0.3,0.6,0.8,1,1.4,1.3c0.7,0.4,1.5,0.6,2.3,0.6c0.8,0,1.7-0.3,2.4-0.7
	c0.4-0.2,0.8-0.5,1-0.9c0.2-0.4,0.2-0.9,0-1.3c-0.1-0.3-0.2-0.6-0.1-0.9c0.1-0.3,0.3-0.5,0.5-0.6c0.3-0.2,0.6-0.2,0.9-0.3
	c0.3,0,0.6,0,0.8,0.2c0.2,0.1,0.4,0.3,0.5,0.5c0.1,0.2,0.2,0.3,0.3,0.5l1.8-0.4C858.2,114,857.8,113.5,857.2,113.2z"/>
<path class="st24" d="M802.9,87.4l-18.3-10.5c-0.6-0.3-1.3-0.3-1.8,0.1l0,0l-4,2.3l1.9,2.5l0.7,0.8v18.1c0,1.1,0.6,2.1,1.5,2.6
	l13.7,7.9l0.1,0.8l2.8,3.9l4.3-2.5l0,0l0,0l0,0c0.4-0.3,0.7-0.7,0.7-1.2v-22C804.4,89,803.8,88,802.9,87.4z"/>
<path class="st25" d="M798.6,89.9l-18.5-10.7c-0.7-0.4-1.5-0.1-1.8,0.5c-0.1,0.2-0.2,0.4-0.2,0.6v22.2c0,1.1,0.6,2.1,1.5,2.6
	l18.5,10.7c0.7,0.4,1.5,0.1,1.9-0.5c0.1-0.2,0.2-0.4,0.2-0.7V92.6C800.2,91.5,799.6,90.4,798.6,89.9z"/>
<path class="st6" d="M799.5,115.8L799.5,115.8L799.5,115.8z"/>
<path class="st26" d="M800.2,114.6V92.6c0-0.4-0.1-0.7-0.2-1.1l4.3-2.5c0.1,0.3,0.2,0.7,0.2,1v22c0,0.5-0.2,0.9-0.7,1.2l0,0l0,0l0,0
	l-4.2,2.5C799.9,115.5,800.1,115.1,800.2,114.6z"/>
<path class="st27" d="M844.7,60.4l-18.3-10.5c-0.6-0.3-1.3-0.3-1.8,0.1l0,0l-4,2.3l1.9,2.5l0.7,0.8v18.1c0,1.1,0.6,2.1,1.5,2.6
	l13.7,7.9l0.1,0.8l2.8,3.9l4.3-2.5l0,0l0,0c0.4-0.2,0.7-0.7,0.7-1.2v-22C846.3,62,845.7,61,844.7,60.4z"/>
<path class="st28" d="M840.5,62.9L822,52.2c-0.7-0.4-1.5-0.1-1.8,0.6c-0.1,0.2-0.2,0.4-0.2,0.6v22.2c0,1.1,0.6,2.1,1.5,2.6L840,88.9
	c0.7,0.4,1.5,0.1,1.9-0.5c0.1-0.2,0.2-0.4,0.2-0.7V65.6C842.1,64.5,841.5,63.4,840.5,62.9z"/>
<path class="st6" d="M809.4,59.8L809.4,59.8L809.4,59.8z"/>
<path class="st29" d="M842.1,87.6V65.6c0-0.4-0.1-0.7-0.2-1.1l4.3-2.5c0.1,0.3,0.2,0.7,0.2,1v22c0,0.5-0.2,0.9-0.7,1.2l0,0l0,0
	l-4.3,2.5C841.8,88.5,842,88.1,842.1,87.6z"/>
<path class="st30" d="M751.7,31.7l-18.3-10.5c-0.6-0.3-1.3-0.3-1.8,0.1l0,0l-4,2.3l1.9,2.5l0.7,0.8V45c0,1.1,0.6,2.1,1.5,2.6
	l13.7,7.9l0.1,0.8l2.8,3.9l4.3-2.5l0,0l0,0c0.4-0.3,0.7-0.7,0.6-1.2v-22C753.3,33.4,752.7,32.3,751.7,31.7z"/>
<path class="st31" d="M747.4,34.2L729,23.6c-0.7-0.4-1.5-0.1-1.8,0.5c-0.1,0.2-0.2,0.4-0.2,0.6v22.1c0,1.1,0.6,2.1,1.5,2.6
	l18.5,10.7c0.7,0.4,1.5,0.1,1.9-0.5c0.1-0.2,0.2-0.4,0.2-0.7V37C749,35.8,748.4,34.8,747.4,34.2z"/>
<path class="st6" d="M748.3,60.1L748.3,60.1L748.3,60.1z"/>
<path class="st32" d="M749,58.9v-22c0-0.4-0.1-0.7-0.2-1.1l4.3-2.5c0.1,0.3,0.2,0.7,0.2,1v22c0,0.5-0.2,0.9-0.7,1.2l0,0l0,0
	l-4.3,2.5C748.7,59.8,749,59.4,749,58.9z"/>
<path class="st33" d="M623.7,26.1l-18.3-10.5c-0.6-0.3-1.3-0.3-1.8,0.1l0,0l-4,2.3l1.9,2.5l0.7,0.8v18.1c0,1.1,0.6,2.1,1.5,2.6
	l13.7,7.9l0.1,0.8l2.8,3.9l4.3-2.5l0,0l0,0c0.4-0.2,0.7-0.7,0.7-1.2v-22C625.3,27.7,624.7,26.6,623.7,26.1z"/>
<path class="st34" d="M619.4,28.6L601,17.9c-0.7-0.4-1.5-0.1-1.8,0.6c-0.1,0.2-0.2,0.4-0.2,0.6v22.1c0,1.1,0.6,2.1,1.5,2.6
	l18.5,10.7c0.7,0.4,1.5,0.1,1.9-0.5c0.1-0.2,0.2-0.4,0.2-0.7v-22C621,30.2,620.4,29.1,619.4,28.6z"/>
<path class="st6" d="M708.3,17.5L708.3,17.5L708.3,17.5z"/>
<path class="st35" d="M621,53.3v-22c0-0.4-0.1-0.7-0.2-1.1l4.3-2.5c0.1,0.3,0.2,0.7,0.2,1v22c0,0.5-0.2,0.9-0.7,1.2l0,0l0,0
	l-4.2,2.5C620.7,54.2,621,53.7,621,53.3z"/>
<path class="st2" d="M743.8,38.6c-1-1.8-2.4-3.2-4.1-4.3c-1.2-0.9-2.7-1-4.1-0.4c-2,1.1-2.2,4.6-0.7,8l-5,2.9l1.5,2.5l5-2.9
	c0.9,1.2,2,2.3,3.3,3.1c1.2,0.9,2.7,1,4.1,0.4C746,46.6,746,42.4,743.8,38.6z M742.3,45.4c-0.9,0.4-1.8,0.3-2.6-0.3
	c-1.1-0.7-2-1.6-2.6-2.7c-1.4-2.5-1.4-5.2,0-6c0.9-0.4,1.8-0.3,2.6,0.3c1.1,0.7,2,1.6,2.6,2.8C743.7,41.9,743.7,44.6,742.3,45.4z"/>
<path class="st28" d="M604.7,30.5c0.3,0.2,0.6,0.4,0.8,0.6c0.3,0.3,0.6,0.6,0.8,0.9l0.5-1.2c-0.6-0.7-1.4-1.4-2.2-1.9
	c-0.6-0.4-1.2-0.6-1.9-0.5c-0.5,0-1,0.4-1.2,0.8c-0.3,0.7-0.5,1.4-0.4,2.1c0,1.3,0.3,2.6,0.9,3.8c0.6,1.1,1.4,2,2.5,2.6
	c0.6,0.4,1.3,0.7,2.1,0.8v-1.5c-0.7-0.1-1.3-0.3-1.9-0.6c-1.2-0.7-1.9-2-1.9-4c-0.1-0.7,0.1-1.3,0.5-1.9
	C603.7,30.1,604.2,30.1,604.7,30.5z"/>
<polygon class="st28" points="610.9,34 609.7,33.4 609.7,35.7 607.8,34.5 607.8,35.8 609.7,37 609.7,39.2 610.8,39.9 610.9,37.6 
	612.8,38.7 612.8,37.5 610.9,36.3 "/>
<polygon class="st28" points="616.8,39.8 616.9,37.5 615.7,36.8 615.7,39.1 613.7,38 613.7,39.3 615.7,40.4 615.7,42.7 616.8,43.3 
	616.8,41.1 618.8,42.2 618.8,40.9 "/>
<path class="st2" d="M826,61.5c-0.2,0.4-0.3,0.8-0.3,1.2v2.7c0,0.5-0.2,0.8-0.5,0.8c-0.5,0-1-0.2-1.4-0.5v1.8c0.5,0.3,1,0.7,1.4,1.1
	c0.3,0.4,0.5,0.9,0.5,1.4v2.6c0,0.5,0.1,1.1,0.3,1.6c0.2,0.5,0.6,0.9,1,1.3c0.5,0.5,1.1,0.9,1.8,1.3v-1.7c-0.4-0.2-0.7-0.5-1-0.9
	c-0.2-0.3-0.3-0.6-0.3-1v-2.6c-0.1-1.1-0.7-2.2-1.7-2.7v-0.1c1.1,0.4,1.6,0.1,1.7-0.9v-2.5c0-0.4,0.1-0.6,0.3-0.7s0.5,0,1,0.3v-1.7
	c-0.6-0.3-1.2-0.6-1.8-0.8C826.7,61.2,826.3,61.2,826,61.5z"/>
<path class="st2" d="M836.4,72.7c-0.3-0.4-0.5-0.9-0.5-1.4v-2.7c0-0.8-0.2-1.6-0.7-2.2c-0.6-0.8-1.4-1.4-2.3-1.9v1.7
	c0.4,0.2,0.7,0.5,1,0.9c0.2,0.3,0.3,0.6,0.3,1v2.5c0.1,1.2,0.7,2.2,1.7,2.9v0.1c-0.4-0.2-0.8-0.3-1.2-0.1c-0.3,0.1-0.4,0.5-0.4,1V77
	c0,0.4-0.1,0.6-0.3,0.7s-0.5,0-1-0.3v1.7c0.7,0.5,1.5,0.8,2.4,0.8c0.5-0.1,0.7-0.6,0.7-1.4V76c0-0.5,0.2-0.8,0.5-0.9
	c0.5,0,1,0.2,1.4,0.5v-1.8C837.2,73.5,836.8,73.1,836.4,72.7z"/>
<polygon class="st16" points="780.4,93.5 786.2,99.7 786.2,98.1 782.2,94 786.2,94.1 786.2,92.6 780.4,92.5 "/>
<polygon class="st16" points="786.8,101.4 788.4,102.3 791.5,94.4 789.9,93.5 "/>
<polygon class="st16" points="792.1,96 792.1,97.6 796,101.9 792.1,101.5 792.1,103.1 797.8,103.5 797.8,102.6 "/>
<polygon class="st34" points="663,52.4 663,53.5 667.5,56.1 667.5,55 "/>
<polygon class="st36" points="663,54.4 663,55.5 667.5,58.1 667.5,57 "/>
<polygon class="st36" points="663,56.3 663,57.4 667.5,60 667.5,58.9 "/>
<polygon class="st36" points="696.9,78.9 696.9,77.9 669.2,61.9 669.2,62.9 "/>
<polygon class="st36" points="663,58.3 663,59.4 667.5,62 667.5,60.9 "/>
<polygon class="st36" points="663,60.3 663,61.3 667.5,63.9 667.5,62.8 "/>
<polygon class="st25" points="696.9,80.9 696.9,79.8 669.2,63.8 669.2,64.9 "/>
<polygon class="st36" points="663,66.1 663,67.2 667.5,69.8 667.5,68.7 "/>
<polygon class="st34" points="663,68.1 663,69.1 667.5,71.7 667.5,70.7 "/>
<polygon class="st36" points="663,75.9 663,77 667.5,79.6 667.5,78.5 "/>
<polygon class="st36" points="663,77.9 663,78.9 667.5,81.5 667.5,80.4 "/>
<polygon class="st25" points="686.7,91.5 669.2,81.4 669.2,82.5 686.7,92.6 "/>
<polygon class="st36" points="687.6,92 687.6,93.1 696.9,98.5 696.9,97.4 "/>
<polygon class="st36" points="678,84.5 669.2,79.5 669.2,80.5 678,85.6 "/>
<polygon class="st36" points="678.9,85.1 678.9,86.1 696.9,96.5 696.9,95.5 "/>
<polygon class="st36" points="694.5,88.2 694.5,89.3 696.9,90.7 696.9,89.6 "/>
<polygon class="st5" points="681.6,78.8 669.2,71.6 669.2,72.7 681.6,79.9 "/>
<polygon class="st36" points="676.5,60.2 669.2,56 669.2,57.1 676.5,61.3 "/>
<polygon class="st36" points="688.6,67.2 677.4,60.8 677.4,61.8 688.6,68.3 "/>
<polygon class="st36" points="682.1,65.4 674.2,60.9 674.2,62 682.1,66.5 "/>
<polygon class="st5" points="690.3,70.2 683,65.9 683,67 690.3,71.2 "/>
<polygon class="st36" points="691.2,70.7 691.2,71.8 696.9,75 696.9,74 "/>
<polygon class="st5" points="670.6,60.7 670.6,61.8 676.5,65.2 676.5,64.2 "/>
<polygon class="st36" points="694.6,74.6 677.4,64.7 677.4,65.8 694.6,75.7 "/>
<polygon class="st36" points="684.8,74.8 673.6,68.3 673.6,69.4 684.8,75.9 "/>
<polygon class="st36" points="694.6,80.4 685.7,75.3 685.7,76.4 694.6,81.5 "/>
<polygon class="st36" points="693.6,85.7 682.6,79.4 682.6,80.4 693.6,86.8 "/>
<polygon class="st25" points="687.6,84.2 687.6,85.3 693.6,88.8 693.6,87.7 "/>
<polygon class="st36" points="671.3,74.8 669.2,73.6 669.2,74.7 671.3,75.9 "/>
<polygon class="st36" points="675.4,77.2 675.4,78.3 686.7,84.8 686.7,83.7 "/>
<polygon class="st36" points="674.5,76.7 672.3,75.4 672.3,76.5 674.5,77.7 "/>
<polygon class="st36" points="684.6,84.4 672.3,77.3 672.3,78.4 684.6,85.5 "/>
<polygon class="st36" points="698.9,73.1 698.9,73.4 700.1,74.2 700.1,73.9 "/>
<polygon class="st36" points="698.9,73.7 698.9,74 700.1,74.7 700.1,74.4 "/>
<polygon class="st36" points="698.9,74.2 698.9,74.5 700.1,75.2 700.1,74.9 "/>
<polygon class="st36" points="708.2,80.4 708.2,80.2 700.6,75.7 700.6,76 "/>
<polygon class="st36" points="698.9,74.8 698.9,75.1 700.1,75.8 700.1,75.5 "/>
<polygon class="st36" points="698.9,75.3 698.9,75.6 700.1,76.3 700.1,76 "/>
<polygon class="st36" points="708.2,81 708.2,80.7 700.6,76.3 700.6,76.6 "/>
<polygon class="st36" points="698.9,76.9 698.9,77.2 700.1,77.9 700.1,77.6 "/>
<polygon class="st36" points="698.9,77.5 698.9,77.7 700.1,78.5 700.1,78.2 "/>
<polygon class="st36" points="698.9,79.6 698.9,79.9 700.1,80.6 700.1,80.3 "/>
<polygon class="st36" points="698.9,80.1 698.9,80.4 700.1,81.2 700.1,80.9 "/>
<polygon class="st36" points="705.4,83.9 700.6,81.1 700.6,81.4 705.4,84.2 "/>
<polygon class="st36" points="705.6,84.1 705.6,84.4 708.2,85.8 708.2,85.5 "/>
<polygon class="st36" points="703,82 700.6,80.6 700.6,80.9 703,82.3 "/>
<polygon class="st36" points="703.2,82.1 703.2,82.4 708.2,85.3 708.2,85 "/>
<polygon class="st36" points="707.6,83 707.6,83.3 708.2,83.7 708.2,83.4 "/>
<polygon class="st36" points="704,80.4 700.6,78.4 700.6,78.7 704,80.7 "/>
<polygon class="st36" points="702.6,75.3 700.6,74.1 700.6,74.4 702.6,75.6 "/>
<polygon class="st36" points="705.9,77.2 702.8,75.4 702.8,75.7 705.9,77.5 "/>
<polygon class="st36" points="704.1,76.7 702,75.5 702,75.8 704.1,77 "/>
<polygon class="st36" points="706.4,78 704.4,76.9 704.4,77.2 706.4,78.3 "/>
<polygon class="st36" points="706.7,78.2 706.7,78.5 708.2,79.4 708.2,79.1 "/>
<polygon class="st36" points="701,75.4 701,75.7 702.6,76.7 702.6,76.4 "/>
<polygon class="st36" points="707.6,79.2 702.8,76.5 702.8,76.8 707.6,79.5 "/>
<polygon class="st36" points="704.9,79.3 701.8,77.5 701.8,77.8 704.9,79.6 "/>
<polygon class="st36" points="707.6,80.9 705.1,79.5 705.1,79.7 707.6,81.2 "/>
<polygon class="st36" points="707.3,82.3 704.3,80.6 704.3,80.9 707.3,82.6 "/>
<polygon class="st36" points="705.6,81.9 705.6,82.2 707.3,83.2 707.3,82.9 "/>
<polygon class="st36" points="701.2,79.3 700.6,79 700.6,79.3 701.2,79.6 "/>
<polygon class="st36" points="702.3,80 702.3,80.3 705.4,82.1 705.4,81.8 "/>
<polygon class="st36" points="702,79.8 701.4,79.5 701.4,79.8 702,80.1 "/>
<polygon class="st36" points="704.8,82 701.4,80 701.4,80.3 704.8,82.3 "/>
<polygon class="st36" points="698.9,82.3 698.9,82.6 700.1,83.3 700.1,83 "/>
<polygon class="st36" points="698.9,82.8 698.9,83.1 700.1,83.8 700.1,83.5 "/>
<polygon class="st36" points="698.9,83.3 698.9,83.6 700.1,84.3 700.1,84.1 "/>
<polygon class="st36" points="708.2,89.6 708.2,89.3 700.6,84.9 700.6,85.2 "/>
<polygon class="st36" points="698.9,83.9 698.9,84.2 700.1,84.9 700.1,84.6 "/>
<polygon class="st36" points="698.9,84.4 698.9,84.7 700.1,85.4 700.1,85.1 "/>
<polygon class="st36" points="708.2,90.1 708.2,89.8 700.6,85.4 700.6,85.7 "/>
<polygon class="st36" points="698.9,86 698.9,86.3 700.1,87 700.1,86.7 "/>
<polygon class="st36" points="698.9,86.6 698.9,86.9 700.1,87.6 700.1,87.3 "/>
<polygon class="st36" points="698.9,88.7 698.9,89 700.1,89.7 700.1,89.4 "/>
<polygon class="st36" points="698.9,89.3 698.9,89.6 700.1,90.3 700.1,90 "/>
<polygon class="st36" points="705.4,93 700.6,90.2 700.6,90.5 705.4,93.3 "/>
<polygon class="st36" points="705.6,93.2 705.6,93.5 708.2,95 708.2,94.7 "/>
<polygon class="st36" points="703,91.1 700.6,89.7 700.6,90 703,91.4 "/>
<polygon class="st36" points="703.2,91.3 703.2,91.5 708.2,94.4 708.2,94.1 "/>
<polygon class="st36" points="707.6,92.1 707.6,92.4 708.2,92.8 708.2,92.5 "/>
<polygon class="st36" points="704,89.5 700.6,87.6 700.6,87.8 704,89.8 "/>
<polygon class="st36" points="702.6,84.4 700.6,83.2 700.6,83.5 702.6,84.7 "/>
<polygon class="st36" points="705.9,86.3 702.8,84.6 702.8,84.9 705.9,86.6 "/>
<polygon class="st36" points="704.1,85.8 702,84.6 702,84.9 704.1,86.1 "/>
<polygon class="st36" points="706.4,87.1 704.4,86 704.4,86.3 706.4,87.4 "/>
<polygon class="st36" points="706.7,87.3 706.7,87.6 708.2,88.5 708.2,88.2 "/>
<polygon class="st36" points="701,84.6 701,84.8 702.6,85.8 702.6,85.5 "/>
<polygon class="st36" points="707.6,88.4 702.8,85.6 702.8,85.9 707.6,88.7 "/>
<polygon class="st36" points="704.9,88.4 701.8,86.6 701.8,86.9 704.9,88.7 "/>
<polygon class="st36" points="707.6,90 705.1,88.6 705.1,88.9 707.6,90.3 "/>
<polygon class="st36" points="707.3,91.4 704.3,89.7 704.3,90 707.3,91.7 "/>
<polygon class="st36" points="705.6,91 705.6,91.3 707.3,92.3 707.3,92 "/>
<polygon class="st36" points="701.2,88.4 700.6,88.1 700.6,88.4 701.2,88.7 "/>
<polygon class="st36" points="702.3,89.1 702.3,89.4 705.4,91.2 705.4,90.9 "/>
<polygon class="st36" points="702,88.9 701.4,88.6 701.4,88.9 702,89.2 "/>
<polygon class="st36" points="704.8,91.1 701.4,89.1 701.4,89.4 704.8,91.4 "/>
<polygon class="st36" points="698.9,91.4 698.9,91.7 700.1,92.4 700.1,92.1 "/>
<polygon class="st36" points="698.9,91.9 698.9,92.2 700.1,92.9 700.1,92.6 "/>
<polygon class="st36" points="698.9,92.5 698.9,92.8 700.1,93.5 700.1,93.2 "/>
<polygon class="st36" points="708.2,98.7 708.2,98.4 700.6,94 700.6,94.3 "/>
<polygon class="st36" points="698.9,93 698.9,93.3 700.1,94 700.1,93.7 "/>
<polygon class="st36" points="698.9,93.5 698.9,93.8 700.1,94.5 700.1,94.2 "/>
<polygon class="st36" points="708.2,99.2 708.2,98.9 700.6,94.5 700.6,94.8 "/>
<polygon class="st36" points="698.9,95.2 698.9,95.4 700.1,96.2 700.1,95.9 "/>
<polygon class="st36" points="698.9,95.7 698.9,96 700.1,96.7 700.1,96.4 "/>
<polygon class="st36" points="698.9,97.8 698.9,98.1 700.1,98.9 700.1,98.6 "/>
<polygon class="st36" points="698.9,98.4 698.9,98.7 700.1,99.4 700.1,99.1 "/>
<polygon class="st36" points="705.4,102.1 700.6,99.4 700.6,99.7 705.4,102.4 "/>
<polygon class="st36" points="705.6,102.3 705.6,102.6 708.2,104.1 708.2,103.8 "/>
<polygon class="st36" points="703,100.2 700.6,98.8 700.6,99.1 703,100.5 "/>
<polygon class="st36" points="703.2,100.4 703.2,100.7 708.2,103.5 708.2,103.2 "/>
<polygon class="st36" points="707.6,101.2 707.6,101.5 708.2,101.9 708.2,101.6 "/>
<polygon class="st36" points="704,98.7 700.6,96.7 700.6,97 704,98.9 "/>
<polygon class="st36" points="702.6,93.5 700.6,92.4 700.6,92.7 702.6,93.8 "/>
<polygon class="st36" points="705.9,95.4 702.8,93.7 702.8,94 705.9,95.7 "/>
<polygon class="st36" points="704.1,95 702,93.7 702,94 704.1,95.2 "/>
<polygon class="st36" points="706.4,96.3 704.4,95.1 704.4,95.4 706.4,96.6 "/>
<polygon class="st36" points="706.7,96.4 706.7,96.7 708.2,97.6 708.2,97.3 "/>
<polygon class="st36" points="701,93.7 701,94 702.6,94.9 702.6,94.6 "/>
<polygon class="st36" points="707.6,97.5 702.8,94.8 702.8,95 707.6,97.8 "/>
<polygon class="st36" points="704.9,97.5 701.8,95.8 701.8,96 704.9,97.8 "/>
<polygon class="st36" points="707.6,99.1 705.1,97.7 705.1,98 707.6,99.4 "/>
<polygon class="st36" points="707.3,100.6 704.3,98.8 704.3,99.1 707.3,100.9 "/>
<polygon class="st36" points="705.6,100.1 705.6,100.4 707.3,101.4 707.3,101.1 "/>
<polygon class="st36" points="701.2,97.6 700.6,97.2 700.6,97.5 701.2,97.8 "/>
<polygon class="st36" points="702.3,98.2 702.3,98.5 705.4,100.3 705.4,100 "/>
<polygon class="st36" points="702,98.1 701.4,97.7 701.4,98 702,98.3 "/>
<polygon class="st36" points="704.8,100.2 701.4,98.2 701.4,98.5 704.8,100.5 "/>
<polygon class="st36" points="698.9,100.5 698.9,100.8 700.1,101.5 700.1,101.2 "/>
<polygon class="st36" points="698.9,101 698.9,101.3 700.1,102 700.1,101.7 "/>
<polygon class="st36" points="698.9,101.6 698.9,101.9 700.1,102.6 700.1,102.3 "/>
<polygon class="st36" points="708.2,107.8 708.2,107.5 700.6,103.1 700.6,103.4 "/>
<polygon class="st36" points="698.9,102.1 698.9,102.4 700.1,103.1 700.1,102.8 "/>
<polygon class="st36" points="698.9,102.7 698.9,102.9 700.1,103.7 700.1,103.4 "/>
<polygon class="st36" points="708.2,108.3 708.2,108 700.6,103.6 700.6,103.9 "/>
<polygon class="st36" points="698.9,104.3 698.9,104.6 700.1,105.3 700.1,105 "/>
<polygon class="st36" points="698.9,104.8 698.9,105.1 700.1,105.8 700.1,105.5 "/>
<polygon class="st36" points="707.6,110.4 707.6,110.7 708.2,111 708.2,110.7 "/>
<polygon class="st36" points="704,107.8 700.6,105.8 700.6,106.1 704,108.1 "/>
<polygon class="st36" points="702.6,102.6 700.6,101.5 700.6,101.8 702.6,102.9 "/>
<polygon class="st36" points="705.9,104.6 702.8,102.8 702.8,103.1 705.9,104.9 "/>
<polygon class="st36" points="704.1,104.1 702,102.8 702,103.1 704.1,104.4 "/>
<polygon class="st36" points="706.4,105.4 704.4,104.2 704.4,104.5 706.4,105.7 "/>
<polygon class="st36" points="706.7,105.5 706.7,105.8 708.2,106.7 708.2,106.4 "/>
<polygon class="st36" points="701,102.8 701,103.1 702.6,104 702.6,103.7 "/>
<polygon class="st36" points="707.6,106.6 702.8,103.9 702.8,104.2 707.6,106.9 "/>
<polygon class="st36" points="704.9,106.7 701.8,104.9 701.8,105.2 704.9,106.9 "/>
<polygon class="st36" points="707.6,108.2 705.1,106.8 705.1,107.1 707.6,108.5 "/>
<polygon class="st36" points="707.3,109.7 704.3,107.9 704.3,108.2 707.3,110 "/>
<polygon class="st36" points="705.6,109.3 705.6,109.6 707.3,110.5 707.3,110.2 "/>
<polygon class="st36" points="701.2,106.7 700.6,106.3 700.6,106.6 701.2,107 "/>
<polygon class="st36" points="702.3,107.3 702.3,107.6 705.4,109.4 705.4,109.1 "/>
<polygon class="st36" points="702,107.2 701.4,106.8 701.4,107.1 702,107.5 "/>
<polygon class="st36" points="704.8,109.3 701.4,107.4 701.4,107.7 704.8,109.6 "/>
<path class="st25" d="M660.1,50.8l-1.5-0.9c-0.1,0-0.1,0-0.2,0c0,0,0,0,0,0.1v1.8c0,0.1,0,0.2,0.1,0.2l1.5,0.9c0.1,0,0.1,0,0.1,0
	c0,0,0,0,0-0.1V51C660.2,50.9,660.2,50.8,660.1,50.8z"/>
<path class="st25" d="M660.1,53.4l-1.5-0.9c-0.1,0-0.1,0-0.2,0c0,0,0,0,0,0.1v1.8c0,0.1,0,0.2,0.1,0.2l1.5,0.9c0.1,0,0.1,0,0.1,0
	c0,0,0,0,0-0.1v-1.8C660.2,53.6,660.2,53.5,660.1,53.4z"/>
<path class="st25" d="M660.1,56.1l-1.5-0.9c-0.1,0-0.1,0-0.2,0c0,0,0,0,0,0.1v1.8c0,0.1,0.1,0.2,0.1,0.2l1.5,0.9c0,0,0.1,0,0.1,0
	c0,0,0,0,0-0.1v-1.8C660.2,56.2,660.2,56.1,660.1,56.1z"/>
<path class="st25" d="M660.1,58.7l-1.5-0.9c-0.1,0-0.1,0-0.2,0c0,0,0,0,0,0.1v1.8c0,0.1,0,0.2,0.1,0.2l1.5,0.9c0.1,0,0.1,0,0.1,0
	c0,0,0,0,0-0.1v-1.8C660.2,58.9,660.2,58.8,660.1,58.7z"/>
<path class="st25" d="M660.1,61.4l-1.5-0.9c-0.1,0-0.1,0-0.2,0c0,0,0,0,0,0.1v1.8c0,0.1,0,0.2,0.1,0.2l1.5,0.9c0.1,0,0.1,0,0.1,0
	c0,0,0,0,0-0.1v-1.8C660.2,61.5,660.2,61.4,660.1,61.4z"/>
<path class="st25" d="M660.1,64l-1.5-0.9c-0.1,0-0.1,0-0.2,0c0,0,0,0,0,0.1v1.8c0,0.1,0.1,0.2,0.1,0.2l1.5,0.9c0.1,0,0.1,0,0.1,0
	c0,0,0,0,0,0v-1.8C660.2,64.2,660.2,64.1,660.1,64z"/>
<path class="st25" d="M660.1,66.7l-1.5-0.9c-0.1,0-0.1,0-0.2,0c0,0,0,0,0,0.1v1.8c0,0.1,0,0.2,0.1,0.2l1.5,0.9c0.1,0,0.1,0,0.1,0
	c0,0,0,0,0-0.1v-1.8C660.2,66.8,660.2,66.7,660.1,66.7z"/>
<path class="st25" d="M660.1,69.3l-1.5-0.9c-0.1,0-0.1,0-0.2,0.1c0,0,0,0,0,0v1.8c0,0.1,0,0.2,0.1,0.2l1.5,0.9c0.1,0,0.1,0,0.1,0
	c0,0,0,0,0-0.1v-1.8C660.2,69.5,660.2,69.4,660.1,69.3z"/>
<path class="st25" d="M660.1,72l-1.5-0.9c-0.1,0-0.1,0-0.2,0c0,0,0,0,0,0.1V73c0,0.1,0.1,0.2,0.1,0.2l1.5,0.9c0.1,0,0.1,0,0.1,0
	c0,0,0,0,0,0v-1.8C660.2,72.1,660.2,72,660.1,72z"/>
<path class="st25" d="M660.1,74.7l-1.5-0.9c-0.1,0-0.1,0-0.2,0c0,0,0,0,0,0.1v1.8c0,0.1,0.1,0.2,0.1,0.2l1.5,0.9c0,0,0.1,0,0.1,0
	c0,0,0,0,0-0.1v-1.8C660.2,74.8,660.2,74.7,660.1,74.7z"/>
<path class="st25" d="M660.1,77.3l-1.5-0.9c-0.1,0-0.1,0-0.2,0c0,0,0,0,0,0.1v1.8c0,0.1,0,0.2,0.1,0.2l1.5,0.9c0.1,0,0.1,0,0.1,0
	c0,0,0,0,0-0.1v-1.7C660.2,77.5,660.2,77.4,660.1,77.3z"/>
<path class="st25" d="M660.1,80l-1.5-0.9c-0.1,0-0.1,0-0.2,0c0,0,0,0,0,0.1V81c0,0.1,0.1,0.2,0.1,0.2l1.5,0.9c0.1,0,0.1,0,0.1,0
	c0,0,0,0,0-0.1v-1.8C660.2,80.1,660.2,80,660.1,80z"/>
<g class="st1">
	<polygon class="st2" points="729.7,60.2 729.7,61.2 734.2,63.8 734.2,62.8 	"/>
	<polygon class="st2" points="729.7,62.1 729.7,63.2 734.2,65.8 734.2,64.7 	"/>
	<polygon class="st2" points="729.7,64.1 729.7,65.2 734.2,67.7 734.2,66.7 	"/>
	<polygon class="st2" points="763.6,86.7 763.6,85.6 735.9,69.6 735.9,70.7 	"/>
	<polygon class="st2" points="729.7,66 729.7,67.1 734.2,69.7 734.2,68.6 	"/>
	<polygon class="st2" points="729.7,68 729.7,69.1 734.2,71.7 734.2,70.6 	"/>
	<polygon class="st2" points="763.6,88.6 763.6,87.6 735.9,71.6 735.9,72.6 	"/>
	<polygon class="st2" points="729.7,73.9 729.7,74.9 734.2,77.5 734.2,76.5 	"/>
	<polygon class="st2" points="729.7,75.8 729.7,76.9 734.2,79.5 734.2,78.4 	"/>
	<polygon class="st2" points="729.7,83.6 729.7,84.7 734.2,87.3 734.2,86.2 	"/>
	<polygon class="st2" points="729.7,85.6 729.7,86.7 734.2,89.3 734.2,88.2 	"/>
	<polygon class="st2" points="753.4,99.3 735.9,89.2 735.9,90.2 753.4,100.3 	"/>
	<polygon class="st2" points="754.3,99.8 754.3,100.9 763.6,106.2 763.6,105.2 	"/>
	<polygon class="st2" points="744.7,92.3 735.9,87.2 735.9,88.3 744.7,93.3 	"/>
	<polygon class="st2" points="745.6,92.8 745.6,93.9 763.6,104.3 763.6,103.2 	"/>
	<polygon class="st2" points="761.3,96 761.3,97 763.6,98.4 763.6,97.3 	"/>
	<polygon class="st2" points="748.3,86.6 735.9,79.4 735.9,80.5 748.3,87.6 	"/>
	<polygon class="st2" points="743.2,68 735.9,63.7 735.9,64.8 743.2,69.1 	"/>
	<polygon class="st2" points="755.3,74.9 744.2,68.5 744.2,69.6 755.3,76 	"/>
	<polygon class="st2" points="748.8,73.2 741,68.6 741,69.7 748.8,74.2 	"/>
	<polygon class="st2" points="757,77.9 749.7,73.7 749.7,74.8 757,79 	"/>
	<polygon class="st2" points="758,78.4 758,79.5 763.6,82.8 763.6,81.7 	"/>
	<polygon class="st2" points="737.3,68.5 737.3,69.6 743.2,73 743.2,71.9 	"/>
	<polygon class="st2" points="761.3,82.3 744.2,72.4 744.2,73.5 761.3,83.4 	"/>
	<polygon class="st2" points="751.5,82.5 740.3,76.1 740.3,77.1 751.5,83.6 	"/>
	<polygon class="st2" points="761.3,88.2 752.4,83.1 752.4,84.1 761.3,89.3 	"/>
	<polygon class="st2" points="760.3,93.5 749.3,87.1 749.3,88.2 760.3,94.6 	"/>
	<polygon class="st2" points="754.3,92 754.3,93 760.3,96.5 760.3,95.4 	"/>
	<polygon class="st2" points="738,82.6 735.9,81.3 735.9,82.4 738,83.7 	"/>
	<polygon class="st2" points="742.1,84.9 742.1,86 753.4,92.5 753.4,91.4 	"/>
	<polygon class="st2" points="741.2,84.4 739,83.1 739,84.2 741.2,85.5 	"/>
	<polygon class="st2" points="751.3,92.2 739,85.1 739,86.1 751.3,93.3 	"/>
</g>
<g class="st1">
	<polygon class="st2" points="803,22.2 803,23.2 807.5,25.8 807.5,24.7 	"/>
	<polygon class="st2" points="803,24.1 803,25.2 807.5,27.8 807.5,26.7 	"/>
	<polygon class="st2" points="803,26.1 803,27.1 807.5,29.7 807.5,28.7 	"/>
	<polygon class="st2" points="837,48.7 837,47.6 809.2,31.6 809.2,32.7 	"/>
	<polygon class="st2" points="803,28 803,29.1 807.5,31.7 807.5,30.6 	"/>
	<polygon class="st2" points="803,30 803,31 807.5,33.6 807.5,32.6 	"/>
	<polygon class="st2" points="837,50.6 837,49.6 809.2,33.5 809.2,34.6 	"/>
	<polygon class="st2" points="803,35.8 803,36.9 807.5,39.5 807.5,38.4 	"/>
	<polygon class="st2" points="803,37.8 803,38.9 807.5,41.5 807.5,40.4 	"/>
	<polygon class="st2" points="803,45.6 803,46.7 807.5,49.3 807.5,48.2 	"/>
	<polygon class="st2" points="803,47.6 803,48.6 807.5,51.2 807.5,50.2 	"/>
	<polygon class="st2" points="826.7,61.2 809.2,51.1 809.2,52.2 826.7,62.3 	"/>
	<polygon class="st2" points="827.6,61.8 827.6,62.8 837,68.2 837,67.2 	"/>
	<polygon class="st2" points="818,54.3 809.2,49.2 809.2,50.3 818,55.3 	"/>
	<polygon class="st2" points="818.9,54.8 818.9,55.9 837,66.3 837,65.2 	"/>
	<polygon class="st2" points="834.6,58 834.6,59 837,60.4 837,59.3 	"/>
	<polygon class="st2" points="821.7,48.6 809.2,41.4 809.2,42.4 821.7,49.6 	"/>
	<polygon class="st2" points="816.6,30 809.2,25.7 809.2,26.8 816.6,31 	"/>
	<polygon class="st2" points="828.6,36.9 817.5,30.5 817.5,31.6 828.6,38 	"/>
	<polygon class="st2" points="822.1,35.1 814.3,30.6 814.3,31.7 822.1,36.2 	"/>
	<polygon class="st2" points="830.4,39.9 823.1,35.7 823.1,36.7 830.4,41 	"/>
	<polygon class="st2" points="831.3,40.4 831.3,41.5 837,44.8 837,43.7 	"/>
	<polygon class="st2" points="810.7,30.5 810.7,31.5 816.6,34.9 816.6,33.9 	"/>
	<polygon class="st2" points="834.7,44.3 817.5,34.4 817.5,35.5 834.7,45.4 	"/>
	<polygon class="st2" points="824.8,44.5 813.6,38 813.6,39.1 824.8,45.6 	"/>
	<polygon class="st2" points="834.7,50.2 825.8,45 825.8,46.1 834.7,51.2 	"/>
	<polygon class="st2" points="833.7,55.5 822.6,49.1 822.6,50.2 833.7,56.5 	"/>
	<polygon class="st2" points="827.6,54 827.6,55 833.7,58.5 833.7,57.4 	"/>
	<polygon class="st2" points="811.4,44.6 809.2,43.3 809.2,44.4 811.4,45.6 	"/>
	<polygon class="st2" points="815.4,46.9 815.4,48 826.7,54.5 826.7,53.4 	"/>
	<polygon class="st2" points="814.5,46.4 812.3,45.1 812.3,46.2 814.5,47.5 	"/>
	<polygon class="st2" points="824.6,54.2 812.3,47.1 812.3,48.1 824.6,55.2 	"/>
</g>
<path class="st14" d="M689.7,130.6c-1.9-0.6-3.9-0.3-5.5,0.8c-3,2-5,4.7-3.8,5.8c1.2,1,3.6,2.1,5.1,1.6
	C687.1,138.2,694.6,133.7,689.7,130.6z"/>
<polygon class="st5" points="752.6,118.9 729.1,132.2 714.1,123.6 737.6,110.2 "/>
<polygon class="st37" points="733.7,131.9 733.7,132.4 757.3,119 757.3,118.6 "/>
<polygon class="st38" points="757.3,118.6 733.7,131.9 718.7,123.2 742.2,109.9 "/>
<polygon class="st39" points="733.7,131.9 733.7,132.4 718.7,123.8 718.7,123.2 "/>
<polygon class="st40" points="742.1,111.3 751.1,116.5 750.8,116.8 741.7,111.5 "/>
<polygon class="st40" points="741.1,111.9 750.2,117.1 749.8,117.3 740.7,112.1 "/>
<polygon class="st40" points="738.9,113.1 751.4,120.3 751,120.5 738.5,113.3 "/>
<polygon class="st40" points="738.1,113.6 750.6,120.8 750.2,121 737.7,113.8 "/>
<polygon class="st40" points="737.2,114.1 749.7,121.3 749.3,121.5 736.8,114.3 "/>
<polygon class="st40" points="736.3,114.6 748.8,121.8 748.4,122 736,114.8 "/>
<polygon class="st40" points="735.5,115.1 748,122.3 747.6,122.5 735.1,115.3 "/>
<polygon class="st40" points="734.6,115.5 747.1,122.8 746.7,123 734.2,115.8 "/>
<polygon class="st40" points="733.8,116 746.2,123.2 745.8,123.5 733.4,116.3 "/>
<polygon class="st40" points="732.9,116.5 745.4,123.7 745,124 732.5,116.8 "/>
<polygon class="st40" points="732,117 744.5,124.2 744.1,124.5 731.6,117.2 "/>
<polygon class="st40" points="731.2,117.5 743.7,124.7 743.3,124.9 730.8,117.7 "/>
<polygon class="st40" points="730.3,118 742.8,125.2 742.4,125.4 729.9,118.2 "/>
<polygon class="st40" points="729.4,118.5 741.9,125.7 741.5,125.9 729,118.7 "/>
<polygon class="st40" points="728.6,119 741.1,126.2 740.7,126.4 728.2,119.2 "/>
<polygon class="st40" points="727.7,119.5 740.2,126.7 739.8,126.9 727.3,119.7 "/>
<polygon class="st40" points="726.8,120 739.3,127.2 738.9,127.4 726.4,120.2 "/>
<path class="st11" d="M716.7,126.7h-2.2v2.4h2.2c0.8,0,1.5,0.7,1.5,1.5v3.9c0,0.8-0.7,1.5-1.5,1.5h-3.2v2.4h3.2
	c2.1,0,3.9-1.7,3.9-3.9v-3.8C720.5,128.4,718.8,126.7,716.7,126.7C716.7,126.7,716.7,126.7,716.7,126.7z"/>
<path class="st6" d="M715.8,125.4v13.4c0,2.1-3.1,3.8-6.9,3.8s-6.9-1.7-6.9-3.8v-13.4H715.8z"/>
<path class="st2" d="M702,125.4c0,2.1,3.1,3.8,6.9,3.8s6.9-1.7,6.9-3.8s-3.1-3.8-6.9-3.8S702,123.3,702,125.4z"/>
<path class="st11" d="M703.4,125.3c0,1.6,2.5,2.9,5.5,2.9s5.5-1.3,5.5-2.9s-2.5-2.9-5.5-2.9S703.4,123.7,703.4,125.3z"/>
<path class="st10" d="M708.9,124.3c-2.4,0-4.5,0.8-5.2,2c0.8,1.1,2.8,2,5.2,2c2.4,0,4.5-0.8,5.2-2
	C713.4,125.1,711.3,124.3,708.9,124.3z"/>
<path class="st11" d="M711.5,128.8v13.4c1.2-0.2,2.3-0.7,3.2-1.5v-13.4C713.8,128.1,712.7,128.6,711.5,128.8z"/>
</svg>
