<?xml version="1.0" encoding="utf-8"?>
<!-- Generator: Adobe Illustrator 25.2.0, SVG Export Plug-In . SVG Version: 6.00 Build 0)  -->
<svg version="1.2" baseProfile="tiny" id="Laag_1" xmlns="http://www.w3.org/2000/svg" xmlns:xlink="http://www.w3.org/1999/xlink"
	 x="0px" y="0px" viewBox="0 0 2600.3 199" overflow="visible" xml:space="preserve">
<rect x="0.7" y="-0.2" fill="#4A8D9B" width="2600" height="199"/>
<path fill="#455A64" d="M371.4-249.7h0.8v0.6h-0.8V-249.7z M371.4-247.3h0.8v0.6l-0.4,0.7h-0.4l0.3-0.7h-0.3V-247.3L371.4-247.3z"/>
<path fill="#141414" d="M1413,26.3c0.1,0,0.2,0,0.3-0.1C1413.1,26.2,1413.1,26.2,1413,26.3z"/>
<g>
	<path fill="none" d="M1404.1,42.4C1404.1,42.4,1404.1,42.4,1404.1,42.4c0,2.3,0.9,4.3,1.9,6.2C1405,46.7,1404.2,44.7,1404.1,42.4
		C1404.1,42.4,1404.1,42.4,1404.1,42.4z"/>
	<path fill="none" d="M1467.3,86.4c0.6-0.1,1.2-0.2,1.6-0.3C1468.3,86.2,1467.8,86.3,1467.3,86.4z"/>
	<path fill="none" d="M1444.4,125.3c-0.1-0.1-0.2-0.1-0.3-0.2C1444.3,125.2,1444.4,125.3,1444.4,125.3z"/>
	<path fill="none" d="M1431,86.1c0.1-1.7,0.2-3.2,0.2-4.4C1430.9,83.1,1430.9,84.6,1431,86.1z"/>
	<path fill="none" d="M1469.2,86.1c0.1,0,0.4-0.1,0.8-0.1C1469.7,86,1469.4,86.1,1469.2,86.1z"/>
	<path fill="none" d="M1448,128.8c-0.1-0.1-0.3-0.3-0.4-0.4C1447.7,128.5,1447.8,128.7,1448,128.8z"/>
	<path fill="none" d="M1418.6,24.4L1418.6,24.4C1418.6,24.4,1418.6,24.4,1418.6,24.4C1418.6,24.4,1418.6,24.4,1418.6,24.4z"/>
	<path fill="none" d="M1451.9,88.6c3-3.2,7.1-3.9,10.9-5.4c1-0.4,2-0.6,3.1-0.9c5.1-1.6,10.4-2,15.7-2.9c1.7-0.5,10.5-1.1,13.1-1.7
		c0.7-0.2,1.5-0.2,2.3-0.2c0.7-0.1,1.6-0.2,2.7-0.3c0.1,0,0.1,0,0.2-0.1c0,0,0,0,0,0c11.5-1.2,38.1-4.4,35.9-5.6
		c-6.7-4.4-13.5-8.5-20.7-12.2c-0.3,0.2-30-14.5-57.5-16.6c-5.9-0.2-11.7-0.4-17.6-0.1c-7.2,1.2-13.1,3.8-19.5,6.4
		c-0.6,0.2-1.1,0.4-1.7,0.6c0,0.2-5.8,2.5-8,4.6c-0.2,0-0.5,0-0.7,0c0,0,0.1,0.1,0.1,0.1c-0.3,0.6,0.1,1,0.4,1.4
		c2.3,2.7,4.4,5.5,6.9,8c0.3,0.3,0.7,0.6,1,0.9c0.3,0.3,0.6,0.6,0.9,0.8c0.8,0.6,1.3,1.5,2,2.3h0c2.5,2.6,5.3,4.9,7.5,7.8
		c0,0,0,0,0,0c1,0.8,2.1,1.6,2.8,2.7c0.1,0,0.1,0,0.2,0c0.2,0.1,0.5,0.2,0.7,0.2c0.8,0.9,13.5,11,16.8,13.7
		C1450,91,1450.6,89.6,1451.9,88.6z"/>
	<path fill="none" d="M1432.2,11.2c1.3-0.3,2.6-0.5,3.9-0.8C1434.8,10.7,1433.5,11,1432.2,11.2L1432.2,11.2z"/>
	<path fill="none" d="M1433,20.9C1433.1,20.9,1433.1,20.9,1433,20.9C1433.1,20.9,1433.1,20.9,1433,20.9L1433,20.9z"/>
	<path fill="none" d="M1451.6,94.1C1451.6,94.1,1451.6,94.1,1451.6,94.1C1451.6,94.1,1451.6,94.1,1451.6,94.1z"/>
	<path fill="none" d="M1483.1,90.2c0,0-0.1,0-0.1,0c-0.1,0-0.2,0-0.3,0c1.2-0.1,2.4-0.1,3.7-0.1c0,0,1.4-0.1,3.5-0.2
		C1486.7,90.1,1483.7,90.2,1483.1,90.2z"/>
	<path fill="none" d="M1456.3,101.2c-0.1,0.1-0.1,0.3-0.2,0.4C1456.2,101.5,1456.3,101.4,1456.3,101.2z"/>
	<path fill="none" d="M1448.8,129.8c-0.1-0.2-0.3-0.3-0.4-0.5C1448.5,129.5,1448.7,129.6,1448.8,129.8z"/>
	<path fill="none" d="M1462.2,95.5c0.1-0.1,0.2-0.1,0.3-0.2c-0.6,0.3-1.1,0.6-1.2,0.7C1461.6,95.8,1461.9,95.6,1462.2,95.5z"/>
	<path fill="none" d="M1517.4,111.8c0.3-0.2,0.7-0.4,1-0.7c0.2-0.1,0.9-0.5,1.7-0.9c-1,0.5-1.8,0.8-2,1
		C1517.9,111.4,1517.6,111.6,1517.4,111.8z"/>
	<path fill="none" d="M1618.8,81.5c-2.6,0.4-5.1,1.2-7.4,2.3c-0.7,0.2-1.5,0.4-2.2,0.6c-4.7,1.5-44.1,13.7-49.5,14.7
		c-1.1,0.2-8.7,1.9-9.6,2.3c-1.6,0.3-4.7,1.1-5.5,1.4c7.6-1.9,14.8-3.6,15.3-3.7c5.4-1,44.8-13.2,49.5-14.7c0.7-0.2,1.5-0.4,2.2-0.6
		c2.4-1.2,4.8-2,7.4-2.3c0.2-0.2,0.5-0.2,0.7-0.3c0.1,0,0.2-0.1,0.3-0.1c-0.2,0-0.4,0.1-0.5,0.1C1619.3,81.2,1619,81.3,1618.8,81.5z
		"/>
	<path fill="none" d="M1623.2,81c0.1,0,0.1-0.1,0.2-0.1c-0.2,0-0.4,0-0.6-0.1C1622.9,80.8,1623.1,80.9,1623.2,81z"/>
	<path fill="none" d="M1511.9,176.5c-0.3-0.7-0.6-1.4-0.9-2.2c0.1,0.5,0.2,0.9,0.3,1.4C1511.5,175.9,1511.7,176.2,1511.9,176.5z"/>
	<path fill="none" d="M1528.2,106.9c-0.2,0-0.6,0.2-1.1,0.4c1.6-0.5,5.4-1.5,9.8-2.6c-2,0.5-3.6,0.9-3.6,0.9
		C1533,105.6,1529,106.6,1528.2,106.9z"/>
	<path fill="none" d="M1428.2,11.3C1428.2,11.3,1428.2,11.3,1428.2,11.3c-2.7,0.5-5.4,1-8,1.6C1422.8,12.3,1425.5,11.8,1428.2,11.3
		C1428.2,11.3,1428.2,11.3,1428.2,11.3z"/>
	<path fill="none" d="M1450.5,131.8c-0.2-0.2-0.3-0.4-0.5-0.6C1450.2,131.4,1450.4,131.6,1450.5,131.8z"/>
	<path fill="none" d="M1449.7,130.8c-0.2-0.2-0.3-0.4-0.5-0.5C1449.4,130.4,1449.6,130.6,1449.7,130.8z"/>
	<path fill="none" d="M1451.4,132.9c-0.2-0.2-0.3-0.5-0.5-0.7C1451.1,132.5,1451.2,132.7,1451.4,132.9z"/>
	<path fill="none" d="M1452.4,134.3c-0.2-0.4-0.5-0.7-0.8-1.1C1451.9,133.6,1452.2,134,1452.4,134.3z"/>
	<path fill="none" d="M1465.9,155.7c-1.1-0.6-2-1.4-2.8-2.4c-1.4-1.2-3.4-2.7-5-7.1C1460.9,154.5,1465.2,155.3,1465.9,155.7z"/>
	<linearGradient id="SVGID_1_" gradientUnits="userSpaceOnUse" x1="1545.3314" y1="97.2571" x2="1576.5521" y2="138.1478">
		<stop  offset="0" style="stop-color:#E6E6EA"/>
		<stop  offset="3.626710e-02" style="stop-color:#D7D7DB"/>
		<stop  offset="0.1694" style="stop-color:#A6A6A8"/>
		<stop  offset="0.3054" style="stop-color:#7C7C7D"/>
		<stop  offset="0.4418" style="stop-color:#5A5A5A"/>
		<stop  offset="0.5789" style="stop-color:#3F3F3E"/>
		<stop  offset="0.7169" style="stop-color:#2C2C2B"/>
		<stop  offset="0.8565" style="stop-color:#21211F"/>
		<stop  offset="1" style="stop-color:#1D1D1B"/>
	</linearGradient>
	<path fill="url(#SVGID_1_)" d="M1629.8,89.6L1629.8,89.6C1629.8,89.6,1629.8,89.6,1629.8,89.6c-0.1-2.8-0.2-5.5-2.3-7.7l-0.1,0.1
		c-0.1,0-0.1,0-0.2,0l-0.1,0.1c-0.9-0.1-1.9-0.8-3.7-1.1c-0.1,0-0.1,0.1-0.2,0.1c-0.1-0.1-0.3-0.1-0.4-0.2c-0.8,0-1.7,0-2.8,0.3
		c-0.1,0-0.2,0.1-0.3,0.1c-0.2,0-0.5,0.1-0.7,0.3c-2.6,0.4-5.1,1.2-7.4,2.3c-0.7,0.2-1.5,0.4-2.2,0.6c-4.7,1.5-44.1,13.7-49.5,14.7
		c-0.5,0.1-7.7,1.8-15.3,3.7c-0.1,0-0.2,0.1-0.2,0.1c-0.5,0.2-4.5,1.1-7.5,1.9c-4.4,1.1-8.2,2.1-9.8,2.6c-1.7,0.7-4.9,2-6.9,2.9
		c-0.9,0.5-1.5,0.8-1.7,0.9c-0.3,0.2-0.7,0.4-1,0.7c-6.3,5.5-8.3,13-8.7,21.1c-0.2,0.8-0.2,12.6-0.2,16c0.3,3.1-0.3,13.4,2.5,25.3
		c0.3,0.8,0.5,1.6,0.9,2.2c0.7,1.1,1.7,2.2,2.8,3c0,0,0.1,0,0.1,0c3.3,0.8,8.1,1.1,11.1,0.5c13.8-2.8,63.2-20.3,74.5-24.8
		c2.5-1.1,5-2.1,7.4-3.2c2.1-0.8,4.3-1.7,6-3.3c-0.2-0.2,10.4-8.5,12-16.3c0.8-3.7,2.7-12.9,3.6-18.1
		C1630.6,104,1630.5,94.5,1629.8,89.6z"/>
	<path fill="none" d="M1549.2,84.6C1549.2,84.6,1549.2,84.6,1549.2,84.6C1549.2,84.6,1549.2,84.6,1549.2,84.6
		C1549.2,84.6,1549.2,84.6,1549.2,84.6z"/>
	<path fill="#101010" d="M1410.1,54.2c-0.1,0-0.1,0.1-0.2,0.1c0,0,0.1,0.1,0.1,0.1c0.2,0,0.5,0,0.7,0
		C1410.5,54.3,1410.3,54.2,1410.1,54.2z"/>
	<path fill="#0F0F0F" d="M1418.5,21.8c0.2-0.2,0.3-0.4,0.4-0.7c0-0.1,0.1-0.1,0.1-0.2c0,0,0,0,0,0c0,0,0,0,0-0.1c0,0,0,0,0.1-0.1
		c0.2-0.2,0.5-0.1,0.8,0.2c1.1,1.1,2.8-0.7,3.9,1c-1.8,0.8-4,0.7-5.3,2.4c0,0,0,0,0.1,0c0.3-0.2,0.6-0.3,0.9-0.5
		c1.4-0.8,3.2-0.8,4.7-1.1c1.5-0.4,3-0.9,4.5-1.3c1.4-0.3,2.8-0.4,4.3-0.5c0,0,0,0,0.1,0c0.1-0.1,0.2-0.1,0.3-0.2
		c-0.1-0.8-0.6-1.6-0.1-2.4c0.2-0.6,0.4-1.2,0.6-1.7c0-0.1,0-0.1,0-0.1s0,0,0,0.1c2.3-1.5,1.7-4,2.2-6.1c-1.3,0.3-2.6,0.5-3.9,0.8h0
		c-1.5,0.3-3.1,0.6-4.6,0.9c-0.4,0.2-0.9,0.2-1.3,0.3c-1.6,0.5-3.3,0.4-4.8,1.2c0,0,0.1,0.1,0.1,0.1c2.7-0.1,5.1-1.2,7.8-1.2
		c0,0,0,0,0,0c-0.1,0-0.1,0-0.2,0c-3.1,0.5-6.2,1.1-9.3,2c-0.2,0-0.5,0-0.6-0.1c-0.2-0.4,0.3-0.6,0.5-0.8c0,0,0,0,0,0c0,0,0,0,0,0
		c-1.7-0.8-0.1-0.8,0.2-0.9c2.7-0.6,5.4-1.1,8-1.6c-0.2-0.2-0.4-0.3-0.5-0.5c-3.1,0.5-6.2,1-9.3,1.6c-0.4,0.1-0.9,0.2-1,0.5
		c-0.6,2-1.1,4-1.6,6c-0.3,1.2,1.1,1.3,1.6,1.9c0.3,0.3,0.3,0.9,0.4,1.3C1418.1,22.1,1418.3,22,1418.5,21.8z M1432.3,13.6
		C1432.1,13.7,1432.5,13.6,1432.3,13.6L1432.3,13.6z M1421.9,15.9c3.3-0.8,6.6-1.5,9.9-2.2c0,0,0,0,0,0c0.1,0,0.2-0.1,0.3-0.1
		c0.1,0,1.3-0.2,1.3-0.2s0.3,2.4,0.4,2.4v0c-3.8,0.5-7.6,1.6-11.3,2.3c-0.7,0.2-1.8,0.8-2.1-0.6C1420.2,16.6,1421,16.1,1421.9,15.9z
		"/>
	<path fill="#0F0F0F" d="M1420.1,13.7c0,0-0.1,0-0.1,0c0,0,0,0,0,0c0,0,0,0,0,0C1420,13.7,1420,13.7,1420.1,13.7z"/>
	<path fill="#0F0F0F" d="M1419.9,13.7C1419.9,13.7,1419.9,13.7,1419.9,13.7c-0.2,0.2-0.6,0.4-0.5,0.8c0,0.1,0.4,0.1,0.6,0.1
		c3-1,6.1-1.5,9.3-2c0,0,0.1,0,0.2,0c0,0,0,0,0,0c-2.7,0-5.1,1.1-7.8,1.2c0,0,0-0.1-0.1-0.1c1.5-0.8,3.2-0.7,4.8-1.2
		c0.4-0.1,0.9-0.2,1.3-0.3c-2.5,0.5-5,1-7.5,1.5C1420,13.7,1420,13.7,1419.9,13.7z"/>
	<path fill="#2A2A2A" d="M1401.4,49.4C1401.4,49.4,1401.4,49.4,1401.4,49.4C1401.4,49.4,1401.4,49.4,1401.4,49.4z"/>
	<path fill="#252525" d="M1428.2,11.3C1428.2,11.3,1428.2,11.3,1428.2,11.3c-2.7,0.5-5.4,1-8,1.6c-0.3,0.1-1.9,0.1-0.2,0.9
		c0,0,0,0,0,0c0,0,0.1,0,0.1,0c1.5-0.5,3-1.1,4.5-1.5c1.4-0.3,2.9-0.4,4.3-0.7c1.1-0.2,2.3-0.5,3.4-0.3c1.3-0.3,2.6-0.5,3.9-0.8
		c0-0.2,0-0.3,0-0.5c-0.1-0.7-0.5-0.9-1.1-0.7c-2.3,0.5-4.7,1-7,1.5c-0.1,0-0.2,0-0.3,0.1C1427.8,10.9,1428,11.1,1428.2,11.3
		C1428.2,11.3,1428.2,11.3,1428.2,11.3z"/>
	<path fill="#252525" d="M1428.9,11.5c-1.4,0.3-2.9,0.4-4.3,0.7c-1.5,0.3-3,1-4.5,1.5c2.5-0.5,5-1,7.5-1.5c1.5-0.3,3.1-0.6,4.6-0.9
		C1431.2,11,1430,11.2,1428.9,11.5z"/>
	<path fill="#343434" d="M1417.7,22c-0.2,0.3-0.4,0.6-0.6,0.9c0.4,0,0.7-0.2,0.9-0.4C1417.9,22.4,1417.8,22.2,1417.7,22z"/>
	<path fill="#343434" d="M1418.5,23.1c0.5-0.7,0.9-1.4,1.4-2.1c0,0,0,0,0,0c-0.8-0.2-0.7,0.6-0.9,1c-0.3,0.5-0.6,0.7-0.9,0.5
		c-0.2,0.2-0.5,0.4-0.9,0.4C1417.5,23.7,1418,23.8,1418.5,23.1z"/>
	<path fill="#343434" d="M1418.5,21.8c-0.2,0.2-0.4,0.2-0.8,0.2c0.1,0.2,0.2,0.4,0.3,0.5C1418.2,22.3,1418.4,22.1,1418.5,21.8z"/>
	<path fill="#343434" d="M1419.1,20.8C1419.1,20.8,1419.1,20.9,1419.1,20.8c-0.1,0.1-0.1,0.1-0.1,0.1c0,0,0,0,0,0
		c0,0.1-0.1,0.1-0.1,0.2c-0.1,0.3-0.2,0.5-0.4,0.7c-0.1,0.2-0.3,0.5-0.5,0.6c0.3,0.3,0.6,0,0.9-0.5c0.3-0.4,0.1-1.2,0.9-1
		c0,0,0,0,0,0C1419.6,20.7,1419.4,20.6,1419.1,20.8z"/>
	<path fill="#0C0C0C" d="M1451.5,90.7c0.3-0.3,0.6-0.6,0.9-0.9h0l-0.5-1.1c-1.3,0.9-1.9,2.3-2.5,3.7c0.4,0.3,0.7,0.6,0.8,0.6
		c0.3,0.2,0.8,0.7,1.3,1c0.1,0,0.2,0,0.2,0c0,0,0,0,0,0c0.1,0,0.2,0.1,0.3,0.1c0,0.1,0.1,0.2,0.1,0.3c0.4,0.3,0.9,0.6,1.3,0.9
		c0.1,0.1,1,0.7,1.1,0.8c0.6,0.4,0.8,4.5,0.8,10c0,0,0.1-0.1,0.1-0.1c0.1-0.1,0.2-0.1,0.4-0.2c0-0.4,0-0.7,0-0.7
		c-0.8-1.3-0.2-2.4,0.4-3.5c0.1-0.1,0.1-0.3,0.2-0.4c1.1-2,2.7-3.6,4.4-5c-2.9-1.3-5.9-2.7-8.8-4C1451,91.9,1450.5,91.5,1451.5,90.7
		z"/>
	<path fill="#0C0C0C" d="M1458.1,146.2c-1.6-4.5-2.9-12.1-2.8-25.6c0-1.1,0.3-10.5,0.4-14.1c0,0,0,0,0,0c-0.2-0.1-0.3-0.2-0.5-0.2
		c-0.1,9.1-0.7,21.7-1.1,26.8c0,2.4-0.4,1.8-1.7,1.3c-0.2-0.4-0.5-0.7-0.8-1.1c-0.1-0.1-0.2-0.2-0.3-0.4c-0.2-0.2-0.3-0.5-0.5-0.7
		c-0.1-0.1-0.2-0.3-0.3-0.4c-0.2-0.2-0.3-0.4-0.5-0.6c-0.1-0.2-0.2-0.3-0.4-0.5c-0.1-0.2-0.3-0.4-0.5-0.5c-0.1-0.2-0.3-0.3-0.4-0.5
		c-0.1-0.2-0.3-0.3-0.4-0.5c-0.1-0.2-0.3-0.3-0.4-0.5c-0.1-0.1-0.3-0.3-0.4-0.4c-0.4-0.5-0.9-0.9-1.3-1.3c0,0,0,0.1,0,0.1
		c-0.7-0.7-1.3-1.3-1.7-1.7c0,0,0,0,0,0c-0.1-0.1-0.2-0.2-0.3-0.2c-0.2-0.2-0.5-0.4-0.5-0.5c0,0-0.1,0-0.1-0.1c0,0.7-0.4,5.3,0,7
		c0.7,5.3,2.7,10,6.4,14c1.1,1.6,2.6,3,4.2,4.1c0.9,1,2.1,1.7,3.2,2.4c2.5,1.7,5.2,2.9,7.9,4.2c0.2-0.2,0.3-0.4,0.5-0.5
		C1465.2,155.3,1460.9,154.5,1458.1,146.2z"/>
	<path fill="#0C0C0C" d="M1455.3,106c0,0-0.1,0.1-0.1,0.1c0,0.1,0,0.1,0,0.2c0.2,0.1,0.3,0.1,0.5,0.2c0,0,0,0,0,0c0-0.2,0-0.4,0-0.6
		C1455.6,105.9,1455.5,105.9,1455.3,106z"/>
	<path fill="#0C0C0C" d="M1451.7,94.1C1451.6,94.1,1451.6,94.1,1451.7,94.1c-0.1,0-0.2,0-0.3,0c0.2,0.2,0.5,0.3,0.5,0.3
		c0,0,0.1,0,0.1,0.1c0-0.1-0.1-0.2-0.1-0.3C1451.8,94.1,1451.7,94.1,1451.7,94.1z"/>
	<path fill="#0C0C0C" d="M1451.6,94.1c-0.1,0-0.2,0-0.2,0c0,0,0,0,0,0C1451.5,94.1,1451.6,94.1,1451.6,94.1z"/>
	<path fill="#0C0C0C" d="M1451.7,94.1c0.1,0,0.2,0.1,0.3,0.1C1451.8,94.1,1451.7,94.1,1451.7,94.1z"/>
	<path fill="#878787" d="M1422.5,18.2c3.8-0.8,7.5-1.9,11.3-2.3v0c0,0-0.4-2.4-0.4-2.4s-1.3,0.2-1.3,0.2c-0.1,0-0.2,0-0.3,0.1
		c0,0,0,0,0,0c-3.3,0.7-6.6,1.4-9.9,2.2c-0.9,0.2-1.7,0.6-1.5,1.7C1420.7,19,1421.7,18.4,1422.5,18.2z"/>
	<path fill="#646464" d="M1432.3,13.6C1432.5,13.6,1432.1,13.7,1432.3,13.6L1432.3,13.6z"/>
	<path fill="#646464" d="M1432.1,13.7c0,0,0,0.1,0.1,0.1C1432.1,13.8,1432.1,13.7,1432.1,13.7C1432.1,13.7,1432.1,13.7,1432.1,13.7z
		"/>
	<path fill="#272727" d="M1496.9,77.6c-0.8,0-1.5,0-2.3,0.2C1494.7,77.8,1495.5,77.8,1496.9,77.6z"/>
	<path fill="#272727" d="M1499.8,77.3c-0.1,0-0.1,0-0.2,0.1C1499.6,77.3,1499.7,77.3,1499.8,77.3
		C1499.7,77.3,1499.8,77.3,1499.8,77.3z"/>
	<path fill="#272727" d="M1499.7,77.3C1499.7,77.3,1499.8,77.3,1499.7,77.3C1499.8,77.3,1499.8,77.3,1499.7,77.3
		C1499.8,77.3,1499.7,77.3,1499.7,77.3z"/>
	<path fill="#2E2E2E" d="M1499.6,77.4c-1,0.1-1.9,0.2-2.7,0.3C1497.8,77.6,1498.7,77.6,1499.6,77.4z"/>
	<path fill="#2E2E2E" d="M1424.2,22.7c-1.5,0.4-3.3,0.4-4.7,1.1c-0.3,0.2-0.6,0.3-0.9,0.5c0.7-0.1,1.3-0.2,2-0.4
		c4-0.8,7.8-2.3,11.9-2.8c0.2-0.1,0.4-0.2,0.6-0.3c-1.4,0.1-2.8,0.2-4.3,0.5C1427.2,21.8,1425.8,22.4,1424.2,22.7z"/>
	<path fill="#2E2E2E" d="M1564.8,61.4c-2.2-2-4.5-1.4-6.8-1C1560.2,61,1562.3,61.9,1564.8,61.4z"/>
	<path fill="#2E2E2E" d="M1542.1,72.7c0.3-0.1,0.7-0.2,0.4-0.6c-0.2-0.2-0.7-0.3-1-0.4c-0.1,1.4-1.1,0.5-1.7,0.6
		c-0.8,0.1-1.6,0.5-2.5,0.3C1538.9,73.3,1540.5,73.1,1542.1,72.7z"/>
	<path fill="#2E2E2E" d="M1540.6,71.8c-0.3,0-0.7,0.1-1,0.1C1539.9,72,1540.2,72,1540.6,71.8z"/>
	<path fill="#2E2E2E" d="M1539.8,72.3c0.6-0.1,1.6,0.8,1.7-0.6c0,0,0,0,0,0c-0.3,0.1-0.6,0.1-1,0.1c-0.3,0.2-0.7,0.2-1,0.1
		c-0.8,0.1-1.5,0.3-2.2,0.7C1538.2,72.8,1539,72.4,1539.8,72.3z"/>
	<path fill="#2E2E2E" d="M1499.7,77.3c0,0-0.1,0-0.1,0c-0.9,0.3-1.8,0.3-2.7,0.3c-1.4,0.1-2.3,0.2-2.3,0.2c0.2,0.3,0.2,0.5,0.1,0.8
		c1-0.1,2.1-0.2,3.1-0.3c0.6-0.1,1.2-0.3,1.8-0.5C1499.6,77.6,1499.7,77.5,1499.7,77.3z"/>
	<path fill="#2E2E2E" d="M1499.7,77.7C1499.7,77.7,1499.7,77.7,1499.7,77.7c0.1-0.2,0.1-0.3,0.1-0.4c0,0,0,0,0,0
		C1499.7,77.5,1499.6,77.6,1499.7,77.7z"/>
	<path fill="#2E2E2E" d="M1494.7,78.6c1.1-0.2,2.1-0.2,3.2-0.4C1496.8,78.3,1495.8,78.4,1494.7,78.6
		C1494.7,78.6,1494.7,78.6,1494.7,78.6z"/>
	<path fill="#2E2E2E" d="M1494.7,77.8c0,0.3,0,0.5,0,0.8c0,0,0.1,0,0.1,0C1494.9,78.3,1494.8,78.1,1494.7,77.8z"/>
	<path fill="#2E2E2E" d="M1494.7,78.6C1494.7,78.6,1494.7,78.6,1494.7,78.6C1494.7,78.6,1494.7,78.6,1494.7,78.6c0.1,0,0.1,0,0.1,0
		C1494.7,78.5,1494.7,78.6,1494.7,78.6z"/>
	<path fill="#575756" d="M1571,61.4c-0.4-0.6-1.1-0.7-1.7-0.5c-2.1,0.7-15.6-8.7-16.7-9.3c-7.8-4.3-15.6-8.6-23.4-12.9
		c-2.5-0.2-4.8-1.4-7-2.4c-1.3-0.6-2.6-1.4-4.1-1.4c-0.2-0.5-0.5-0.7-1-0.9c-3.4-1.3-6.6-2.8-10.2-3.7c-2.9-1.3-5.9-2.2-8.9-3.1
		c-0.6-0.2-1.3-0.4-1.9-0.6c-5.1-1.8-10.2-3.3-15.6-4.2c-2.2-0.6-4.4-1.1-6.6-1.3c-7.5-1.7-15.1-1.9-22.7-2.4
		c-3.3-0.3-6.5-0.3-9.8,0c-0.5,0-0.9,0-1.4-0.1c-2.2-0.6-4.5,0.6-6.6-0.4c-0.5,0.8,0,1.6,0.1,2.4c-0.1,0.1-0.2,0.1-0.3,0.2l-0.1,0
		c-0.2,0.1-0.4,0.2-0.6,0.3c-4.1,0.5-7.9,1.9-11.9,2.8c-0.7,0.1-1.3,0.3-2,0.4h0c0,0,0,0-0.1,0c1.3-1.7,3.5-1.5,5.3-2.4
		c-1.1-1.6-2.8,0.2-3.9-1c-0.5,0.7-0.9,1.4-1.4,2.1c-0.5,0.7-1,0.5-1.4-0.2c-1.6,0.7-3.3,1.4-4.8,2.2c-3.5,2-6.8,4.3-8.3,8.3
		c0.1,0.7,1.5-1.2,1,0.5c-0.8,2.8-1,5.6-1,8.5c0,0,0,0,0,0c0,2.3,0.9,4.3,1.9,6.2c0.4,0.9,0.9,1.7,1.4,2.6c1.1,0.2,1,2.1,2.4,1.9
		c-0.2,0.4-0.1,0.8,0.1,1.1c0.1,0,0.1-0.1,0.2-0.1c0.2,0.1,0.4,0.1,0.6,0.2c2.2-2.1,7.9-4.4,8-4.6c0.6-0.2,1.1-0.4,1.7-0.6
		c6.3-2.6,12.3-5.1,19.5-6.4c5.9-0.3,11.7-0.1,17.6,0.1c27.6,2.1,57.2,16.8,57.5,16.6c7.1,3.7,14,7.8,20.7,12.2
		c2.2,1.2-24.4,4.4-35.9,5.6c0,0.1,0,0.3,0,0.4c0,0-0.1,0-0.1,0c-0.6,0.3-1.2,0.4-1.8,0.5c-1.1,0.2-2.1,0.2-3.2,0.4c0,0,0,0-0.1,0
		c0,0,0-0.1,0-0.1c0-0.3,0-0.5,0-0.8c-2.6,0.7-11.4,1.2-13.1,1.7c-5.2,0.9-10.6,1.3-15.7,2.9c-1,0.3-2.1,0.5-3.1,0.9
		c-3.8,1.4-8,2.2-10.9,5.4l0.5,1.1h0c0.2-0.1,0.4-0.1,0.5-0.2c0.6-0.2,1.2-0.5,1.8-0.7l0,0c0.4,0.5,0.9,0.7,1.4,0.4
		c2-1.2,4.2-1.6,6.4-1.9c0.6-0.1,2.9-0.6,4.7-0.9c0.5-0.1,1-0.2,1.6-0.3c0.1,0,0.3,0,0.4-0.1c0.2,0,0.4-0.1,0.8-0.1
		c6.7-0.7,48.5-4.2,48.8-4.3c4-0.6,7.9-1.2,11.8-1.9c6.3-1.2,12.6-2.6,18.9-3.9c0.1,0,0.2-0.1,0.4-0.1c2-0.6,4-1.1,5.9-1.9
		c3.6-1.3,7.4-2.2,10.6-4.6c0.3-0.2,0.6-0.4,0.8-0.7c0.1-0.1,0.2-0.2,0.3-0.3c1.1-0.8,2.1-1.7,3-2.8c0.2-0.3,0.5-0.6,0.7-0.9
		c0-0.8,0-1.6,0.1-2.5C1571.5,61.9,1571.4,61.5,1571,61.4z M1542.3,72.7c-1.6,0.5-3.2,0.6-4.8-0.1c0.7-0.4,1.5-0.6,2.2-0.7
		c0.3,0,0.7-0.1,1-0.1c0.3,0,0.7-0.1,1-0.1c0,0,0,0,0,0c0.3,0.1,0.8,0.2,1,0.4C1543,72.5,1542.6,72.6,1542.3,72.7z M1558.2,60.4
		c2.3-0.4,4.6-1,6.8,1C1562.5,61.9,1560.4,61,1558.2,60.4z"/>
	<path fill="#1D1D1B" d="M1553.6,81c-0.7,0.7-2.6,1-2.1,1.8c0.8,1.2,1.9-0.4,2.8-0.9c0.1,0,0.1-0.1,0.2-0.1c0,0,0,0,0,0c0,0,0,0,0,0
		c0.7-0.3,1.4-0.6,2.1-0.8c0.4-0.2,0.8-0.3,1.2-0.5c-0.5-0.2-1-0.3-1.4-0.5c-0.1,0-0.2,0-0.3,0.1C1555.2,80.2,1554.4,80.5,1553.6,81
		z"/>
	<path d="M1548.2,84.5c0.3,0,0.6,0,1,0.1c0,0,0,0,0,0c0,0,0,0,0,0c-1.2,0.8-2.1,1.3-3.4,2.2c0,0,0,0-0.1,0c0.1,0,0.2,0,0.2,0
		c1.6,0,2.9,0.1,4.2,0c0.7-0.1,1.4-0.2,2-0.4c4.2-1.4,8.7-2.2,12.9-4.1c-2.5-0.3-4.6-2.1-7.2-1.9c-0.4,0.2-0.8,0.3-1.2,0.5
		c-0.7,0.3-1.4,0.6-2.1,0.8c0,0,0,0,0,0c0,0,0,0,0,0c-0.1,0-0.1,0.1-0.2,0.1c-0.9,0.5-1.9,2.1-2.8,0.9c-0.6-0.8,1.4-1.1,2.1-1.8
		c0.7-0.5,1.5-0.8,2.4-0.9c0.1,0,0.2,0,0.3-0.1c0-0.1,0-0.1,0.1-0.2C1553.5,79.9,1550.2,82.2,1548.2,84.5z M1561.5,82.7
		c0.2,0.1,0.3,0.1,0.4,0.2c-0.7,0.1-1.6,0.1-2.3,0.3c-2.7,0.6-4.8,1.3-7.7,1.9C1554.3,82.7,1558.6,81.6,1561.5,82.7z"/>
	<path fill="#1F1F1F" d="M1571.3,62.3c0,0.8,0,1.6-0.1,2.5c-0.2,0.3-0.4,0.6-0.7,0.9c-0.9,1.1-1.9,2-3,2.8c-0.1,0.1-0.2,0.2-0.3,0.3
		c-0.3,0.2-0.5,0.5-0.8,0.7c-3.1,2.4-7,3.2-10.6,4.6c-1.9,0.7-3.9,1.2-5.9,1.9c-0.1,0-0.2,0.1-0.4,0.1c-6.3,1.3-12.6,2.7-18.9,3.9
		c-3.9,0.8-7.9,1.3-11.8,1.9c-0.3,0-0.6,0.1-0.9,0.1c-4.4,0.4-41.5,3.4-47.9,4.1c-0.4,0-0.6,0.1-0.8,0.1c-0.1,0-0.3,0-0.4,0.1
		c-0.4,0.1-1,0.2-1.6,0.3c-0.6,0.1-1.3,0.3-1.9,0.5c-0.9,0.1-1.9,0.2-2.8,0.4c-2.2,0.3-4.4,0.7-6.4,1.9c-0.5,0.3-1,0.1-1.4-0.4l0,0
		c-0.6,0.2-1.2,0.5-1.8,0.7c-0.2,0.1-0.4,0.1-0.5,0.2c-0.3,0.3-0.6,0.6-0.9,0.9c-1,0.8-0.5,1.2,0.4,1.6c3,1.3,5.9,2.6,8.8,4
		c0.2-0.1,0.3-0.2,0.5-0.3c0.1-0.1,0.6-0.3,1.2-0.7c1.8-1.2,7.1-4.4,20.1-5c0.1,0,0.2,0,0.3,0c0,0,0.1,0,0.1,0
		c0.7,0,3.7-0.1,6.7-0.2c4.9-0.2,13.6-0.6,16-0.8l6.6-0.4c0,0,0,0,0,0c2.4-0.6,4.8-0.7,7.2-0.9c0.1,0,0.1,0,0.2,0
		c4.1-0.7,8.1-1.3,12.2-2c2.9-0.5,5.7-1.3,8.6-0.5c1.6,0.4,3.2,0.3,4.7-0.3c0.9,0.1,1.8-0.5,3-0.6c2-2.3,5.3-4.6,8.2-4.6
		c0-0.1,0.1-0.2,0.1-0.2c3.4-0.4,6.4-2.1,9.3-3.7c0.3-0.2,0.7-0.3,1-0.5c5.2-2.3,9.3-5.4,9.6-11.7
		C1575.1,61.8,1573.2,62.1,1571.3,62.3z M1572.8,69.8c0.3-2,0.9-3.6-0.3-5.5C1574.5,65.6,1574.6,67.1,1572.8,69.8z"/>
	<path d="M1572.8,69.8c1.8-2.7,1.8-4.1-0.3-5.5C1573.6,66.1,1573,67.8,1572.8,69.8z"/>
	<path d="M1467.3,86.4c-1.8,0.4-4.1,0.8-4.7,0.9c0.9-0.1,1.9-0.2,2.8-0.4C1466,86.8,1466.6,86.6,1467.3,86.4z"/>
	<path d="M1468.8,86.2c0.1,0,0.3,0,0.4-0.1C1469.1,86.1,1469,86.1,1468.8,86.2z"/>
	<path d="M1518.8,81.7c-0.3,0-42,3.6-48.8,4.3c6.4-0.7,43.4-3.7,47.9-4.1C1518.2,81.8,1518.5,81.8,1518.8,81.7z"/>
	<path d="M1562,82.9c-0.1-0.1-0.3-0.1-0.4-0.2c-0.5,0.2-1,0.4-1.5,0.6C1560.7,83.2,1561.3,83,1562,82.9z"/>
	<path fill="#2E2E2E" d="M1443.7,124.7C1443.7,124.7,1443.7,124.7,1443.7,124.7C1443.7,124.7,1443.7,124.7,1443.7,124.7
		c0.2,0.1,0.3,0.3,0.5,0.5c0.1,0.1,0.2,0.2,0.3,0.2c0.2,0.2,0.5,0.4,0.7,0.7c0.8,0.8,1.6,1.6,2.4,2.4c0.1,0.1,0.3,0.3,0.4,0.4
		c0.1,0.2,0.3,0.3,0.4,0.5c0.1,0.2,0.3,0.3,0.4,0.5c0.1,0.2,0.3,0.3,0.4,0.5c0.2,0.2,0.3,0.4,0.5,0.5c0.1,0.1,0.3,0.3,0.4,0.5
		c0.2,0.2,0.3,0.4,0.5,0.6c0.1,0.1,0.2,0.3,0.3,0.4c0.2,0.2,0.3,0.4,0.5,0.7c0.1,0.1,0.2,0.2,0.3,0.4c0.3,0.4,0.5,0.7,0.8,1.1
		c1.4,0.6,1.4,0.6,1.4-1.9c0.4-5.3,0.7-10.5,0.9-15.8c0.1-0.3,0.2-0.7,0.2-1.1c0-4.5,0.3-9.1-0.4-13.6c-0.1-0.5-0.1-0.9-0.2-1.4
		c0-1.2,0-2.3-0.5-3.5c0-0.6-0.1-1.1-0.4-1.6c0-0.1-0.1-0.1-0.1-0.2c-0.4-0.3-0.9-0.6-1.3-0.9c0,0-0.1,0-0.1-0.1c-0.3,0-0.6,0-0.9,0
		c-0.2,0-0.3,0-0.5,0c0,0,0,0,0,0c0-0.1,0-0.3,0-0.4c-0.5-0.4-1.2-0.3-1.6-0.8c-0.3-0.3-0.4-0.6,0-0.7c0.1,0,0.2,0,0.4,0
		c0,0,0-0.1,0.1-0.1c-3.3-2.7-16-12.8-16.8-13.7c-0.3-0.1-0.5-0.1-0.7-0.2c-0.1,0-0.1,0-0.2,0c0,0,0,0,0,0c-0.1,0.4-0.1,0.8,0,1.2
		c-0.2,0.6-0.4,1.2-0.5,1.9c-0.1,1.2-0.1,2.7-0.2,4.4c0,0,0,0,0,0.1c0,3,0,6,0,9c0,2.1-0.1,4.2-0.2,6.3c-0.3,3-0.6,6-0.8,9
		c-0.1-0.1-0.2-0.3-0.3-0.4c-0.1-0.1-0.2-0.1-0.2-0.2c0,0,0,0.1,0,0.1c0.3,0.4,14.1,14.5,14,14.4
		C1442.3,123.3,1443.2,124.2,1443.7,124.7L1443.7,124.7C1443.6,124.6,1443.7,124.6,1443.7,124.7z"/>
	<path fill="#2E2E2E" d="M1450.6,93.5C1450.6,93.5,1450.6,93.5,1450.6,93.5C1450.6,93.5,1450.6,93.5,1450.6,93.5z"/>
	<path fill="#2E2E2E" d="M1450.3,93.3C1450.2,93.3,1450.2,93.3,1450.3,93.3C1450.2,93.3,1450.2,93.3,1450.3,93.3z"/>
	<path fill="#2E2E2E" d="M1449.8,93.2C1449.8,93.1,1449.8,93.1,1449.8,93.2C1449.8,93.1,1449.8,93.1,1449.8,93.2z"/>
	<path fill="#2E2E2E" d="M1451.2,93.9c-0.1-0.1-0.3-0.2-0.4-0.2c0,0.1,0.1,0.1,0.1,0.2c0,0.1,0,0.1,0.1,0.2c0.1,0,0.2-0.1,0.4-0.1h0
		C1451.3,94,1451.3,94,1451.2,93.9z"/>
	<path fill="#2E2E2E" d="M1450.7,93.6C1450.7,93.6,1450.7,93.6,1450.7,93.6C1450.7,93.6,1450.7,93.6,1450.7,93.6z"/>
	<path fill="#2E2E2E" d="M1450,93.2C1450,93.2,1450,93.2,1450,93.2C1450,93.2,1450,93.2,1450,93.2z"/>
	<path fill="#2E2E2E" d="M1450.4,93.4C1450.4,93.4,1450.4,93.4,1450.4,93.4C1450.4,93.4,1450.4,93.4,1450.4,93.4z"/>
	<path fill="#2E2E2E" d="M1450.1,131.2c-0.1-0.2-0.2-0.3-0.4-0.5C1449.8,130.9,1450,131.1,1450.1,131.2z"/>
	<path fill="#2E2E2E" d="M1450.9,132.2c-0.1-0.1-0.2-0.3-0.3-0.4C1450.7,132,1450.8,132.1,1450.9,132.2z"/>
	<path fill="#2E2E2E" d="M1451.7,133.3c-0.1-0.1-0.2-0.2-0.3-0.4C1451.5,133,1451.6,133.2,1451.7,133.3z"/>
	<path fill="#2E2E2E" d="M1449.2,130.3c-0.1-0.2-0.3-0.3-0.4-0.5C1449,129.9,1449.1,130.1,1449.2,130.3z"/>
	<path fill="#2E2E2E" d="M1443.7,124.7c0,0,0.3,0.2,0.5,0.5C1444,125,1443.9,124.8,1443.7,124.7
		C1443.7,124.7,1443.7,124.7,1443.7,124.7z"/>
	<path fill="#2E2E2E" d="M1448.4,129.3c-0.1-0.2-0.3-0.3-0.4-0.5C1448.1,129,1448.3,129.1,1448.4,129.3z"/>
	<path fill="#2E2E2E" d="M1443.7,124.7C1443.7,124.6,1443.6,124.6,1443.7,124.7L1443.7,124.7
		C1443.7,124.6,1443.7,124.6,1443.7,124.7C1443.7,124.7,1443.7,124.7,1443.7,124.7z"/>
	<path fill="#2E2E2E" d="M1445.2,126c-0.2-0.2-0.5-0.4-0.7-0.7c0,0,0,0,0,0c0.5,0.5,1.1,1.1,1.7,1.7c0,0,0-0.1,0-0.1
		c0.4,0.4,0.9,0.9,1.3,1.3C1446.8,127.6,1446,126.8,1445.2,126z"/>
	<path fill="#2E2E2E" d="M1455.2,106.1c0-5.5-0.2-9.6-0.8-10c0-0.1-1-0.7-1.1-0.8c0.1,0.1,0.1,0.1,0.1,0.2c0.3,0.5,0.3,1.1,0.4,1.6
		c0.4,1.1,0.5,2.3,0.5,3.5c0.1,0.5,0.1,1,0.2,1.4c0.7,4.5,0.4,9,0.4,13.6c0,0.4-0.1,0.8-0.2,1.1c-0.2,5.3-0.5,10.5-0.9,15.8
		c0,2.4,0,2.4-1.4,1.9c1.4,0.6,1.7,1.2,1.7-1.3c0.4-5.1,1-17.7,1.1-26.8c-0.1,0-0.1,0-0.2-0.1
		C1455.1,106.2,1455.1,106.1,1455.2,106.1z"/>
	<path fill="#2E2E2E" d="M1449.6,93c0,0,0.1,0.1,0.2,0.1c0,0,0,0,0.1,0c0,0,0.1,0,0.1,0.1c0,0,0,0,0,0c0.1,0,0.1,0.1,0.2,0.1
		c0,0,0,0,0,0c0,0,0.1,0,0.1,0.1c0,0,0,0,0.1,0c0,0,0.1,0,0.1,0.1c0,0,0,0,0.1,0c0,0,0.1,0,0.1,0.1c0,0,0,0,0.1,0.1
		c0,0,0.1,0,0.1,0.1c0.1,0.1,0.3,0.1,0.4,0.2c0,0,0.1,0.1,0.1,0.1h0c0,0,0,0,0,0c-0.4-0.3-1-0.8-1.3-1c-0.1-0.1-0.4-0.3-0.8-0.6
		c0,0,0,0.1-0.1,0.1c0,0.2,0.1,0.3,0.1,0.4C1449.5,92.9,1449.6,93,1449.6,93z"/>
	<path fill="#2E2E2E" d="M1450.9,93.9c0-0.1-0.1-0.1-0.1-0.2c0,0,0,0,0,0c0,0,0-0.1-0.1-0.1c0,0,0,0-0.1-0.1c0,0-0.1,0-0.1-0.1
		c0,0,0,0-0.1,0c0,0-0.1,0-0.1-0.1c0,0,0,0-0.1,0c0,0-0.1,0-0.1-0.1c0,0,0,0,0,0c-0.1,0-0.2-0.1-0.2-0.1c0,0,0,0,0,0
		c0,0-0.1,0-0.1-0.1c0,0,0,0-0.1,0c-0.1,0-0.1-0.1-0.2-0.1c-0.1-0.1-0.1-0.1-0.2-0.2c0.3,0.5,1,0.6,1.1,1.1h0c0,0.1,0,0.3,0,0.4
		c0.1-0.1,0.3-0.2,0.4-0.2C1451,94,1451,94,1450.9,93.9z"/>
	<path fill="#2E2E2E" d="M1450.5,93.5c0,0-0.1,0-0.1-0.1C1450.5,93.4,1450.5,93.5,1450.5,93.5z"/>
	<path fill="#2E2E2E" d="M1450.7,93.6C1450.7,93.6,1450.6,93.5,1450.7,93.6C1450.6,93.5,1450.7,93.6,1450.7,93.6z"/>
	<path fill="#2E2E2E" d="M1449.8,93.1c-0.1,0-0.1-0.1-0.2-0.1C1449.7,93.1,1449.7,93.1,1449.8,93.1z"/>
	<path fill="#2E2E2E" d="M1450,93.2c0,0-0.1,0-0.1-0.1C1449.9,93.2,1449.9,93.2,1450,93.2z"/>
	<path fill="#2E2E2E" d="M1450.2,93.3c-0.1,0-0.2-0.1-0.2-0.1C1450.1,93.3,1450.2,93.3,1450.2,93.3z"/>
	<path fill="#2E2E2E" d="M1450.8,93.6C1450.8,93.7,1450.8,93.7,1450.8,93.6C1450.8,93.7,1450.8,93.7,1450.8,93.6
		C1450.8,93.7,1450.8,93.7,1450.8,93.6z"/>
	<path fill="#2E2E2E" d="M1450.4,93.4c0,0-0.1,0-0.1-0.1C1450.3,93.4,1450.3,93.4,1450.4,93.4z"/>
	<path fill="#2E2E2E" d="M1455,106.2c0.1,0,0.1,0,0.2,0.1c0-0.1,0-0.1,0-0.2C1455.1,106.1,1455.1,106.2,1455,106.2z"/>
	<path fill="#2E2E2E" d="M1451.4,94c-0.1,0-0.2,0-0.4,0.1c0,0.1,0,0.2,0,0.3c0.3,0,0.6,0,0.9,0C1451.8,94.4,1451.6,94.2,1451.4,94
		C1451.4,94,1451.4,94,1451.4,94z"/>
	<path fill="#2E2E2E" d="M1451.4,94C1451.4,94,1451.4,94,1451.4,94C1451.4,94,1451.4,94,1451.4,94C1451.4,94,1451.4,94,1451.4,94z"
		/>
	<path fill="#2E2E2E" d="M1450.6,94.3C1450.6,94.3,1450.6,94.3,1450.6,94.3c0.2,0,0.3,0,0.5,0c0-0.1,0-0.2,0-0.3
		C1450.9,94.1,1450.7,94.2,1450.6,94.3z"/>
	<path fill="#2E2E2E" d="M1449.3,92.5c-0.2,0-0.3,0-0.4,0c0.2,0.1,0.3,0.3,0.5,0.4C1449.4,92.8,1449.3,92.6,1449.3,92.5z"/>
	<path fill="#2E2E2E" d="M1449.4,92.9c-0.2-0.1-0.3-0.3-0.5-0.4c-0.4,0.1-0.3,0.4,0,0.7c0.4,0.4,1.2,0.3,1.6,0.8h0
		C1450.4,93.4,1449.7,93.3,1449.4,92.9z"/>
	<path fill="#2C2C2C" d="M1402.9,38.2c0-0.1,0.5,3,1.2,4.2c0-2.9,0.2-5.7,1-8.5c0.5-1.6-0.9,0.2-1-0.5c-1.2,2-1.5,4.3-1.7,6.6
		C1402.5,40.3,1402.7,38.1,1402.9,38.2z"/>
	<path fill="#6B6B6B" d="M1431.2,81.6c0.1-1.8,0.1-3,0.1-3c0.1,0,0.2-0.1,0.3-0.1c-0.8-1.1-1.8-1.8-2.8-2.7c0,0,0,0,0,0
		c-2.2-2.9-5-5.2-7.5-7.8h0c-0.7-0.8-1.2-1.6-2-2.3c-0.3-0.3-0.6-0.6-0.9-0.8c-0.3-0.3-0.6-0.6-1-0.9c-2.5-2.5-4.6-5.3-6.9-8
		c-0.4-0.4-0.7-0.8-0.4-1.4c0,0,0-0.1-0.1-0.1c0,0-0.1-0.1-0.1-0.1c-0.2-0.3-0.3-0.7-0.1-1.1c-1.5,0.2-1.3-1.6-2.4-1.9
		c-0.4-0.9-0.9-1.8-1.4-2.6c-1-1.9-1.8-3.9-1.9-6.2c0,0,0,0,0,0c-0.7-1.2-1.1-2.9-1.3-2.2c0,0.1-0.1,0.3-0.1,0.4
		c-0.1-0.2-0.3-0.3-0.4-0.5c-0.4,2.9-0.7,8.9-0.9,9.3c0.9,0,0.9,0.6,1.1,1.2c-0.2,0.1-0.5,0.1-0.7,0.2c-0.1-0.5-0.3-0.9-0.4-1.4
		c-0.3,4.3-0.3,8.6,0.1,12.9c0.3,3.5,0.5,7,1.8,10.3c0.5,2.5,1.5,4.9,2.6,7.2c0,0.1,0.1,0.2,0.1,0.3c0.3,1,1,2,0.9,3
		c-0.2,3.2,1.5,5.2,3.5,7.2c6.3,6.5,12,13.6,18.9,19.4c0.4-2.1,1.2-15.2,1.6-23.7C1430.9,84.6,1430.9,83.1,1431.2,81.6z
		 M1416.8,68.3c-1,0.3-1.8,0-2.4-1.2c-0.3-0.6-1.1-1.2-0.6-1.8c0.7-0.9,1.3,0.3,2,0.4c0.1,0,0.1,0.1,0.2,0.1c0,0,0,0,0.1,0
		c0.1,0,0.2,0.1,0.3,0.1c0.1,0.1,0.3,0.1,0.4,0.2c0.1,0.2,0.2,0.3,0.2,0.5c0.2,0.5,0.5,0.9,0.7,1.4c0,0,0,0,0,0
		C1417.3,68.1,1417,68.2,1416.8,68.3z M1430.2,85.2c-0.1-0.1-0.3-0.3-0.3-0.4c0.2-0.1,0.3-0.2,0.5-0.3
		C1430.3,84.6,1430.3,84.9,1430.2,85.2z"/>
	<path fill="#6B6B6B" d="M1402.5,50.6c-0.1-0.6-0.2-1.2-1.1-1.2c0,0,0,0,0,0c0.1,0.5,0.3,0.9,0.4,1.4
		C1402.1,50.7,1402.3,50.7,1402.5,50.6z"/>
	<path fill="#6B6B6B" d="M1430.2,85.2c0-0.3,0.1-0.5,0.1-0.8c-0.2,0.1-0.3,0.2-0.5,0.3C1430,84.9,1430.1,85,1430.2,85.2z"/>
	<path fill="#6B6B6B" d="M1431.2,81.6c0.1-0.6,0.3-1.3,0.5-1.9c-0.1-0.4-0.1-0.8,0-1.2c0,0,0,0,0,0c-0.1,0-0.2,0.1-0.3,0.1
		C1431.3,78.6,1431.3,79.8,1431.2,81.6z"/>
	<path fill="#6B6B6B" d="M1429.9,110.4c0.2-3,0.5-6,0.8-9c0.1-2.1,0.2-4.2,0.2-6.3c0-3,0-6,0-9c0,0,0,0,0-0.1
		c-0.4,8.6-1.2,21.6-1.6,23.7c0.1,0.1,0.2,0.1,0.2,0.2C1429.7,110.1,1429.8,110.3,1429.9,110.4z"/>
	<path fill="#6B6B6B" d="M1416.1,66.3c-0.1,0-0.2-0.1-0.3-0.2c-0.1,0.4,0,0.7,0.3,0.9C1416.1,66.8,1416.1,66.5,1416.1,66.3z"/>
	<path fill="#6B6B6B" d="M1416.1,66.3c-0.1,0.3-0.1,0.5,0,0.7c0.4,0.4,1.1,0.6,1.5,0.9c-0.2-0.5-0.5-0.9-0.7-1.4
		c-0.2-0.1-0.3-0.2-0.5-0.4C1416.3,66.3,1416.2,66.3,1416.1,66.3z"/>
	<path fill="#6B6B6B" d="M1416.9,66.6c-0.1-0.2-0.2-0.3-0.2-0.5c-0.1,0-0.2,0.1-0.2,0.1C1416.6,66.4,1416.7,66.5,1416.9,66.6z"/>
	<path fill="#6B6B6B" d="M1415.8,66.1c-0.1-0.1-0.1-0.3-0.1-0.5c-0.7,0-1.3-1.2-2-0.4c-0.5,0.6,0.3,1.2,0.6,1.8
		c0.6,1.2,1.4,1.4,2.4,1.2c-0.3-0.4-0.6-0.8-0.7-1.3C1415.9,66.8,1415.7,66.5,1415.8,66.1z"/>
	<path fill="#6B6B6B" d="M1416.1,67c0.1,0.5,0.4,0.9,0.7,1.3c0.3-0.1,0.5-0.2,0.8-0.3c0,0,0,0,0,0
		C1417.2,67.6,1416.5,67.4,1416.1,67z"/>
	<path fill="#6B6B6B" d="M1416.1,66.3c0-0.1,0-0.2,0.1-0.3c0,0,0,0,0,0c-0.1-0.1-0.1-0.2-0.2-0.2c0,0,0,0-0.1,0
		c-0.1,0.1-0.1,0.3-0.1,0.4C1415.9,66.2,1416,66.3,1416.1,66.3z"/>
	<path fill="#6B6B6B" d="M1416.3,65.9c-0.1,0-0.2-0.1-0.3-0.1c0.1,0.1,0.1,0.2,0.2,0.2C1416.2,66,1416.3,66,1416.3,65.9z"/>
	<path fill="#6B6B6B" d="M1416.3,66.1C1416.3,66.1,1416.2,66.1,1416.3,66.1C1416.2,66,1416.2,66,1416.3,66.1c-0.1,0-0.1,0.1-0.2,0.2
		c0.1,0,0.2,0,0.3-0.1C1416.4,66.2,1416.3,66.2,1416.3,66.1z"/>
	<path fill="#6B6B6B" d="M1416.3,66.1c0,0,0.1,0.1,0.1,0.1c0.1,0,0.2-0.1,0.2-0.1c-0.1-0.1-0.3-0.1-0.4-0.2
		C1416.3,66,1416.2,66,1416.3,66.1C1416.2,66.1,1416.3,66.1,1416.3,66.1z"/>
	<path fill="#6B6B6B" d="M1415.9,65.7c-0.1,0-0.1-0.1-0.2-0.1c0,0.2,0,0.4,0.1,0.5C1415.9,66,1415.9,65.9,1415.9,65.7z"/>
	<path fill="#6B6B6B" d="M1402.9,40.2c0.2-0.6,0.5,1,1.3,2.2c-0.7-1.2-1.2-4.3-1.2-4.2c-0.1-0.2-0.4,2-0.5,1.9
		c0.1,0.2,0.3,0.3,0.4,0.5C1402.8,40.5,1402.8,40.3,1402.9,40.2z"/>
	<linearGradient id="SVGID_2_" gradientUnits="userSpaceOnUse" x1="1517.3292" y1="130.7889" x2="1527.552" y2="108.133">
		<stop  offset="0" style="stop-color:#C7C8CC"/>
		<stop  offset="0.3396" style="stop-color:#FFFFFF"/>
		<stop  offset="0.7591" style="stop-color:#D9D9D9"/>
		<stop  offset="1" style="stop-color:#C9C9C9"/>
	</linearGradient>
	<path fill="url(#SVGID_2_)" d="M1494,172c-1.4-1.1-2.4-2.5-3.4-4c-0.1-0.2-0.3-0.5-0.4-0.7c-0.9-2.1-1.8-4.1-2.6-6.2
		c-0.1-0.3-0.2-0.6-0.2-0.9c-0.1-0.5-0.3-1-0.4-1.5c-0.1-0.3-0.2-0.6-0.3-1c0.2-1.2-0.7-2.3-0.5-3.5c0,0,0-0.1,0-0.1l-0.5-2.9h0
		c0-3.5-0.1-7-0.1-10.5c0.2-2.8,0.3-5.6,0.5-8.4c0.2-1.8,0.4-3.7,0.6-5.5c0.9-3.4,1.5-6.8,2.8-10.1c0.5-0.8,0.9-1.6,1.4-2.4
		c0.6-0.8,1.2-1.5,1.8-2.3c0,0,0,0,0,0c0.1,0,4.4-5.4,10.2-7c1.3-0.3,2.6-0.7,3.8-1.4c4.9-0.9,9.8-1.9,14.7-2.8
		c5.2-0.7,10.4-1.5,15.6-2.5c1.3-0.3,2.6-0.5,3.9-0.8c9.3-1.3,18.5-3.7,27.6-6c14.3-3.6,27.9-8.9,41.1-15.4c0.1,0,0.1,0,0.2-0.1
		c1.8-0.6,3.5-1.7,5.5-1.9c0.7-0.1,1.3-0.1,2,0.1c-2-1.5-4.2-2.2-6.6-2.7c0,0,0,0,0,0c-1.6-0.9-3.5-1.2-5.3-1.7
		c-7-1.8-13.9-3.9-21.1-4.9v0c-0.7-0.5-1.6-0.5-2.4-0.5c-1.9,0.1-3.8,0-5.5-0.9c-0.3,6.3-4.4,9.4-9.6,11.7c-0.3,0.1-0.7,0.3-1,0.5
		c-3,1.6-5.9,3.3-9.3,3.7c0,0.1-0.1,0.3-0.1,0.4c0.5,0.2,1,0.3,1.4,0.5c2.6-0.2,4.7,1.6,7.2,1.9c-4.2,1.9-8.6,2.7-12.9,4.1
		c-0.7,0.2-1.3,0.3-2,0.4c-1.3,0.1-2.6,0-4.2,0c-0.1,0-0.2,0-0.2,0c0,0,0,0,0.1,0c1.4-0.9,2.3-1.4,3.4-2.2c0,0,0,0,0,0
		c-1.6-0.4-2.7,0.5-4,0.5c-1.5,0.6-3.1,0.7-4.7,0.3c-2.9-0.7-5.7,0-8.6,0.5c-4.1,0.7-8.1,1.4-12.2,2c-0.1,0-0.1,0-0.2,0
		c-2.4,0.2-4.8,0.3-7.2,0.9c0,0,0,0,0,0l-6.6,0.4c-3.4,0.2-6.8,0.4-10.1,0.6c0.2,0.1,0.3,0.1,0.5,0.2c-0.2,0-0.3-0.1-0.5-0.2
		c-1.3,0-3.6,0.1-5.9,0.2c-2.1,0.1-3.5,0.2-3.5,0.2c-1.3,0-2.5,0.1-3.7,0.1c-2,0.3-3.9,0.4-5.9,0.7c-1.1,0.2-4.2,0.7-4.7,0.7
		c0,0,0,0,0,0c0,0-4.6,1.4-4.7,1.5c-1.2,0.3-3.4,1.4-4.8,2.2c-0.1,0.1-0.2,0.1-0.3,0.2c-0.3,0.2-0.6,0.3-0.9,0.5
		c-0.2,0.1-0.3,0.2-0.5,0.3c-1.8,1.4-3.3,3-4.4,5c-0.1,0.1-0.1,0.3-0.2,0.4c-0.3,0.5-0.5,0.9-0.7,1.4c0.2,0.3,0.3,0.6,0.4,0.9
		c0.2,0.7,0.3,1.5,0.3,2.2c0.8,0.8,0.5,1.8,0.4,2.7c0,0.5-0.1,0.9-0.1,1.4c0.2,0.7,0.1,1.4-0.2,2c-0.1,1.1-0.2,2.2-0.2,3.3
		c-1.2,15.3,0.1,24.7,2,30.5c1.6,4.5,3.6,5.9,5,7.1c0.8,1,1.7,1.8,2.8,2.4c-0.2,0.2-0.3,0.4-0.5,0.5c2.6,1,4.9,2.9,7.4,4.1l0,0
		c1.9,1.8,4.2,2.9,6.5,4.2l0,0c1.9,1.6,4.1,2.7,6.3,3.9c3.6,2,7,4.5,11,5.7c-0.4-0.4-0.9-0.8-1.3-1.2
		C1494.8,172.6,1494.4,172.3,1494,172z M1456.1,133.2C1456.1,133.2,1456.1,133.2,1456.1,133.2c-0.6-4.3-0.6-8.7,0-13
		C1456.1,124.5,1456.1,128.8,1456.1,133.2z M1478.4,144.9C1478.4,144.9,1478.4,144.9,1478.4,144.9
		C1478.4,144.9,1478.4,144.9,1478.4,144.9c0,0.1,0,0.1,0,0.2c0,0.2,0,0.3,0,0.5c0,0,0,0,0,0c0,0.3,0,0.6,0,0.9c0,0,0,0,0,0h0
		c0,1.2,0,2.5,0,3.7c-0.2,1.1-0.3,2.3-0.6,3.4c-0.9,2.9-3.1,3.7-6,2.6c-2-0.8-3.8-1.8-5.4-3c-1.2-0.7-2.2-1.5-3.1-2.6
		c-0.4-0.4-0.8-0.7-1.1-1.1c-0.6-0.6-1.2-1.2-1.4-2.1c-0.7-1.2-4.2-14.6-4.1-15.6c0.1-2-0.1-4-0.1-6c0.1-1.5,0-3.1,0.1-4.6
		c0-0.8,0.1-1.5,0.2-2.3c0.1-1.3,0.4-2.6,0.8-3.9c0.4-1.1,0.9-2.1,1.7-3h0c3.2-3.3,6.7-2.7,10.3-0.8c1.6,0.8,3,1.8,4.5,2.7
		c0.1,0.1,0.2,0.3,0.3,0.4c0.9,1.2,1.8,2.3,2.4,3.6c0,0.1,0.1,0.1,0.1,0.2v0c0,0,0,0,0,0c1.6,3.1,1.6,7.2,1.8,10.5
		c0.1,2.3,0.2,4.5,0.1,6.6C1478.9,136.6,1478.6,143.7,1478.4,144.9z M1479.8,130.6C1479.8,130.6,1479.8,130.6,1479.8,130.6
		C1479.8,130.6,1479.8,130.6,1479.8,130.6C1479.8,130.6,1479.8,130.6,1479.8,130.6z"/>
	<polygon fill="#7D7D7D" points="1479.8,130.6 1479.8,130.6 1479.8,130.6 	"/>
	<path fill="#7D7D7D" d="M1455.7,105.1c0,0,0,0.3,0,0.7c0.1,0,0.2-0.1,0.3-0.1c0,0.1,0.1,0.2,0.1,0.3c-0.1,0.1-0.3,0.2-0.4,0.4
		c-0.1,3.6-0.4,13.1-0.4,14.1c-0.1,13.5,1.2,21.1,2.8,25.6c-1.9-5.8-3.2-15.1-2-30.5c0-1.1,0.1-2.2,0.2-3.3c0.3-0.6,0.4-1.4,0.2-2
		c0-0.5,0.1-0.9,0.1-1.4c0.1-0.9,0.4-2-0.4-2.7c0-0.7-0.1-1.5-0.3-2.2c-0.1-0.3-0.2-0.7-0.4-0.9c0.2-0.5,0.4-0.9,0.7-1.4
		C1455.5,102.7,1454.9,103.8,1455.7,105.1z"/>
	<path fill="#7D7D7D" d="M1456,105.8c-0.1,0-0.2,0-0.3,0.1c0,0.2,0,0.4,0,0.6c0.1-0.1,0.3-0.2,0.4-0.4
		C1456.1,106,1456,105.9,1456,105.8z"/>
	<path fill="#7D7D7D" d="M1456.1,133.2C1456.1,133.2,1456.1,133.2,1456.1,133.2c-0.3-4.3-0.3-8.7,0-13
		C1455.5,124.5,1455.5,128.8,1456.1,133.2z"/>
	<path fill="#7D7D7D" d="M1456.1,133.2c0-4.3,0-8.7,0-13C1455.8,124.5,1455.8,128.8,1456.1,133.2z"/>
	<path fill="#7D7D7D" d="M1495.6,89.8c3.4-0.2,6.8-0.4,10.1-0.6c-2.4,0.1-11.1,0.5-16,0.8C1492,89.9,1494.3,89.8,1495.6,89.8z"/>
	<path fill="#7D7D7D" d="M1467.3,93.1c0.2,0,4.7-1.5,4.7-1.5c0,0,0,0,0,0c0.4,0,3.5-0.5,4.7-0.7c2-0.3,4-0.4,5.9-0.7
		c-13,0.7-18.3,3.9-20.1,5C1463.8,94.6,1466,93.4,1467.3,93.1z"/>
	<path fill="#7D7D7D" d="M1495.6,89.8c0.2,0.1,0.3,0.2,0.5,0.2C1495.9,89.9,1495.8,89.9,1495.6,89.8z"/>
	<path fill="#7D7D7D" d="M1478.4,145.5c0-0.2,0-0.3,0-0.5C1478.4,145.2,1478.4,145.3,1478.4,145.5
		C1478.4,145.5,1478.4,145.5,1478.4,145.5z"/>
	<path fill="#7D7D7D" d="M1478.4,144.9C1478.4,144.9,1478.4,144.9,1478.4,144.9C1478.4,144.9,1478.4,144.9,1478.4,144.9
		C1478.4,144.9,1478.4,144.9,1478.4,144.9z"/>
	<path fill="#969696" d="M1478.4,145C1478.4,145,1478.4,145,1478.4,145C1478.4,145,1478.4,145,1478.4,145z"/>
	<path fill="#969696" d="M1478.8,128.7c-0.2-3.3-0.3-7.4-1.8-10.5c0,0,0,0,0,0v0c0-0.1-0.1-0.1-0.1-0.2c-0.6-1.3-1.5-2.4-2.4-3.6
		c-0.1-0.1-0.2-0.3-0.3-0.4c-1.5-0.9-3-1.9-4.5-2.7c-3.6-1.8-7.1-2.5-10.3,0.8h0c-0.8,0.9-1.3,1.9-1.7,3c-0.4,1.3-0.7,2.6-0.8,3.9
		c-0.1,0.8-0.1,1.5-0.2,2.3c-0.1,1.5,0,3-0.1,4.6c-0.1,2,0.2,4,0.1,6c0,1,3.4,14.4,4.1,15.6c0.2,0.9,0.8,1.5,1.4,2.1
		c0.4,0.4,0.8,0.8,1.1,1.1c0.8,1.1,1.8,1.9,3.1,2.6c1.7,1.2,3.4,2.2,5.4,3c2.8,1.1,5,0.3,6-2.6c0.3-1.1,0.4-2.3,0.6-3.4
		c0-1.2,0-2.5,0-3.7h0c0,0,0,0,0,0c0-0.3,0-0.6,0-0.9c-0.2,2.6-0.5,5.5-1.7,7.8c-2.1,3.9-7.5,0.6-10.5-1.3c-0.9-1-2-1.7-2.9-2.9
		c-0.1-0.2-0.3-0.4-0.4-0.6c-0.1-1.6-0.5-3.2-1.1-4.7c-0.2-0.5-0.8-0.8-1.3-0.6c-0.4-1-0.7-2.1-1-3.2c-0.3-0.9-0.5-1.9-0.7-2.8
		c0-1.7,0-3.3,0-5c0-1.3,0.2-2.9-0.1-4.2c-0.1-0.2-0.2-0.4-0.4-0.5c0.1-2.5,0-4.9,0.2-7.4c0.1-0.8-0.8-1.1-1.3-0.8
		c0.3-1.9,0.9-3.8,1.8-5.5c2.3-4.4,7.3-3.6,11-1.7c3.3,1.7,5.9,4.5,7.3,7.9c1.4,3.5,1.2,7.7,1.2,11.4c0,4.2,0.2,8.4,0,12.5
		c0,0.2,0,0.5,0,0.7c0.2-1.2,0.5-8.2,0.5-9.5C1479,133.1,1478.9,130.9,1478.8,128.7z"/>
	<path fill="#969696" d="M1478.5,131.6c0-3.7,0.2-7.9-1.2-11.4c-1.4-3.4-4-6.2-7.3-7.9c-3.7-1.9-8.7-2.7-11,1.7
		c-0.9,1.7-1.5,3.6-1.8,5.5c0.6-0.3,1.4,0,1.3,0.8c-0.2,2.4-0.2,4.9-0.2,7.4c0.2,0.1,0.3,0.3,0.4,0.5c0.4,1.3,0.1,2.8,0.1,4.2
		c0,1.7,0,3.3,0,5c0.2,1,0.5,1.9,0.7,2.8c0.3,1.1,0.6,2.1,1,3.2c0.5-0.1,1.1,0.1,1.3,0.6c0.6,1.4,1,3.1,1.1,4.7
		c0.1,0.2,0.3,0.4,0.4,0.6c0.9,1.1,2,1.9,2.9,2.9c3,1.9,8.4,5.1,10.5,1.3c1.2-2.3,1.5-5.1,1.7-7.8c0-0.2,0-0.3,0-0.5c0,0,0,0,0-0.1
		c0,0,0-0.1,0-0.1c0-0.2,0-0.5,0-0.7C1478.7,140,1478.5,135.8,1478.5,131.6z M1474.6,143c-0.6,0.1-1-0.3-1.1-0.9
		c-0.1-0.7,0.1-1.2,0.7-1.4c0.9,0,1.1,0.6,1.2,1.2C1475.5,142.5,1475.2,143,1474.6,143z"/>
	<path fill="#969696" d="M1474.2,140.7c-0.6,0.3-0.8,0.8-0.7,1.4c0.1,0.6,0.5,0.9,1.1,0.9c0.7-0.1,0.9-0.5,0.8-1.1
		C1475.2,141.3,1475,140.7,1474.2,140.7z"/>
	<path fill="#3F3F3F" d="M1515.3,179.6c0.1,0,0.2,0,0.1,0C1515.5,179.7,1515.4,179.7,1515.3,179.6z"/>
	<linearGradient id="SVGID_3_" gradientUnits="userSpaceOnUse" x1="1535.2722" y1="149.7448" x2="1550.7445" y2="116.0373">
		<stop  offset="0" style="stop-color:#1D1D1B"/>
		<stop  offset="0.3396" style="stop-color:#616161"/>
		<stop  offset="0.5656" style="stop-color:#3B3B3B"/>
		<stop  offset="0.8531" style="stop-color:#101010"/>
		<stop  offset="1" style="stop-color:#000000"/>
	</linearGradient>
	<path fill="url(#SVGID_3_)" d="M1511.9,176.5c-0.2-0.3-0.4-0.6-0.5-0.9c-0.1-0.5-0.2-0.9-0.3-1.4c-3.7-11.8-2.5-38.9-2.5-39
		c0.1-0.8-1.1-16.5,8.9-23.5c0.2-0.2,0.5-0.4,0.7-0.6c0.2-0.1,0.9-0.5,2-1c2.1-1.1,5.5-2.8,6.2-2.6c0.1-0.1,0.4-0.1,0.8-0.3
		c0.6-0.2,1-0.4,1.1-0.4c0.9-0.3,4.8-1.3,5.1-1.3c0,0,1.6-0.4,3.6-0.9c2.4-0.6,5.1-1.3,7.7-1.9c0.8-0.2,3.9-1.1,5.5-1.4
		c0.9-0.4,8.5-2.1,9.6-2.3c5.4-1,44.8-13.2,49.5-14.7c0.7-0.2,1.5-0.4,2.2-0.6c2.4-1.2,4.8-2,7.4-2.3c0.2-0.2,0.5-0.2,0.7-0.3
		c0.2-0.1,0.4-0.1,0.5-0.1c0.9-0.3,1.8-0.6,2.8-0.3c0.2,0,0.4,0,0.6,0.1c1.6-1.2,2.5,0.8,3.8,1l0,0c-0.7-1.8-2.6-2.4-3.9-3.6
		c-0.3,0-0.5-0.1-0.8-0.1c-1.5-1.8-4-2.1-5.6-3.7c-0.6-0.2-1.2-0.2-1.8-0.1c-1.8,0.2-3.5,1.2-5.2,1.8c-0.1,0-0.1,0-0.2,0.1
		c-13.2,6.5-26.8,11.8-41.1,15.4c-9.1,2.3-18.2,4.6-27.6,6c-1.3,0.3-2.6,0.5-3.9,0.8c-5.2,1-10.4,1.9-15.6,2.5
		c-4.9,0.9-9.8,1.9-14.7,2.8c-1.2,0.7-2.5,1.1-3.8,1.4c-1.2,0.7-2.8,0.8-3.9,1.8c-2,1.8-4.5,2.8-6,5.2c-0.1,0-0.3,0-0.4,0
		c0,0,0,0,0,0c-0.6,0.8-1.2,1.5-1.8,2.3c-0.5,0.8-0.9,1.6-1.4,2.4c-1.3,3.3-1.9,6.7-2.8,10.1c-0.2,1.8-0.4,3.7-0.6,5.5
		c-0.2,2.8-0.3,5.6-0.5,8.4c0,3.5,0.1,7,0.1,10.5c0,0,0,0,0,0l0.5,2.9c0,0,0,0.1,0,0.1c-0.2,1.2,0.7,2.3,0.5,3.4
		c0.1,0.3,0.2,0.6,0.3,1c0.1,0.5,0.3,1,0.4,1.5c0.1,0.3,0.2,0.6,0.2,0.9c0.9,2.1,1.8,4.1,2.6,6.2c0.1,0.2,0.3,0.5,0.4,0.7
		c1,1.5,2,2.8,3.4,4c0.4,0.3,0.8,0.7,1.3,0.9c0.5,0.5,1,0.9,1.4,1.4c-0.1,0-0.3-0.1-0.4-0.1c0.1,0.1,0.1,0.1,0.2,0.2
		c3.7,2.3,17.1,5,18.7,5.3c-0.2-0.1-0.6-0.1-0.6-0.1c0,0,0,0-0.1,0C1513.6,179.1,1512.7,178.1,1511.9,176.5z M1530.3,103.2
		c0.3-0.1,0.7-0.3,1-0.4c2.8-0.6,5.5-1.3,8.3-1.9c0.2,0.2,0.3,0.3,0.5,0.5c-0.1,0-0.2,0.1-0.3,0.1c-1.6,0.5-3.2,0.9-4.8,1.4
		c-1.3,0.4-2.6,0.8-4,1.1c-0.2-0.1-0.4,0-0.6,0.2c-0.2,0-0.4,0-0.6,0c-0.1,0-0.2,0-0.3,0c-0.1-0.1-0.3-0.3-0.4-0.4
		C1529.4,103.5,1529.9,103.4,1530.3,103.2z M1491.4,152.8c-0.1,1.2-0.5,2.2-1.8,2c-0.1,0-0.3,0-0.5-0.1c0.8-3.8,0.6-7.6,0.7-11.4
		c0.1-1.6-0.2-3.2-0.3-4.8c0,0,0-0.1,0-0.1c0-0.5,0-1,0-1.4c0-0.3-0.1-0.6-0.3-0.9c0-0.1-0.1-0.2-0.2-0.3c0.2-1-0.6-1.6-1-2.4
		c0.6-0.5,1.3-0.3,1.9-0.3c0.3,0.3,0.6,0.6,0.9,0.9c0.2,0.2,0.3,0.3,0.5,0.5c0,4,0,8,0,11.9c0,0,0,0.1,0,0.1
		C1491.4,148.5,1491.5,150.7,1491.4,152.8z M1504.1,130.2c-0.1,1.4-0.2,2.7-0.2,4.1c0,1.2,0,2.5,0,3.7c0,0,0,0.1,0,0.1
		c0,0-0.4,11.2-0.5,16.7c-0.1,1,0.1,1.9,0.2,2.8c-0.3,0.3-0.6,0.7-0.7,1.2c-2.3,0.7-4.7,1.4-7.1,1.3c-0.1-0.1-0.3-0.1-0.4-0.2
		c-0.1,0-0.1-0.1-0.2-0.1c0,0-0.1-0.1-0.1-0.1c0,0,0,0,0,0c-0.1-0.3-0.1-0.6-0.2-0.9c-0.1-0.5-0.2-1-0.4-1.4
		c0.5-0.6,0.5-1.4,0.5-2.3c0-1.5,0.6-25.8,0.8-27.7c0.2-1.2,0.4-2.4,0.5-3.6c0,0,0,0,0,0s0,0,0,0c-0.1-1.4,0.6-1.9,1.9-1.4h0
		c0.2,0.2,0.5,0.3,0.7,0.5c0.2,0.1,0.5,0.3,0.7,0.4c0,0,0.1,0,0.1,0c1.2,1.6,2.6,3,4.2,4.2c0,0.2,0.1,0.3,0.1,0.5
		c0,0.2,0,0.5,0.1,0.7c0,0.2,0,0.4,0,0.6C1504.2,129.6,1504.2,129.9,1504.1,130.2z"/>
	<path fill="#3F3F3F" d="M1520.1,110.2c2.1-0.9,5.2-2.2,6.9-2.9c-0.4,0.1-0.7,0.2-0.8,0.3C1525.6,107.4,1522.3,109.1,1520.1,110.2z"
		/>
	<path fill="#3F3F3F" d="M1511.9,176.5c0.8,1.6,1.7,2.7,2.8,3C1513.6,178.6,1512.6,177.6,1511.9,176.5z"/>
	<path fill="#3F3F3F" d="M1508.5,135.3c0,0-1.2,27.2,2.5,39c-2.8-12-2.3-22.2-2.5-25.3c0-3.4,0.1-15.2,0.2-16
		c0.4-8.1,2.3-15.6,8.7-21.1C1507.5,118.8,1508.7,134.5,1508.5,135.3z"/>
	<path fill="#3F3F3F" d="M1544.4,102.8c0,0,0.1,0,0.2-0.1c-2.6,0.6-5.3,1.3-7.7,1.9C1539.9,104,1543.8,103,1544.4,102.8z"/>
	<path fill="#3F3F3F" d="M1623.4,80.8c1.8,0.2,2.8,1,3.7,1.1l0.1-0.1C1625.9,81.6,1625,79.7,1623.4,80.8z"/>
	<path fill="#3F3F3F" d="M1620,81.1c1.1-0.2,2-0.3,2.8-0.3C1621.8,80.5,1620.9,80.7,1620,81.1z"/>
	<path fill="#3F3F3F" d="M1531.2,103.4c-0.3,0.5-0.9,0.6-1.5,0.7c0.2,0,0.4,0,0.6,0c0.2-0.1,0.4-0.2,0.6-0.2c1.3-0.4,2.6-0.8,4-1.1
		c-1.2,0.3-2.4,0.5-3.6,0.6C1531.3,103.5,1531.3,103.4,1531.2,103.4z"/>
	<path fill="#3F3F3F" d="M1531.3,103.5c1.2-0.1,2.4-0.3,3.6-0.6c1.6-0.5,3.2-0.9,4.8-1.4c-0.1-0.2-0.2-0.4-0.2-0.6
		c-2.8,0.6-5.5,1.3-8.3,1.9c0,0.3,0,0.5-0.1,0.6C1531.3,103.4,1531.3,103.5,1531.3,103.5z"/>
	<path fill="#3F3F3F" d="M1529.7,104.1c0.6-0.2,1.2-0.2,1.5-0.7c-0.3-0.1-0.6-0.2-0.9-0.2c-0.4,0.2-0.9,0.3-1.3,0.5
		c0.1,0.1,0.3,0.3,0.4,0.4C1529.5,104.1,1529.6,104.1,1529.7,104.1z"/>
	<path fill="#3F3F3F" d="M1531.3,102.8c-0.3,0.1-0.7,0.3-1,0.4c0.3,0.1,0.6,0.1,0.9,0.2C1531.3,103.3,1531.3,103.1,1531.3,102.8z"/>
	<path fill="#3F3F3F" d="M1540.1,101.4c-0.2-0.2-0.3-0.3-0.5-0.5c0,0.2,0.1,0.4,0.2,0.6C1539.9,101.4,1540,101.4,1540.1,101.4z"/>
	<path fill="#3F3F3F" d="M1495.5,172.9c-0.5-0.3-0.9-0.6-1.3-0.9c-1.4-1.1-2.4-2.5-3.4-4c-0.1-0.2-0.3-0.5-0.4-0.7
		c-0.9-2.1-1.8-4.1-2.6-6.2c-0.1-0.3-0.2-0.6-0.2-0.9c-0.1-0.5-0.3-1-0.4-1.5c-0.1-0.3-0.2-0.6-0.3-1c0.2-1.2-0.7-2.3-0.5-3.4
		c0,0,0-0.1,0-0.1l-0.5-2.9c0,0,0,0,0,0c0-3.5-0.1-7-0.1-10.5c0.2-2.8,0.3-5.6,0.5-8.4c0.2-1.8,0.4-3.7,0.6-5.5
		c0.9-3.4,1.5-6.8,2.8-10.1c0.5-0.8,0.9-1.6,1.4-2.4c0.6-0.8,1.2-1.5,1.8-2.3c0,0,0,0,0,0c0.1,0,0.3,0,0.4,0c1.5-2.3,4-3.4,6-5.2
		c1.1-1,2.6-1.1,3.9-1.8c1.3-0.3,2.6-0.7,3.8-1.4c4.9-0.9,9.8-1.9,14.7-2.8c5.2-0.7,10.4-1.5,15.6-2.5c1.3-0.3,2.6-0.5,3.9-0.8
		c9.3-1.3,18.5-3.7,27.6-6c14.3-3.6,27.9-8.9,41.1-15.4c0.1,0,0.1,0,0.2-0.1c1.7-0.6,3.4-1.6,5.2-1.8c-1.9,0.2-3.7,1.2-5.5,1.9
		c-0.1,0-0.1,0-0.2,0.1c-13.2,6.5-26.8,11.8-41.1,15.4c-9.1,2.3-18.2,4.6-27.6,6c-1.3,0.3-2.6,0.5-3.9,0.8c-5.2,1-10.4,1.9-15.6,2.5
		c-4.9,0.9-9.8,1.9-14.7,2.8c-1.2,0.7-2.5,1.1-3.8,1.4c-5.8,1.6-10.1,7-10.2,7c0,0,0,0,0,0c-0.6,0.8-1.2,1.5-1.8,2.3
		c-0.5,0.8-0.9,1.6-1.4,2.4c-1.3,3.3-1.9,6.7-2.8,10.1c-0.2,1.8-0.4,3.7-0.6,5.5c-0.2,2.8-0.3,5.6-0.5,8.4c0,3.5,0.1,7,0.1,10.5h0
		l0.5,2.9c0,0,0,0.1,0,0.1c-0.2,1.2,0.7,2.3,0.5,3.5c0.1,0.3,0.2,0.6,0.3,1c0.1,0.5,0.3,1,0.4,1.5c0.1,0.3,0.2,0.6,0.2,0.9
		c0.9,2.1,1.8,4.1,2.6,6.2c0.1,0.2,0.3,0.5,0.4,0.7c1,1.5,2,2.8,3.4,4c0.4,0.3,0.8,0.7,1.3,0.9c0.4,0.4,0.9,0.8,1.3,1.2
		c0.1,0,0.3,0.1,0.4,0.1C1496.5,173.8,1496,173.4,1495.5,172.9z"/>
	<path fill="#1D1D1B" d="M1504.1,127.9c0-0.2,0-0.3-0.1-0.5c-1.6-1.2-3-2.6-4.2-4.2c0,0-0.1,0-0.1,0c-0.2-0.1-0.5-0.3-0.7-0.4
		c-0.2-0.2-0.5-0.3-0.7-0.5h0c-1.3-0.5-1.9,0-1.9,1.4c0,0,0,0,0,0s0,0,0,0c-0.2,1.2-0.4,2.4-0.5,3.6c-0.3,1.9-0.8,26.2-0.8,27.7
		c0,0.8,0,1.7-0.5,2.3c0.2,0.4,0.3,0.9,0.4,1.4c0,0.3,0.1,0.6,0.2,0.9c0,0,0,0,0,0c0.1,0,0.1,0.1,0.1,0.1c0,0,0.1,0.1,0.2,0.1
		c0.1,0.1,0.3,0.1,0.4,0.2c2.5,0.1,4.8-0.6,7.1-1.3c0.1-0.4,0.4-0.8,0.7-1.2c-0.2-0.9-0.3-1.9-0.2-2.8c0-5.6,0.5-16.7,0.5-16.7
		c0,0,0-0.1,0-0.1c0-1.2,0-2.5,0-3.7c0-1.4,0-2.7,0.2-4.1c0-0.3,0-0.6,0.1-0.9c0-0.2,0-0.4,0-0.6
		C1504.2,128.4,1504.1,128.1,1504.1,127.9z"/>
	<path fill="#1D1D1B" d="M1491.4,146.3c0-4,0-8,0-11.9c-0.2-0.2-0.3-0.3-0.5-0.5c-0.3-0.3-0.6-0.6-0.9-0.9c-0.6,0-1.2-0.1-1.9,0.3
		c0.4,0.8,1.2,1.4,1,2.4c0.1,0.1,0.1,0.2,0.2,0.3c0.1,0.3,0.2,0.6,0.3,0.9c0.1,0.5,0,1,0,1.4c0,0,0,0.1,0,0.1c0,1.6,0.3,3.2,0.3,4.8
		c-0.1,3.8,0.1,7.7-0.7,11.4c0.2,0,0.3,0.1,0.5,0.1c1.3,0.2,1.7-0.8,1.8-2c0.1-2.1,0-4.3,0.1-6.4
		C1491.4,146.4,1491.4,146.3,1491.4,146.3z"/>
</g>
<path fill="#212121" d="M1401.9,56.3c1.4-0.1,2.6-0.5,4-0.8c2.6-0.7,3.9-1.4,5.2-3.2c0.9-1.2,1.6-1.9,3.1-0.8c1.6,1.2,4.3,1,5.9-0.2
	c0.3-0.2,0.7-0.5,1-0.7c0-0.1,0-0.2,0-0.3c0-1.8,0.4-3.6,0.6-5.4c0.2-1.2,0.4-4.6,0.6-5.2c-0.1-0.1-0.1-0.2,0,0
	c0.1-1.2,0.3-2.4,0.4-3.7l0-0.4c-0.2-0.1-6.2,0.8-6.5,0.8c-0.2,0-5.3,1.2-5.3,1.2c-0.6,0.1-7.1,2-7.8,2.3c-0.5,0.2-1.1,0.4-1.6,0.6
	c-0.1,0.5-0.2,1.1-0.3,1.6h0c-0.3,0.9-1,9-1.1,12.6C1400.2,55.5,1400.1,56.4,1401.9,56.3z"/>
</svg>
