<?xml version="1.0" encoding="utf-8"?>
<!-- Generator: Adobe Illustrator 25.2.0, SVG Export Plug-In . SVG Version: 6.00 Build 0)  -->
<svg version="1.2" baseProfile="tiny" id="Laag_1" xmlns="http://www.w3.org/2000/svg" xmlns:xlink="http://www.w3.org/1999/xlink"
	 x="0px" y="0px" viewBox="0 0 2600.3 199" overflow="visible" xml:space="preserve">
<rect x="0.7" y="-0.2" fill="#AD1E1E" width="2600" height="199"/>
<path fill="#455A64" d="M371.4-249.7h0.8v0.6h-0.8V-249.7z M371.4-247.3h0.8v0.6l-0.4,0.7h-0.4l0.3-0.7h-0.3V-247.3L371.4-247.3z"/>
<g transform="matrix(.2077 -.082044 .082044 .2077 65.86 451.72)">
	
		<rect x="6244.2" y="562.7" transform="matrix(-1 5.055821e-06 -5.055821e-06 -1 12572.5098 1175.7394)" fill="#F1F1F1" width="84.1" height="50.4"/>
	
		<rect x="6238.6" y="548.6" transform="matrix(-1 5.055821e-06 -5.055821e-06 -1 12572.5098 1111.2388)" fill="#C3C3C3" width="95.3" height="14"/>
	<path fill="#D34141" d="M6300.3,520.6c-7.7,0-14,6.3-14,14c0-7.7-6.3-14-14-14c-7.7,0-14,6.3-14,14s6.3,14,14,14h7v64.5h14v-64.5h7
		c7.7,0,14-6.3,14-14S6308,520.6,6300.3,520.6z M6277.9,540.2h-5.6c-3.1,0-5.6-2.5-5.6-5.6s2.5-5.6,5.6-5.6s5.6,2.5,5.6,5.6V540.2z
		 M6300.3,540.2h-5.6v-5.6c0-3.1,2.5-5.6,5.6-5.6s5.6,2.5,5.6,5.6S6303.4,540.2,6300.3,540.2z"/>
</g>
<g transform="matrix(.2257 .10963 -.10963 .2257 199.35 261)">
	<path fill="#E0DECD" d="M4333.2-2928.3v-0.2h-14.3c-30.9,0-21.4-26.1-42.8-26.1h-33.3c-21.4,0-11.9,26.1-42.8,26.1h-14.3v0.2
		c-6.8,1-11.9,7-11.9,14.1v85.6c0,7.8,6.5,14.3,14.3,14.3h142.8c7.8,0,14.3-6.5,14.3-14.3v-85.6
		C4345-2921.3,4339.9-2927.3,4333.2-2928.3L4333.2-2928.3z"/>
	
		<rect x="4235.7" y="-2957.1" transform="matrix(5.065266e-06 1 -1 5.065266e-06 1387.9906 -7130.8438)" fill="#3376D2" width="47.5" height="171.3"/>
	<circle fill="#D25133" cx="4328.4" cy="-2912" r="7.1"/>
	<path fill="#FFFFFF" d="M4273.7-2947.6h-28.5c-4.9,0-9.5,11.9-9.5,11.9c0,3.9,3.2,7.1,7.1,7.1h33.3c3.9,0,7.1-3.2,7.1-7.1
		C4283.2-2935.7,4278.7-2947.6,4273.7-2947.6z"/>
	<circle fill="#CAC8B7" cx="4259.5" cy="-2873.8" r="42.8"/>
	<circle fill="#A6A495" cx="4259.5" cy="-2873.8" r="30.9"/>
	<path fill="#A6A495" d="M4204.6-2935.7h-9.5c-3.9,0-7.1,3.2-7.1,7.1h23.8C4211.9-2932.5,4208.7-2935.7,4204.6-2935.7z"/>
</g>
<g transform="matrix(-.19539 0 0 .19539 457.04 318.51)">
	<path fill="#FFBA00" d="M-4809.3-1070.9l-66.7-66c-7.1-7.1-14.3-9.5-23.8-9.5l-60.1-0.2c-7.8,0-13.6,6.5-13.6,14.4v57
		c0,3.4,0,19,7.1,26.1l67.9,67.2c5.6,5.6,14.6,5.6,20.2,0l68.9-68.9C-4803.7-1056.3-4803.7-1065.3-4809.3-1070.9L-4809.3-1070.9z"/>
	<circle fill="#C38E00" cx="-4937.8" cy="-1110.8" r="16.6"/>
</g>
<g transform="matrix(.25769 0 0 .25769 164.57 347.25)">
	<polygon fill="#007D7E" points="5279.5,-806.4 5312.8,-846.3 5293.8,-857 	"/>
	<polygon fill="#4ED0D1" points="5336.5,-811.7 5372.2,-963.4 5293.8,-857 	"/>
	<polygon fill="#3AAAAB" points="5279.5,-806.4 5296.1,-854.3 5372.2,-963.4 5236.7,-873 	"/>
	<polygon fill="#4ED0D1" points="5236.7,-870.2 5372.2,-963.4 5181.9,-873 	"/>
</g>
<g transform="matrix(.21692 -.12246 .12246 .21692 246.39 320.14)">
	<path fill="#854D37" d="M5195.2,1827c-22.4,0-40.4,18.2-40.4,40.4s18.2,40.4,40.4,40.4h16.6V1827H5195.2z"/>
	
		<rect x="5207" y="1822.1" transform="matrix(-1 5.058876e-06 -5.058876e-06 -1 10442.4727 3734.5454)" fill="#C24C28" width="28.5" height="90.3"/>
	
		<ellipse transform="matrix(0.8708 -0.4916 0.4916 0.8708 -255.1895 2811.1692)" fill="#FFFFFF" cx="5221.3" cy="1891.1" rx="1.8" ry="1.8"/>
	<path fill="#F1CDB0" d="M5325.9,1836.5c0-7.1-4.8-9.5-9.5-9.5h-33.3c0,0,2.4-16.1,2.4-23.8c0-10.2,0-19-9.5-23.8
		c-9.5-4.8-11.9,2.4-11.9,7.1v16.6c0,0-1.2,23.8-16.6,23.8h-11.9v78.4h67.2c0,0,11.4-2.4,11.4-9.5c0-7.1-7.1-9.5-7.1-9.5
		s11.9-1.9,11.9-9.5s-4.8-9.5-4.8-9.5s9.5-4.8,9.5-11.9s-7.1-9.5-7.1-9.5S5325.9,1843.6,5325.9,1836.5z"/>
</g>
<g transform="matrix(.2984 0 0 .2984 223.33 332.76)">
	<path fill="#FFAD10" d="M4517.2-995.8h-10.7l-22.9-22.9c-1-1-2.9-1-3.9,0l-22.9,22.9h-48.9c-7.8,0-14.3,6.5-14.3,14.3v71.3
		c0,7.8,6.5,14.3,14.3,14.3h109.5c7.8,0,14.3-6.5,14.3-14.3v-71.3C4531.5-989.4,4525.2-995.8,4517.2-995.8L4517.2-995.8z"/>
	<path fill="#00A3C6" d="M4484-972.1h-109.5c-7.8,0-14.3,6.5-14.3,14.3v71.3c0,7.8,6.5,14.3,14.3,14.3h10.7l22.9,22.9
		c1,1,2.9,1,3.9,0l22.9-22.9h48.9c7.8,0,14.3-6.5,14.3-14.3v-71.3C4498.2-965.6,4491.8-972.1,4484-972.1L4484-972.1z"/>
	<path fill="#006A81" d="M4400.8-931.7c-5.3,0-9.5,4.2-9.5,9.5s4.2,9.5,9.5,9.5s9.5-4.2,9.5-9.5S4406-931.7,4400.8-931.7z
		 M4429.3-931.7c-5.3,0-9.5,4.2-9.5,9.5s4.2,9.5,9.5,9.5c5.3,0,9.5-4.2,9.5-9.5S4434.5-931.7,4429.3-931.7z M4457.8-931.7
		c-5.3,0-9.5,4.2-9.5,9.5s4.2,9.5,9.5,9.5c5.3,0,9.5-4.2,9.5-9.5S4463.1-931.7,4457.8-931.7z"/>
</g>
</svg>
